M48
;DRILL file {KiCad 4.0.7} date Tue Jul  3 11:33:28 2018
;FORMAT={-:-/ absolute / metric / decimal}
FMAT,2
METRIC,TZ
T1C0.400
%
G90
G05
M71
T1
X196.723Y-43.942
X202.3Y-43.7
X203.9Y-25.2
X206.95Y-45.9
X207.05Y-49.4
X209.5Y-33.75
X209.8Y-23.1
X210.4Y-41.45
X210.9Y-45.
X211.7Y-31.6
X214.6Y-26.
X215.6Y-39.9
X217.1Y-45.1
X222.25Y-38.625
X223.15Y-42.725
X225.425Y-31.877
X225.679Y-35.814
X226.06Y-29.972
X226.314Y-31.877
X226.441Y-35.814
X235.85Y-22.4
X236.6Y-25.1
X236.982Y-36.322
X237.6Y-38.6
X238.55Y-44.675
X239.9Y-26.4
X240.982Y-35.496
X242.625Y-38.65
X246.225Y-45.05
X248.2Y-31.3
X252.1Y-30.6
X256.7Y-32.3
X262.75Y-30.75
T0
M30
