G04 #@! TF.FileFunction,Copper,L2,Inr,Plane*
%FSLAX46Y46*%
G04 Gerber Fmt 4.6, Leading zero omitted, Abs format (unit mm)*
G04 Created by KiCad (PCBNEW 4.0.7) date Tue Jul  3 11:32:48 2018*
%MOMM*%
%LPD*%
G01*
G04 APERTURE LIST*
%ADD10C,0.100000*%
%ADD11R,2.000000X2.000000*%
%ADD12C,2.000000*%
%ADD13R,1.850000X1.850000*%
%ADD14C,1.850000*%
%ADD15C,1.450000*%
%ADD16O,1.900000X1.200000*%
%ADD17R,0.850000X0.850000*%
%ADD18C,2.400000*%
%ADD19C,1.200000*%
%ADD20C,3.200000*%
%ADD21C,3.100000*%
%ADD22C,0.320000*%
%ADD23C,0.600000*%
%ADD24C,0.250000*%
%ADD25C,0.254000*%
G04 APERTURE END LIST*
D10*
D11*
X198750000Y-62500000D03*
D12*
X198750000Y-67500000D03*
D13*
X250063000Y-22352000D03*
D14*
X247563000Y-22352000D03*
X245063000Y-22352000D03*
X242563000Y-22352000D03*
D15*
X264083300Y-34549200D03*
X264083300Y-29549200D03*
D16*
X266783300Y-35549200D03*
X266783300Y-28549200D03*
D17*
X264160000Y-39497000D03*
X264160000Y-44323000D03*
X232918000Y-43688000D03*
X264439400Y-47752000D03*
X226949000Y-52578000D03*
X219000000Y-65000000D03*
X247523000Y-52578000D03*
X237500000Y-65000000D03*
X264414000Y-52578000D03*
X257000000Y-65000000D03*
X235839000Y-43688000D03*
X251206000Y-28702000D03*
X251925000Y-38550000D03*
X251900000Y-40350000D03*
X209423000Y-56261000D03*
X204200000Y-71925000D03*
X251900000Y-36875000D03*
X221742000Y-35306000D03*
X259715000Y-26543000D03*
X250500000Y-62750000D03*
X252095000Y-43053000D03*
X240050000Y-41750000D03*
X241600000Y-41775000D03*
X243125000Y-41775000D03*
X204000000Y-49500000D03*
D18*
X187000000Y-51500000D03*
D19*
X190800000Y-46420000D03*
X190800000Y-56580000D03*
X180640000Y-56580000D03*
X180640000Y-46420000D03*
D18*
X187000000Y-66000000D03*
D19*
X190800000Y-60920000D03*
X190800000Y-71080000D03*
X180640000Y-71080000D03*
X180640000Y-60920000D03*
D11*
X209500000Y-62500000D03*
D12*
X209500000Y-67500000D03*
D20*
X260000000Y-77000000D03*
X250000000Y-77000000D03*
X255000000Y-77000000D03*
D21*
X228500000Y-58000000D03*
X247000000Y-58000000D03*
X265500000Y-58000000D03*
D22*
X219968000Y-52976000D03*
X220984000Y-52976000D03*
X222000000Y-52976000D03*
X219968000Y-54500000D03*
X220984000Y-54500000D03*
X222000000Y-54500000D03*
X222000000Y-56024000D03*
X220984000Y-56024000D03*
X219968000Y-56024000D03*
X220476000Y-55516000D03*
X221492000Y-55516000D03*
X221492000Y-53484000D03*
X220476000Y-53484000D03*
X238468000Y-52976000D03*
X239484000Y-52976000D03*
X240500000Y-52976000D03*
X238468000Y-54500000D03*
X239484000Y-54500000D03*
X240500000Y-54500000D03*
X240500000Y-56024000D03*
X239484000Y-56024000D03*
X238468000Y-56024000D03*
X238976000Y-55516000D03*
X239992000Y-55516000D03*
X239992000Y-53484000D03*
X238976000Y-53484000D03*
X256968000Y-52976000D03*
X257984000Y-52976000D03*
X259000000Y-52976000D03*
X256968000Y-54500000D03*
X257984000Y-54500000D03*
X259000000Y-54500000D03*
X259000000Y-56024000D03*
X257984000Y-56024000D03*
X256968000Y-56024000D03*
X257476000Y-55516000D03*
X258492000Y-55516000D03*
X258492000Y-53484000D03*
X257476000Y-53484000D03*
X224032000Y-63024000D03*
X223016000Y-63024000D03*
X222000000Y-63024000D03*
X224032000Y-61500000D03*
X223016000Y-61500000D03*
X222000000Y-61500000D03*
X222000000Y-59976000D03*
X223016000Y-59976000D03*
X224032000Y-59976000D03*
X223524000Y-60484000D03*
X222508000Y-60484000D03*
X222508000Y-62516000D03*
X223524000Y-62516000D03*
X242532000Y-63024000D03*
X241516000Y-63024000D03*
X240500000Y-63024000D03*
X242532000Y-61500000D03*
X241516000Y-61500000D03*
X240500000Y-61500000D03*
X240500000Y-59976000D03*
X241516000Y-59976000D03*
X242532000Y-59976000D03*
X242024000Y-60484000D03*
X241008000Y-60484000D03*
X241008000Y-62516000D03*
X242024000Y-62516000D03*
X261032000Y-63024000D03*
X260016000Y-63024000D03*
X259000000Y-63024000D03*
X261032000Y-61500000D03*
X260016000Y-61500000D03*
X259000000Y-61500000D03*
X259000000Y-59976000D03*
X260016000Y-59976000D03*
X261032000Y-59976000D03*
X260524000Y-60484000D03*
X259508000Y-60484000D03*
X259508000Y-62516000D03*
X260524000Y-62516000D03*
D17*
X224599500Y-50038000D03*
D23*
X236982000Y-36322000D03*
X196723000Y-43942000D03*
X209500000Y-33750000D03*
X203900000Y-25200000D03*
X222250000Y-38625000D03*
X262750000Y-30750000D03*
X223150000Y-42725000D03*
X207050000Y-49400000D03*
X206950000Y-45900000D03*
X202300000Y-43700000D03*
X210400000Y-41450000D03*
X236600000Y-25100000D03*
X235850000Y-22400000D03*
X242625000Y-38650000D03*
X246225000Y-45050000D03*
X238550000Y-44675000D03*
X237600000Y-38600000D03*
X217100000Y-45100000D03*
X215600000Y-39900000D03*
X210900000Y-45000000D03*
X209800000Y-23100000D03*
X211700000Y-31600000D03*
X214600000Y-26000000D03*
X239900000Y-26400000D03*
X248200000Y-31300000D03*
X252100000Y-30600000D03*
X256700000Y-32300000D03*
X225679000Y-35814000D03*
X226441000Y-35814000D03*
X226060000Y-29972000D03*
X226314000Y-31877000D03*
X225425000Y-31877000D03*
X209425000Y-44975000D03*
X241050000Y-38425000D03*
X202628500Y-38671500D03*
X211100000Y-43920000D03*
X214360000Y-46540000D03*
X256750000Y-42750000D03*
X260750000Y-36750000D03*
X212250000Y-34750000D03*
X197400000Y-31900000D03*
X206600000Y-28100000D03*
X230600000Y-24500000D03*
X230600000Y-20300000D03*
X239000000Y-41000000D03*
X249400000Y-29300000D03*
X236600000Y-28500000D03*
X204100000Y-47000000D03*
X210300000Y-24200000D03*
X233400000Y-39800000D03*
X247400000Y-42300000D03*
X216200000Y-31300000D03*
X220700000Y-24100000D03*
X203700000Y-41000000D03*
X209600000Y-38000000D03*
X213250000Y-47000000D03*
X245491000Y-55880000D03*
X239268000Y-60579000D03*
X261937500Y-51562000D03*
X240575000Y-30450000D03*
X230800000Y-47100000D03*
X241427000Y-45847000D03*
X247650000Y-46101000D03*
X219500000Y-22650000D03*
X242250000Y-26550000D03*
X255675000Y-34350000D03*
X254600000Y-34925000D03*
X254600000Y-36200000D03*
X248675000Y-38600000D03*
X243100000Y-37775000D03*
X248600000Y-40150000D03*
X239550000Y-38525000D03*
X234025000Y-45450000D03*
X234050000Y-48125000D03*
X236850000Y-45400000D03*
X243459000Y-47371000D03*
X259588000Y-47498000D03*
X241363500Y-29845000D03*
X207400000Y-27400000D03*
X252750000Y-57500000D03*
X240550000Y-27150000D03*
X225400000Y-27550000D03*
X214500000Y-29200000D03*
X205100000Y-33800000D03*
X261350500Y-32350000D03*
X262700500Y-33850000D03*
X263750000Y-67500000D03*
X235394500Y-52362100D03*
X264731500Y-50038000D03*
X238506000Y-50927000D03*
X236220000Y-52324000D03*
X234315000Y-52324000D03*
X208153000Y-50038000D03*
X203835000Y-55880000D03*
X206248000Y-55880000D03*
X205105000Y-55880000D03*
X251210000Y-48550000D03*
X251990000Y-48540000D03*
X252820000Y-48530000D03*
X240750000Y-71750000D03*
X219600000Y-45800000D03*
X218800000Y-44400000D03*
X245999000Y-75692000D03*
X210750000Y-37500000D03*
X247750000Y-71500000D03*
X203100000Y-34500000D03*
X207700000Y-34000000D03*
X240982500Y-35496500D03*
X245668800Y-34899600D03*
X237566200Y-34366200D03*
X238785400Y-34036000D03*
D24*
X245237000Y-55880000D02*
X245491000Y-55880000D01*
X242951000Y-58166000D02*
X245237000Y-55880000D01*
X239649000Y-58166000D02*
X242951000Y-58166000D01*
X239268000Y-58547000D02*
X239649000Y-58166000D01*
X239268000Y-60579000D02*
X239268000Y-58547000D01*
X257492500Y-64507500D02*
X257000000Y-65000000D01*
X257492500Y-58864500D02*
X257492500Y-64507500D01*
X257810000Y-58547000D02*
X257492500Y-58864500D01*
X258445000Y-58547000D02*
X257810000Y-58547000D01*
X260604000Y-56388000D02*
X258445000Y-58547000D01*
X260604000Y-52895500D02*
X260604000Y-56388000D01*
X261937500Y-51562000D02*
X260604000Y-52895500D01*
X243100000Y-37775000D02*
X243925000Y-38600000D01*
X243925000Y-38600000D02*
X248675000Y-38600000D01*
X246100000Y-40150000D02*
X248600000Y-40150000D01*
X245625000Y-39675000D02*
X246100000Y-40150000D01*
X240700000Y-39675000D02*
X245625000Y-39675000D01*
X239550000Y-38525000D02*
X240700000Y-39675000D01*
X234025000Y-45450000D02*
X234025000Y-45475000D01*
X234025000Y-45475000D02*
X234050000Y-45500000D01*
X234050000Y-45500000D02*
X234050000Y-48125000D01*
X238125000Y-47371000D02*
X237528100Y-47371000D01*
X237528100Y-47371000D02*
X236850000Y-46692900D01*
X236850000Y-45400000D02*
X236850000Y-45425000D01*
X236850000Y-45425000D02*
X236850000Y-46692900D01*
X238125000Y-47371000D02*
X243459000Y-47371000D01*
X263750000Y-65750000D02*
X262250000Y-64250000D01*
X263750000Y-67500000D02*
X263750000Y-65750000D01*
X247750000Y-73914000D02*
X247750000Y-73941000D01*
X247750000Y-73941000D02*
X245999000Y-75692000D01*
X247750000Y-71500000D02*
X247750000Y-73914000D01*
D25*
G36*
X219873000Y-49000000D02*
X219883006Y-49049410D01*
X219911447Y-49091035D01*
X219953841Y-49118315D01*
X220000000Y-49127000D01*
X223757108Y-49127000D01*
X223723059Y-49148910D01*
X223578069Y-49361110D01*
X223527060Y-49613000D01*
X223527060Y-50463000D01*
X223571338Y-50698317D01*
X223710410Y-50914441D01*
X223922610Y-51059431D01*
X224174500Y-51110440D01*
X225024500Y-51110440D01*
X225259817Y-51066162D01*
X225475941Y-50927090D01*
X225620931Y-50714890D01*
X225671940Y-50463000D01*
X225671940Y-49613000D01*
X225627662Y-49377683D01*
X225488590Y-49161559D01*
X225438011Y-49127000D01*
X250500000Y-49127000D01*
X250549410Y-49116994D01*
X250591035Y-49088553D01*
X250618315Y-49046159D01*
X250627000Y-49000000D01*
X250627000Y-48127000D01*
X253623000Y-48127000D01*
X253623000Y-49000000D01*
X253633006Y-49049410D01*
X253661447Y-49091035D01*
X253703841Y-49118315D01*
X253750000Y-49127000D01*
X264873000Y-49127000D01*
X264873000Y-51512445D01*
X264839000Y-51505560D01*
X263989000Y-51505560D01*
X263753683Y-51549838D01*
X263537559Y-51688910D01*
X263392569Y-51901110D01*
X263341560Y-52153000D01*
X263341560Y-53003000D01*
X263385838Y-53238317D01*
X263524910Y-53454441D01*
X263737110Y-53599431D01*
X263989000Y-53650440D01*
X264839000Y-53650440D01*
X264873000Y-53644042D01*
X264873000Y-55894897D01*
X264263914Y-56146567D01*
X263648727Y-56760681D01*
X263315380Y-57563470D01*
X263314621Y-58432717D01*
X263646567Y-59236086D01*
X264260681Y-59851273D01*
X264873000Y-60105530D01*
X264873000Y-62947394D01*
X261447394Y-66373000D01*
X258052606Y-66373000D01*
X257689189Y-66009583D01*
X257876441Y-65889090D01*
X258021431Y-65676890D01*
X258072440Y-65425000D01*
X258072440Y-64981237D01*
X258194648Y-64798340D01*
X258252500Y-64507500D01*
X258252500Y-63296734D01*
X258325639Y-63473743D01*
X258549081Y-63697575D01*
X258841171Y-63818862D01*
X259157442Y-63819138D01*
X259449743Y-63698361D01*
X259507906Y-63640300D01*
X259565081Y-63697575D01*
X259857171Y-63818862D01*
X260173442Y-63819138D01*
X260465743Y-63698361D01*
X260523906Y-63640300D01*
X260581081Y-63697575D01*
X260873171Y-63818862D01*
X261189442Y-63819138D01*
X261481743Y-63698361D01*
X261705575Y-63474919D01*
X261826862Y-63182829D01*
X261827138Y-62866558D01*
X261706361Y-62574257D01*
X261482919Y-62350425D01*
X261281161Y-62266647D01*
X261277841Y-62258612D01*
X261481743Y-62174361D01*
X261705575Y-61950919D01*
X261826862Y-61658829D01*
X261827138Y-61342558D01*
X261706361Y-61050257D01*
X261482919Y-60826425D01*
X261277965Y-60741320D01*
X261281353Y-60733161D01*
X261481743Y-60650361D01*
X261705575Y-60426919D01*
X261826862Y-60134829D01*
X261827138Y-59818558D01*
X261706361Y-59526257D01*
X261482919Y-59302425D01*
X261190829Y-59181138D01*
X260874558Y-59180862D01*
X260582257Y-59301639D01*
X260524094Y-59359700D01*
X260466919Y-59302425D01*
X260174829Y-59181138D01*
X259858558Y-59180862D01*
X259566257Y-59301639D01*
X259508094Y-59359700D01*
X259450919Y-59302425D01*
X259158829Y-59181138D01*
X258842558Y-59180862D01*
X258830710Y-59185758D01*
X258982401Y-59084401D01*
X261141401Y-56925401D01*
X261306148Y-56678839D01*
X261364000Y-56388000D01*
X261364000Y-53210302D01*
X262077180Y-52497122D01*
X262122667Y-52497162D01*
X262466443Y-52355117D01*
X262729692Y-52092327D01*
X262872338Y-51748799D01*
X262872662Y-51376833D01*
X262730617Y-51033057D01*
X262467827Y-50769808D01*
X262124299Y-50627162D01*
X261752333Y-50626838D01*
X261408557Y-50768883D01*
X261145308Y-51031673D01*
X261002662Y-51375201D01*
X261002621Y-51422077D01*
X260066599Y-52358099D01*
X259901852Y-52604661D01*
X259844000Y-52895500D01*
X259844000Y-56073198D01*
X259794915Y-56122283D01*
X259795138Y-55866558D01*
X259674361Y-55574257D01*
X259450919Y-55350425D01*
X259249161Y-55266647D01*
X259245841Y-55258612D01*
X259449743Y-55174361D01*
X259673575Y-54950919D01*
X259794862Y-54658829D01*
X259795138Y-54342558D01*
X259674361Y-54050257D01*
X259450919Y-53826425D01*
X259245965Y-53741320D01*
X259249353Y-53733161D01*
X259449743Y-53650361D01*
X259673575Y-53426919D01*
X259794862Y-53134829D01*
X259795138Y-52818558D01*
X259674361Y-52526257D01*
X259450919Y-52302425D01*
X259158829Y-52181138D01*
X258842558Y-52180862D01*
X258550257Y-52301639D01*
X258492094Y-52359700D01*
X258434919Y-52302425D01*
X258142829Y-52181138D01*
X257826558Y-52180862D01*
X257534257Y-52301639D01*
X257476094Y-52359700D01*
X257418919Y-52302425D01*
X257126829Y-52181138D01*
X256810558Y-52180862D01*
X256518257Y-52301639D01*
X256294425Y-52525081D01*
X256173138Y-52817171D01*
X256172862Y-53133442D01*
X256293639Y-53425743D01*
X256517081Y-53649575D01*
X256718839Y-53733353D01*
X256722159Y-53741388D01*
X256518257Y-53825639D01*
X256294425Y-54049081D01*
X256173138Y-54341171D01*
X256172862Y-54657442D01*
X256293639Y-54949743D01*
X256517081Y-55173575D01*
X256722035Y-55258680D01*
X256718647Y-55266839D01*
X256518257Y-55349639D01*
X256294425Y-55573081D01*
X256173138Y-55865171D01*
X256172862Y-56181442D01*
X256293639Y-56473743D01*
X256517081Y-56697575D01*
X256809171Y-56818862D01*
X257125442Y-56819138D01*
X257417743Y-56698361D01*
X257475906Y-56640300D01*
X257533081Y-56697575D01*
X257825171Y-56818862D01*
X258141442Y-56819138D01*
X258433743Y-56698361D01*
X258491906Y-56640300D01*
X258549081Y-56697575D01*
X258841171Y-56818862D01*
X259098112Y-56819086D01*
X258130198Y-57787000D01*
X257810000Y-57787000D01*
X257519161Y-57844852D01*
X257272599Y-58009599D01*
X256955099Y-58327099D01*
X256790352Y-58573661D01*
X256732500Y-58864500D01*
X256732500Y-62552894D01*
X256589803Y-62410197D01*
X256547789Y-62382334D01*
X256500000Y-62373000D01*
X254500000Y-62373000D01*
X254450590Y-62383006D01*
X254408965Y-62411447D01*
X254381685Y-62453841D01*
X254373000Y-62500000D01*
X254373000Y-67873000D01*
X253500000Y-67873000D01*
X253450590Y-67883006D01*
X253408965Y-67911447D01*
X253381685Y-67953841D01*
X253373000Y-68000000D01*
X253373000Y-70000000D01*
X253383006Y-70049410D01*
X253410197Y-70089803D01*
X253910197Y-70589803D01*
X253952211Y-70617666D01*
X254000000Y-70627000D01*
X265421510Y-70627000D01*
X266373000Y-72529980D01*
X266373000Y-76447394D01*
X265447394Y-77373000D01*
X262234675Y-77373000D01*
X262235387Y-76557381D01*
X261895845Y-75735628D01*
X261267679Y-75106364D01*
X260446519Y-74765389D01*
X259557381Y-74764613D01*
X258735628Y-75104155D01*
X258106364Y-75732321D01*
X257765389Y-76553481D01*
X257764674Y-77373000D01*
X257234675Y-77373000D01*
X257235387Y-76557381D01*
X256895845Y-75735628D01*
X256267679Y-75106364D01*
X255446519Y-74765389D01*
X254557381Y-74764613D01*
X253735628Y-75104155D01*
X253106364Y-75732321D01*
X252765389Y-76553481D01*
X252764674Y-77373000D01*
X252234675Y-77373000D01*
X252235387Y-76557381D01*
X251895845Y-75735628D01*
X251267679Y-75106364D01*
X250446519Y-74765389D01*
X249557381Y-74764613D01*
X248735628Y-75104155D01*
X248106364Y-75732321D01*
X247765389Y-76553481D01*
X247764674Y-77373000D01*
X200234675Y-77373000D01*
X200235387Y-76557381D01*
X199954328Y-75877167D01*
X245063838Y-75877167D01*
X245205883Y-76220943D01*
X245468673Y-76484192D01*
X245812201Y-76626838D01*
X246184167Y-76627162D01*
X246527943Y-76485117D01*
X246791192Y-76222327D01*
X246933838Y-75878799D01*
X246933879Y-75831923D01*
X248287401Y-74478401D01*
X248452148Y-74231839D01*
X248510000Y-73941000D01*
X248510000Y-72062463D01*
X248542192Y-72030327D01*
X248684838Y-71686799D01*
X248685162Y-71314833D01*
X248543117Y-70971057D01*
X248280327Y-70707808D01*
X247936799Y-70565162D01*
X247564833Y-70564838D01*
X247221057Y-70706883D01*
X246957808Y-70969673D01*
X246815162Y-71313201D01*
X246814838Y-71685167D01*
X246956883Y-72028943D01*
X246990000Y-72062118D01*
X246990000Y-73626198D01*
X245859320Y-74756878D01*
X245813833Y-74756838D01*
X245470057Y-74898883D01*
X245206808Y-75161673D01*
X245064162Y-75505201D01*
X245063838Y-75877167D01*
X199954328Y-75877167D01*
X199895845Y-75735628D01*
X199267679Y-75106364D01*
X198446519Y-74765389D01*
X197557381Y-74764613D01*
X196735628Y-75104155D01*
X196106364Y-75732321D01*
X196049315Y-75869709D01*
X194589803Y-74410197D01*
X194547789Y-74382334D01*
X194500000Y-74373000D01*
X185127000Y-74373000D01*
X185127000Y-71324579D01*
X189564786Y-71324579D01*
X189752408Y-71778657D01*
X190099515Y-72126371D01*
X190553266Y-72314785D01*
X191044579Y-72315214D01*
X191498657Y-72127592D01*
X191846371Y-71780485D01*
X191962838Y-71500000D01*
X203127560Y-71500000D01*
X203127560Y-72350000D01*
X203171838Y-72585317D01*
X203310910Y-72801441D01*
X203523110Y-72946431D01*
X203775000Y-72997440D01*
X204625000Y-72997440D01*
X204860317Y-72953162D01*
X205076441Y-72814090D01*
X205221431Y-72601890D01*
X205272440Y-72350000D01*
X205272440Y-71500000D01*
X205228162Y-71264683D01*
X205089090Y-71048559D01*
X204876890Y-70903569D01*
X204625000Y-70852560D01*
X203775000Y-70852560D01*
X203539683Y-70896838D01*
X203323559Y-71035910D01*
X203178569Y-71248110D01*
X203127560Y-71500000D01*
X191962838Y-71500000D01*
X192034785Y-71326734D01*
X192035214Y-70835421D01*
X191847592Y-70381343D01*
X191500485Y-70033629D01*
X191046734Y-69845215D01*
X190555421Y-69844786D01*
X190101343Y-70032408D01*
X189753629Y-70379515D01*
X189565215Y-70833266D01*
X189564786Y-71324579D01*
X185127000Y-71324579D01*
X185127000Y-66363403D01*
X185164682Y-66363403D01*
X185443455Y-67038086D01*
X185959199Y-67554730D01*
X186633395Y-67834681D01*
X187363403Y-67835318D01*
X187391290Y-67823795D01*
X197114716Y-67823795D01*
X197363106Y-68424943D01*
X197822637Y-68885278D01*
X198423352Y-69134716D01*
X199073795Y-69135284D01*
X199674943Y-68886894D01*
X200135278Y-68427363D01*
X200384716Y-67826648D01*
X200384718Y-67823795D01*
X207864716Y-67823795D01*
X208113106Y-68424943D01*
X208572637Y-68885278D01*
X209173352Y-69134716D01*
X209823795Y-69135284D01*
X210424943Y-68886894D01*
X210885278Y-68427363D01*
X211134716Y-67826648D01*
X211135284Y-67176205D01*
X210886894Y-66575057D01*
X210427363Y-66114722D01*
X209826648Y-65865284D01*
X209176205Y-65864716D01*
X208575057Y-66113106D01*
X208114722Y-66572637D01*
X207865284Y-67173352D01*
X207864716Y-67823795D01*
X200384718Y-67823795D01*
X200385284Y-67176205D01*
X200136894Y-66575057D01*
X199677363Y-66114722D01*
X199076648Y-65865284D01*
X198426205Y-65864716D01*
X197825057Y-66113106D01*
X197364722Y-66572637D01*
X197115284Y-67173352D01*
X197114716Y-67823795D01*
X187391290Y-67823795D01*
X188038086Y-67556545D01*
X188554730Y-67040801D01*
X188834681Y-66366605D01*
X188835318Y-65636597D01*
X188556545Y-64961914D01*
X188170306Y-64575000D01*
X217927560Y-64575000D01*
X217927560Y-65425000D01*
X217971838Y-65660317D01*
X218110910Y-65876441D01*
X218323110Y-66021431D01*
X218575000Y-66072440D01*
X219425000Y-66072440D01*
X219660317Y-66028162D01*
X219876441Y-65889090D01*
X220021431Y-65676890D01*
X220072440Y-65425000D01*
X220072440Y-64575000D01*
X236427560Y-64575000D01*
X236427560Y-65425000D01*
X236471838Y-65660317D01*
X236610910Y-65876441D01*
X236823110Y-66021431D01*
X237075000Y-66072440D01*
X237925000Y-66072440D01*
X238160317Y-66028162D01*
X238376441Y-65889090D01*
X238521431Y-65676890D01*
X238572440Y-65425000D01*
X238572440Y-64575000D01*
X238528162Y-64339683D01*
X238389090Y-64123559D01*
X238176890Y-63978569D01*
X237925000Y-63927560D01*
X237075000Y-63927560D01*
X236839683Y-63971838D01*
X236623559Y-64110910D01*
X236478569Y-64323110D01*
X236427560Y-64575000D01*
X220072440Y-64575000D01*
X220028162Y-64339683D01*
X219889090Y-64123559D01*
X219676890Y-63978569D01*
X219425000Y-63927560D01*
X218575000Y-63927560D01*
X218339683Y-63971838D01*
X218123559Y-64110910D01*
X217978569Y-64323110D01*
X217927560Y-64575000D01*
X188170306Y-64575000D01*
X188040801Y-64445270D01*
X187366605Y-64165319D01*
X186636597Y-64164682D01*
X185961914Y-64443455D01*
X185445270Y-64959199D01*
X185165319Y-65633395D01*
X185164682Y-66363403D01*
X185127000Y-66363403D01*
X185127000Y-61164579D01*
X189564786Y-61164579D01*
X189752408Y-61618657D01*
X190099515Y-61966371D01*
X190553266Y-62154785D01*
X191044579Y-62155214D01*
X191498657Y-61967592D01*
X191846371Y-61620485D01*
X192034785Y-61166734D01*
X192035214Y-60675421D01*
X191847592Y-60221343D01*
X191759845Y-60133442D01*
X221204862Y-60133442D01*
X221325639Y-60425743D01*
X221549081Y-60649575D01*
X221750839Y-60733353D01*
X221754159Y-60741388D01*
X221550257Y-60825639D01*
X221326425Y-61049081D01*
X221205138Y-61341171D01*
X221204862Y-61657442D01*
X221325639Y-61949743D01*
X221549081Y-62173575D01*
X221754035Y-62258680D01*
X221750647Y-62266839D01*
X221550257Y-62349639D01*
X221326425Y-62573081D01*
X221205138Y-62865171D01*
X221204862Y-63181442D01*
X221325639Y-63473743D01*
X221549081Y-63697575D01*
X221841171Y-63818862D01*
X222157442Y-63819138D01*
X222449743Y-63698361D01*
X222507906Y-63640300D01*
X222565081Y-63697575D01*
X222857171Y-63818862D01*
X223173442Y-63819138D01*
X223465743Y-63698361D01*
X223523906Y-63640300D01*
X223581081Y-63697575D01*
X223873171Y-63818862D01*
X224189442Y-63819138D01*
X224481743Y-63698361D01*
X224705575Y-63474919D01*
X224826862Y-63182829D01*
X224827138Y-62866558D01*
X224706361Y-62574257D01*
X224482919Y-62350425D01*
X224281161Y-62266647D01*
X224277841Y-62258612D01*
X224481743Y-62174361D01*
X224705575Y-61950919D01*
X224826862Y-61658829D01*
X224827138Y-61342558D01*
X224706361Y-61050257D01*
X224482919Y-60826425D01*
X224332987Y-60764167D01*
X238332838Y-60764167D01*
X238474883Y-61107943D01*
X238737673Y-61371192D01*
X239081201Y-61513838D01*
X239453167Y-61514162D01*
X239705078Y-61410075D01*
X239704862Y-61657442D01*
X239825639Y-61949743D01*
X240049081Y-62173575D01*
X240254035Y-62258680D01*
X240250647Y-62266839D01*
X240050257Y-62349639D01*
X239826425Y-62573081D01*
X239705138Y-62865171D01*
X239704862Y-63181442D01*
X239825639Y-63473743D01*
X240049081Y-63697575D01*
X240341171Y-63818862D01*
X240657442Y-63819138D01*
X240949743Y-63698361D01*
X241007906Y-63640300D01*
X241065081Y-63697575D01*
X241357171Y-63818862D01*
X241673442Y-63819138D01*
X241965743Y-63698361D01*
X242023906Y-63640300D01*
X242081081Y-63697575D01*
X242373171Y-63818862D01*
X242689442Y-63819138D01*
X242981743Y-63698361D01*
X243205575Y-63474919D01*
X243326862Y-63182829D01*
X243327138Y-62866558D01*
X243206361Y-62574257D01*
X242982919Y-62350425D01*
X242921690Y-62325000D01*
X249427560Y-62325000D01*
X249427560Y-63175000D01*
X249471838Y-63410317D01*
X249610910Y-63626441D01*
X249823110Y-63771431D01*
X250075000Y-63822440D01*
X250925000Y-63822440D01*
X251160317Y-63778162D01*
X251376441Y-63639090D01*
X251521431Y-63426890D01*
X251572440Y-63175000D01*
X251572440Y-62325000D01*
X251528162Y-62089683D01*
X251389090Y-61873559D01*
X251176890Y-61728569D01*
X250925000Y-61677560D01*
X250075000Y-61677560D01*
X249839683Y-61721838D01*
X249623559Y-61860910D01*
X249478569Y-62073110D01*
X249427560Y-62325000D01*
X242921690Y-62325000D01*
X242781161Y-62266647D01*
X242777841Y-62258612D01*
X242981743Y-62174361D01*
X243205575Y-61950919D01*
X243326862Y-61658829D01*
X243327138Y-61342558D01*
X243206361Y-61050257D01*
X242982919Y-60826425D01*
X242777965Y-60741320D01*
X242781353Y-60733161D01*
X242981743Y-60650361D01*
X243205575Y-60426919D01*
X243326862Y-60134829D01*
X243327138Y-59818558D01*
X243206361Y-59526257D01*
X242982919Y-59302425D01*
X242690829Y-59181138D01*
X242374558Y-59180862D01*
X242082257Y-59301639D01*
X242024094Y-59359700D01*
X241966919Y-59302425D01*
X241674829Y-59181138D01*
X241358558Y-59180862D01*
X241066257Y-59301639D01*
X241008094Y-59359700D01*
X240950919Y-59302425D01*
X240658829Y-59181138D01*
X240342558Y-59180862D01*
X240050257Y-59301639D01*
X240028000Y-59323857D01*
X240028000Y-58926000D01*
X242951000Y-58926000D01*
X243241839Y-58868148D01*
X243488401Y-58703401D01*
X244948201Y-57243601D01*
X244815380Y-57563470D01*
X244814621Y-58432717D01*
X245146567Y-59236086D01*
X245760681Y-59851273D01*
X246563470Y-60184620D01*
X247432717Y-60185379D01*
X248236086Y-59853433D01*
X248851273Y-59239319D01*
X249184620Y-58436530D01*
X249185276Y-57685167D01*
X251814838Y-57685167D01*
X251956883Y-58028943D01*
X252219673Y-58292192D01*
X252563201Y-58434838D01*
X252935167Y-58435162D01*
X253278943Y-58293117D01*
X253542192Y-58030327D01*
X253684838Y-57686799D01*
X253685162Y-57314833D01*
X253543117Y-56971057D01*
X253280327Y-56707808D01*
X252936799Y-56565162D01*
X252564833Y-56564838D01*
X252221057Y-56706883D01*
X251957808Y-56969673D01*
X251815162Y-57313201D01*
X251814838Y-57685167D01*
X249185276Y-57685167D01*
X249185379Y-57567283D01*
X248853433Y-56763914D01*
X248239319Y-56148727D01*
X247436530Y-55815380D01*
X246567283Y-55814621D01*
X246426007Y-55872995D01*
X246426162Y-55694833D01*
X246284117Y-55351057D01*
X246021327Y-55087808D01*
X245677799Y-54945162D01*
X245305833Y-54944838D01*
X244962057Y-55086883D01*
X244718638Y-55329877D01*
X244699599Y-55342599D01*
X242636198Y-57406000D01*
X239649000Y-57406000D01*
X239358160Y-57463852D01*
X239111599Y-57628599D01*
X238730599Y-58009599D01*
X238565852Y-58256161D01*
X238508000Y-58547000D01*
X238508000Y-60016537D01*
X238475808Y-60048673D01*
X238333162Y-60392201D01*
X238332838Y-60764167D01*
X224332987Y-60764167D01*
X224277965Y-60741320D01*
X224281353Y-60733161D01*
X224481743Y-60650361D01*
X224705575Y-60426919D01*
X224826862Y-60134829D01*
X224827138Y-59818558D01*
X224706361Y-59526257D01*
X224482919Y-59302425D01*
X224190829Y-59181138D01*
X223874558Y-59180862D01*
X223582257Y-59301639D01*
X223524094Y-59359700D01*
X223466919Y-59302425D01*
X223174829Y-59181138D01*
X222858558Y-59180862D01*
X222566257Y-59301639D01*
X222508094Y-59359700D01*
X222450919Y-59302425D01*
X222158829Y-59181138D01*
X221842558Y-59180862D01*
X221550257Y-59301639D01*
X221326425Y-59525081D01*
X221205138Y-59817171D01*
X221204862Y-60133442D01*
X191759845Y-60133442D01*
X191500485Y-59873629D01*
X191046734Y-59685215D01*
X190555421Y-59684786D01*
X190101343Y-59872408D01*
X189753629Y-60219515D01*
X189565215Y-60673266D01*
X189564786Y-61164579D01*
X185127000Y-61164579D01*
X185127000Y-58432717D01*
X226314621Y-58432717D01*
X226646567Y-59236086D01*
X227260681Y-59851273D01*
X228063470Y-60184620D01*
X228932717Y-60185379D01*
X229736086Y-59853433D01*
X230351273Y-59239319D01*
X230684620Y-58436530D01*
X230685379Y-57567283D01*
X230353433Y-56763914D01*
X229739319Y-56148727D01*
X228936530Y-55815380D01*
X228067283Y-55814621D01*
X227263914Y-56146567D01*
X226648727Y-56760681D01*
X226315380Y-57563470D01*
X226314621Y-58432717D01*
X185127000Y-58432717D01*
X185127000Y-56824579D01*
X189564786Y-56824579D01*
X189752408Y-57278657D01*
X190099515Y-57626371D01*
X190553266Y-57814785D01*
X191044579Y-57815214D01*
X191498657Y-57627592D01*
X191846371Y-57280485D01*
X192034785Y-56826734D01*
X192035214Y-56335421D01*
X191847592Y-55881343D01*
X191500485Y-55533629D01*
X191046734Y-55345215D01*
X190555421Y-55344786D01*
X190101343Y-55532408D01*
X189753629Y-55879515D01*
X189565215Y-56333266D01*
X189564786Y-56824579D01*
X185127000Y-56824579D01*
X185127000Y-53133442D01*
X219172862Y-53133442D01*
X219293639Y-53425743D01*
X219517081Y-53649575D01*
X219718839Y-53733353D01*
X219722159Y-53741388D01*
X219518257Y-53825639D01*
X219294425Y-54049081D01*
X219173138Y-54341171D01*
X219172862Y-54657442D01*
X219293639Y-54949743D01*
X219517081Y-55173575D01*
X219722035Y-55258680D01*
X219718647Y-55266839D01*
X219518257Y-55349639D01*
X219294425Y-55573081D01*
X219173138Y-55865171D01*
X219172862Y-56181442D01*
X219293639Y-56473743D01*
X219517081Y-56697575D01*
X219809171Y-56818862D01*
X220125442Y-56819138D01*
X220417743Y-56698361D01*
X220475906Y-56640300D01*
X220533081Y-56697575D01*
X220825171Y-56818862D01*
X221141442Y-56819138D01*
X221433743Y-56698361D01*
X221491906Y-56640300D01*
X221549081Y-56697575D01*
X221841171Y-56818862D01*
X222157442Y-56819138D01*
X222449743Y-56698361D01*
X222673575Y-56474919D01*
X222794862Y-56182829D01*
X222795138Y-55866558D01*
X222674361Y-55574257D01*
X222450919Y-55350425D01*
X222249161Y-55266647D01*
X222245841Y-55258612D01*
X222449743Y-55174361D01*
X222673575Y-54950919D01*
X222794862Y-54658829D01*
X222795138Y-54342558D01*
X222674361Y-54050257D01*
X222450919Y-53826425D01*
X222245965Y-53741320D01*
X222249353Y-53733161D01*
X222449743Y-53650361D01*
X222673575Y-53426919D01*
X222794862Y-53134829D01*
X222795138Y-52818558D01*
X222674361Y-52526257D01*
X222450919Y-52302425D01*
X222158829Y-52181138D01*
X221842558Y-52180862D01*
X221550257Y-52301639D01*
X221492094Y-52359700D01*
X221434919Y-52302425D01*
X221142829Y-52181138D01*
X220826558Y-52180862D01*
X220534257Y-52301639D01*
X220476094Y-52359700D01*
X220418919Y-52302425D01*
X220126829Y-52181138D01*
X219810558Y-52180862D01*
X219518257Y-52301639D01*
X219294425Y-52525081D01*
X219173138Y-52817171D01*
X219172862Y-53133442D01*
X185127000Y-53133442D01*
X185127000Y-52153000D01*
X225876560Y-52153000D01*
X225876560Y-53003000D01*
X225920838Y-53238317D01*
X226059910Y-53454441D01*
X226272110Y-53599431D01*
X226524000Y-53650440D01*
X227374000Y-53650440D01*
X227609317Y-53606162D01*
X227825441Y-53467090D01*
X227970431Y-53254890D01*
X227995024Y-53133442D01*
X237672862Y-53133442D01*
X237793639Y-53425743D01*
X238017081Y-53649575D01*
X238218839Y-53733353D01*
X238222159Y-53741388D01*
X238018257Y-53825639D01*
X237794425Y-54049081D01*
X237673138Y-54341171D01*
X237672862Y-54657442D01*
X237793639Y-54949743D01*
X238017081Y-55173575D01*
X238222035Y-55258680D01*
X238218647Y-55266839D01*
X238018257Y-55349639D01*
X237794425Y-55573081D01*
X237673138Y-55865171D01*
X237672862Y-56181442D01*
X237793639Y-56473743D01*
X238017081Y-56697575D01*
X238309171Y-56818862D01*
X238625442Y-56819138D01*
X238917743Y-56698361D01*
X238975906Y-56640300D01*
X239033081Y-56697575D01*
X239325171Y-56818862D01*
X239641442Y-56819138D01*
X239933743Y-56698361D01*
X239991906Y-56640300D01*
X240049081Y-56697575D01*
X240341171Y-56818862D01*
X240657442Y-56819138D01*
X240949743Y-56698361D01*
X241173575Y-56474919D01*
X241294862Y-56182829D01*
X241295138Y-55866558D01*
X241174361Y-55574257D01*
X240950919Y-55350425D01*
X240749161Y-55266647D01*
X240745841Y-55258612D01*
X240949743Y-55174361D01*
X241173575Y-54950919D01*
X241294862Y-54658829D01*
X241295138Y-54342558D01*
X241174361Y-54050257D01*
X240950919Y-53826425D01*
X240745965Y-53741320D01*
X240749353Y-53733161D01*
X240949743Y-53650361D01*
X241173575Y-53426919D01*
X241294862Y-53134829D01*
X241295138Y-52818558D01*
X241174361Y-52526257D01*
X240950919Y-52302425D01*
X240658829Y-52181138D01*
X240342558Y-52180862D01*
X240050257Y-52301639D01*
X239992094Y-52359700D01*
X239934919Y-52302425D01*
X239642829Y-52181138D01*
X239326558Y-52180862D01*
X239034257Y-52301639D01*
X238976094Y-52359700D01*
X238918919Y-52302425D01*
X238626829Y-52181138D01*
X238310558Y-52180862D01*
X238018257Y-52301639D01*
X237794425Y-52525081D01*
X237673138Y-52817171D01*
X237672862Y-53133442D01*
X227995024Y-53133442D01*
X228021440Y-53003000D01*
X228021440Y-52153000D01*
X246450560Y-52153000D01*
X246450560Y-53003000D01*
X246494838Y-53238317D01*
X246633910Y-53454441D01*
X246846110Y-53599431D01*
X247098000Y-53650440D01*
X247948000Y-53650440D01*
X248183317Y-53606162D01*
X248399441Y-53467090D01*
X248544431Y-53254890D01*
X248595440Y-53003000D01*
X248595440Y-52153000D01*
X248551162Y-51917683D01*
X248412090Y-51701559D01*
X248199890Y-51556569D01*
X247948000Y-51505560D01*
X247098000Y-51505560D01*
X246862683Y-51549838D01*
X246646559Y-51688910D01*
X246501569Y-51901110D01*
X246450560Y-52153000D01*
X228021440Y-52153000D01*
X227977162Y-51917683D01*
X227838090Y-51701559D01*
X227625890Y-51556569D01*
X227374000Y-51505560D01*
X226524000Y-51505560D01*
X226288683Y-51549838D01*
X226072559Y-51688910D01*
X225927569Y-51901110D01*
X225876560Y-52153000D01*
X185127000Y-52153000D01*
X185127000Y-49627000D01*
X202927560Y-49627000D01*
X202927560Y-49925000D01*
X202971838Y-50160317D01*
X203110910Y-50376441D01*
X203323110Y-50521431D01*
X203575000Y-50572440D01*
X204425000Y-50572440D01*
X204660317Y-50528162D01*
X204876441Y-50389090D01*
X205021431Y-50176890D01*
X205072440Y-49925000D01*
X205072440Y-49627000D01*
X206132123Y-49627000D01*
X206256883Y-49928943D01*
X206519673Y-50192192D01*
X206863201Y-50334838D01*
X207235167Y-50335162D01*
X207578943Y-50193117D01*
X207842192Y-49930327D01*
X207968145Y-49627000D01*
X218000000Y-49627000D01*
X218049410Y-49616994D01*
X218091035Y-49588553D01*
X218118315Y-49546159D01*
X218127000Y-49500000D01*
X218127000Y-41127000D01*
X219873000Y-41127000D01*
X219873000Y-49000000D01*
X219873000Y-49000000D01*
G37*
X219873000Y-49000000D02*
X219883006Y-49049410D01*
X219911447Y-49091035D01*
X219953841Y-49118315D01*
X220000000Y-49127000D01*
X223757108Y-49127000D01*
X223723059Y-49148910D01*
X223578069Y-49361110D01*
X223527060Y-49613000D01*
X223527060Y-50463000D01*
X223571338Y-50698317D01*
X223710410Y-50914441D01*
X223922610Y-51059431D01*
X224174500Y-51110440D01*
X225024500Y-51110440D01*
X225259817Y-51066162D01*
X225475941Y-50927090D01*
X225620931Y-50714890D01*
X225671940Y-50463000D01*
X225671940Y-49613000D01*
X225627662Y-49377683D01*
X225488590Y-49161559D01*
X225438011Y-49127000D01*
X250500000Y-49127000D01*
X250549410Y-49116994D01*
X250591035Y-49088553D01*
X250618315Y-49046159D01*
X250627000Y-49000000D01*
X250627000Y-48127000D01*
X253623000Y-48127000D01*
X253623000Y-49000000D01*
X253633006Y-49049410D01*
X253661447Y-49091035D01*
X253703841Y-49118315D01*
X253750000Y-49127000D01*
X264873000Y-49127000D01*
X264873000Y-51512445D01*
X264839000Y-51505560D01*
X263989000Y-51505560D01*
X263753683Y-51549838D01*
X263537559Y-51688910D01*
X263392569Y-51901110D01*
X263341560Y-52153000D01*
X263341560Y-53003000D01*
X263385838Y-53238317D01*
X263524910Y-53454441D01*
X263737110Y-53599431D01*
X263989000Y-53650440D01*
X264839000Y-53650440D01*
X264873000Y-53644042D01*
X264873000Y-55894897D01*
X264263914Y-56146567D01*
X263648727Y-56760681D01*
X263315380Y-57563470D01*
X263314621Y-58432717D01*
X263646567Y-59236086D01*
X264260681Y-59851273D01*
X264873000Y-60105530D01*
X264873000Y-62947394D01*
X261447394Y-66373000D01*
X258052606Y-66373000D01*
X257689189Y-66009583D01*
X257876441Y-65889090D01*
X258021431Y-65676890D01*
X258072440Y-65425000D01*
X258072440Y-64981237D01*
X258194648Y-64798340D01*
X258252500Y-64507500D01*
X258252500Y-63296734D01*
X258325639Y-63473743D01*
X258549081Y-63697575D01*
X258841171Y-63818862D01*
X259157442Y-63819138D01*
X259449743Y-63698361D01*
X259507906Y-63640300D01*
X259565081Y-63697575D01*
X259857171Y-63818862D01*
X260173442Y-63819138D01*
X260465743Y-63698361D01*
X260523906Y-63640300D01*
X260581081Y-63697575D01*
X260873171Y-63818862D01*
X261189442Y-63819138D01*
X261481743Y-63698361D01*
X261705575Y-63474919D01*
X261826862Y-63182829D01*
X261827138Y-62866558D01*
X261706361Y-62574257D01*
X261482919Y-62350425D01*
X261281161Y-62266647D01*
X261277841Y-62258612D01*
X261481743Y-62174361D01*
X261705575Y-61950919D01*
X261826862Y-61658829D01*
X261827138Y-61342558D01*
X261706361Y-61050257D01*
X261482919Y-60826425D01*
X261277965Y-60741320D01*
X261281353Y-60733161D01*
X261481743Y-60650361D01*
X261705575Y-60426919D01*
X261826862Y-60134829D01*
X261827138Y-59818558D01*
X261706361Y-59526257D01*
X261482919Y-59302425D01*
X261190829Y-59181138D01*
X260874558Y-59180862D01*
X260582257Y-59301639D01*
X260524094Y-59359700D01*
X260466919Y-59302425D01*
X260174829Y-59181138D01*
X259858558Y-59180862D01*
X259566257Y-59301639D01*
X259508094Y-59359700D01*
X259450919Y-59302425D01*
X259158829Y-59181138D01*
X258842558Y-59180862D01*
X258830710Y-59185758D01*
X258982401Y-59084401D01*
X261141401Y-56925401D01*
X261306148Y-56678839D01*
X261364000Y-56388000D01*
X261364000Y-53210302D01*
X262077180Y-52497122D01*
X262122667Y-52497162D01*
X262466443Y-52355117D01*
X262729692Y-52092327D01*
X262872338Y-51748799D01*
X262872662Y-51376833D01*
X262730617Y-51033057D01*
X262467827Y-50769808D01*
X262124299Y-50627162D01*
X261752333Y-50626838D01*
X261408557Y-50768883D01*
X261145308Y-51031673D01*
X261002662Y-51375201D01*
X261002621Y-51422077D01*
X260066599Y-52358099D01*
X259901852Y-52604661D01*
X259844000Y-52895500D01*
X259844000Y-56073198D01*
X259794915Y-56122283D01*
X259795138Y-55866558D01*
X259674361Y-55574257D01*
X259450919Y-55350425D01*
X259249161Y-55266647D01*
X259245841Y-55258612D01*
X259449743Y-55174361D01*
X259673575Y-54950919D01*
X259794862Y-54658829D01*
X259795138Y-54342558D01*
X259674361Y-54050257D01*
X259450919Y-53826425D01*
X259245965Y-53741320D01*
X259249353Y-53733161D01*
X259449743Y-53650361D01*
X259673575Y-53426919D01*
X259794862Y-53134829D01*
X259795138Y-52818558D01*
X259674361Y-52526257D01*
X259450919Y-52302425D01*
X259158829Y-52181138D01*
X258842558Y-52180862D01*
X258550257Y-52301639D01*
X258492094Y-52359700D01*
X258434919Y-52302425D01*
X258142829Y-52181138D01*
X257826558Y-52180862D01*
X257534257Y-52301639D01*
X257476094Y-52359700D01*
X257418919Y-52302425D01*
X257126829Y-52181138D01*
X256810558Y-52180862D01*
X256518257Y-52301639D01*
X256294425Y-52525081D01*
X256173138Y-52817171D01*
X256172862Y-53133442D01*
X256293639Y-53425743D01*
X256517081Y-53649575D01*
X256718839Y-53733353D01*
X256722159Y-53741388D01*
X256518257Y-53825639D01*
X256294425Y-54049081D01*
X256173138Y-54341171D01*
X256172862Y-54657442D01*
X256293639Y-54949743D01*
X256517081Y-55173575D01*
X256722035Y-55258680D01*
X256718647Y-55266839D01*
X256518257Y-55349639D01*
X256294425Y-55573081D01*
X256173138Y-55865171D01*
X256172862Y-56181442D01*
X256293639Y-56473743D01*
X256517081Y-56697575D01*
X256809171Y-56818862D01*
X257125442Y-56819138D01*
X257417743Y-56698361D01*
X257475906Y-56640300D01*
X257533081Y-56697575D01*
X257825171Y-56818862D01*
X258141442Y-56819138D01*
X258433743Y-56698361D01*
X258491906Y-56640300D01*
X258549081Y-56697575D01*
X258841171Y-56818862D01*
X259098112Y-56819086D01*
X258130198Y-57787000D01*
X257810000Y-57787000D01*
X257519161Y-57844852D01*
X257272599Y-58009599D01*
X256955099Y-58327099D01*
X256790352Y-58573661D01*
X256732500Y-58864500D01*
X256732500Y-62552894D01*
X256589803Y-62410197D01*
X256547789Y-62382334D01*
X256500000Y-62373000D01*
X254500000Y-62373000D01*
X254450590Y-62383006D01*
X254408965Y-62411447D01*
X254381685Y-62453841D01*
X254373000Y-62500000D01*
X254373000Y-67873000D01*
X253500000Y-67873000D01*
X253450590Y-67883006D01*
X253408965Y-67911447D01*
X253381685Y-67953841D01*
X253373000Y-68000000D01*
X253373000Y-70000000D01*
X253383006Y-70049410D01*
X253410197Y-70089803D01*
X253910197Y-70589803D01*
X253952211Y-70617666D01*
X254000000Y-70627000D01*
X265421510Y-70627000D01*
X266373000Y-72529980D01*
X266373000Y-76447394D01*
X265447394Y-77373000D01*
X262234675Y-77373000D01*
X262235387Y-76557381D01*
X261895845Y-75735628D01*
X261267679Y-75106364D01*
X260446519Y-74765389D01*
X259557381Y-74764613D01*
X258735628Y-75104155D01*
X258106364Y-75732321D01*
X257765389Y-76553481D01*
X257764674Y-77373000D01*
X257234675Y-77373000D01*
X257235387Y-76557381D01*
X256895845Y-75735628D01*
X256267679Y-75106364D01*
X255446519Y-74765389D01*
X254557381Y-74764613D01*
X253735628Y-75104155D01*
X253106364Y-75732321D01*
X252765389Y-76553481D01*
X252764674Y-77373000D01*
X252234675Y-77373000D01*
X252235387Y-76557381D01*
X251895845Y-75735628D01*
X251267679Y-75106364D01*
X250446519Y-74765389D01*
X249557381Y-74764613D01*
X248735628Y-75104155D01*
X248106364Y-75732321D01*
X247765389Y-76553481D01*
X247764674Y-77373000D01*
X200234675Y-77373000D01*
X200235387Y-76557381D01*
X199954328Y-75877167D01*
X245063838Y-75877167D01*
X245205883Y-76220943D01*
X245468673Y-76484192D01*
X245812201Y-76626838D01*
X246184167Y-76627162D01*
X246527943Y-76485117D01*
X246791192Y-76222327D01*
X246933838Y-75878799D01*
X246933879Y-75831923D01*
X248287401Y-74478401D01*
X248452148Y-74231839D01*
X248510000Y-73941000D01*
X248510000Y-72062463D01*
X248542192Y-72030327D01*
X248684838Y-71686799D01*
X248685162Y-71314833D01*
X248543117Y-70971057D01*
X248280327Y-70707808D01*
X247936799Y-70565162D01*
X247564833Y-70564838D01*
X247221057Y-70706883D01*
X246957808Y-70969673D01*
X246815162Y-71313201D01*
X246814838Y-71685167D01*
X246956883Y-72028943D01*
X246990000Y-72062118D01*
X246990000Y-73626198D01*
X245859320Y-74756878D01*
X245813833Y-74756838D01*
X245470057Y-74898883D01*
X245206808Y-75161673D01*
X245064162Y-75505201D01*
X245063838Y-75877167D01*
X199954328Y-75877167D01*
X199895845Y-75735628D01*
X199267679Y-75106364D01*
X198446519Y-74765389D01*
X197557381Y-74764613D01*
X196735628Y-75104155D01*
X196106364Y-75732321D01*
X196049315Y-75869709D01*
X194589803Y-74410197D01*
X194547789Y-74382334D01*
X194500000Y-74373000D01*
X185127000Y-74373000D01*
X185127000Y-71324579D01*
X189564786Y-71324579D01*
X189752408Y-71778657D01*
X190099515Y-72126371D01*
X190553266Y-72314785D01*
X191044579Y-72315214D01*
X191498657Y-72127592D01*
X191846371Y-71780485D01*
X191962838Y-71500000D01*
X203127560Y-71500000D01*
X203127560Y-72350000D01*
X203171838Y-72585317D01*
X203310910Y-72801441D01*
X203523110Y-72946431D01*
X203775000Y-72997440D01*
X204625000Y-72997440D01*
X204860317Y-72953162D01*
X205076441Y-72814090D01*
X205221431Y-72601890D01*
X205272440Y-72350000D01*
X205272440Y-71500000D01*
X205228162Y-71264683D01*
X205089090Y-71048559D01*
X204876890Y-70903569D01*
X204625000Y-70852560D01*
X203775000Y-70852560D01*
X203539683Y-70896838D01*
X203323559Y-71035910D01*
X203178569Y-71248110D01*
X203127560Y-71500000D01*
X191962838Y-71500000D01*
X192034785Y-71326734D01*
X192035214Y-70835421D01*
X191847592Y-70381343D01*
X191500485Y-70033629D01*
X191046734Y-69845215D01*
X190555421Y-69844786D01*
X190101343Y-70032408D01*
X189753629Y-70379515D01*
X189565215Y-70833266D01*
X189564786Y-71324579D01*
X185127000Y-71324579D01*
X185127000Y-66363403D01*
X185164682Y-66363403D01*
X185443455Y-67038086D01*
X185959199Y-67554730D01*
X186633395Y-67834681D01*
X187363403Y-67835318D01*
X187391290Y-67823795D01*
X197114716Y-67823795D01*
X197363106Y-68424943D01*
X197822637Y-68885278D01*
X198423352Y-69134716D01*
X199073795Y-69135284D01*
X199674943Y-68886894D01*
X200135278Y-68427363D01*
X200384716Y-67826648D01*
X200384718Y-67823795D01*
X207864716Y-67823795D01*
X208113106Y-68424943D01*
X208572637Y-68885278D01*
X209173352Y-69134716D01*
X209823795Y-69135284D01*
X210424943Y-68886894D01*
X210885278Y-68427363D01*
X211134716Y-67826648D01*
X211135284Y-67176205D01*
X210886894Y-66575057D01*
X210427363Y-66114722D01*
X209826648Y-65865284D01*
X209176205Y-65864716D01*
X208575057Y-66113106D01*
X208114722Y-66572637D01*
X207865284Y-67173352D01*
X207864716Y-67823795D01*
X200384718Y-67823795D01*
X200385284Y-67176205D01*
X200136894Y-66575057D01*
X199677363Y-66114722D01*
X199076648Y-65865284D01*
X198426205Y-65864716D01*
X197825057Y-66113106D01*
X197364722Y-66572637D01*
X197115284Y-67173352D01*
X197114716Y-67823795D01*
X187391290Y-67823795D01*
X188038086Y-67556545D01*
X188554730Y-67040801D01*
X188834681Y-66366605D01*
X188835318Y-65636597D01*
X188556545Y-64961914D01*
X188170306Y-64575000D01*
X217927560Y-64575000D01*
X217927560Y-65425000D01*
X217971838Y-65660317D01*
X218110910Y-65876441D01*
X218323110Y-66021431D01*
X218575000Y-66072440D01*
X219425000Y-66072440D01*
X219660317Y-66028162D01*
X219876441Y-65889090D01*
X220021431Y-65676890D01*
X220072440Y-65425000D01*
X220072440Y-64575000D01*
X236427560Y-64575000D01*
X236427560Y-65425000D01*
X236471838Y-65660317D01*
X236610910Y-65876441D01*
X236823110Y-66021431D01*
X237075000Y-66072440D01*
X237925000Y-66072440D01*
X238160317Y-66028162D01*
X238376441Y-65889090D01*
X238521431Y-65676890D01*
X238572440Y-65425000D01*
X238572440Y-64575000D01*
X238528162Y-64339683D01*
X238389090Y-64123559D01*
X238176890Y-63978569D01*
X237925000Y-63927560D01*
X237075000Y-63927560D01*
X236839683Y-63971838D01*
X236623559Y-64110910D01*
X236478569Y-64323110D01*
X236427560Y-64575000D01*
X220072440Y-64575000D01*
X220028162Y-64339683D01*
X219889090Y-64123559D01*
X219676890Y-63978569D01*
X219425000Y-63927560D01*
X218575000Y-63927560D01*
X218339683Y-63971838D01*
X218123559Y-64110910D01*
X217978569Y-64323110D01*
X217927560Y-64575000D01*
X188170306Y-64575000D01*
X188040801Y-64445270D01*
X187366605Y-64165319D01*
X186636597Y-64164682D01*
X185961914Y-64443455D01*
X185445270Y-64959199D01*
X185165319Y-65633395D01*
X185164682Y-66363403D01*
X185127000Y-66363403D01*
X185127000Y-61164579D01*
X189564786Y-61164579D01*
X189752408Y-61618657D01*
X190099515Y-61966371D01*
X190553266Y-62154785D01*
X191044579Y-62155214D01*
X191498657Y-61967592D01*
X191846371Y-61620485D01*
X192034785Y-61166734D01*
X192035214Y-60675421D01*
X191847592Y-60221343D01*
X191759845Y-60133442D01*
X221204862Y-60133442D01*
X221325639Y-60425743D01*
X221549081Y-60649575D01*
X221750839Y-60733353D01*
X221754159Y-60741388D01*
X221550257Y-60825639D01*
X221326425Y-61049081D01*
X221205138Y-61341171D01*
X221204862Y-61657442D01*
X221325639Y-61949743D01*
X221549081Y-62173575D01*
X221754035Y-62258680D01*
X221750647Y-62266839D01*
X221550257Y-62349639D01*
X221326425Y-62573081D01*
X221205138Y-62865171D01*
X221204862Y-63181442D01*
X221325639Y-63473743D01*
X221549081Y-63697575D01*
X221841171Y-63818862D01*
X222157442Y-63819138D01*
X222449743Y-63698361D01*
X222507906Y-63640300D01*
X222565081Y-63697575D01*
X222857171Y-63818862D01*
X223173442Y-63819138D01*
X223465743Y-63698361D01*
X223523906Y-63640300D01*
X223581081Y-63697575D01*
X223873171Y-63818862D01*
X224189442Y-63819138D01*
X224481743Y-63698361D01*
X224705575Y-63474919D01*
X224826862Y-63182829D01*
X224827138Y-62866558D01*
X224706361Y-62574257D01*
X224482919Y-62350425D01*
X224281161Y-62266647D01*
X224277841Y-62258612D01*
X224481743Y-62174361D01*
X224705575Y-61950919D01*
X224826862Y-61658829D01*
X224827138Y-61342558D01*
X224706361Y-61050257D01*
X224482919Y-60826425D01*
X224332987Y-60764167D01*
X238332838Y-60764167D01*
X238474883Y-61107943D01*
X238737673Y-61371192D01*
X239081201Y-61513838D01*
X239453167Y-61514162D01*
X239705078Y-61410075D01*
X239704862Y-61657442D01*
X239825639Y-61949743D01*
X240049081Y-62173575D01*
X240254035Y-62258680D01*
X240250647Y-62266839D01*
X240050257Y-62349639D01*
X239826425Y-62573081D01*
X239705138Y-62865171D01*
X239704862Y-63181442D01*
X239825639Y-63473743D01*
X240049081Y-63697575D01*
X240341171Y-63818862D01*
X240657442Y-63819138D01*
X240949743Y-63698361D01*
X241007906Y-63640300D01*
X241065081Y-63697575D01*
X241357171Y-63818862D01*
X241673442Y-63819138D01*
X241965743Y-63698361D01*
X242023906Y-63640300D01*
X242081081Y-63697575D01*
X242373171Y-63818862D01*
X242689442Y-63819138D01*
X242981743Y-63698361D01*
X243205575Y-63474919D01*
X243326862Y-63182829D01*
X243327138Y-62866558D01*
X243206361Y-62574257D01*
X242982919Y-62350425D01*
X242921690Y-62325000D01*
X249427560Y-62325000D01*
X249427560Y-63175000D01*
X249471838Y-63410317D01*
X249610910Y-63626441D01*
X249823110Y-63771431D01*
X250075000Y-63822440D01*
X250925000Y-63822440D01*
X251160317Y-63778162D01*
X251376441Y-63639090D01*
X251521431Y-63426890D01*
X251572440Y-63175000D01*
X251572440Y-62325000D01*
X251528162Y-62089683D01*
X251389090Y-61873559D01*
X251176890Y-61728569D01*
X250925000Y-61677560D01*
X250075000Y-61677560D01*
X249839683Y-61721838D01*
X249623559Y-61860910D01*
X249478569Y-62073110D01*
X249427560Y-62325000D01*
X242921690Y-62325000D01*
X242781161Y-62266647D01*
X242777841Y-62258612D01*
X242981743Y-62174361D01*
X243205575Y-61950919D01*
X243326862Y-61658829D01*
X243327138Y-61342558D01*
X243206361Y-61050257D01*
X242982919Y-60826425D01*
X242777965Y-60741320D01*
X242781353Y-60733161D01*
X242981743Y-60650361D01*
X243205575Y-60426919D01*
X243326862Y-60134829D01*
X243327138Y-59818558D01*
X243206361Y-59526257D01*
X242982919Y-59302425D01*
X242690829Y-59181138D01*
X242374558Y-59180862D01*
X242082257Y-59301639D01*
X242024094Y-59359700D01*
X241966919Y-59302425D01*
X241674829Y-59181138D01*
X241358558Y-59180862D01*
X241066257Y-59301639D01*
X241008094Y-59359700D01*
X240950919Y-59302425D01*
X240658829Y-59181138D01*
X240342558Y-59180862D01*
X240050257Y-59301639D01*
X240028000Y-59323857D01*
X240028000Y-58926000D01*
X242951000Y-58926000D01*
X243241839Y-58868148D01*
X243488401Y-58703401D01*
X244948201Y-57243601D01*
X244815380Y-57563470D01*
X244814621Y-58432717D01*
X245146567Y-59236086D01*
X245760681Y-59851273D01*
X246563470Y-60184620D01*
X247432717Y-60185379D01*
X248236086Y-59853433D01*
X248851273Y-59239319D01*
X249184620Y-58436530D01*
X249185276Y-57685167D01*
X251814838Y-57685167D01*
X251956883Y-58028943D01*
X252219673Y-58292192D01*
X252563201Y-58434838D01*
X252935167Y-58435162D01*
X253278943Y-58293117D01*
X253542192Y-58030327D01*
X253684838Y-57686799D01*
X253685162Y-57314833D01*
X253543117Y-56971057D01*
X253280327Y-56707808D01*
X252936799Y-56565162D01*
X252564833Y-56564838D01*
X252221057Y-56706883D01*
X251957808Y-56969673D01*
X251815162Y-57313201D01*
X251814838Y-57685167D01*
X249185276Y-57685167D01*
X249185379Y-57567283D01*
X248853433Y-56763914D01*
X248239319Y-56148727D01*
X247436530Y-55815380D01*
X246567283Y-55814621D01*
X246426007Y-55872995D01*
X246426162Y-55694833D01*
X246284117Y-55351057D01*
X246021327Y-55087808D01*
X245677799Y-54945162D01*
X245305833Y-54944838D01*
X244962057Y-55086883D01*
X244718638Y-55329877D01*
X244699599Y-55342599D01*
X242636198Y-57406000D01*
X239649000Y-57406000D01*
X239358160Y-57463852D01*
X239111599Y-57628599D01*
X238730599Y-58009599D01*
X238565852Y-58256161D01*
X238508000Y-58547000D01*
X238508000Y-60016537D01*
X238475808Y-60048673D01*
X238333162Y-60392201D01*
X238332838Y-60764167D01*
X224332987Y-60764167D01*
X224277965Y-60741320D01*
X224281353Y-60733161D01*
X224481743Y-60650361D01*
X224705575Y-60426919D01*
X224826862Y-60134829D01*
X224827138Y-59818558D01*
X224706361Y-59526257D01*
X224482919Y-59302425D01*
X224190829Y-59181138D01*
X223874558Y-59180862D01*
X223582257Y-59301639D01*
X223524094Y-59359700D01*
X223466919Y-59302425D01*
X223174829Y-59181138D01*
X222858558Y-59180862D01*
X222566257Y-59301639D01*
X222508094Y-59359700D01*
X222450919Y-59302425D01*
X222158829Y-59181138D01*
X221842558Y-59180862D01*
X221550257Y-59301639D01*
X221326425Y-59525081D01*
X221205138Y-59817171D01*
X221204862Y-60133442D01*
X191759845Y-60133442D01*
X191500485Y-59873629D01*
X191046734Y-59685215D01*
X190555421Y-59684786D01*
X190101343Y-59872408D01*
X189753629Y-60219515D01*
X189565215Y-60673266D01*
X189564786Y-61164579D01*
X185127000Y-61164579D01*
X185127000Y-58432717D01*
X226314621Y-58432717D01*
X226646567Y-59236086D01*
X227260681Y-59851273D01*
X228063470Y-60184620D01*
X228932717Y-60185379D01*
X229736086Y-59853433D01*
X230351273Y-59239319D01*
X230684620Y-58436530D01*
X230685379Y-57567283D01*
X230353433Y-56763914D01*
X229739319Y-56148727D01*
X228936530Y-55815380D01*
X228067283Y-55814621D01*
X227263914Y-56146567D01*
X226648727Y-56760681D01*
X226315380Y-57563470D01*
X226314621Y-58432717D01*
X185127000Y-58432717D01*
X185127000Y-56824579D01*
X189564786Y-56824579D01*
X189752408Y-57278657D01*
X190099515Y-57626371D01*
X190553266Y-57814785D01*
X191044579Y-57815214D01*
X191498657Y-57627592D01*
X191846371Y-57280485D01*
X192034785Y-56826734D01*
X192035214Y-56335421D01*
X191847592Y-55881343D01*
X191500485Y-55533629D01*
X191046734Y-55345215D01*
X190555421Y-55344786D01*
X190101343Y-55532408D01*
X189753629Y-55879515D01*
X189565215Y-56333266D01*
X189564786Y-56824579D01*
X185127000Y-56824579D01*
X185127000Y-53133442D01*
X219172862Y-53133442D01*
X219293639Y-53425743D01*
X219517081Y-53649575D01*
X219718839Y-53733353D01*
X219722159Y-53741388D01*
X219518257Y-53825639D01*
X219294425Y-54049081D01*
X219173138Y-54341171D01*
X219172862Y-54657442D01*
X219293639Y-54949743D01*
X219517081Y-55173575D01*
X219722035Y-55258680D01*
X219718647Y-55266839D01*
X219518257Y-55349639D01*
X219294425Y-55573081D01*
X219173138Y-55865171D01*
X219172862Y-56181442D01*
X219293639Y-56473743D01*
X219517081Y-56697575D01*
X219809171Y-56818862D01*
X220125442Y-56819138D01*
X220417743Y-56698361D01*
X220475906Y-56640300D01*
X220533081Y-56697575D01*
X220825171Y-56818862D01*
X221141442Y-56819138D01*
X221433743Y-56698361D01*
X221491906Y-56640300D01*
X221549081Y-56697575D01*
X221841171Y-56818862D01*
X222157442Y-56819138D01*
X222449743Y-56698361D01*
X222673575Y-56474919D01*
X222794862Y-56182829D01*
X222795138Y-55866558D01*
X222674361Y-55574257D01*
X222450919Y-55350425D01*
X222249161Y-55266647D01*
X222245841Y-55258612D01*
X222449743Y-55174361D01*
X222673575Y-54950919D01*
X222794862Y-54658829D01*
X222795138Y-54342558D01*
X222674361Y-54050257D01*
X222450919Y-53826425D01*
X222245965Y-53741320D01*
X222249353Y-53733161D01*
X222449743Y-53650361D01*
X222673575Y-53426919D01*
X222794862Y-53134829D01*
X222795138Y-52818558D01*
X222674361Y-52526257D01*
X222450919Y-52302425D01*
X222158829Y-52181138D01*
X221842558Y-52180862D01*
X221550257Y-52301639D01*
X221492094Y-52359700D01*
X221434919Y-52302425D01*
X221142829Y-52181138D01*
X220826558Y-52180862D01*
X220534257Y-52301639D01*
X220476094Y-52359700D01*
X220418919Y-52302425D01*
X220126829Y-52181138D01*
X219810558Y-52180862D01*
X219518257Y-52301639D01*
X219294425Y-52525081D01*
X219173138Y-52817171D01*
X219172862Y-53133442D01*
X185127000Y-53133442D01*
X185127000Y-52153000D01*
X225876560Y-52153000D01*
X225876560Y-53003000D01*
X225920838Y-53238317D01*
X226059910Y-53454441D01*
X226272110Y-53599431D01*
X226524000Y-53650440D01*
X227374000Y-53650440D01*
X227609317Y-53606162D01*
X227825441Y-53467090D01*
X227970431Y-53254890D01*
X227995024Y-53133442D01*
X237672862Y-53133442D01*
X237793639Y-53425743D01*
X238017081Y-53649575D01*
X238218839Y-53733353D01*
X238222159Y-53741388D01*
X238018257Y-53825639D01*
X237794425Y-54049081D01*
X237673138Y-54341171D01*
X237672862Y-54657442D01*
X237793639Y-54949743D01*
X238017081Y-55173575D01*
X238222035Y-55258680D01*
X238218647Y-55266839D01*
X238018257Y-55349639D01*
X237794425Y-55573081D01*
X237673138Y-55865171D01*
X237672862Y-56181442D01*
X237793639Y-56473743D01*
X238017081Y-56697575D01*
X238309171Y-56818862D01*
X238625442Y-56819138D01*
X238917743Y-56698361D01*
X238975906Y-56640300D01*
X239033081Y-56697575D01*
X239325171Y-56818862D01*
X239641442Y-56819138D01*
X239933743Y-56698361D01*
X239991906Y-56640300D01*
X240049081Y-56697575D01*
X240341171Y-56818862D01*
X240657442Y-56819138D01*
X240949743Y-56698361D01*
X241173575Y-56474919D01*
X241294862Y-56182829D01*
X241295138Y-55866558D01*
X241174361Y-55574257D01*
X240950919Y-55350425D01*
X240749161Y-55266647D01*
X240745841Y-55258612D01*
X240949743Y-55174361D01*
X241173575Y-54950919D01*
X241294862Y-54658829D01*
X241295138Y-54342558D01*
X241174361Y-54050257D01*
X240950919Y-53826425D01*
X240745965Y-53741320D01*
X240749353Y-53733161D01*
X240949743Y-53650361D01*
X241173575Y-53426919D01*
X241294862Y-53134829D01*
X241295138Y-52818558D01*
X241174361Y-52526257D01*
X240950919Y-52302425D01*
X240658829Y-52181138D01*
X240342558Y-52180862D01*
X240050257Y-52301639D01*
X239992094Y-52359700D01*
X239934919Y-52302425D01*
X239642829Y-52181138D01*
X239326558Y-52180862D01*
X239034257Y-52301639D01*
X238976094Y-52359700D01*
X238918919Y-52302425D01*
X238626829Y-52181138D01*
X238310558Y-52180862D01*
X238018257Y-52301639D01*
X237794425Y-52525081D01*
X237673138Y-52817171D01*
X237672862Y-53133442D01*
X227995024Y-53133442D01*
X228021440Y-53003000D01*
X228021440Y-52153000D01*
X246450560Y-52153000D01*
X246450560Y-53003000D01*
X246494838Y-53238317D01*
X246633910Y-53454441D01*
X246846110Y-53599431D01*
X247098000Y-53650440D01*
X247948000Y-53650440D01*
X248183317Y-53606162D01*
X248399441Y-53467090D01*
X248544431Y-53254890D01*
X248595440Y-53003000D01*
X248595440Y-52153000D01*
X248551162Y-51917683D01*
X248412090Y-51701559D01*
X248199890Y-51556569D01*
X247948000Y-51505560D01*
X247098000Y-51505560D01*
X246862683Y-51549838D01*
X246646559Y-51688910D01*
X246501569Y-51901110D01*
X246450560Y-52153000D01*
X228021440Y-52153000D01*
X227977162Y-51917683D01*
X227838090Y-51701559D01*
X227625890Y-51556569D01*
X227374000Y-51505560D01*
X226524000Y-51505560D01*
X226288683Y-51549838D01*
X226072559Y-51688910D01*
X225927569Y-51901110D01*
X225876560Y-52153000D01*
X185127000Y-52153000D01*
X185127000Y-49627000D01*
X202927560Y-49627000D01*
X202927560Y-49925000D01*
X202971838Y-50160317D01*
X203110910Y-50376441D01*
X203323110Y-50521431D01*
X203575000Y-50572440D01*
X204425000Y-50572440D01*
X204660317Y-50528162D01*
X204876441Y-50389090D01*
X205021431Y-50176890D01*
X205072440Y-49925000D01*
X205072440Y-49627000D01*
X206132123Y-49627000D01*
X206256883Y-49928943D01*
X206519673Y-50192192D01*
X206863201Y-50334838D01*
X207235167Y-50335162D01*
X207578943Y-50193117D01*
X207842192Y-49930327D01*
X207968145Y-49627000D01*
X218000000Y-49627000D01*
X218049410Y-49616994D01*
X218091035Y-49588553D01*
X218118315Y-49546159D01*
X218127000Y-49500000D01*
X218127000Y-41127000D01*
X219873000Y-41127000D01*
X219873000Y-49000000D01*
G36*
X269315000Y-21283736D02*
X269315000Y-22716264D01*
X267515632Y-24515632D01*
X267367143Y-24737862D01*
X267315000Y-25000000D01*
X267315000Y-27344166D01*
X267164352Y-27314200D01*
X266402248Y-27314200D01*
X265929634Y-27408209D01*
X265528971Y-27675923D01*
X265261257Y-28076586D01*
X265167248Y-28549200D01*
X265207200Y-28750052D01*
X264854684Y-28396920D01*
X264355008Y-28189437D01*
X263813966Y-28188964D01*
X263313928Y-28395576D01*
X262931020Y-28777816D01*
X262723537Y-29277492D01*
X262723067Y-29814976D01*
X262564833Y-29814838D01*
X262221057Y-29956883D01*
X261957808Y-30219673D01*
X261815162Y-30563201D01*
X261814838Y-30935167D01*
X261956883Y-31278943D01*
X262219673Y-31542192D01*
X262563201Y-31684838D01*
X262935167Y-31685162D01*
X263278943Y-31543117D01*
X263542192Y-31280327D01*
X263684838Y-30936799D01*
X263684908Y-30856359D01*
X263811592Y-30908963D01*
X264352634Y-30909436D01*
X264852672Y-30702824D01*
X265235580Y-30320584D01*
X265443063Y-29820908D01*
X265443523Y-29294595D01*
X265528971Y-29422477D01*
X265929634Y-29690191D01*
X266402248Y-29784200D01*
X267164352Y-29784200D01*
X267315000Y-29754234D01*
X267315000Y-34344166D01*
X267164352Y-34314200D01*
X266402248Y-34314200D01*
X265929634Y-34408209D01*
X265528971Y-34675923D01*
X265443077Y-34804472D01*
X265443536Y-34279866D01*
X265236924Y-33779828D01*
X264854684Y-33396920D01*
X264355008Y-33189437D01*
X263813966Y-33188964D01*
X263493713Y-33321290D01*
X263493617Y-33321057D01*
X263230827Y-33057808D01*
X262887299Y-32915162D01*
X262515333Y-32914838D01*
X262171557Y-33056883D01*
X261908308Y-33319673D01*
X261765662Y-33663201D01*
X261765338Y-34035167D01*
X261907383Y-34378943D01*
X262170173Y-34642192D01*
X262513701Y-34784838D01*
X262723093Y-34785020D01*
X262723064Y-34818534D01*
X262929676Y-35318572D01*
X263311916Y-35701480D01*
X263811592Y-35908963D01*
X264352634Y-35909436D01*
X264852672Y-35702824D01*
X265207059Y-35349055D01*
X265167248Y-35549200D01*
X265261257Y-36021814D01*
X265528971Y-36422477D01*
X265929634Y-36690191D01*
X266402248Y-36784200D01*
X267164352Y-36784200D01*
X267315000Y-36754234D01*
X267315000Y-39000000D01*
X267367143Y-39262138D01*
X267515632Y-39484368D01*
X267873000Y-39841736D01*
X267873000Y-67484366D01*
X267400842Y-69373000D01*
X255627000Y-69373000D01*
X255627000Y-66127000D01*
X256408463Y-66127000D01*
X256879517Y-67540161D01*
X256904634Y-67583871D01*
X256944779Y-67614366D01*
X257000000Y-67627000D01*
X262814889Y-67627000D01*
X262814838Y-67685167D01*
X262956883Y-68028943D01*
X263219673Y-68292192D01*
X263563201Y-68434838D01*
X263935167Y-68435162D01*
X264278943Y-68293117D01*
X264542192Y-68030327D01*
X264684838Y-67686799D01*
X264685162Y-67314833D01*
X264543117Y-66971057D01*
X264510000Y-66937882D01*
X264510000Y-66169606D01*
X266089803Y-64589803D01*
X266117666Y-64547789D01*
X266127000Y-64500000D01*
X266127000Y-60105103D01*
X266736086Y-59853433D01*
X267351273Y-59239319D01*
X267684620Y-58436530D01*
X267685379Y-57567283D01*
X267353433Y-56763914D01*
X266739319Y-56148727D01*
X266127000Y-55894470D01*
X266127000Y-48000000D01*
X266116994Y-47950590D01*
X266089803Y-47910197D01*
X265511840Y-47332234D01*
X265511840Y-47327000D01*
X265467562Y-47091683D01*
X265328490Y-46875559D01*
X265116290Y-46730569D01*
X264864400Y-46679560D01*
X264859166Y-46679560D01*
X264589803Y-46410197D01*
X264547789Y-46382334D01*
X264500000Y-46373000D01*
X248549459Y-46373000D01*
X248584838Y-46287799D01*
X248585162Y-45915833D01*
X248443117Y-45572057D01*
X248180327Y-45308808D01*
X247836799Y-45166162D01*
X247464833Y-45165838D01*
X247132240Y-45303262D01*
X247159838Y-45236799D01*
X247160162Y-44864833D01*
X247018117Y-44521057D01*
X246755327Y-44257808D01*
X246411799Y-44115162D01*
X246039833Y-44114838D01*
X245696057Y-44256883D01*
X245432808Y-44519673D01*
X245290162Y-44863201D01*
X245289838Y-45235167D01*
X245431883Y-45578943D01*
X245694673Y-45842192D01*
X246038201Y-45984838D01*
X246410167Y-45985162D01*
X246742760Y-45847738D01*
X246715162Y-45914201D01*
X246714838Y-46286167D01*
X246750717Y-46373000D01*
X242220989Y-46373000D01*
X242361838Y-46033799D01*
X242362162Y-45661833D01*
X242220117Y-45318057D01*
X241957327Y-45054808D01*
X241613799Y-44912162D01*
X241241833Y-44911838D01*
X240898057Y-45053883D01*
X240634808Y-45316673D01*
X240492162Y-45660201D01*
X240491838Y-46032167D01*
X240632667Y-46373000D01*
X237610000Y-46373000D01*
X237610000Y-45962463D01*
X237642192Y-45930327D01*
X237784838Y-45586799D01*
X237785147Y-45232256D01*
X238019673Y-45467192D01*
X238363201Y-45609838D01*
X238735167Y-45610162D01*
X239078943Y-45468117D01*
X239342192Y-45205327D01*
X239484838Y-44861799D01*
X239485162Y-44489833D01*
X239343117Y-44146057D01*
X239080327Y-43882808D01*
X238736799Y-43740162D01*
X238364833Y-43739838D01*
X238021057Y-43881883D01*
X237757808Y-44144673D01*
X237615162Y-44488201D01*
X237614853Y-44842744D01*
X237380327Y-44607808D01*
X237036799Y-44465162D01*
X236792064Y-44464949D01*
X236860431Y-44364890D01*
X236911440Y-44113000D01*
X236911440Y-43263000D01*
X236867162Y-43027683D01*
X236728090Y-42811559D01*
X236515890Y-42666569D01*
X236264000Y-42615560D01*
X235414000Y-42615560D01*
X235178683Y-42659838D01*
X234962559Y-42798910D01*
X234817569Y-43011110D01*
X234766560Y-43263000D01*
X234766560Y-44113000D01*
X234810838Y-44348317D01*
X234949910Y-44564441D01*
X235162110Y-44709431D01*
X235414000Y-44760440D01*
X236167232Y-44760440D01*
X236057808Y-44869673D01*
X235915162Y-45213201D01*
X235914838Y-45585167D01*
X236056883Y-45928943D01*
X236090000Y-45962118D01*
X236090000Y-46373000D01*
X234810000Y-46373000D01*
X234810000Y-45987506D01*
X234817192Y-45980327D01*
X234959838Y-45636799D01*
X234960162Y-45264833D01*
X234818117Y-44921057D01*
X234555327Y-44657808D01*
X234211799Y-44515162D01*
X233839833Y-44514838D01*
X233835852Y-44516483D01*
X233939431Y-44364890D01*
X233990440Y-44113000D01*
X233990440Y-43263000D01*
X233946162Y-43027683D01*
X233807090Y-42811559D01*
X233594890Y-42666569D01*
X233343000Y-42615560D01*
X232493000Y-42615560D01*
X232257683Y-42659838D01*
X232041559Y-42798910D01*
X231896569Y-43011110D01*
X231845560Y-43263000D01*
X231845560Y-44113000D01*
X231889838Y-44348317D01*
X232028910Y-44564441D01*
X232241110Y-44709431D01*
X232493000Y-44760440D01*
X233343000Y-44760440D01*
X233403775Y-44749004D01*
X233232808Y-44919673D01*
X233090162Y-45263201D01*
X233089838Y-45635167D01*
X233231883Y-45978943D01*
X233290000Y-46037162D01*
X233290000Y-46373000D01*
X231395405Y-46373000D01*
X231330327Y-46307808D01*
X230986799Y-46165162D01*
X230614833Y-46164838D01*
X230271057Y-46306883D01*
X230204825Y-46373000D01*
X223127000Y-46373000D01*
X223127000Y-43659981D01*
X223335167Y-43660162D01*
X223678943Y-43518117D01*
X223942192Y-43255327D01*
X224084838Y-42911799D01*
X224085162Y-42539833D01*
X223943117Y-42196057D01*
X223680327Y-41932808D01*
X223336799Y-41790162D01*
X223127000Y-41789979D01*
X223127000Y-41325000D01*
X238977560Y-41325000D01*
X238977560Y-42175000D01*
X239021838Y-42410317D01*
X239160910Y-42626441D01*
X239373110Y-42771431D01*
X239625000Y-42822440D01*
X240475000Y-42822440D01*
X240710317Y-42778162D01*
X240806135Y-42716505D01*
X240923110Y-42796431D01*
X241175000Y-42847440D01*
X242025000Y-42847440D01*
X242260317Y-42803162D01*
X242362103Y-42737665D01*
X242448110Y-42796431D01*
X242700000Y-42847440D01*
X243550000Y-42847440D01*
X243785317Y-42803162D01*
X244001441Y-42664090D01*
X244026100Y-42628000D01*
X251022560Y-42628000D01*
X251022560Y-43478000D01*
X251066838Y-43713317D01*
X251205910Y-43929441D01*
X251418110Y-44074431D01*
X251670000Y-44125440D01*
X252520000Y-44125440D01*
X252755317Y-44081162D01*
X252971441Y-43942090D01*
X253001566Y-43898000D01*
X263087560Y-43898000D01*
X263087560Y-44748000D01*
X263131838Y-44983317D01*
X263270910Y-45199441D01*
X263483110Y-45344431D01*
X263735000Y-45395440D01*
X264585000Y-45395440D01*
X264820317Y-45351162D01*
X265036441Y-45212090D01*
X265181431Y-44999890D01*
X265232440Y-44748000D01*
X265232440Y-43898000D01*
X265188162Y-43662683D01*
X265049090Y-43446559D01*
X264836890Y-43301569D01*
X264585000Y-43250560D01*
X263735000Y-43250560D01*
X263499683Y-43294838D01*
X263283559Y-43433910D01*
X263138569Y-43646110D01*
X263087560Y-43898000D01*
X253001566Y-43898000D01*
X253116431Y-43729890D01*
X253167440Y-43478000D01*
X253167440Y-42628000D01*
X253123162Y-42392683D01*
X252984090Y-42176559D01*
X252771890Y-42031569D01*
X252520000Y-41980560D01*
X251670000Y-41980560D01*
X251434683Y-42024838D01*
X251218559Y-42163910D01*
X251073569Y-42376110D01*
X251022560Y-42628000D01*
X244026100Y-42628000D01*
X244146431Y-42451890D01*
X244197440Y-42200000D01*
X244197440Y-41350000D01*
X244153162Y-41114683D01*
X244014090Y-40898559D01*
X243801890Y-40753569D01*
X243550000Y-40702560D01*
X242700000Y-40702560D01*
X242464683Y-40746838D01*
X242362897Y-40812335D01*
X242276890Y-40753569D01*
X242025000Y-40702560D01*
X241175000Y-40702560D01*
X240939683Y-40746838D01*
X240843865Y-40808495D01*
X240726890Y-40728569D01*
X240475000Y-40677560D01*
X239625000Y-40677560D01*
X239389683Y-40721838D01*
X239173559Y-40860910D01*
X239028569Y-41073110D01*
X238977560Y-41325000D01*
X223127000Y-41325000D01*
X223127000Y-38951088D01*
X223184838Y-38811799D01*
X223184861Y-38785167D01*
X236664838Y-38785167D01*
X236806883Y-39128943D01*
X237069673Y-39392192D01*
X237413201Y-39534838D01*
X237785167Y-39535162D01*
X238128943Y-39393117D01*
X238392192Y-39130327D01*
X238534838Y-38786799D01*
X238534904Y-38710167D01*
X238614838Y-38710167D01*
X238756883Y-39053943D01*
X239019673Y-39317192D01*
X239363201Y-39459838D01*
X239410077Y-39459879D01*
X240162599Y-40212401D01*
X240409161Y-40377148D01*
X240700000Y-40435000D01*
X245310198Y-40435000D01*
X245562599Y-40687401D01*
X245809160Y-40852148D01*
X245853210Y-40860910D01*
X246100000Y-40910000D01*
X248037537Y-40910000D01*
X248069673Y-40942192D01*
X248413201Y-41084838D01*
X248785167Y-41085162D01*
X249128943Y-40943117D01*
X249392192Y-40680327D01*
X249534838Y-40336799D01*
X249535162Y-39964833D01*
X249393117Y-39621057D01*
X249176779Y-39404341D01*
X249203943Y-39393117D01*
X249467192Y-39130327D01*
X249609838Y-38786799D01*
X249610162Y-38414833D01*
X249468117Y-38071057D01*
X249205327Y-37807808D01*
X248861799Y-37665162D01*
X248489833Y-37664838D01*
X248146057Y-37806883D01*
X248112882Y-37840000D01*
X244239802Y-37840000D01*
X244035122Y-37635320D01*
X244035162Y-37589833D01*
X243893117Y-37246057D01*
X243630327Y-36982808D01*
X243286799Y-36840162D01*
X242914833Y-36839838D01*
X242571057Y-36981883D01*
X242307808Y-37244673D01*
X242165162Y-37588201D01*
X242164953Y-37828416D01*
X242096057Y-37856883D01*
X241905521Y-38047087D01*
X241843117Y-37896057D01*
X241580327Y-37632808D01*
X241236799Y-37490162D01*
X240864833Y-37489838D01*
X240521057Y-37631883D01*
X240257808Y-37894673D01*
X240253138Y-37905920D01*
X240080327Y-37732808D01*
X239736799Y-37590162D01*
X239364833Y-37589838D01*
X239021057Y-37731883D01*
X238757808Y-37994673D01*
X238615162Y-38338201D01*
X238614838Y-38710167D01*
X238534904Y-38710167D01*
X238535162Y-38414833D01*
X238393117Y-38071057D01*
X238130327Y-37807808D01*
X237786799Y-37665162D01*
X237414833Y-37664838D01*
X237071057Y-37806883D01*
X236807808Y-38069673D01*
X236665162Y-38413201D01*
X236664838Y-38785167D01*
X223184861Y-38785167D01*
X223185162Y-38439833D01*
X223043117Y-38096057D01*
X222780327Y-37832808D01*
X222436799Y-37690162D01*
X222064833Y-37689838D01*
X221721057Y-37831883D01*
X221457808Y-38094673D01*
X221342236Y-38373000D01*
X214500000Y-38373000D01*
X214450590Y-38383006D01*
X214408965Y-38411447D01*
X214381685Y-38453841D01*
X214373000Y-38500000D01*
X214373000Y-45340000D01*
X214383006Y-45389410D01*
X214411447Y-45431035D01*
X214453841Y-45458315D01*
X214500000Y-45467000D01*
X215743000Y-45467000D01*
X215743000Y-48383000D01*
X214318036Y-48383000D01*
X214315748Y-48381538D01*
X214269968Y-48373000D01*
X185127000Y-48373000D01*
X185127000Y-46664579D01*
X189564786Y-46664579D01*
X189752408Y-47118657D01*
X190099515Y-47466371D01*
X190553266Y-47654785D01*
X191044579Y-47655214D01*
X191498657Y-47467592D01*
X191846371Y-47120485D01*
X192034785Y-46666734D01*
X192035214Y-46175421D01*
X191997922Y-46085167D01*
X206014838Y-46085167D01*
X206156883Y-46428943D01*
X206419673Y-46692192D01*
X206763201Y-46834838D01*
X207135167Y-46835162D01*
X207478943Y-46693117D01*
X207742192Y-46430327D01*
X207884838Y-46086799D01*
X207885162Y-45714833D01*
X207743117Y-45371057D01*
X207532595Y-45160167D01*
X208489838Y-45160167D01*
X208631883Y-45503943D01*
X208894673Y-45767192D01*
X209238201Y-45909838D01*
X209610167Y-45910162D01*
X209953943Y-45768117D01*
X210150133Y-45572269D01*
X210369673Y-45792192D01*
X210713201Y-45934838D01*
X211085167Y-45935162D01*
X211428943Y-45793117D01*
X211692192Y-45530327D01*
X211834838Y-45186799D01*
X211835162Y-44814833D01*
X211693117Y-44471057D01*
X211430327Y-44207808D01*
X211086799Y-44065162D01*
X210714833Y-44064838D01*
X210371057Y-44206883D01*
X210174867Y-44402731D01*
X209955327Y-44182808D01*
X209611799Y-44040162D01*
X209239833Y-44039838D01*
X208896057Y-44181883D01*
X208632808Y-44444673D01*
X208490162Y-44788201D01*
X208489838Y-45160167D01*
X207532595Y-45160167D01*
X207480327Y-45107808D01*
X207136799Y-44965162D01*
X206764833Y-44964838D01*
X206421057Y-45106883D01*
X206157808Y-45369673D01*
X206015162Y-45713201D01*
X206014838Y-46085167D01*
X191997922Y-46085167D01*
X191847592Y-45721343D01*
X191500485Y-45373629D01*
X191046734Y-45185215D01*
X190555421Y-45184786D01*
X190101343Y-45372408D01*
X189753629Y-45719515D01*
X189565215Y-46173266D01*
X189564786Y-46664579D01*
X185127000Y-46664579D01*
X185127000Y-44127167D01*
X195787838Y-44127167D01*
X195929883Y-44470943D01*
X196192673Y-44734192D01*
X196536201Y-44876838D01*
X196908167Y-44877162D01*
X197251943Y-44735117D01*
X197515192Y-44472327D01*
X197657838Y-44128799D01*
X197658050Y-43885167D01*
X201364838Y-43885167D01*
X201506883Y-44228943D01*
X201769673Y-44492192D01*
X202113201Y-44634838D01*
X202485167Y-44635162D01*
X202828943Y-44493117D01*
X203092192Y-44230327D01*
X203234838Y-43886799D01*
X203235162Y-43514833D01*
X203093117Y-43171057D01*
X202830327Y-42907808D01*
X202486799Y-42765162D01*
X202114833Y-42764838D01*
X201771057Y-42906883D01*
X201507808Y-43169673D01*
X201365162Y-43513201D01*
X201364838Y-43885167D01*
X197658050Y-43885167D01*
X197658162Y-43756833D01*
X197516117Y-43413057D01*
X197253327Y-43149808D01*
X196909799Y-43007162D01*
X196537833Y-43006838D01*
X196194057Y-43148883D01*
X195930808Y-43411673D01*
X195788162Y-43755201D01*
X195787838Y-44127167D01*
X185127000Y-44127167D01*
X185127000Y-44063500D01*
X186298333Y-43185000D01*
X191000000Y-43185000D01*
X191262138Y-43132857D01*
X191484368Y-42984368D01*
X192833569Y-41635167D01*
X209464838Y-41635167D01*
X209606883Y-41978943D01*
X209869673Y-42242192D01*
X210213201Y-42384838D01*
X210585167Y-42385162D01*
X210928943Y-42243117D01*
X211192192Y-41980327D01*
X211334838Y-41636799D01*
X211335162Y-41264833D01*
X211193117Y-40921057D01*
X210930327Y-40657808D01*
X210586799Y-40515162D01*
X210214833Y-40514838D01*
X209871057Y-40656883D01*
X209607808Y-40919673D01*
X209465162Y-41263201D01*
X209464838Y-41635167D01*
X192833569Y-41635167D01*
X193484368Y-40984368D01*
X193632857Y-40762138D01*
X193685000Y-40500000D01*
X193685000Y-37442619D01*
X195764613Y-37442619D01*
X196104155Y-38264372D01*
X196732321Y-38893636D01*
X197553481Y-39234611D01*
X198442619Y-39235387D01*
X199264372Y-38895845D01*
X199893636Y-38267679D01*
X200135515Y-37685167D01*
X209814838Y-37685167D01*
X209956883Y-38028943D01*
X210219673Y-38292192D01*
X210563201Y-38434838D01*
X210935167Y-38435162D01*
X211278943Y-38293117D01*
X211542192Y-38030327D01*
X211684838Y-37686799D01*
X211685162Y-37314833D01*
X211543117Y-36971057D01*
X211280327Y-36707808D01*
X210936799Y-36565162D01*
X210564833Y-36564838D01*
X210221057Y-36706883D01*
X209957808Y-36969673D01*
X209815162Y-37313201D01*
X209814838Y-37685167D01*
X200135515Y-37685167D01*
X200234611Y-37446519D01*
X200235387Y-36557381D01*
X199895845Y-35735628D01*
X199267679Y-35106364D01*
X198446519Y-34765389D01*
X197557381Y-34764613D01*
X196735628Y-35104155D01*
X196106364Y-35732321D01*
X195765389Y-36553481D01*
X195764613Y-37442619D01*
X193685000Y-37442619D01*
X193685000Y-34685167D01*
X202164838Y-34685167D01*
X202306883Y-35028943D01*
X202569673Y-35292192D01*
X202913201Y-35434838D01*
X203285167Y-35435162D01*
X203628943Y-35293117D01*
X203892192Y-35030327D01*
X204034838Y-34686799D01*
X204035162Y-34314833D01*
X203898948Y-33985167D01*
X204164838Y-33985167D01*
X204306883Y-34328943D01*
X204569673Y-34592192D01*
X204913201Y-34734838D01*
X205285167Y-34735162D01*
X205628943Y-34593117D01*
X205892192Y-34330327D01*
X205952467Y-34185167D01*
X206764838Y-34185167D01*
X206906883Y-34528943D01*
X207169673Y-34792192D01*
X207513201Y-34934838D01*
X207885167Y-34935162D01*
X208016249Y-34881000D01*
X220669560Y-34881000D01*
X220669560Y-35731000D01*
X220713838Y-35966317D01*
X220852910Y-36182441D01*
X221065110Y-36327431D01*
X221317000Y-36378440D01*
X222167000Y-36378440D01*
X222402317Y-36334162D01*
X222618441Y-36195090D01*
X222763431Y-35982890D01*
X222814440Y-35731000D01*
X222814440Y-34881000D01*
X222770162Y-34645683D01*
X222631090Y-34429559D01*
X222418890Y-34284569D01*
X222167000Y-34233560D01*
X221317000Y-34233560D01*
X221081683Y-34277838D01*
X220865559Y-34416910D01*
X220720569Y-34629110D01*
X220669560Y-34881000D01*
X208016249Y-34881000D01*
X208228943Y-34793117D01*
X208492192Y-34530327D01*
X208634838Y-34186799D01*
X208634909Y-34104753D01*
X208706883Y-34278943D01*
X208969673Y-34542192D01*
X209313201Y-34684838D01*
X209685167Y-34685162D01*
X210028943Y-34543117D01*
X210292192Y-34280327D01*
X210434838Y-33936799D01*
X210435162Y-33564833D01*
X210293117Y-33221057D01*
X210030327Y-32957808D01*
X209686799Y-32815162D01*
X209314833Y-32814838D01*
X208971057Y-32956883D01*
X208707808Y-33219673D01*
X208565162Y-33563201D01*
X208565091Y-33645247D01*
X208493117Y-33471057D01*
X208230327Y-33207808D01*
X207886799Y-33065162D01*
X207514833Y-33064838D01*
X207171057Y-33206883D01*
X206907808Y-33469673D01*
X206765162Y-33813201D01*
X206764838Y-34185167D01*
X205952467Y-34185167D01*
X206034838Y-33986799D01*
X206035162Y-33614833D01*
X205893117Y-33271057D01*
X205630327Y-33007808D01*
X205286799Y-32865162D01*
X204914833Y-32864838D01*
X204571057Y-33006883D01*
X204307808Y-33269673D01*
X204165162Y-33613201D01*
X204164838Y-33985167D01*
X203898948Y-33985167D01*
X203893117Y-33971057D01*
X203630327Y-33707808D01*
X203286799Y-33565162D01*
X202914833Y-33564838D01*
X202571057Y-33706883D01*
X202307808Y-33969673D01*
X202165162Y-34313201D01*
X202164838Y-34685167D01*
X193685000Y-34685167D01*
X193685000Y-31785167D01*
X210764838Y-31785167D01*
X210906883Y-32128943D01*
X211169673Y-32392192D01*
X211513201Y-32534838D01*
X211885167Y-32535162D01*
X212228943Y-32393117D01*
X212492192Y-32130327D01*
X212520494Y-32062167D01*
X224489838Y-32062167D01*
X224631883Y-32405943D01*
X224894673Y-32669192D01*
X225238201Y-32811838D01*
X225610167Y-32812162D01*
X225869714Y-32704920D01*
X226127201Y-32811838D01*
X226415600Y-32812089D01*
X226415600Y-34878977D01*
X226255833Y-34878838D01*
X226059943Y-34959778D01*
X225865799Y-34879162D01*
X225493833Y-34878838D01*
X225150057Y-35020883D01*
X224886808Y-35283673D01*
X224744162Y-35627201D01*
X224743838Y-35999167D01*
X224885883Y-36342943D01*
X225148673Y-36606192D01*
X225492201Y-36748838D01*
X225864167Y-36749162D01*
X226060057Y-36668222D01*
X226254201Y-36748838D01*
X226626167Y-36749162D01*
X226969943Y-36607117D01*
X227070067Y-36507167D01*
X236046838Y-36507167D01*
X236188883Y-36850943D01*
X236451673Y-37114192D01*
X236795201Y-37256838D01*
X237167167Y-37257162D01*
X237510943Y-37115117D01*
X237774192Y-36852327D01*
X237916838Y-36508799D01*
X237916889Y-36450000D01*
X250827560Y-36450000D01*
X250827560Y-37300000D01*
X250871838Y-37535317D01*
X250999169Y-37733195D01*
X250903569Y-37873110D01*
X250852560Y-38125000D01*
X250852560Y-38975000D01*
X250896838Y-39210317D01*
X251035910Y-39426441D01*
X251055900Y-39440099D01*
X251023559Y-39460910D01*
X250878569Y-39673110D01*
X250827560Y-39925000D01*
X250827560Y-40775000D01*
X250871838Y-41010317D01*
X251010910Y-41226441D01*
X251223110Y-41371431D01*
X251475000Y-41422440D01*
X252325000Y-41422440D01*
X252560317Y-41378162D01*
X252776441Y-41239090D01*
X252921431Y-41026890D01*
X252972440Y-40775000D01*
X252972440Y-39925000D01*
X252928162Y-39689683D01*
X252789090Y-39473559D01*
X252769100Y-39459901D01*
X252801441Y-39439090D01*
X252946431Y-39226890D01*
X252977797Y-39072000D01*
X263087560Y-39072000D01*
X263087560Y-39922000D01*
X263131838Y-40157317D01*
X263270910Y-40373441D01*
X263483110Y-40518431D01*
X263735000Y-40569440D01*
X264585000Y-40569440D01*
X264820317Y-40525162D01*
X265036441Y-40386090D01*
X265181431Y-40173890D01*
X265232440Y-39922000D01*
X265232440Y-39072000D01*
X265188162Y-38836683D01*
X265049090Y-38620559D01*
X264836890Y-38475569D01*
X264585000Y-38424560D01*
X263735000Y-38424560D01*
X263499683Y-38468838D01*
X263283559Y-38607910D01*
X263138569Y-38820110D01*
X263087560Y-39072000D01*
X252977797Y-39072000D01*
X252997440Y-38975000D01*
X252997440Y-38125000D01*
X252953162Y-37889683D01*
X252825831Y-37691805D01*
X252921431Y-37551890D01*
X252972440Y-37300000D01*
X252972440Y-36450000D01*
X252928162Y-36214683D01*
X252789090Y-35998559D01*
X252576890Y-35853569D01*
X252325000Y-35802560D01*
X251475000Y-35802560D01*
X251239683Y-35846838D01*
X251023559Y-35985910D01*
X250878569Y-36198110D01*
X250827560Y-36450000D01*
X237916889Y-36450000D01*
X237917162Y-36136833D01*
X237775117Y-35793057D01*
X237663922Y-35681667D01*
X240047338Y-35681667D01*
X240189383Y-36025443D01*
X240452173Y-36288692D01*
X240795701Y-36431338D01*
X241167667Y-36431662D01*
X241511443Y-36289617D01*
X241774692Y-36026827D01*
X241917338Y-35683299D01*
X241917662Y-35311333D01*
X241824048Y-35084767D01*
X244733638Y-35084767D01*
X244875683Y-35428543D01*
X245138473Y-35691792D01*
X245482001Y-35834438D01*
X245853967Y-35834762D01*
X246197743Y-35692717D01*
X246460992Y-35429927D01*
X246593768Y-35110167D01*
X253664838Y-35110167D01*
X253806883Y-35453943D01*
X253915210Y-35562459D01*
X253807808Y-35669673D01*
X253665162Y-36013201D01*
X253664838Y-36385167D01*
X253806883Y-36728943D01*
X254069673Y-36992192D01*
X254413201Y-37134838D01*
X254785167Y-37135162D01*
X255128943Y-36993117D01*
X255392192Y-36730327D01*
X255534838Y-36386799D01*
X255535162Y-36014833D01*
X255393117Y-35671057D01*
X255284790Y-35562541D01*
X255392192Y-35455327D01*
X255466694Y-35275907D01*
X255488201Y-35284838D01*
X255860167Y-35285162D01*
X256203943Y-35143117D01*
X256467192Y-34880327D01*
X256609838Y-34536799D01*
X256610162Y-34164833D01*
X256468117Y-33821057D01*
X256205327Y-33557808D01*
X255861799Y-33415162D01*
X255489833Y-33414838D01*
X255146057Y-33556883D01*
X254882808Y-33819673D01*
X254808306Y-33999093D01*
X254786799Y-33990162D01*
X254414833Y-33989838D01*
X254071057Y-34131883D01*
X253807808Y-34394673D01*
X253665162Y-34738201D01*
X253664838Y-35110167D01*
X246593768Y-35110167D01*
X246603638Y-35086399D01*
X246603962Y-34714433D01*
X246461917Y-34370657D01*
X246199127Y-34107408D01*
X245855599Y-33964762D01*
X245483633Y-33964438D01*
X245139857Y-34106483D01*
X244876608Y-34369273D01*
X244733962Y-34712801D01*
X244733638Y-35084767D01*
X241824048Y-35084767D01*
X241775617Y-34967557D01*
X241512827Y-34704308D01*
X241169299Y-34561662D01*
X240797333Y-34561338D01*
X240453557Y-34703383D01*
X240190308Y-34966173D01*
X240047662Y-35309701D01*
X240047338Y-35681667D01*
X237663922Y-35681667D01*
X237512327Y-35529808D01*
X237168799Y-35387162D01*
X236796833Y-35386838D01*
X236453057Y-35528883D01*
X236189808Y-35791673D01*
X236047162Y-36135201D01*
X236046838Y-36507167D01*
X227070067Y-36507167D01*
X227233192Y-36344327D01*
X227375838Y-36000799D01*
X227376162Y-35628833D01*
X227284751Y-35407600D01*
X227482400Y-35407600D01*
X227482400Y-35814000D01*
X227491085Y-35860159D01*
X227518365Y-35902553D01*
X227559990Y-35930994D01*
X227609400Y-35941000D01*
X232105200Y-35941000D01*
X232151359Y-35932315D01*
X232193753Y-35905035D01*
X232222194Y-35863410D01*
X232232200Y-35814000D01*
X232232200Y-34551367D01*
X236631038Y-34551367D01*
X236773083Y-34895143D01*
X237035873Y-35158392D01*
X237379401Y-35301038D01*
X237751367Y-35301362D01*
X238095143Y-35159317D01*
X238358392Y-34896527D01*
X238367400Y-34874834D01*
X238598601Y-34970838D01*
X238970567Y-34971162D01*
X239314343Y-34829117D01*
X239577592Y-34566327D01*
X239720238Y-34222799D01*
X239720562Y-33850833D01*
X239578517Y-33507057D01*
X239315727Y-33243808D01*
X238972199Y-33101162D01*
X238600233Y-33100838D01*
X238256457Y-33242883D01*
X237993208Y-33505673D01*
X237984200Y-33527366D01*
X237752999Y-33431362D01*
X237381033Y-33431038D01*
X237037257Y-33573083D01*
X236774008Y-33835873D01*
X236631362Y-34179401D01*
X236631038Y-34551367D01*
X232232200Y-34551367D01*
X232232200Y-32485167D01*
X255764838Y-32485167D01*
X255906883Y-32828943D01*
X256169673Y-33092192D01*
X256513201Y-33234838D01*
X256885167Y-33235162D01*
X257228943Y-33093117D01*
X257492192Y-32830327D01*
X257614753Y-32535167D01*
X260415338Y-32535167D01*
X260557383Y-32878943D01*
X260820173Y-33142192D01*
X261163701Y-33284838D01*
X261535667Y-33285162D01*
X261879443Y-33143117D01*
X262142692Y-32880327D01*
X262285338Y-32536799D01*
X262285662Y-32164833D01*
X262143617Y-31821057D01*
X261880827Y-31557808D01*
X261537299Y-31415162D01*
X261165333Y-31414838D01*
X260821557Y-31556883D01*
X260558308Y-31819673D01*
X260415662Y-32163201D01*
X260415338Y-32535167D01*
X257614753Y-32535167D01*
X257634838Y-32486799D01*
X257635162Y-32114833D01*
X257493117Y-31771057D01*
X257230327Y-31507808D01*
X256886799Y-31365162D01*
X256514833Y-31364838D01*
X256171057Y-31506883D01*
X255907808Y-31769673D01*
X255765162Y-32113201D01*
X255764838Y-32485167D01*
X232232200Y-32485167D01*
X232232200Y-31485167D01*
X247264838Y-31485167D01*
X247406883Y-31828943D01*
X247669673Y-32092192D01*
X248013201Y-32234838D01*
X248385167Y-32235162D01*
X248728943Y-32093117D01*
X248992192Y-31830327D01*
X249134838Y-31486799D01*
X249135162Y-31114833D01*
X248998948Y-30785167D01*
X251164838Y-30785167D01*
X251306883Y-31128943D01*
X251569673Y-31392192D01*
X251913201Y-31534838D01*
X252285167Y-31535162D01*
X252628943Y-31393117D01*
X252892192Y-31130327D01*
X253034838Y-30786799D01*
X253035162Y-30414833D01*
X252893117Y-30071057D01*
X252630327Y-29807808D01*
X252286799Y-29665162D01*
X251991121Y-29664904D01*
X252169327Y-29486699D01*
X252266000Y-29253310D01*
X252266000Y-28987750D01*
X252107250Y-28829000D01*
X251333000Y-28829000D01*
X251333000Y-29603250D01*
X251491750Y-29762000D01*
X251679682Y-29762000D01*
X251571057Y-29806883D01*
X251307808Y-30069673D01*
X251165162Y-30413201D01*
X251164838Y-30785167D01*
X248998948Y-30785167D01*
X248993117Y-30771057D01*
X248730327Y-30507808D01*
X248386799Y-30365162D01*
X248014833Y-30364838D01*
X247671057Y-30506883D01*
X247407808Y-30769673D01*
X247265162Y-31113201D01*
X247264838Y-31485167D01*
X232232200Y-31485167D01*
X232232200Y-30635167D01*
X239639838Y-30635167D01*
X239781883Y-30978943D01*
X240044673Y-31242192D01*
X240388201Y-31384838D01*
X240760167Y-31385162D01*
X241103943Y-31243117D01*
X241367192Y-30980327D01*
X241450344Y-30780076D01*
X241548667Y-30780162D01*
X241892443Y-30638117D01*
X242155692Y-30375327D01*
X242298338Y-30031799D01*
X242298662Y-29659833D01*
X242156617Y-29316057D01*
X241893827Y-29052808D01*
X241737151Y-28987750D01*
X250146000Y-28987750D01*
X250146000Y-29253310D01*
X250242673Y-29486699D01*
X250421302Y-29665327D01*
X250654691Y-29762000D01*
X250920250Y-29762000D01*
X251079000Y-29603250D01*
X251079000Y-28829000D01*
X250304750Y-28829000D01*
X250146000Y-28987750D01*
X241737151Y-28987750D01*
X241550299Y-28910162D01*
X241178333Y-28909838D01*
X240834557Y-29051883D01*
X240571308Y-29314673D01*
X240488156Y-29514924D01*
X240389833Y-29514838D01*
X240046057Y-29656883D01*
X239782808Y-29919673D01*
X239640162Y-30263201D01*
X239639838Y-30635167D01*
X232232200Y-30635167D01*
X232232200Y-29494843D01*
X232215798Y-29432416D01*
X232182796Y-29394305D01*
X232137568Y-29372037D01*
X232087240Y-29369119D01*
X231867572Y-29400500D01*
X226810634Y-29400500D01*
X226590327Y-29179808D01*
X226246799Y-29037162D01*
X225874833Y-29036838D01*
X225531057Y-29178883D01*
X225267808Y-29441673D01*
X225125162Y-29785201D01*
X225124838Y-30157167D01*
X225266883Y-30500943D01*
X225529673Y-30764192D01*
X225873201Y-30906838D01*
X226245167Y-30907162D01*
X226415600Y-30836741D01*
X226415600Y-30942088D01*
X226128833Y-30941838D01*
X225869286Y-31049080D01*
X225611799Y-30942162D01*
X225239833Y-30941838D01*
X224896057Y-31083883D01*
X224632808Y-31346673D01*
X224490162Y-31690201D01*
X224489838Y-32062167D01*
X212520494Y-32062167D01*
X212634838Y-31786799D01*
X212635162Y-31414833D01*
X212493117Y-31071057D01*
X212230327Y-30807808D01*
X211886799Y-30665162D01*
X211514833Y-30664838D01*
X211171057Y-30806883D01*
X210907808Y-31069673D01*
X210765162Y-31413201D01*
X210764838Y-31785167D01*
X193685000Y-31785167D01*
X193685000Y-29385167D01*
X213564838Y-29385167D01*
X213706883Y-29728943D01*
X213969673Y-29992192D01*
X214313201Y-30134838D01*
X214685167Y-30135162D01*
X215028943Y-29993117D01*
X215292192Y-29730327D01*
X215434838Y-29386799D01*
X215435162Y-29014833D01*
X215293117Y-28671057D01*
X215030327Y-28407808D01*
X214686799Y-28265162D01*
X214314833Y-28264838D01*
X213971057Y-28406883D01*
X213707808Y-28669673D01*
X213565162Y-29013201D01*
X213564838Y-29385167D01*
X193685000Y-29385167D01*
X193685000Y-27585167D01*
X206464838Y-27585167D01*
X206606883Y-27928943D01*
X206869673Y-28192192D01*
X207213201Y-28334838D01*
X207585167Y-28335162D01*
X207928943Y-28193117D01*
X208192192Y-27930327D01*
X208273229Y-27735167D01*
X224464838Y-27735167D01*
X224606883Y-28078943D01*
X224869673Y-28342192D01*
X225213201Y-28484838D01*
X225585167Y-28485162D01*
X225928943Y-28343117D01*
X226121706Y-28150690D01*
X250146000Y-28150690D01*
X250146000Y-28416250D01*
X250304750Y-28575000D01*
X251079000Y-28575000D01*
X251079000Y-27800750D01*
X251333000Y-27800750D01*
X251333000Y-28575000D01*
X252107250Y-28575000D01*
X252266000Y-28416250D01*
X252266000Y-28150690D01*
X252169327Y-27917301D01*
X251990698Y-27738673D01*
X251757309Y-27642000D01*
X251491750Y-27642000D01*
X251333000Y-27800750D01*
X251079000Y-27800750D01*
X250920250Y-27642000D01*
X250654691Y-27642000D01*
X250421302Y-27738673D01*
X250242673Y-27917301D01*
X250146000Y-28150690D01*
X226121706Y-28150690D01*
X226192192Y-28080327D01*
X226334838Y-27736799D01*
X226335162Y-27364833D01*
X226193117Y-27021057D01*
X225930327Y-26757808D01*
X225586799Y-26615162D01*
X225214833Y-26614838D01*
X224871057Y-26756883D01*
X224607808Y-27019673D01*
X224465162Y-27363201D01*
X224464838Y-27735167D01*
X208273229Y-27735167D01*
X208334838Y-27586799D01*
X208335162Y-27214833D01*
X208193117Y-26871057D01*
X207930327Y-26607808D01*
X207586799Y-26465162D01*
X207214833Y-26464838D01*
X206871057Y-26606883D01*
X206607808Y-26869673D01*
X206465162Y-27213201D01*
X206464838Y-27585167D01*
X193685000Y-27585167D01*
X193685000Y-26185167D01*
X213664838Y-26185167D01*
X213806883Y-26528943D01*
X214069673Y-26792192D01*
X214413201Y-26934838D01*
X214785167Y-26935162D01*
X215128943Y-26793117D01*
X215337256Y-26585167D01*
X238964838Y-26585167D01*
X239106883Y-26928943D01*
X239369673Y-27192192D01*
X239614874Y-27294009D01*
X239614838Y-27335167D01*
X239756883Y-27678943D01*
X240019673Y-27942192D01*
X240363201Y-28084838D01*
X240735167Y-28085162D01*
X241078943Y-27943117D01*
X241342192Y-27680327D01*
X241484838Y-27336799D01*
X241485038Y-27107147D01*
X241719673Y-27342192D01*
X242063201Y-27484838D01*
X242435167Y-27485162D01*
X242778943Y-27343117D01*
X243042192Y-27080327D01*
X243184838Y-26736799D01*
X243185162Y-26364833D01*
X243083173Y-26118000D01*
X258642560Y-26118000D01*
X258642560Y-26968000D01*
X258686838Y-27203317D01*
X258825910Y-27419441D01*
X259038110Y-27564431D01*
X259290000Y-27615440D01*
X260140000Y-27615440D01*
X260375317Y-27571162D01*
X260591441Y-27432090D01*
X260736431Y-27219890D01*
X260787440Y-26968000D01*
X260787440Y-26118000D01*
X260743162Y-25882683D01*
X260604090Y-25666559D01*
X260391890Y-25521569D01*
X260140000Y-25470560D01*
X259290000Y-25470560D01*
X259054683Y-25514838D01*
X258838559Y-25653910D01*
X258693569Y-25866110D01*
X258642560Y-26118000D01*
X243083173Y-26118000D01*
X243043117Y-26021057D01*
X242780327Y-25757808D01*
X242436799Y-25615162D01*
X242064833Y-25614838D01*
X241721057Y-25756883D01*
X241457808Y-26019673D01*
X241315162Y-26363201D01*
X241314962Y-26592853D01*
X241080327Y-26357808D01*
X240835126Y-26255991D01*
X240835162Y-26214833D01*
X240693117Y-25871057D01*
X240430327Y-25607808D01*
X240086799Y-25465162D01*
X239714833Y-25464838D01*
X239371057Y-25606883D01*
X239107808Y-25869673D01*
X238965162Y-26213201D01*
X238964838Y-26585167D01*
X215337256Y-26585167D01*
X215392192Y-26530327D01*
X215534838Y-26186799D01*
X215535162Y-25814833D01*
X215393117Y-25471057D01*
X215207552Y-25285167D01*
X235664838Y-25285167D01*
X235806883Y-25628943D01*
X236069673Y-25892192D01*
X236413201Y-26034838D01*
X236785167Y-26035162D01*
X237128943Y-25893117D01*
X237392192Y-25630327D01*
X237534838Y-25286799D01*
X237535162Y-24914833D01*
X237393117Y-24571057D01*
X237130327Y-24307808D01*
X236786799Y-24165162D01*
X236414833Y-24164838D01*
X236071057Y-24306883D01*
X235807808Y-24569673D01*
X235665162Y-24913201D01*
X235664838Y-25285167D01*
X215207552Y-25285167D01*
X215130327Y-25207808D01*
X214786799Y-25065162D01*
X214414833Y-25064838D01*
X214071057Y-25206883D01*
X213807808Y-25469673D01*
X213665162Y-25813201D01*
X213664838Y-26185167D01*
X193685000Y-26185167D01*
X193685000Y-25385167D01*
X202964838Y-25385167D01*
X203106883Y-25728943D01*
X203369673Y-25992192D01*
X203713201Y-26134838D01*
X204085167Y-26135162D01*
X204428943Y-25993117D01*
X204692192Y-25730327D01*
X204834838Y-25386799D01*
X204835162Y-25014833D01*
X204693117Y-24671057D01*
X204430327Y-24407808D01*
X204086799Y-24265162D01*
X203714833Y-24264838D01*
X203371057Y-24406883D01*
X203107808Y-24669673D01*
X202965162Y-25013201D01*
X202964838Y-25385167D01*
X193685000Y-25385167D01*
X193685000Y-24283736D01*
X194683569Y-23285167D01*
X208864838Y-23285167D01*
X209006883Y-23628943D01*
X209269673Y-23892192D01*
X209613201Y-24034838D01*
X209985167Y-24035162D01*
X210328943Y-23893117D01*
X210592192Y-23630327D01*
X210734838Y-23286799D01*
X210735162Y-22914833D01*
X210702245Y-22835167D01*
X218564838Y-22835167D01*
X218706883Y-23178943D01*
X218969673Y-23442192D01*
X219313201Y-23584838D01*
X219685167Y-23585162D01*
X220028943Y-23443117D01*
X220292192Y-23180327D01*
X220434838Y-22836799D01*
X220435057Y-22585167D01*
X234914838Y-22585167D01*
X235056883Y-22928943D01*
X235319673Y-23192192D01*
X235663201Y-23334838D01*
X236035167Y-23335162D01*
X236378943Y-23193117D01*
X236642192Y-22930327D01*
X236754050Y-22660942D01*
X241002730Y-22660942D01*
X241239725Y-23234514D01*
X241678177Y-23673732D01*
X242251336Y-23911728D01*
X242871942Y-23912270D01*
X243445514Y-23675275D01*
X243813256Y-23308174D01*
X244178177Y-23673732D01*
X244751336Y-23911728D01*
X245371942Y-23912270D01*
X245945514Y-23675275D01*
X246313256Y-23308174D01*
X246678177Y-23673732D01*
X247251336Y-23911728D01*
X247871942Y-23912270D01*
X248445514Y-23675275D01*
X248565881Y-23555118D01*
X248599673Y-23636699D01*
X248778302Y-23815327D01*
X249011691Y-23912000D01*
X249777250Y-23912000D01*
X249936000Y-23753250D01*
X249936000Y-22479000D01*
X250190000Y-22479000D01*
X250190000Y-23753250D01*
X250348750Y-23912000D01*
X251114309Y-23912000D01*
X251347698Y-23815327D01*
X251526327Y-23636699D01*
X251623000Y-23403310D01*
X251623000Y-22637750D01*
X251464250Y-22479000D01*
X250190000Y-22479000D01*
X249936000Y-22479000D01*
X249916000Y-22479000D01*
X249916000Y-22225000D01*
X249936000Y-22225000D01*
X249936000Y-20950750D01*
X250190000Y-20950750D01*
X250190000Y-22225000D01*
X251464250Y-22225000D01*
X251623000Y-22066250D01*
X251623000Y-21692619D01*
X260764613Y-21692619D01*
X261104155Y-22514372D01*
X261732321Y-23143636D01*
X262553481Y-23484611D01*
X263442619Y-23485387D01*
X264264372Y-23145845D01*
X264893636Y-22517679D01*
X265234611Y-21696519D01*
X265235387Y-20807381D01*
X264895845Y-19985628D01*
X264267679Y-19356364D01*
X263446519Y-19015389D01*
X262557381Y-19014613D01*
X261735628Y-19354155D01*
X261106364Y-19982321D01*
X260765389Y-20803481D01*
X260764613Y-21692619D01*
X251623000Y-21692619D01*
X251623000Y-21300690D01*
X251526327Y-21067301D01*
X251347698Y-20888673D01*
X251114309Y-20792000D01*
X250348750Y-20792000D01*
X250190000Y-20950750D01*
X249936000Y-20950750D01*
X249777250Y-20792000D01*
X249011691Y-20792000D01*
X248778302Y-20888673D01*
X248599673Y-21067301D01*
X248565983Y-21148635D01*
X248447823Y-21030268D01*
X247874664Y-20792272D01*
X247254058Y-20791730D01*
X246680486Y-21028725D01*
X246312744Y-21395826D01*
X245947823Y-21030268D01*
X245374664Y-20792272D01*
X244754058Y-20791730D01*
X244180486Y-21028725D01*
X243812744Y-21395826D01*
X243447823Y-21030268D01*
X242874664Y-20792272D01*
X242254058Y-20791730D01*
X241680486Y-21028725D01*
X241241268Y-21467177D01*
X241003272Y-22040336D01*
X241002730Y-22660942D01*
X236754050Y-22660942D01*
X236784838Y-22586799D01*
X236785162Y-22214833D01*
X236643117Y-21871057D01*
X236380327Y-21607808D01*
X236036799Y-21465162D01*
X235664833Y-21464838D01*
X235321057Y-21606883D01*
X235057808Y-21869673D01*
X234915162Y-22213201D01*
X234914838Y-22585167D01*
X220435057Y-22585167D01*
X220435162Y-22464833D01*
X220293117Y-22121057D01*
X220030327Y-21857808D01*
X219686799Y-21715162D01*
X219314833Y-21714838D01*
X218971057Y-21856883D01*
X218707808Y-22119673D01*
X218565162Y-22463201D01*
X218564838Y-22835167D01*
X210702245Y-22835167D01*
X210593117Y-22571057D01*
X210330327Y-22307808D01*
X209986799Y-22165162D01*
X209614833Y-22164838D01*
X209271057Y-22306883D01*
X209007808Y-22569673D01*
X208865162Y-22913201D01*
X208864838Y-23285167D01*
X194683569Y-23285167D01*
X197283736Y-20685000D01*
X219000000Y-20685000D01*
X219262138Y-20632857D01*
X219484368Y-20484368D01*
X221283736Y-18685000D01*
X266716264Y-18685000D01*
X269315000Y-21283736D01*
X269315000Y-21283736D01*
G37*
X269315000Y-21283736D02*
X269315000Y-22716264D01*
X267515632Y-24515632D01*
X267367143Y-24737862D01*
X267315000Y-25000000D01*
X267315000Y-27344166D01*
X267164352Y-27314200D01*
X266402248Y-27314200D01*
X265929634Y-27408209D01*
X265528971Y-27675923D01*
X265261257Y-28076586D01*
X265167248Y-28549200D01*
X265207200Y-28750052D01*
X264854684Y-28396920D01*
X264355008Y-28189437D01*
X263813966Y-28188964D01*
X263313928Y-28395576D01*
X262931020Y-28777816D01*
X262723537Y-29277492D01*
X262723067Y-29814976D01*
X262564833Y-29814838D01*
X262221057Y-29956883D01*
X261957808Y-30219673D01*
X261815162Y-30563201D01*
X261814838Y-30935167D01*
X261956883Y-31278943D01*
X262219673Y-31542192D01*
X262563201Y-31684838D01*
X262935167Y-31685162D01*
X263278943Y-31543117D01*
X263542192Y-31280327D01*
X263684838Y-30936799D01*
X263684908Y-30856359D01*
X263811592Y-30908963D01*
X264352634Y-30909436D01*
X264852672Y-30702824D01*
X265235580Y-30320584D01*
X265443063Y-29820908D01*
X265443523Y-29294595D01*
X265528971Y-29422477D01*
X265929634Y-29690191D01*
X266402248Y-29784200D01*
X267164352Y-29784200D01*
X267315000Y-29754234D01*
X267315000Y-34344166D01*
X267164352Y-34314200D01*
X266402248Y-34314200D01*
X265929634Y-34408209D01*
X265528971Y-34675923D01*
X265443077Y-34804472D01*
X265443536Y-34279866D01*
X265236924Y-33779828D01*
X264854684Y-33396920D01*
X264355008Y-33189437D01*
X263813966Y-33188964D01*
X263493713Y-33321290D01*
X263493617Y-33321057D01*
X263230827Y-33057808D01*
X262887299Y-32915162D01*
X262515333Y-32914838D01*
X262171557Y-33056883D01*
X261908308Y-33319673D01*
X261765662Y-33663201D01*
X261765338Y-34035167D01*
X261907383Y-34378943D01*
X262170173Y-34642192D01*
X262513701Y-34784838D01*
X262723093Y-34785020D01*
X262723064Y-34818534D01*
X262929676Y-35318572D01*
X263311916Y-35701480D01*
X263811592Y-35908963D01*
X264352634Y-35909436D01*
X264852672Y-35702824D01*
X265207059Y-35349055D01*
X265167248Y-35549200D01*
X265261257Y-36021814D01*
X265528971Y-36422477D01*
X265929634Y-36690191D01*
X266402248Y-36784200D01*
X267164352Y-36784200D01*
X267315000Y-36754234D01*
X267315000Y-39000000D01*
X267367143Y-39262138D01*
X267515632Y-39484368D01*
X267873000Y-39841736D01*
X267873000Y-67484366D01*
X267400842Y-69373000D01*
X255627000Y-69373000D01*
X255627000Y-66127000D01*
X256408463Y-66127000D01*
X256879517Y-67540161D01*
X256904634Y-67583871D01*
X256944779Y-67614366D01*
X257000000Y-67627000D01*
X262814889Y-67627000D01*
X262814838Y-67685167D01*
X262956883Y-68028943D01*
X263219673Y-68292192D01*
X263563201Y-68434838D01*
X263935167Y-68435162D01*
X264278943Y-68293117D01*
X264542192Y-68030327D01*
X264684838Y-67686799D01*
X264685162Y-67314833D01*
X264543117Y-66971057D01*
X264510000Y-66937882D01*
X264510000Y-66169606D01*
X266089803Y-64589803D01*
X266117666Y-64547789D01*
X266127000Y-64500000D01*
X266127000Y-60105103D01*
X266736086Y-59853433D01*
X267351273Y-59239319D01*
X267684620Y-58436530D01*
X267685379Y-57567283D01*
X267353433Y-56763914D01*
X266739319Y-56148727D01*
X266127000Y-55894470D01*
X266127000Y-48000000D01*
X266116994Y-47950590D01*
X266089803Y-47910197D01*
X265511840Y-47332234D01*
X265511840Y-47327000D01*
X265467562Y-47091683D01*
X265328490Y-46875559D01*
X265116290Y-46730569D01*
X264864400Y-46679560D01*
X264859166Y-46679560D01*
X264589803Y-46410197D01*
X264547789Y-46382334D01*
X264500000Y-46373000D01*
X248549459Y-46373000D01*
X248584838Y-46287799D01*
X248585162Y-45915833D01*
X248443117Y-45572057D01*
X248180327Y-45308808D01*
X247836799Y-45166162D01*
X247464833Y-45165838D01*
X247132240Y-45303262D01*
X247159838Y-45236799D01*
X247160162Y-44864833D01*
X247018117Y-44521057D01*
X246755327Y-44257808D01*
X246411799Y-44115162D01*
X246039833Y-44114838D01*
X245696057Y-44256883D01*
X245432808Y-44519673D01*
X245290162Y-44863201D01*
X245289838Y-45235167D01*
X245431883Y-45578943D01*
X245694673Y-45842192D01*
X246038201Y-45984838D01*
X246410167Y-45985162D01*
X246742760Y-45847738D01*
X246715162Y-45914201D01*
X246714838Y-46286167D01*
X246750717Y-46373000D01*
X242220989Y-46373000D01*
X242361838Y-46033799D01*
X242362162Y-45661833D01*
X242220117Y-45318057D01*
X241957327Y-45054808D01*
X241613799Y-44912162D01*
X241241833Y-44911838D01*
X240898057Y-45053883D01*
X240634808Y-45316673D01*
X240492162Y-45660201D01*
X240491838Y-46032167D01*
X240632667Y-46373000D01*
X237610000Y-46373000D01*
X237610000Y-45962463D01*
X237642192Y-45930327D01*
X237784838Y-45586799D01*
X237785147Y-45232256D01*
X238019673Y-45467192D01*
X238363201Y-45609838D01*
X238735167Y-45610162D01*
X239078943Y-45468117D01*
X239342192Y-45205327D01*
X239484838Y-44861799D01*
X239485162Y-44489833D01*
X239343117Y-44146057D01*
X239080327Y-43882808D01*
X238736799Y-43740162D01*
X238364833Y-43739838D01*
X238021057Y-43881883D01*
X237757808Y-44144673D01*
X237615162Y-44488201D01*
X237614853Y-44842744D01*
X237380327Y-44607808D01*
X237036799Y-44465162D01*
X236792064Y-44464949D01*
X236860431Y-44364890D01*
X236911440Y-44113000D01*
X236911440Y-43263000D01*
X236867162Y-43027683D01*
X236728090Y-42811559D01*
X236515890Y-42666569D01*
X236264000Y-42615560D01*
X235414000Y-42615560D01*
X235178683Y-42659838D01*
X234962559Y-42798910D01*
X234817569Y-43011110D01*
X234766560Y-43263000D01*
X234766560Y-44113000D01*
X234810838Y-44348317D01*
X234949910Y-44564441D01*
X235162110Y-44709431D01*
X235414000Y-44760440D01*
X236167232Y-44760440D01*
X236057808Y-44869673D01*
X235915162Y-45213201D01*
X235914838Y-45585167D01*
X236056883Y-45928943D01*
X236090000Y-45962118D01*
X236090000Y-46373000D01*
X234810000Y-46373000D01*
X234810000Y-45987506D01*
X234817192Y-45980327D01*
X234959838Y-45636799D01*
X234960162Y-45264833D01*
X234818117Y-44921057D01*
X234555327Y-44657808D01*
X234211799Y-44515162D01*
X233839833Y-44514838D01*
X233835852Y-44516483D01*
X233939431Y-44364890D01*
X233990440Y-44113000D01*
X233990440Y-43263000D01*
X233946162Y-43027683D01*
X233807090Y-42811559D01*
X233594890Y-42666569D01*
X233343000Y-42615560D01*
X232493000Y-42615560D01*
X232257683Y-42659838D01*
X232041559Y-42798910D01*
X231896569Y-43011110D01*
X231845560Y-43263000D01*
X231845560Y-44113000D01*
X231889838Y-44348317D01*
X232028910Y-44564441D01*
X232241110Y-44709431D01*
X232493000Y-44760440D01*
X233343000Y-44760440D01*
X233403775Y-44749004D01*
X233232808Y-44919673D01*
X233090162Y-45263201D01*
X233089838Y-45635167D01*
X233231883Y-45978943D01*
X233290000Y-46037162D01*
X233290000Y-46373000D01*
X231395405Y-46373000D01*
X231330327Y-46307808D01*
X230986799Y-46165162D01*
X230614833Y-46164838D01*
X230271057Y-46306883D01*
X230204825Y-46373000D01*
X223127000Y-46373000D01*
X223127000Y-43659981D01*
X223335167Y-43660162D01*
X223678943Y-43518117D01*
X223942192Y-43255327D01*
X224084838Y-42911799D01*
X224085162Y-42539833D01*
X223943117Y-42196057D01*
X223680327Y-41932808D01*
X223336799Y-41790162D01*
X223127000Y-41789979D01*
X223127000Y-41325000D01*
X238977560Y-41325000D01*
X238977560Y-42175000D01*
X239021838Y-42410317D01*
X239160910Y-42626441D01*
X239373110Y-42771431D01*
X239625000Y-42822440D01*
X240475000Y-42822440D01*
X240710317Y-42778162D01*
X240806135Y-42716505D01*
X240923110Y-42796431D01*
X241175000Y-42847440D01*
X242025000Y-42847440D01*
X242260317Y-42803162D01*
X242362103Y-42737665D01*
X242448110Y-42796431D01*
X242700000Y-42847440D01*
X243550000Y-42847440D01*
X243785317Y-42803162D01*
X244001441Y-42664090D01*
X244026100Y-42628000D01*
X251022560Y-42628000D01*
X251022560Y-43478000D01*
X251066838Y-43713317D01*
X251205910Y-43929441D01*
X251418110Y-44074431D01*
X251670000Y-44125440D01*
X252520000Y-44125440D01*
X252755317Y-44081162D01*
X252971441Y-43942090D01*
X253001566Y-43898000D01*
X263087560Y-43898000D01*
X263087560Y-44748000D01*
X263131838Y-44983317D01*
X263270910Y-45199441D01*
X263483110Y-45344431D01*
X263735000Y-45395440D01*
X264585000Y-45395440D01*
X264820317Y-45351162D01*
X265036441Y-45212090D01*
X265181431Y-44999890D01*
X265232440Y-44748000D01*
X265232440Y-43898000D01*
X265188162Y-43662683D01*
X265049090Y-43446559D01*
X264836890Y-43301569D01*
X264585000Y-43250560D01*
X263735000Y-43250560D01*
X263499683Y-43294838D01*
X263283559Y-43433910D01*
X263138569Y-43646110D01*
X263087560Y-43898000D01*
X253001566Y-43898000D01*
X253116431Y-43729890D01*
X253167440Y-43478000D01*
X253167440Y-42628000D01*
X253123162Y-42392683D01*
X252984090Y-42176559D01*
X252771890Y-42031569D01*
X252520000Y-41980560D01*
X251670000Y-41980560D01*
X251434683Y-42024838D01*
X251218559Y-42163910D01*
X251073569Y-42376110D01*
X251022560Y-42628000D01*
X244026100Y-42628000D01*
X244146431Y-42451890D01*
X244197440Y-42200000D01*
X244197440Y-41350000D01*
X244153162Y-41114683D01*
X244014090Y-40898559D01*
X243801890Y-40753569D01*
X243550000Y-40702560D01*
X242700000Y-40702560D01*
X242464683Y-40746838D01*
X242362897Y-40812335D01*
X242276890Y-40753569D01*
X242025000Y-40702560D01*
X241175000Y-40702560D01*
X240939683Y-40746838D01*
X240843865Y-40808495D01*
X240726890Y-40728569D01*
X240475000Y-40677560D01*
X239625000Y-40677560D01*
X239389683Y-40721838D01*
X239173559Y-40860910D01*
X239028569Y-41073110D01*
X238977560Y-41325000D01*
X223127000Y-41325000D01*
X223127000Y-38951088D01*
X223184838Y-38811799D01*
X223184861Y-38785167D01*
X236664838Y-38785167D01*
X236806883Y-39128943D01*
X237069673Y-39392192D01*
X237413201Y-39534838D01*
X237785167Y-39535162D01*
X238128943Y-39393117D01*
X238392192Y-39130327D01*
X238534838Y-38786799D01*
X238534904Y-38710167D01*
X238614838Y-38710167D01*
X238756883Y-39053943D01*
X239019673Y-39317192D01*
X239363201Y-39459838D01*
X239410077Y-39459879D01*
X240162599Y-40212401D01*
X240409161Y-40377148D01*
X240700000Y-40435000D01*
X245310198Y-40435000D01*
X245562599Y-40687401D01*
X245809160Y-40852148D01*
X245853210Y-40860910D01*
X246100000Y-40910000D01*
X248037537Y-40910000D01*
X248069673Y-40942192D01*
X248413201Y-41084838D01*
X248785167Y-41085162D01*
X249128943Y-40943117D01*
X249392192Y-40680327D01*
X249534838Y-40336799D01*
X249535162Y-39964833D01*
X249393117Y-39621057D01*
X249176779Y-39404341D01*
X249203943Y-39393117D01*
X249467192Y-39130327D01*
X249609838Y-38786799D01*
X249610162Y-38414833D01*
X249468117Y-38071057D01*
X249205327Y-37807808D01*
X248861799Y-37665162D01*
X248489833Y-37664838D01*
X248146057Y-37806883D01*
X248112882Y-37840000D01*
X244239802Y-37840000D01*
X244035122Y-37635320D01*
X244035162Y-37589833D01*
X243893117Y-37246057D01*
X243630327Y-36982808D01*
X243286799Y-36840162D01*
X242914833Y-36839838D01*
X242571057Y-36981883D01*
X242307808Y-37244673D01*
X242165162Y-37588201D01*
X242164953Y-37828416D01*
X242096057Y-37856883D01*
X241905521Y-38047087D01*
X241843117Y-37896057D01*
X241580327Y-37632808D01*
X241236799Y-37490162D01*
X240864833Y-37489838D01*
X240521057Y-37631883D01*
X240257808Y-37894673D01*
X240253138Y-37905920D01*
X240080327Y-37732808D01*
X239736799Y-37590162D01*
X239364833Y-37589838D01*
X239021057Y-37731883D01*
X238757808Y-37994673D01*
X238615162Y-38338201D01*
X238614838Y-38710167D01*
X238534904Y-38710167D01*
X238535162Y-38414833D01*
X238393117Y-38071057D01*
X238130327Y-37807808D01*
X237786799Y-37665162D01*
X237414833Y-37664838D01*
X237071057Y-37806883D01*
X236807808Y-38069673D01*
X236665162Y-38413201D01*
X236664838Y-38785167D01*
X223184861Y-38785167D01*
X223185162Y-38439833D01*
X223043117Y-38096057D01*
X222780327Y-37832808D01*
X222436799Y-37690162D01*
X222064833Y-37689838D01*
X221721057Y-37831883D01*
X221457808Y-38094673D01*
X221342236Y-38373000D01*
X214500000Y-38373000D01*
X214450590Y-38383006D01*
X214408965Y-38411447D01*
X214381685Y-38453841D01*
X214373000Y-38500000D01*
X214373000Y-45340000D01*
X214383006Y-45389410D01*
X214411447Y-45431035D01*
X214453841Y-45458315D01*
X214500000Y-45467000D01*
X215743000Y-45467000D01*
X215743000Y-48383000D01*
X214318036Y-48383000D01*
X214315748Y-48381538D01*
X214269968Y-48373000D01*
X185127000Y-48373000D01*
X185127000Y-46664579D01*
X189564786Y-46664579D01*
X189752408Y-47118657D01*
X190099515Y-47466371D01*
X190553266Y-47654785D01*
X191044579Y-47655214D01*
X191498657Y-47467592D01*
X191846371Y-47120485D01*
X192034785Y-46666734D01*
X192035214Y-46175421D01*
X191997922Y-46085167D01*
X206014838Y-46085167D01*
X206156883Y-46428943D01*
X206419673Y-46692192D01*
X206763201Y-46834838D01*
X207135167Y-46835162D01*
X207478943Y-46693117D01*
X207742192Y-46430327D01*
X207884838Y-46086799D01*
X207885162Y-45714833D01*
X207743117Y-45371057D01*
X207532595Y-45160167D01*
X208489838Y-45160167D01*
X208631883Y-45503943D01*
X208894673Y-45767192D01*
X209238201Y-45909838D01*
X209610167Y-45910162D01*
X209953943Y-45768117D01*
X210150133Y-45572269D01*
X210369673Y-45792192D01*
X210713201Y-45934838D01*
X211085167Y-45935162D01*
X211428943Y-45793117D01*
X211692192Y-45530327D01*
X211834838Y-45186799D01*
X211835162Y-44814833D01*
X211693117Y-44471057D01*
X211430327Y-44207808D01*
X211086799Y-44065162D01*
X210714833Y-44064838D01*
X210371057Y-44206883D01*
X210174867Y-44402731D01*
X209955327Y-44182808D01*
X209611799Y-44040162D01*
X209239833Y-44039838D01*
X208896057Y-44181883D01*
X208632808Y-44444673D01*
X208490162Y-44788201D01*
X208489838Y-45160167D01*
X207532595Y-45160167D01*
X207480327Y-45107808D01*
X207136799Y-44965162D01*
X206764833Y-44964838D01*
X206421057Y-45106883D01*
X206157808Y-45369673D01*
X206015162Y-45713201D01*
X206014838Y-46085167D01*
X191997922Y-46085167D01*
X191847592Y-45721343D01*
X191500485Y-45373629D01*
X191046734Y-45185215D01*
X190555421Y-45184786D01*
X190101343Y-45372408D01*
X189753629Y-45719515D01*
X189565215Y-46173266D01*
X189564786Y-46664579D01*
X185127000Y-46664579D01*
X185127000Y-44127167D01*
X195787838Y-44127167D01*
X195929883Y-44470943D01*
X196192673Y-44734192D01*
X196536201Y-44876838D01*
X196908167Y-44877162D01*
X197251943Y-44735117D01*
X197515192Y-44472327D01*
X197657838Y-44128799D01*
X197658050Y-43885167D01*
X201364838Y-43885167D01*
X201506883Y-44228943D01*
X201769673Y-44492192D01*
X202113201Y-44634838D01*
X202485167Y-44635162D01*
X202828943Y-44493117D01*
X203092192Y-44230327D01*
X203234838Y-43886799D01*
X203235162Y-43514833D01*
X203093117Y-43171057D01*
X202830327Y-42907808D01*
X202486799Y-42765162D01*
X202114833Y-42764838D01*
X201771057Y-42906883D01*
X201507808Y-43169673D01*
X201365162Y-43513201D01*
X201364838Y-43885167D01*
X197658050Y-43885167D01*
X197658162Y-43756833D01*
X197516117Y-43413057D01*
X197253327Y-43149808D01*
X196909799Y-43007162D01*
X196537833Y-43006838D01*
X196194057Y-43148883D01*
X195930808Y-43411673D01*
X195788162Y-43755201D01*
X195787838Y-44127167D01*
X185127000Y-44127167D01*
X185127000Y-44063500D01*
X186298333Y-43185000D01*
X191000000Y-43185000D01*
X191262138Y-43132857D01*
X191484368Y-42984368D01*
X192833569Y-41635167D01*
X209464838Y-41635167D01*
X209606883Y-41978943D01*
X209869673Y-42242192D01*
X210213201Y-42384838D01*
X210585167Y-42385162D01*
X210928943Y-42243117D01*
X211192192Y-41980327D01*
X211334838Y-41636799D01*
X211335162Y-41264833D01*
X211193117Y-40921057D01*
X210930327Y-40657808D01*
X210586799Y-40515162D01*
X210214833Y-40514838D01*
X209871057Y-40656883D01*
X209607808Y-40919673D01*
X209465162Y-41263201D01*
X209464838Y-41635167D01*
X192833569Y-41635167D01*
X193484368Y-40984368D01*
X193632857Y-40762138D01*
X193685000Y-40500000D01*
X193685000Y-37442619D01*
X195764613Y-37442619D01*
X196104155Y-38264372D01*
X196732321Y-38893636D01*
X197553481Y-39234611D01*
X198442619Y-39235387D01*
X199264372Y-38895845D01*
X199893636Y-38267679D01*
X200135515Y-37685167D01*
X209814838Y-37685167D01*
X209956883Y-38028943D01*
X210219673Y-38292192D01*
X210563201Y-38434838D01*
X210935167Y-38435162D01*
X211278943Y-38293117D01*
X211542192Y-38030327D01*
X211684838Y-37686799D01*
X211685162Y-37314833D01*
X211543117Y-36971057D01*
X211280327Y-36707808D01*
X210936799Y-36565162D01*
X210564833Y-36564838D01*
X210221057Y-36706883D01*
X209957808Y-36969673D01*
X209815162Y-37313201D01*
X209814838Y-37685167D01*
X200135515Y-37685167D01*
X200234611Y-37446519D01*
X200235387Y-36557381D01*
X199895845Y-35735628D01*
X199267679Y-35106364D01*
X198446519Y-34765389D01*
X197557381Y-34764613D01*
X196735628Y-35104155D01*
X196106364Y-35732321D01*
X195765389Y-36553481D01*
X195764613Y-37442619D01*
X193685000Y-37442619D01*
X193685000Y-34685167D01*
X202164838Y-34685167D01*
X202306883Y-35028943D01*
X202569673Y-35292192D01*
X202913201Y-35434838D01*
X203285167Y-35435162D01*
X203628943Y-35293117D01*
X203892192Y-35030327D01*
X204034838Y-34686799D01*
X204035162Y-34314833D01*
X203898948Y-33985167D01*
X204164838Y-33985167D01*
X204306883Y-34328943D01*
X204569673Y-34592192D01*
X204913201Y-34734838D01*
X205285167Y-34735162D01*
X205628943Y-34593117D01*
X205892192Y-34330327D01*
X205952467Y-34185167D01*
X206764838Y-34185167D01*
X206906883Y-34528943D01*
X207169673Y-34792192D01*
X207513201Y-34934838D01*
X207885167Y-34935162D01*
X208016249Y-34881000D01*
X220669560Y-34881000D01*
X220669560Y-35731000D01*
X220713838Y-35966317D01*
X220852910Y-36182441D01*
X221065110Y-36327431D01*
X221317000Y-36378440D01*
X222167000Y-36378440D01*
X222402317Y-36334162D01*
X222618441Y-36195090D01*
X222763431Y-35982890D01*
X222814440Y-35731000D01*
X222814440Y-34881000D01*
X222770162Y-34645683D01*
X222631090Y-34429559D01*
X222418890Y-34284569D01*
X222167000Y-34233560D01*
X221317000Y-34233560D01*
X221081683Y-34277838D01*
X220865559Y-34416910D01*
X220720569Y-34629110D01*
X220669560Y-34881000D01*
X208016249Y-34881000D01*
X208228943Y-34793117D01*
X208492192Y-34530327D01*
X208634838Y-34186799D01*
X208634909Y-34104753D01*
X208706883Y-34278943D01*
X208969673Y-34542192D01*
X209313201Y-34684838D01*
X209685167Y-34685162D01*
X210028943Y-34543117D01*
X210292192Y-34280327D01*
X210434838Y-33936799D01*
X210435162Y-33564833D01*
X210293117Y-33221057D01*
X210030327Y-32957808D01*
X209686799Y-32815162D01*
X209314833Y-32814838D01*
X208971057Y-32956883D01*
X208707808Y-33219673D01*
X208565162Y-33563201D01*
X208565091Y-33645247D01*
X208493117Y-33471057D01*
X208230327Y-33207808D01*
X207886799Y-33065162D01*
X207514833Y-33064838D01*
X207171057Y-33206883D01*
X206907808Y-33469673D01*
X206765162Y-33813201D01*
X206764838Y-34185167D01*
X205952467Y-34185167D01*
X206034838Y-33986799D01*
X206035162Y-33614833D01*
X205893117Y-33271057D01*
X205630327Y-33007808D01*
X205286799Y-32865162D01*
X204914833Y-32864838D01*
X204571057Y-33006883D01*
X204307808Y-33269673D01*
X204165162Y-33613201D01*
X204164838Y-33985167D01*
X203898948Y-33985167D01*
X203893117Y-33971057D01*
X203630327Y-33707808D01*
X203286799Y-33565162D01*
X202914833Y-33564838D01*
X202571057Y-33706883D01*
X202307808Y-33969673D01*
X202165162Y-34313201D01*
X202164838Y-34685167D01*
X193685000Y-34685167D01*
X193685000Y-31785167D01*
X210764838Y-31785167D01*
X210906883Y-32128943D01*
X211169673Y-32392192D01*
X211513201Y-32534838D01*
X211885167Y-32535162D01*
X212228943Y-32393117D01*
X212492192Y-32130327D01*
X212520494Y-32062167D01*
X224489838Y-32062167D01*
X224631883Y-32405943D01*
X224894673Y-32669192D01*
X225238201Y-32811838D01*
X225610167Y-32812162D01*
X225869714Y-32704920D01*
X226127201Y-32811838D01*
X226415600Y-32812089D01*
X226415600Y-34878977D01*
X226255833Y-34878838D01*
X226059943Y-34959778D01*
X225865799Y-34879162D01*
X225493833Y-34878838D01*
X225150057Y-35020883D01*
X224886808Y-35283673D01*
X224744162Y-35627201D01*
X224743838Y-35999167D01*
X224885883Y-36342943D01*
X225148673Y-36606192D01*
X225492201Y-36748838D01*
X225864167Y-36749162D01*
X226060057Y-36668222D01*
X226254201Y-36748838D01*
X226626167Y-36749162D01*
X226969943Y-36607117D01*
X227070067Y-36507167D01*
X236046838Y-36507167D01*
X236188883Y-36850943D01*
X236451673Y-37114192D01*
X236795201Y-37256838D01*
X237167167Y-37257162D01*
X237510943Y-37115117D01*
X237774192Y-36852327D01*
X237916838Y-36508799D01*
X237916889Y-36450000D01*
X250827560Y-36450000D01*
X250827560Y-37300000D01*
X250871838Y-37535317D01*
X250999169Y-37733195D01*
X250903569Y-37873110D01*
X250852560Y-38125000D01*
X250852560Y-38975000D01*
X250896838Y-39210317D01*
X251035910Y-39426441D01*
X251055900Y-39440099D01*
X251023559Y-39460910D01*
X250878569Y-39673110D01*
X250827560Y-39925000D01*
X250827560Y-40775000D01*
X250871838Y-41010317D01*
X251010910Y-41226441D01*
X251223110Y-41371431D01*
X251475000Y-41422440D01*
X252325000Y-41422440D01*
X252560317Y-41378162D01*
X252776441Y-41239090D01*
X252921431Y-41026890D01*
X252972440Y-40775000D01*
X252972440Y-39925000D01*
X252928162Y-39689683D01*
X252789090Y-39473559D01*
X252769100Y-39459901D01*
X252801441Y-39439090D01*
X252946431Y-39226890D01*
X252977797Y-39072000D01*
X263087560Y-39072000D01*
X263087560Y-39922000D01*
X263131838Y-40157317D01*
X263270910Y-40373441D01*
X263483110Y-40518431D01*
X263735000Y-40569440D01*
X264585000Y-40569440D01*
X264820317Y-40525162D01*
X265036441Y-40386090D01*
X265181431Y-40173890D01*
X265232440Y-39922000D01*
X265232440Y-39072000D01*
X265188162Y-38836683D01*
X265049090Y-38620559D01*
X264836890Y-38475569D01*
X264585000Y-38424560D01*
X263735000Y-38424560D01*
X263499683Y-38468838D01*
X263283559Y-38607910D01*
X263138569Y-38820110D01*
X263087560Y-39072000D01*
X252977797Y-39072000D01*
X252997440Y-38975000D01*
X252997440Y-38125000D01*
X252953162Y-37889683D01*
X252825831Y-37691805D01*
X252921431Y-37551890D01*
X252972440Y-37300000D01*
X252972440Y-36450000D01*
X252928162Y-36214683D01*
X252789090Y-35998559D01*
X252576890Y-35853569D01*
X252325000Y-35802560D01*
X251475000Y-35802560D01*
X251239683Y-35846838D01*
X251023559Y-35985910D01*
X250878569Y-36198110D01*
X250827560Y-36450000D01*
X237916889Y-36450000D01*
X237917162Y-36136833D01*
X237775117Y-35793057D01*
X237663922Y-35681667D01*
X240047338Y-35681667D01*
X240189383Y-36025443D01*
X240452173Y-36288692D01*
X240795701Y-36431338D01*
X241167667Y-36431662D01*
X241511443Y-36289617D01*
X241774692Y-36026827D01*
X241917338Y-35683299D01*
X241917662Y-35311333D01*
X241824048Y-35084767D01*
X244733638Y-35084767D01*
X244875683Y-35428543D01*
X245138473Y-35691792D01*
X245482001Y-35834438D01*
X245853967Y-35834762D01*
X246197743Y-35692717D01*
X246460992Y-35429927D01*
X246593768Y-35110167D01*
X253664838Y-35110167D01*
X253806883Y-35453943D01*
X253915210Y-35562459D01*
X253807808Y-35669673D01*
X253665162Y-36013201D01*
X253664838Y-36385167D01*
X253806883Y-36728943D01*
X254069673Y-36992192D01*
X254413201Y-37134838D01*
X254785167Y-37135162D01*
X255128943Y-36993117D01*
X255392192Y-36730327D01*
X255534838Y-36386799D01*
X255535162Y-36014833D01*
X255393117Y-35671057D01*
X255284790Y-35562541D01*
X255392192Y-35455327D01*
X255466694Y-35275907D01*
X255488201Y-35284838D01*
X255860167Y-35285162D01*
X256203943Y-35143117D01*
X256467192Y-34880327D01*
X256609838Y-34536799D01*
X256610162Y-34164833D01*
X256468117Y-33821057D01*
X256205327Y-33557808D01*
X255861799Y-33415162D01*
X255489833Y-33414838D01*
X255146057Y-33556883D01*
X254882808Y-33819673D01*
X254808306Y-33999093D01*
X254786799Y-33990162D01*
X254414833Y-33989838D01*
X254071057Y-34131883D01*
X253807808Y-34394673D01*
X253665162Y-34738201D01*
X253664838Y-35110167D01*
X246593768Y-35110167D01*
X246603638Y-35086399D01*
X246603962Y-34714433D01*
X246461917Y-34370657D01*
X246199127Y-34107408D01*
X245855599Y-33964762D01*
X245483633Y-33964438D01*
X245139857Y-34106483D01*
X244876608Y-34369273D01*
X244733962Y-34712801D01*
X244733638Y-35084767D01*
X241824048Y-35084767D01*
X241775617Y-34967557D01*
X241512827Y-34704308D01*
X241169299Y-34561662D01*
X240797333Y-34561338D01*
X240453557Y-34703383D01*
X240190308Y-34966173D01*
X240047662Y-35309701D01*
X240047338Y-35681667D01*
X237663922Y-35681667D01*
X237512327Y-35529808D01*
X237168799Y-35387162D01*
X236796833Y-35386838D01*
X236453057Y-35528883D01*
X236189808Y-35791673D01*
X236047162Y-36135201D01*
X236046838Y-36507167D01*
X227070067Y-36507167D01*
X227233192Y-36344327D01*
X227375838Y-36000799D01*
X227376162Y-35628833D01*
X227284751Y-35407600D01*
X227482400Y-35407600D01*
X227482400Y-35814000D01*
X227491085Y-35860159D01*
X227518365Y-35902553D01*
X227559990Y-35930994D01*
X227609400Y-35941000D01*
X232105200Y-35941000D01*
X232151359Y-35932315D01*
X232193753Y-35905035D01*
X232222194Y-35863410D01*
X232232200Y-35814000D01*
X232232200Y-34551367D01*
X236631038Y-34551367D01*
X236773083Y-34895143D01*
X237035873Y-35158392D01*
X237379401Y-35301038D01*
X237751367Y-35301362D01*
X238095143Y-35159317D01*
X238358392Y-34896527D01*
X238367400Y-34874834D01*
X238598601Y-34970838D01*
X238970567Y-34971162D01*
X239314343Y-34829117D01*
X239577592Y-34566327D01*
X239720238Y-34222799D01*
X239720562Y-33850833D01*
X239578517Y-33507057D01*
X239315727Y-33243808D01*
X238972199Y-33101162D01*
X238600233Y-33100838D01*
X238256457Y-33242883D01*
X237993208Y-33505673D01*
X237984200Y-33527366D01*
X237752999Y-33431362D01*
X237381033Y-33431038D01*
X237037257Y-33573083D01*
X236774008Y-33835873D01*
X236631362Y-34179401D01*
X236631038Y-34551367D01*
X232232200Y-34551367D01*
X232232200Y-32485167D01*
X255764838Y-32485167D01*
X255906883Y-32828943D01*
X256169673Y-33092192D01*
X256513201Y-33234838D01*
X256885167Y-33235162D01*
X257228943Y-33093117D01*
X257492192Y-32830327D01*
X257614753Y-32535167D01*
X260415338Y-32535167D01*
X260557383Y-32878943D01*
X260820173Y-33142192D01*
X261163701Y-33284838D01*
X261535667Y-33285162D01*
X261879443Y-33143117D01*
X262142692Y-32880327D01*
X262285338Y-32536799D01*
X262285662Y-32164833D01*
X262143617Y-31821057D01*
X261880827Y-31557808D01*
X261537299Y-31415162D01*
X261165333Y-31414838D01*
X260821557Y-31556883D01*
X260558308Y-31819673D01*
X260415662Y-32163201D01*
X260415338Y-32535167D01*
X257614753Y-32535167D01*
X257634838Y-32486799D01*
X257635162Y-32114833D01*
X257493117Y-31771057D01*
X257230327Y-31507808D01*
X256886799Y-31365162D01*
X256514833Y-31364838D01*
X256171057Y-31506883D01*
X255907808Y-31769673D01*
X255765162Y-32113201D01*
X255764838Y-32485167D01*
X232232200Y-32485167D01*
X232232200Y-31485167D01*
X247264838Y-31485167D01*
X247406883Y-31828943D01*
X247669673Y-32092192D01*
X248013201Y-32234838D01*
X248385167Y-32235162D01*
X248728943Y-32093117D01*
X248992192Y-31830327D01*
X249134838Y-31486799D01*
X249135162Y-31114833D01*
X248998948Y-30785167D01*
X251164838Y-30785167D01*
X251306883Y-31128943D01*
X251569673Y-31392192D01*
X251913201Y-31534838D01*
X252285167Y-31535162D01*
X252628943Y-31393117D01*
X252892192Y-31130327D01*
X253034838Y-30786799D01*
X253035162Y-30414833D01*
X252893117Y-30071057D01*
X252630327Y-29807808D01*
X252286799Y-29665162D01*
X251991121Y-29664904D01*
X252169327Y-29486699D01*
X252266000Y-29253310D01*
X252266000Y-28987750D01*
X252107250Y-28829000D01*
X251333000Y-28829000D01*
X251333000Y-29603250D01*
X251491750Y-29762000D01*
X251679682Y-29762000D01*
X251571057Y-29806883D01*
X251307808Y-30069673D01*
X251165162Y-30413201D01*
X251164838Y-30785167D01*
X248998948Y-30785167D01*
X248993117Y-30771057D01*
X248730327Y-30507808D01*
X248386799Y-30365162D01*
X248014833Y-30364838D01*
X247671057Y-30506883D01*
X247407808Y-30769673D01*
X247265162Y-31113201D01*
X247264838Y-31485167D01*
X232232200Y-31485167D01*
X232232200Y-30635167D01*
X239639838Y-30635167D01*
X239781883Y-30978943D01*
X240044673Y-31242192D01*
X240388201Y-31384838D01*
X240760167Y-31385162D01*
X241103943Y-31243117D01*
X241367192Y-30980327D01*
X241450344Y-30780076D01*
X241548667Y-30780162D01*
X241892443Y-30638117D01*
X242155692Y-30375327D01*
X242298338Y-30031799D01*
X242298662Y-29659833D01*
X242156617Y-29316057D01*
X241893827Y-29052808D01*
X241737151Y-28987750D01*
X250146000Y-28987750D01*
X250146000Y-29253310D01*
X250242673Y-29486699D01*
X250421302Y-29665327D01*
X250654691Y-29762000D01*
X250920250Y-29762000D01*
X251079000Y-29603250D01*
X251079000Y-28829000D01*
X250304750Y-28829000D01*
X250146000Y-28987750D01*
X241737151Y-28987750D01*
X241550299Y-28910162D01*
X241178333Y-28909838D01*
X240834557Y-29051883D01*
X240571308Y-29314673D01*
X240488156Y-29514924D01*
X240389833Y-29514838D01*
X240046057Y-29656883D01*
X239782808Y-29919673D01*
X239640162Y-30263201D01*
X239639838Y-30635167D01*
X232232200Y-30635167D01*
X232232200Y-29494843D01*
X232215798Y-29432416D01*
X232182796Y-29394305D01*
X232137568Y-29372037D01*
X232087240Y-29369119D01*
X231867572Y-29400500D01*
X226810634Y-29400500D01*
X226590327Y-29179808D01*
X226246799Y-29037162D01*
X225874833Y-29036838D01*
X225531057Y-29178883D01*
X225267808Y-29441673D01*
X225125162Y-29785201D01*
X225124838Y-30157167D01*
X225266883Y-30500943D01*
X225529673Y-30764192D01*
X225873201Y-30906838D01*
X226245167Y-30907162D01*
X226415600Y-30836741D01*
X226415600Y-30942088D01*
X226128833Y-30941838D01*
X225869286Y-31049080D01*
X225611799Y-30942162D01*
X225239833Y-30941838D01*
X224896057Y-31083883D01*
X224632808Y-31346673D01*
X224490162Y-31690201D01*
X224489838Y-32062167D01*
X212520494Y-32062167D01*
X212634838Y-31786799D01*
X212635162Y-31414833D01*
X212493117Y-31071057D01*
X212230327Y-30807808D01*
X211886799Y-30665162D01*
X211514833Y-30664838D01*
X211171057Y-30806883D01*
X210907808Y-31069673D01*
X210765162Y-31413201D01*
X210764838Y-31785167D01*
X193685000Y-31785167D01*
X193685000Y-29385167D01*
X213564838Y-29385167D01*
X213706883Y-29728943D01*
X213969673Y-29992192D01*
X214313201Y-30134838D01*
X214685167Y-30135162D01*
X215028943Y-29993117D01*
X215292192Y-29730327D01*
X215434838Y-29386799D01*
X215435162Y-29014833D01*
X215293117Y-28671057D01*
X215030327Y-28407808D01*
X214686799Y-28265162D01*
X214314833Y-28264838D01*
X213971057Y-28406883D01*
X213707808Y-28669673D01*
X213565162Y-29013201D01*
X213564838Y-29385167D01*
X193685000Y-29385167D01*
X193685000Y-27585167D01*
X206464838Y-27585167D01*
X206606883Y-27928943D01*
X206869673Y-28192192D01*
X207213201Y-28334838D01*
X207585167Y-28335162D01*
X207928943Y-28193117D01*
X208192192Y-27930327D01*
X208273229Y-27735167D01*
X224464838Y-27735167D01*
X224606883Y-28078943D01*
X224869673Y-28342192D01*
X225213201Y-28484838D01*
X225585167Y-28485162D01*
X225928943Y-28343117D01*
X226121706Y-28150690D01*
X250146000Y-28150690D01*
X250146000Y-28416250D01*
X250304750Y-28575000D01*
X251079000Y-28575000D01*
X251079000Y-27800750D01*
X251333000Y-27800750D01*
X251333000Y-28575000D01*
X252107250Y-28575000D01*
X252266000Y-28416250D01*
X252266000Y-28150690D01*
X252169327Y-27917301D01*
X251990698Y-27738673D01*
X251757309Y-27642000D01*
X251491750Y-27642000D01*
X251333000Y-27800750D01*
X251079000Y-27800750D01*
X250920250Y-27642000D01*
X250654691Y-27642000D01*
X250421302Y-27738673D01*
X250242673Y-27917301D01*
X250146000Y-28150690D01*
X226121706Y-28150690D01*
X226192192Y-28080327D01*
X226334838Y-27736799D01*
X226335162Y-27364833D01*
X226193117Y-27021057D01*
X225930327Y-26757808D01*
X225586799Y-26615162D01*
X225214833Y-26614838D01*
X224871057Y-26756883D01*
X224607808Y-27019673D01*
X224465162Y-27363201D01*
X224464838Y-27735167D01*
X208273229Y-27735167D01*
X208334838Y-27586799D01*
X208335162Y-27214833D01*
X208193117Y-26871057D01*
X207930327Y-26607808D01*
X207586799Y-26465162D01*
X207214833Y-26464838D01*
X206871057Y-26606883D01*
X206607808Y-26869673D01*
X206465162Y-27213201D01*
X206464838Y-27585167D01*
X193685000Y-27585167D01*
X193685000Y-26185167D01*
X213664838Y-26185167D01*
X213806883Y-26528943D01*
X214069673Y-26792192D01*
X214413201Y-26934838D01*
X214785167Y-26935162D01*
X215128943Y-26793117D01*
X215337256Y-26585167D01*
X238964838Y-26585167D01*
X239106883Y-26928943D01*
X239369673Y-27192192D01*
X239614874Y-27294009D01*
X239614838Y-27335167D01*
X239756883Y-27678943D01*
X240019673Y-27942192D01*
X240363201Y-28084838D01*
X240735167Y-28085162D01*
X241078943Y-27943117D01*
X241342192Y-27680327D01*
X241484838Y-27336799D01*
X241485038Y-27107147D01*
X241719673Y-27342192D01*
X242063201Y-27484838D01*
X242435167Y-27485162D01*
X242778943Y-27343117D01*
X243042192Y-27080327D01*
X243184838Y-26736799D01*
X243185162Y-26364833D01*
X243083173Y-26118000D01*
X258642560Y-26118000D01*
X258642560Y-26968000D01*
X258686838Y-27203317D01*
X258825910Y-27419441D01*
X259038110Y-27564431D01*
X259290000Y-27615440D01*
X260140000Y-27615440D01*
X260375317Y-27571162D01*
X260591441Y-27432090D01*
X260736431Y-27219890D01*
X260787440Y-26968000D01*
X260787440Y-26118000D01*
X260743162Y-25882683D01*
X260604090Y-25666559D01*
X260391890Y-25521569D01*
X260140000Y-25470560D01*
X259290000Y-25470560D01*
X259054683Y-25514838D01*
X258838559Y-25653910D01*
X258693569Y-25866110D01*
X258642560Y-26118000D01*
X243083173Y-26118000D01*
X243043117Y-26021057D01*
X242780327Y-25757808D01*
X242436799Y-25615162D01*
X242064833Y-25614838D01*
X241721057Y-25756883D01*
X241457808Y-26019673D01*
X241315162Y-26363201D01*
X241314962Y-26592853D01*
X241080327Y-26357808D01*
X240835126Y-26255991D01*
X240835162Y-26214833D01*
X240693117Y-25871057D01*
X240430327Y-25607808D01*
X240086799Y-25465162D01*
X239714833Y-25464838D01*
X239371057Y-25606883D01*
X239107808Y-25869673D01*
X238965162Y-26213201D01*
X238964838Y-26585167D01*
X215337256Y-26585167D01*
X215392192Y-26530327D01*
X215534838Y-26186799D01*
X215535162Y-25814833D01*
X215393117Y-25471057D01*
X215207552Y-25285167D01*
X235664838Y-25285167D01*
X235806883Y-25628943D01*
X236069673Y-25892192D01*
X236413201Y-26034838D01*
X236785167Y-26035162D01*
X237128943Y-25893117D01*
X237392192Y-25630327D01*
X237534838Y-25286799D01*
X237535162Y-24914833D01*
X237393117Y-24571057D01*
X237130327Y-24307808D01*
X236786799Y-24165162D01*
X236414833Y-24164838D01*
X236071057Y-24306883D01*
X235807808Y-24569673D01*
X235665162Y-24913201D01*
X235664838Y-25285167D01*
X215207552Y-25285167D01*
X215130327Y-25207808D01*
X214786799Y-25065162D01*
X214414833Y-25064838D01*
X214071057Y-25206883D01*
X213807808Y-25469673D01*
X213665162Y-25813201D01*
X213664838Y-26185167D01*
X193685000Y-26185167D01*
X193685000Y-25385167D01*
X202964838Y-25385167D01*
X203106883Y-25728943D01*
X203369673Y-25992192D01*
X203713201Y-26134838D01*
X204085167Y-26135162D01*
X204428943Y-25993117D01*
X204692192Y-25730327D01*
X204834838Y-25386799D01*
X204835162Y-25014833D01*
X204693117Y-24671057D01*
X204430327Y-24407808D01*
X204086799Y-24265162D01*
X203714833Y-24264838D01*
X203371057Y-24406883D01*
X203107808Y-24669673D01*
X202965162Y-25013201D01*
X202964838Y-25385167D01*
X193685000Y-25385167D01*
X193685000Y-24283736D01*
X194683569Y-23285167D01*
X208864838Y-23285167D01*
X209006883Y-23628943D01*
X209269673Y-23892192D01*
X209613201Y-24034838D01*
X209985167Y-24035162D01*
X210328943Y-23893117D01*
X210592192Y-23630327D01*
X210734838Y-23286799D01*
X210735162Y-22914833D01*
X210702245Y-22835167D01*
X218564838Y-22835167D01*
X218706883Y-23178943D01*
X218969673Y-23442192D01*
X219313201Y-23584838D01*
X219685167Y-23585162D01*
X220028943Y-23443117D01*
X220292192Y-23180327D01*
X220434838Y-22836799D01*
X220435057Y-22585167D01*
X234914838Y-22585167D01*
X235056883Y-22928943D01*
X235319673Y-23192192D01*
X235663201Y-23334838D01*
X236035167Y-23335162D01*
X236378943Y-23193117D01*
X236642192Y-22930327D01*
X236754050Y-22660942D01*
X241002730Y-22660942D01*
X241239725Y-23234514D01*
X241678177Y-23673732D01*
X242251336Y-23911728D01*
X242871942Y-23912270D01*
X243445514Y-23675275D01*
X243813256Y-23308174D01*
X244178177Y-23673732D01*
X244751336Y-23911728D01*
X245371942Y-23912270D01*
X245945514Y-23675275D01*
X246313256Y-23308174D01*
X246678177Y-23673732D01*
X247251336Y-23911728D01*
X247871942Y-23912270D01*
X248445514Y-23675275D01*
X248565881Y-23555118D01*
X248599673Y-23636699D01*
X248778302Y-23815327D01*
X249011691Y-23912000D01*
X249777250Y-23912000D01*
X249936000Y-23753250D01*
X249936000Y-22479000D01*
X250190000Y-22479000D01*
X250190000Y-23753250D01*
X250348750Y-23912000D01*
X251114309Y-23912000D01*
X251347698Y-23815327D01*
X251526327Y-23636699D01*
X251623000Y-23403310D01*
X251623000Y-22637750D01*
X251464250Y-22479000D01*
X250190000Y-22479000D01*
X249936000Y-22479000D01*
X249916000Y-22479000D01*
X249916000Y-22225000D01*
X249936000Y-22225000D01*
X249936000Y-20950750D01*
X250190000Y-20950750D01*
X250190000Y-22225000D01*
X251464250Y-22225000D01*
X251623000Y-22066250D01*
X251623000Y-21692619D01*
X260764613Y-21692619D01*
X261104155Y-22514372D01*
X261732321Y-23143636D01*
X262553481Y-23484611D01*
X263442619Y-23485387D01*
X264264372Y-23145845D01*
X264893636Y-22517679D01*
X265234611Y-21696519D01*
X265235387Y-20807381D01*
X264895845Y-19985628D01*
X264267679Y-19356364D01*
X263446519Y-19015389D01*
X262557381Y-19014613D01*
X261735628Y-19354155D01*
X261106364Y-19982321D01*
X260765389Y-20803481D01*
X260764613Y-21692619D01*
X251623000Y-21692619D01*
X251623000Y-21300690D01*
X251526327Y-21067301D01*
X251347698Y-20888673D01*
X251114309Y-20792000D01*
X250348750Y-20792000D01*
X250190000Y-20950750D01*
X249936000Y-20950750D01*
X249777250Y-20792000D01*
X249011691Y-20792000D01*
X248778302Y-20888673D01*
X248599673Y-21067301D01*
X248565983Y-21148635D01*
X248447823Y-21030268D01*
X247874664Y-20792272D01*
X247254058Y-20791730D01*
X246680486Y-21028725D01*
X246312744Y-21395826D01*
X245947823Y-21030268D01*
X245374664Y-20792272D01*
X244754058Y-20791730D01*
X244180486Y-21028725D01*
X243812744Y-21395826D01*
X243447823Y-21030268D01*
X242874664Y-20792272D01*
X242254058Y-20791730D01*
X241680486Y-21028725D01*
X241241268Y-21467177D01*
X241003272Y-22040336D01*
X241002730Y-22660942D01*
X236754050Y-22660942D01*
X236784838Y-22586799D01*
X236785162Y-22214833D01*
X236643117Y-21871057D01*
X236380327Y-21607808D01*
X236036799Y-21465162D01*
X235664833Y-21464838D01*
X235321057Y-21606883D01*
X235057808Y-21869673D01*
X234915162Y-22213201D01*
X234914838Y-22585167D01*
X220435057Y-22585167D01*
X220435162Y-22464833D01*
X220293117Y-22121057D01*
X220030327Y-21857808D01*
X219686799Y-21715162D01*
X219314833Y-21714838D01*
X218971057Y-21856883D01*
X218707808Y-22119673D01*
X218565162Y-22463201D01*
X218564838Y-22835167D01*
X210702245Y-22835167D01*
X210593117Y-22571057D01*
X210330327Y-22307808D01*
X209986799Y-22165162D01*
X209614833Y-22164838D01*
X209271057Y-22306883D01*
X209007808Y-22569673D01*
X208865162Y-22913201D01*
X208864838Y-23285167D01*
X194683569Y-23285167D01*
X197283736Y-20685000D01*
X219000000Y-20685000D01*
X219262138Y-20632857D01*
X219484368Y-20484368D01*
X221283736Y-18685000D01*
X266716264Y-18685000D01*
X269315000Y-21283736D01*
M02*
