M48
;DRILL file {KiCad 4.0.7} date Tue Jul  3 11:33:28 2018
;FORMAT={-:-/ absolute / metric / decimal}
FMAT,2
METRIC,TZ
T1C0.400
%
G90
G05
M71
T1
X197.4Y-31.9
X202.629Y-38.672
X203.7Y-41.
X204.1Y-47.
X206.6Y-28.1
X209.6Y-38.
X210.3Y-24.2
X211.1Y-43.92
X212.25Y-34.75
X213.25Y-47.
X214.36Y-46.54
X216.2Y-31.3
X218.8Y-44.4
X219.6Y-45.8
X220.7Y-24.1
X230.6Y-20.3
X230.6Y-24.5
X233.4Y-39.8
X234.025Y-45.45
X236.6Y-28.5
X236.85Y-45.4
X239.Y-41.
X239.55Y-38.525
X243.1Y-37.775
X247.4Y-42.3
X248.6Y-40.15
X248.675Y-38.6
X249.4Y-29.3
T0
M30
