M48
;DRILL file {KiCad 4.0.7} date Tue Jul  3 11:33:28 2018
;FORMAT={-:-/ absolute / metric / decimal}
FMAT,2
METRIC,TZ
T1C0.300
T2C0.400
T3C0.500
T4C0.600
T5C0.850
T6C0.900
T7C1.000
T8C1.200
T9C2.100
T10C2.200
T11C3.200
%
G90
G05
M71
T1
X219.968Y-52.976
X219.968Y-54.5
X219.968Y-56.024
X220.476Y-53.484
X220.476Y-55.516
X220.984Y-52.976
X220.984Y-54.5
X220.984Y-56.024
X221.492Y-53.484
X221.492Y-55.516
X222.Y-52.976
X222.Y-54.5
X222.Y-56.024
X222.Y-59.976
X222.Y-61.5
X222.Y-63.024
X222.508Y-60.484
X222.508Y-62.516
X223.016Y-59.976
X223.016Y-61.5
X223.016Y-63.024
X223.524Y-60.484
X223.524Y-62.516
X224.032Y-59.976
X224.032Y-61.5
X224.032Y-63.024
X238.468Y-52.976
X238.468Y-54.5
X238.468Y-56.024
X238.976Y-53.484
X238.976Y-55.516
X239.484Y-52.976
X239.484Y-54.5
X239.484Y-56.024
X239.992Y-53.484
X239.992Y-55.516
X240.5Y-52.976
X240.5Y-54.5
X240.5Y-56.024
X240.5Y-59.976
X240.5Y-61.5
X240.5Y-63.024
X241.008Y-60.484
X241.008Y-62.516
X241.516Y-59.976
X241.516Y-61.5
X241.516Y-63.024
X242.024Y-60.484
X242.024Y-62.516
X242.532Y-59.976
X242.532Y-61.5
X242.532Y-63.024
X256.968Y-52.976
X256.968Y-54.5
X256.968Y-56.024
X257.476Y-53.484
X257.476Y-55.516
X257.984Y-52.976
X257.984Y-54.5
X257.984Y-56.024
X258.492Y-53.484
X258.492Y-55.516
X259.Y-52.976
X259.Y-54.5
X259.Y-56.024
X259.Y-59.976
X259.Y-61.5
X259.Y-63.024
X259.508Y-60.484
X259.508Y-62.516
X260.016Y-59.976
X260.016Y-61.5
X260.016Y-63.024
X260.524Y-60.484
X260.524Y-62.516
X261.032Y-59.976
X261.032Y-61.5
X261.032Y-63.024
T2
X203.1Y-34.5
X205.1Y-33.8
X207.4Y-27.4
X207.7Y-34.
X209.425Y-44.975
X210.75Y-37.5
X214.5Y-29.2
X219.5Y-22.65
X225.4Y-27.55
X230.8Y-47.1
X237.566Y-34.366
X238.785Y-34.036
X240.55Y-27.15
X240.575Y-30.45
X241.05Y-38.425
X241.363Y-29.845
X241.427Y-45.847
X242.25Y-26.55
X245.669Y-34.9
X247.65Y-46.101
X252.75Y-57.5
X254.6Y-34.925
X254.6Y-36.2
X255.675Y-34.35
X259.588Y-47.498
X261.351Y-32.35
X262.7Y-33.85
T3
X204.Y-49.5
X204.2Y-71.925
X209.423Y-56.261
X219.Y-65.
X221.742Y-35.306
X224.599Y-50.038
X226.949Y-52.578
X232.918Y-43.688
X235.839Y-43.688
X237.5Y-65.
X240.05Y-41.75
X241.6Y-41.775
X243.125Y-41.775
X247.523Y-52.578
X250.5Y-62.75
X251.206Y-28.702
X251.9Y-36.875
X251.9Y-40.35
X251.925Y-38.55
X252.095Y-43.053
X257.Y-65.
X259.715Y-26.543
X264.16Y-39.497
X264.16Y-44.323
X264.414Y-52.578
X264.439Y-47.752
T5
X264.083Y-29.549
X264.083Y-34.549
T6
X242.563Y-22.352
X245.063Y-22.352
X247.563Y-22.352
X250.063Y-22.352
T7
X198.75Y-62.5
X198.75Y-67.5
X209.5Y-62.5
X209.5Y-67.5
T8
X180.64Y-46.42
X180.64Y-56.58
X180.64Y-60.92
X180.64Y-71.08
X190.8Y-46.42
X190.8Y-56.58
X190.8Y-60.92
X190.8Y-71.08
T9
X228.5Y-58.
X247.Y-58.
X265.5Y-58.
T10
X187.Y-51.5
X187.Y-66.
T11
X250.Y-77.
X255.Y-77.
X260.Y-77.
T4
X266.433Y-28.549G85X267.133Y-28.549
G05
X267.133Y-35.549G85X266.433Y-35.549
G05
T0
M30
