M48
;DRILL file {KiCad 4.0.7} date Mon Jul  2 20:54:11 2018
;FORMAT={-:-/ absolute / metric / decimal}
FMAT,2
METRIC,TZ
T1C0.400
%
G90
G05
M71
T1
X203.835Y-55.88
X205.105Y-55.88
X206.248Y-55.88
X208.153Y-50.038
X234.05Y-48.125
X234.315Y-52.324
X235.394Y-52.362
X236.22Y-52.324
X238.506Y-50.927
X239.268Y-60.579
X240.75Y-71.75
X243.459Y-47.371
X245.491Y-55.88
X245.999Y-75.692
X247.75Y-71.5
X251.21Y-48.55
X251.99Y-48.54
X252.82Y-48.53
X256.75Y-42.75
X260.75Y-36.75
X261.938Y-51.562
X263.75Y-67.5
X264.731Y-50.038
T0
M30
