G04 #@! TF.FileFunction,Legend,Top*
%FSLAX46Y46*%
G04 Gerber Fmt 4.6, Leading zero omitted, Abs format (unit mm)*
G04 Created by KiCad (PCBNEW 4.0.7) date Tue Jul  3 11:32:48 2018*
%MOMM*%
%LPD*%
G01*
G04 APERTURE LIST*
%ADD10C,0.100000*%
%ADD11C,0.300000*%
%ADD12C,0.200000*%
%ADD13C,0.150000*%
%ADD14C,0.120000*%
%ADD15C,0.250000*%
G04 APERTURE END LIST*
D10*
D11*
X210902514Y-71488543D02*
X211116800Y-71559971D01*
X211473943Y-71559971D01*
X211616800Y-71488543D01*
X211688229Y-71417114D01*
X211759657Y-71274257D01*
X211759657Y-71131400D01*
X211688229Y-70988543D01*
X211616800Y-70917114D01*
X211473943Y-70845686D01*
X211188229Y-70774257D01*
X211045371Y-70702829D01*
X210973943Y-70631400D01*
X210902514Y-70488543D01*
X210902514Y-70345686D01*
X210973943Y-70202829D01*
X211045371Y-70131400D01*
X211188229Y-70059971D01*
X211545371Y-70059971D01*
X211759657Y-70131400D01*
X212973942Y-71488543D02*
X212831085Y-71559971D01*
X212545371Y-71559971D01*
X212402514Y-71488543D01*
X212331085Y-71345686D01*
X212331085Y-70774257D01*
X212402514Y-70631400D01*
X212545371Y-70559971D01*
X212831085Y-70559971D01*
X212973942Y-70631400D01*
X213045371Y-70774257D01*
X213045371Y-70917114D01*
X212331085Y-71059971D01*
X213688228Y-70559971D02*
X213688228Y-71559971D01*
X213688228Y-70702829D02*
X213759656Y-70631400D01*
X213902514Y-70559971D01*
X214116799Y-70559971D01*
X214259656Y-70631400D01*
X214331085Y-70774257D01*
X214331085Y-71559971D01*
X214973942Y-71488543D02*
X215116799Y-71559971D01*
X215402514Y-71559971D01*
X215545371Y-71488543D01*
X215616799Y-71345686D01*
X215616799Y-71274257D01*
X215545371Y-71131400D01*
X215402514Y-71059971D01*
X215188228Y-71059971D01*
X215045371Y-70988543D01*
X214973942Y-70845686D01*
X214973942Y-70774257D01*
X215045371Y-70631400D01*
X215188228Y-70559971D01*
X215402514Y-70559971D01*
X215545371Y-70631400D01*
X216473943Y-71559971D02*
X216331085Y-71488543D01*
X216259657Y-71417114D01*
X216188228Y-71274257D01*
X216188228Y-70845686D01*
X216259657Y-70702829D01*
X216331085Y-70631400D01*
X216473943Y-70559971D01*
X216688228Y-70559971D01*
X216831085Y-70631400D01*
X216902514Y-70702829D01*
X216973943Y-70845686D01*
X216973943Y-71274257D01*
X216902514Y-71417114D01*
X216831085Y-71488543D01*
X216688228Y-71559971D01*
X216473943Y-71559971D01*
X217616800Y-71559971D02*
X217616800Y-70559971D01*
X217616800Y-70845686D02*
X217688228Y-70702829D01*
X217759657Y-70631400D01*
X217902514Y-70559971D01*
X218045371Y-70559971D01*
X218759657Y-71559971D02*
X218616799Y-71488543D01*
X218545371Y-71345686D01*
X218545371Y-70059971D01*
X219545371Y-71559971D02*
X219402513Y-71488543D01*
X219331085Y-71417114D01*
X219259656Y-71274257D01*
X219259656Y-70845686D01*
X219331085Y-70702829D01*
X219402513Y-70631400D01*
X219545371Y-70559971D01*
X219759656Y-70559971D01*
X219902513Y-70631400D01*
X219973942Y-70702829D01*
X220045371Y-70845686D01*
X220045371Y-71274257D01*
X219973942Y-71417114D01*
X219902513Y-71488543D01*
X219759656Y-71559971D01*
X219545371Y-71559971D01*
X220616799Y-71488543D02*
X220759656Y-71559971D01*
X221045371Y-71559971D01*
X221188228Y-71488543D01*
X221259656Y-71345686D01*
X221259656Y-71274257D01*
X221188228Y-71131400D01*
X221045371Y-71059971D01*
X220831085Y-71059971D01*
X220688228Y-70988543D01*
X220616799Y-70845686D01*
X220616799Y-70774257D01*
X220688228Y-70631400D01*
X220831085Y-70559971D01*
X221045371Y-70559971D01*
X221188228Y-70631400D01*
X222473942Y-71488543D02*
X222331085Y-71559971D01*
X222045371Y-71559971D01*
X221902514Y-71488543D01*
X221831085Y-71345686D01*
X221831085Y-70774257D01*
X221902514Y-70631400D01*
X222045371Y-70559971D01*
X222331085Y-70559971D01*
X222473942Y-70631400D01*
X222545371Y-70774257D01*
X222545371Y-70917114D01*
X221831085Y-71059971D01*
X224331085Y-70774257D02*
X224831085Y-70774257D01*
X225045371Y-71559971D02*
X224331085Y-71559971D01*
X224331085Y-70059971D01*
X225045371Y-70059971D01*
X225902514Y-71559971D02*
X225759656Y-71488543D01*
X225688228Y-71345686D01*
X225688228Y-70059971D01*
X227045370Y-71488543D02*
X226902513Y-71559971D01*
X226616799Y-71559971D01*
X226473942Y-71488543D01*
X226402513Y-71345686D01*
X226402513Y-70774257D01*
X226473942Y-70631400D01*
X226616799Y-70559971D01*
X226902513Y-70559971D01*
X227045370Y-70631400D01*
X227116799Y-70774257D01*
X227116799Y-70917114D01*
X226402513Y-71059971D01*
X227759656Y-71559971D02*
X227759656Y-70059971D01*
X227902513Y-70988543D02*
X228331084Y-71559971D01*
X228331084Y-70559971D02*
X227759656Y-71131400D01*
X228759656Y-70559971D02*
X229331085Y-70559971D01*
X228973942Y-70059971D02*
X228973942Y-71345686D01*
X229045370Y-71488543D01*
X229188228Y-71559971D01*
X229331085Y-71559971D01*
X229831085Y-71559971D02*
X229831085Y-70559971D01*
X229831085Y-70845686D02*
X229902513Y-70702829D01*
X229973942Y-70631400D01*
X230116799Y-70559971D01*
X230259656Y-70559971D01*
X230759656Y-71559971D02*
X230759656Y-70559971D01*
X230759656Y-70059971D02*
X230688227Y-70131400D01*
X230759656Y-70202829D01*
X230831084Y-70131400D01*
X230759656Y-70059971D01*
X230759656Y-70202829D01*
X231402513Y-71488543D02*
X231545370Y-71559971D01*
X231831085Y-71559971D01*
X231973942Y-71488543D01*
X232045370Y-71345686D01*
X232045370Y-71274257D01*
X231973942Y-71131400D01*
X231831085Y-71059971D01*
X231616799Y-71059971D01*
X231473942Y-70988543D01*
X231402513Y-70845686D01*
X231402513Y-70774257D01*
X231473942Y-70631400D01*
X231616799Y-70559971D01*
X231831085Y-70559971D01*
X231973942Y-70631400D01*
X233331085Y-71488543D02*
X233188228Y-71559971D01*
X232902514Y-71559971D01*
X232759656Y-71488543D01*
X232688228Y-71417114D01*
X232616799Y-71274257D01*
X232616799Y-70845686D01*
X232688228Y-70702829D01*
X232759656Y-70631400D01*
X232902514Y-70559971D01*
X233188228Y-70559971D01*
X233331085Y-70631400D01*
X233973942Y-71559971D02*
X233973942Y-70059971D01*
X234616799Y-71559971D02*
X234616799Y-70774257D01*
X234545370Y-70631400D01*
X234402513Y-70559971D01*
X234188228Y-70559971D01*
X234045370Y-70631400D01*
X233973942Y-70702829D01*
X235902513Y-71488543D02*
X235759656Y-71559971D01*
X235473942Y-71559971D01*
X235331085Y-71488543D01*
X235259656Y-71345686D01*
X235259656Y-70774257D01*
X235331085Y-70631400D01*
X235473942Y-70559971D01*
X235759656Y-70559971D01*
X235902513Y-70631400D01*
X235973942Y-70774257D01*
X235973942Y-70917114D01*
X235259656Y-71059971D01*
X237759656Y-71559971D02*
X237759656Y-70059971D01*
X238616799Y-71559971D02*
X237973942Y-70702829D01*
X238616799Y-70059971D02*
X237759656Y-70917114D01*
X239473942Y-71559971D02*
X239331084Y-71488543D01*
X239259656Y-71417114D01*
X239188227Y-71274257D01*
X239188227Y-70845686D01*
X239259656Y-70702829D01*
X239331084Y-70631400D01*
X239473942Y-70559971D01*
X239688227Y-70559971D01*
X239831084Y-70631400D01*
X239902513Y-70702829D01*
X239973942Y-70845686D01*
X239973942Y-71274257D01*
X239902513Y-71417114D01*
X239831084Y-71488543D01*
X239688227Y-71559971D01*
X239473942Y-71559971D01*
X240616799Y-71559971D02*
X240616799Y-70559971D01*
X240616799Y-70702829D02*
X240688227Y-70631400D01*
X240831085Y-70559971D01*
X241045370Y-70559971D01*
X241188227Y-70631400D01*
X241259656Y-70774257D01*
X241259656Y-71559971D01*
X241259656Y-70774257D02*
X241331085Y-70631400D01*
X241473942Y-70559971D01*
X241688227Y-70559971D01*
X241831085Y-70631400D01*
X241902513Y-70774257D01*
X241902513Y-71559971D01*
X242616799Y-71559971D02*
X242616799Y-70559971D01*
X242616799Y-70702829D02*
X242688227Y-70631400D01*
X242831085Y-70559971D01*
X243045370Y-70559971D01*
X243188227Y-70631400D01*
X243259656Y-70774257D01*
X243259656Y-71559971D01*
X243259656Y-70774257D02*
X243331085Y-70631400D01*
X243473942Y-70559971D01*
X243688227Y-70559971D01*
X243831085Y-70631400D01*
X243902513Y-70774257D01*
X243902513Y-71559971D01*
X245259656Y-70559971D02*
X245259656Y-71559971D01*
X244616799Y-70559971D02*
X244616799Y-71345686D01*
X244688227Y-71488543D01*
X244831085Y-71559971D01*
X245045370Y-71559971D01*
X245188227Y-71488543D01*
X245259656Y-71417114D01*
X245759656Y-70559971D02*
X246331085Y-70559971D01*
X245973942Y-70059971D02*
X245973942Y-71345686D01*
X246045370Y-71488543D01*
X246188228Y-71559971D01*
X246331085Y-71559971D01*
X246831085Y-71559971D02*
X246831085Y-70559971D01*
X246831085Y-70059971D02*
X246759656Y-70131400D01*
X246831085Y-70202829D01*
X246902513Y-70131400D01*
X246831085Y-70059971D01*
X246831085Y-70202829D01*
X248116799Y-71488543D02*
X247973942Y-71559971D01*
X247688228Y-71559971D01*
X247545371Y-71488543D01*
X247473942Y-71345686D01*
X247473942Y-70774257D01*
X247545371Y-70631400D01*
X247688228Y-70559971D01*
X247973942Y-70559971D01*
X248116799Y-70631400D01*
X248188228Y-70774257D01*
X248188228Y-70917114D01*
X247473942Y-71059971D01*
X248831085Y-71559971D02*
X248831085Y-70559971D01*
X248831085Y-70845686D02*
X248902513Y-70702829D01*
X248973942Y-70631400D01*
X249116799Y-70559971D01*
X249259656Y-70559971D01*
X250402513Y-70559971D02*
X250402513Y-71559971D01*
X249759656Y-70559971D02*
X249759656Y-71345686D01*
X249831084Y-71488543D01*
X249973942Y-71559971D01*
X250188227Y-71559971D01*
X250331084Y-71488543D01*
X250402513Y-71417114D01*
X251116799Y-70559971D02*
X251116799Y-71559971D01*
X251116799Y-70702829D02*
X251188227Y-70631400D01*
X251331085Y-70559971D01*
X251545370Y-70559971D01*
X251688227Y-70631400D01*
X251759656Y-70774257D01*
X251759656Y-71559971D01*
X253116799Y-70559971D02*
X253116799Y-71774257D01*
X253045370Y-71917114D01*
X252973942Y-71988543D01*
X252831085Y-72059971D01*
X252616799Y-72059971D01*
X252473942Y-71988543D01*
X253116799Y-71488543D02*
X252973942Y-71559971D01*
X252688228Y-71559971D01*
X252545370Y-71488543D01*
X252473942Y-71417114D01*
X252402513Y-71274257D01*
X252402513Y-70845686D01*
X252473942Y-70702829D01*
X252545370Y-70631400D01*
X252688228Y-70559971D01*
X252973942Y-70559971D01*
X253116799Y-70631400D01*
X210902514Y-74038543D02*
X211116800Y-74109971D01*
X211473943Y-74109971D01*
X211616800Y-74038543D01*
X211688229Y-73967114D01*
X211759657Y-73824257D01*
X211759657Y-73681400D01*
X211688229Y-73538543D01*
X211616800Y-73467114D01*
X211473943Y-73395686D01*
X211188229Y-73324257D01*
X211045371Y-73252829D01*
X210973943Y-73181400D01*
X210902514Y-73038543D01*
X210902514Y-72895686D01*
X210973943Y-72752829D01*
X211045371Y-72681400D01*
X211188229Y-72609971D01*
X211545371Y-72609971D01*
X211759657Y-72681400D01*
X212616800Y-74109971D02*
X212473942Y-74038543D01*
X212402514Y-73967114D01*
X212331085Y-73824257D01*
X212331085Y-73395686D01*
X212402514Y-73252829D01*
X212473942Y-73181400D01*
X212616800Y-73109971D01*
X212831085Y-73109971D01*
X212973942Y-73181400D01*
X213045371Y-73252829D01*
X213116800Y-73395686D01*
X213116800Y-73824257D01*
X213045371Y-73967114D01*
X212973942Y-74038543D01*
X212831085Y-74109971D01*
X212616800Y-74109971D01*
X213688228Y-74038543D02*
X213902514Y-74109971D01*
X214259657Y-74109971D01*
X214402514Y-74038543D01*
X214473943Y-73967114D01*
X214545371Y-73824257D01*
X214545371Y-73681400D01*
X214473943Y-73538543D01*
X214402514Y-73467114D01*
X214259657Y-73395686D01*
X213973943Y-73324257D01*
X213831085Y-73252829D01*
X213759657Y-73181400D01*
X213688228Y-73038543D01*
X213688228Y-72895686D01*
X213759657Y-72752829D01*
X213831085Y-72681400D01*
X213973943Y-72609971D01*
X214331085Y-72609971D01*
X214545371Y-72681400D01*
X215759656Y-74038543D02*
X215616799Y-74109971D01*
X215331085Y-74109971D01*
X215188228Y-74038543D01*
X215116799Y-73895686D01*
X215116799Y-73324257D01*
X215188228Y-73181400D01*
X215331085Y-73109971D01*
X215616799Y-73109971D01*
X215759656Y-73181400D01*
X215831085Y-73324257D01*
X215831085Y-73467114D01*
X215116799Y-73609971D01*
X217545370Y-72752829D02*
X217616799Y-72681400D01*
X217759656Y-72609971D01*
X218116799Y-72609971D01*
X218259656Y-72681400D01*
X218331085Y-72752829D01*
X218402513Y-72895686D01*
X218402513Y-73038543D01*
X218331085Y-73252829D01*
X217473942Y-74109971D01*
X218402513Y-74109971D01*
X219331084Y-72609971D02*
X219473941Y-72609971D01*
X219616798Y-72681400D01*
X219688227Y-72752829D01*
X219759656Y-72895686D01*
X219831084Y-73181400D01*
X219831084Y-73538543D01*
X219759656Y-73824257D01*
X219688227Y-73967114D01*
X219616798Y-74038543D01*
X219473941Y-74109971D01*
X219331084Y-74109971D01*
X219188227Y-74038543D01*
X219116798Y-73967114D01*
X219045370Y-73824257D01*
X218973941Y-73538543D01*
X218973941Y-73181400D01*
X219045370Y-72895686D01*
X219116798Y-72752829D01*
X219188227Y-72681400D01*
X219331084Y-72609971D01*
X221259655Y-74109971D02*
X220402512Y-74109971D01*
X220831084Y-74109971D02*
X220831084Y-72609971D01*
X220688227Y-72824257D01*
X220545369Y-72967114D01*
X220402512Y-73038543D01*
X222116798Y-73252829D02*
X221973940Y-73181400D01*
X221902512Y-73109971D01*
X221831083Y-72967114D01*
X221831083Y-72895686D01*
X221902512Y-72752829D01*
X221973940Y-72681400D01*
X222116798Y-72609971D01*
X222402512Y-72609971D01*
X222545369Y-72681400D01*
X222616798Y-72752829D01*
X222688226Y-72895686D01*
X222688226Y-72967114D01*
X222616798Y-73109971D01*
X222545369Y-73181400D01*
X222402512Y-73252829D01*
X222116798Y-73252829D01*
X221973940Y-73324257D01*
X221902512Y-73395686D01*
X221831083Y-73538543D01*
X221831083Y-73824257D01*
X221902512Y-73967114D01*
X221973940Y-74038543D01*
X222116798Y-74109971D01*
X222402512Y-74109971D01*
X222545369Y-74038543D01*
X222616798Y-73967114D01*
X222688226Y-73824257D01*
X222688226Y-73538543D01*
X222616798Y-73395686D01*
X222545369Y-73324257D01*
X222402512Y-73252829D01*
X210902514Y-76588543D02*
X211116800Y-76659971D01*
X211473943Y-76659971D01*
X211616800Y-76588543D01*
X211688229Y-76517114D01*
X211759657Y-76374257D01*
X211759657Y-76231400D01*
X211688229Y-76088543D01*
X211616800Y-76017114D01*
X211473943Y-75945686D01*
X211188229Y-75874257D01*
X211045371Y-75802829D01*
X210973943Y-75731400D01*
X210902514Y-75588543D01*
X210902514Y-75445686D01*
X210973943Y-75302829D01*
X211045371Y-75231400D01*
X211188229Y-75159971D01*
X211545371Y-75159971D01*
X211759657Y-75231400D01*
X212188228Y-75659971D02*
X212759657Y-75659971D01*
X212402514Y-75159971D02*
X212402514Y-76445686D01*
X212473942Y-76588543D01*
X212616800Y-76659971D01*
X212759657Y-76659971D01*
X213831085Y-76588543D02*
X213688228Y-76659971D01*
X213402514Y-76659971D01*
X213259657Y-76588543D01*
X213188228Y-76445686D01*
X213188228Y-75874257D01*
X213259657Y-75731400D01*
X213402514Y-75659971D01*
X213688228Y-75659971D01*
X213831085Y-75731400D01*
X213902514Y-75874257D01*
X213902514Y-76017114D01*
X213188228Y-76159971D01*
X214331085Y-75659971D02*
X214902514Y-75659971D01*
X214545371Y-76659971D02*
X214545371Y-75374257D01*
X214616799Y-75231400D01*
X214759657Y-75159971D01*
X214902514Y-75159971D01*
X216045371Y-76659971D02*
X216045371Y-75874257D01*
X215973942Y-75731400D01*
X215831085Y-75659971D01*
X215545371Y-75659971D01*
X215402514Y-75731400D01*
X216045371Y-76588543D02*
X215902514Y-76659971D01*
X215545371Y-76659971D01*
X215402514Y-76588543D01*
X215331085Y-76445686D01*
X215331085Y-76302829D01*
X215402514Y-76159971D01*
X215545371Y-76088543D01*
X215902514Y-76088543D01*
X216045371Y-76017114D01*
X216759657Y-75659971D02*
X216759657Y-76659971D01*
X216759657Y-75802829D02*
X216831085Y-75731400D01*
X216973943Y-75659971D01*
X217188228Y-75659971D01*
X217331085Y-75731400D01*
X217402514Y-75874257D01*
X217402514Y-76659971D01*
X219116800Y-75159971D02*
X219473943Y-76659971D01*
X219759657Y-75588543D01*
X220045371Y-76659971D01*
X220402514Y-75159971D01*
X221616800Y-76659971D02*
X221616800Y-75874257D01*
X221545371Y-75731400D01*
X221402514Y-75659971D01*
X221116800Y-75659971D01*
X220973943Y-75731400D01*
X221616800Y-76588543D02*
X221473943Y-76659971D01*
X221116800Y-76659971D01*
X220973943Y-76588543D01*
X220902514Y-76445686D01*
X220902514Y-76302829D01*
X220973943Y-76159971D01*
X221116800Y-76088543D01*
X221473943Y-76088543D01*
X221616800Y-76017114D01*
X222545372Y-76659971D02*
X222402514Y-76588543D01*
X222331086Y-76445686D01*
X222331086Y-75159971D01*
X223759657Y-76659971D02*
X223759657Y-75159971D01*
X223759657Y-76588543D02*
X223616800Y-76659971D01*
X223331086Y-76659971D01*
X223188228Y-76588543D01*
X223116800Y-76517114D01*
X223045371Y-76374257D01*
X223045371Y-75945686D01*
X223116800Y-75802829D01*
X223188228Y-75731400D01*
X223331086Y-75659971D01*
X223616800Y-75659971D01*
X223759657Y-75731400D01*
X224473943Y-76659971D02*
X224473943Y-75659971D01*
X224473943Y-75802829D02*
X224545371Y-75731400D01*
X224688229Y-75659971D01*
X224902514Y-75659971D01*
X225045371Y-75731400D01*
X225116800Y-75874257D01*
X225116800Y-76659971D01*
X225116800Y-75874257D02*
X225188229Y-75731400D01*
X225331086Y-75659971D01*
X225545371Y-75659971D01*
X225688229Y-75731400D01*
X225759657Y-75874257D01*
X225759657Y-76659971D01*
X227116800Y-76659971D02*
X227116800Y-75874257D01*
X227045371Y-75731400D01*
X226902514Y-75659971D01*
X226616800Y-75659971D01*
X226473943Y-75731400D01*
X227116800Y-76588543D02*
X226973943Y-76659971D01*
X226616800Y-76659971D01*
X226473943Y-76588543D01*
X226402514Y-76445686D01*
X226402514Y-76302829D01*
X226473943Y-76159971D01*
X226616800Y-76088543D01*
X226973943Y-76088543D01*
X227116800Y-76017114D01*
X227831086Y-75659971D02*
X227831086Y-76659971D01*
X227831086Y-75802829D02*
X227902514Y-75731400D01*
X228045372Y-75659971D01*
X228259657Y-75659971D01*
X228402514Y-75731400D01*
X228473943Y-75874257D01*
X228473943Y-76659971D01*
X229188229Y-75659971D02*
X229188229Y-76659971D01*
X229188229Y-75802829D02*
X229259657Y-75731400D01*
X229402515Y-75659971D01*
X229616800Y-75659971D01*
X229759657Y-75731400D01*
X229831086Y-75874257D01*
X229831086Y-76659971D01*
D12*
X190992309Y-44092762D02*
X191135166Y-44140381D01*
X191373262Y-44140381D01*
X191468500Y-44092762D01*
X191516119Y-44045143D01*
X191563738Y-43949905D01*
X191563738Y-43854667D01*
X191516119Y-43759429D01*
X191468500Y-43711810D01*
X191373262Y-43664190D01*
X191182785Y-43616571D01*
X191087547Y-43568952D01*
X191039928Y-43521333D01*
X190992309Y-43426095D01*
X190992309Y-43330857D01*
X191039928Y-43235619D01*
X191087547Y-43188000D01*
X191182785Y-43140381D01*
X191420881Y-43140381D01*
X191563738Y-43188000D01*
X191849452Y-43473714D02*
X192230404Y-43473714D01*
X191992309Y-43140381D02*
X191992309Y-43997524D01*
X192039928Y-44092762D01*
X192135166Y-44140381D01*
X192230404Y-44140381D01*
X192706595Y-44140381D02*
X192611357Y-44092762D01*
X192563738Y-44045143D01*
X192516119Y-43949905D01*
X192516119Y-43664190D01*
X192563738Y-43568952D01*
X192611357Y-43521333D01*
X192706595Y-43473714D01*
X192849453Y-43473714D01*
X192944691Y-43521333D01*
X192992310Y-43568952D01*
X193039929Y-43664190D01*
X193039929Y-43949905D01*
X192992310Y-44045143D01*
X192944691Y-44092762D01*
X192849453Y-44140381D01*
X192706595Y-44140381D01*
X193468500Y-43473714D02*
X193468500Y-44473714D01*
X193468500Y-43521333D02*
X193563738Y-43473714D01*
X193754215Y-43473714D01*
X193849453Y-43521333D01*
X193897072Y-43568952D01*
X193944691Y-43664190D01*
X193944691Y-43949905D01*
X193897072Y-44045143D01*
X193849453Y-44092762D01*
X193754215Y-44140381D01*
X193563738Y-44140381D01*
X193468500Y-44092762D01*
X222814309Y-48315571D02*
X222957166Y-48363190D01*
X223004785Y-48410810D01*
X223052404Y-48506048D01*
X223052404Y-48648905D01*
X223004785Y-48744143D01*
X222957166Y-48791762D01*
X222861928Y-48839381D01*
X222480975Y-48839381D01*
X222480975Y-47839381D01*
X222814309Y-47839381D01*
X222909547Y-47887000D01*
X222957166Y-47934619D01*
X223004785Y-48029857D01*
X223004785Y-48125095D01*
X222957166Y-48220333D01*
X222909547Y-48267952D01*
X222814309Y-48315571D01*
X222480975Y-48315571D01*
X223480975Y-48839381D02*
X223480975Y-48172714D01*
X223480975Y-48363190D02*
X223528594Y-48267952D01*
X223576213Y-48220333D01*
X223671451Y-48172714D01*
X223766690Y-48172714D01*
X224528595Y-48172714D02*
X224528595Y-48839381D01*
X224100023Y-48172714D02*
X224100023Y-48696524D01*
X224147642Y-48791762D01*
X224242880Y-48839381D01*
X224385738Y-48839381D01*
X224480976Y-48791762D01*
X224528595Y-48744143D01*
X224147642Y-47839381D02*
X224195261Y-47887000D01*
X224147642Y-47934619D01*
X224100023Y-47887000D01*
X224147642Y-47839381D01*
X224147642Y-47934619D01*
X224528595Y-47839381D02*
X224576214Y-47887000D01*
X224528595Y-47934619D01*
X224480976Y-47887000D01*
X224528595Y-47839381D01*
X224528595Y-47934619D01*
X225433357Y-48791762D02*
X225338119Y-48839381D01*
X225147642Y-48839381D01*
X225052404Y-48791762D01*
X225004785Y-48744143D01*
X224957166Y-48648905D01*
X224957166Y-48363190D01*
X225004785Y-48267952D01*
X225052404Y-48220333D01*
X225147642Y-48172714D01*
X225338119Y-48172714D01*
X225433357Y-48220333D01*
X225861928Y-48839381D02*
X225861928Y-47839381D01*
X225957166Y-48458429D02*
X226242881Y-48839381D01*
X226242881Y-48172714D02*
X225861928Y-48553667D01*
X227052405Y-48791762D02*
X226957167Y-48839381D01*
X226766690Y-48839381D01*
X226671452Y-48791762D01*
X226623833Y-48696524D01*
X226623833Y-48315571D01*
X226671452Y-48220333D01*
X226766690Y-48172714D01*
X226957167Y-48172714D01*
X227052405Y-48220333D01*
X227100024Y-48315571D01*
X227100024Y-48410810D01*
X226623833Y-48506048D01*
X227528595Y-48172714D02*
X227528595Y-48839381D01*
X227528595Y-48267952D02*
X227576214Y-48220333D01*
X227671452Y-48172714D01*
X227814310Y-48172714D01*
X227909548Y-48220333D01*
X227957167Y-48315571D01*
X227957167Y-48839381D01*
X228385738Y-48791762D02*
X228480976Y-48839381D01*
X228671452Y-48839381D01*
X228766691Y-48791762D01*
X228814310Y-48696524D01*
X228814310Y-48648905D01*
X228766691Y-48553667D01*
X228671452Y-48506048D01*
X228528595Y-48506048D01*
X228433357Y-48458429D01*
X228385738Y-48363190D01*
X228385738Y-48315571D01*
X228433357Y-48220333D01*
X228528595Y-48172714D01*
X228671452Y-48172714D01*
X228766691Y-48220333D01*
X229242881Y-48172714D02*
X229242881Y-49172714D01*
X229242881Y-48220333D02*
X229338119Y-48172714D01*
X229528596Y-48172714D01*
X229623834Y-48220333D01*
X229671453Y-48267952D01*
X229719072Y-48363190D01*
X229719072Y-48648905D01*
X229671453Y-48744143D01*
X229623834Y-48791762D01*
X229528596Y-48839381D01*
X229338119Y-48839381D01*
X229242881Y-48791762D01*
X230576215Y-48839381D02*
X230576215Y-48315571D01*
X230528596Y-48220333D01*
X230433358Y-48172714D01*
X230242881Y-48172714D01*
X230147643Y-48220333D01*
X230576215Y-48791762D02*
X230480977Y-48839381D01*
X230242881Y-48839381D01*
X230147643Y-48791762D01*
X230100024Y-48696524D01*
X230100024Y-48601286D01*
X230147643Y-48506048D01*
X230242881Y-48458429D01*
X230480977Y-48458429D01*
X230576215Y-48410810D01*
X231052405Y-48172714D02*
X231052405Y-48839381D01*
X231052405Y-48267952D02*
X231100024Y-48220333D01*
X231195262Y-48172714D01*
X231338120Y-48172714D01*
X231433358Y-48220333D01*
X231480977Y-48315571D01*
X231480977Y-48839381D01*
X231957167Y-48172714D02*
X231957167Y-48839381D01*
X231957167Y-48267952D02*
X232004786Y-48220333D01*
X232100024Y-48172714D01*
X232242882Y-48172714D01*
X232338120Y-48220333D01*
X232385739Y-48315571D01*
X232385739Y-48839381D01*
X233290501Y-48172714D02*
X233290501Y-48839381D01*
X232861929Y-48172714D02*
X232861929Y-48696524D01*
X232909548Y-48791762D01*
X233004786Y-48839381D01*
X233147644Y-48839381D01*
X233242882Y-48791762D01*
X233290501Y-48744143D01*
X233766691Y-48172714D02*
X233766691Y-48839381D01*
X233766691Y-48267952D02*
X233814310Y-48220333D01*
X233909548Y-48172714D01*
X234052406Y-48172714D01*
X234147644Y-48220333D01*
X234195263Y-48315571D01*
X234195263Y-48839381D01*
X235100025Y-48172714D02*
X235100025Y-48982238D01*
X235052406Y-49077476D01*
X235004787Y-49125095D01*
X234909548Y-49172714D01*
X234766691Y-49172714D01*
X234671453Y-49125095D01*
X235100025Y-48791762D02*
X235004787Y-48839381D01*
X234814310Y-48839381D01*
X234719072Y-48791762D01*
X234671453Y-48744143D01*
X234623834Y-48648905D01*
X234623834Y-48363190D01*
X234671453Y-48267952D01*
X234719072Y-48220333D01*
X234814310Y-48172714D01*
X235004787Y-48172714D01*
X235100025Y-48220333D01*
X254416667Y-25202381D02*
X254416667Y-24202381D01*
X254797620Y-24202381D01*
X254892858Y-24250000D01*
X254940477Y-24297619D01*
X254988096Y-24392857D01*
X254988096Y-24535714D01*
X254940477Y-24630952D01*
X254892858Y-24678571D01*
X254797620Y-24726190D01*
X254416667Y-24726190D01*
X255321429Y-24202381D02*
X255559524Y-25202381D01*
X255750001Y-24488095D01*
X255940477Y-25202381D01*
X256178572Y-24202381D01*
X257130953Y-25202381D02*
X256797619Y-24726190D01*
X256559524Y-25202381D02*
X256559524Y-24202381D01*
X256940477Y-24202381D01*
X257035715Y-24250000D01*
X257083334Y-24297619D01*
X257130953Y-24392857D01*
X257130953Y-24535714D01*
X257083334Y-24630952D01*
X257035715Y-24678571D01*
X256940477Y-24726190D01*
X256559524Y-24726190D01*
X220273810Y-22154762D02*
X220178572Y-22202381D01*
X219988095Y-22202381D01*
X219892857Y-22154762D01*
X219845238Y-22059524D01*
X219845238Y-21678571D01*
X219892857Y-21583333D01*
X219988095Y-21535714D01*
X220178572Y-21535714D01*
X220273810Y-21583333D01*
X220321429Y-21678571D01*
X220321429Y-21773810D01*
X219845238Y-21869048D01*
X220892857Y-22202381D02*
X220797619Y-22154762D01*
X220750000Y-22059524D01*
X220750000Y-21202381D01*
X221273810Y-22107143D02*
X221321429Y-22154762D01*
X221273810Y-22202381D01*
X221226191Y-22154762D01*
X221273810Y-22107143D01*
X221273810Y-22202381D01*
X222511905Y-22202381D02*
X222511905Y-21202381D01*
X223083334Y-22202381D02*
X222654762Y-21630952D01*
X223083334Y-21202381D02*
X222511905Y-21773810D01*
X223654762Y-22202381D02*
X223559524Y-22154762D01*
X223511905Y-22107143D01*
X223464286Y-22011905D01*
X223464286Y-21726190D01*
X223511905Y-21630952D01*
X223559524Y-21583333D01*
X223654762Y-21535714D01*
X223797620Y-21535714D01*
X223892858Y-21583333D01*
X223940477Y-21630952D01*
X223988096Y-21726190D01*
X223988096Y-22011905D01*
X223940477Y-22107143D01*
X223892858Y-22154762D01*
X223797620Y-22202381D01*
X223654762Y-22202381D01*
X224416667Y-22202381D02*
X224416667Y-21535714D01*
X224416667Y-21630952D02*
X224464286Y-21583333D01*
X224559524Y-21535714D01*
X224702382Y-21535714D01*
X224797620Y-21583333D01*
X224845239Y-21678571D01*
X224845239Y-22202381D01*
X224845239Y-21678571D02*
X224892858Y-21583333D01*
X224988096Y-21535714D01*
X225130953Y-21535714D01*
X225226191Y-21583333D01*
X225273810Y-21678571D01*
X225273810Y-22202381D01*
X225750000Y-22202381D02*
X225750000Y-21535714D01*
X225750000Y-21630952D02*
X225797619Y-21583333D01*
X225892857Y-21535714D01*
X226035715Y-21535714D01*
X226130953Y-21583333D01*
X226178572Y-21678571D01*
X226178572Y-22202381D01*
X226178572Y-21678571D02*
X226226191Y-21583333D01*
X226321429Y-21535714D01*
X226464286Y-21535714D01*
X226559524Y-21583333D01*
X226607143Y-21678571D01*
X226607143Y-22202381D01*
X225928571Y-28952381D02*
X225928571Y-27952381D01*
X225928571Y-28428571D02*
X226500000Y-28428571D01*
X226500000Y-28952381D02*
X226500000Y-27952381D01*
X227119047Y-28952381D02*
X227023809Y-28904762D01*
X226976190Y-28857143D01*
X226928571Y-28761905D01*
X226928571Y-28476190D01*
X226976190Y-28380952D01*
X227023809Y-28333333D01*
X227119047Y-28285714D01*
X227261905Y-28285714D01*
X227357143Y-28333333D01*
X227404762Y-28380952D01*
X227452381Y-28476190D01*
X227452381Y-28761905D01*
X227404762Y-28857143D01*
X227357143Y-28904762D01*
X227261905Y-28952381D01*
X227119047Y-28952381D01*
X228309524Y-28904762D02*
X228214286Y-28952381D01*
X228023809Y-28952381D01*
X227928571Y-28904762D01*
X227880952Y-28857143D01*
X227833333Y-28761905D01*
X227833333Y-28476190D01*
X227880952Y-28380952D01*
X227928571Y-28333333D01*
X228023809Y-28285714D01*
X228214286Y-28285714D01*
X228309524Y-28333333D01*
X228738095Y-28952381D02*
X228738095Y-27952381D01*
X229166667Y-28952381D02*
X229166667Y-28428571D01*
X229119048Y-28333333D01*
X229023810Y-28285714D01*
X228880952Y-28285714D01*
X228785714Y-28333333D01*
X228738095Y-28380952D01*
X229785714Y-28952381D02*
X229690476Y-28904762D01*
X229642857Y-28809524D01*
X229642857Y-27952381D01*
X230595239Y-28952381D02*
X230595239Y-28428571D01*
X230547620Y-28333333D01*
X230452382Y-28285714D01*
X230261905Y-28285714D01*
X230166667Y-28333333D01*
X230595239Y-28904762D02*
X230500001Y-28952381D01*
X230261905Y-28952381D01*
X230166667Y-28904762D01*
X230119048Y-28809524D01*
X230119048Y-28714286D01*
X230166667Y-28619048D01*
X230261905Y-28571429D01*
X230500001Y-28571429D01*
X230595239Y-28523810D01*
X231500001Y-28285714D02*
X231500001Y-28952381D01*
X231071429Y-28285714D02*
X231071429Y-28809524D01*
X231119048Y-28904762D01*
X231214286Y-28952381D01*
X231357144Y-28952381D01*
X231452382Y-28904762D01*
X231500001Y-28857143D01*
X231833334Y-28285714D02*
X232214286Y-28285714D01*
X231976191Y-28952381D02*
X231976191Y-28095238D01*
X232023810Y-28000000D01*
X232119048Y-27952381D01*
X232214286Y-27952381D01*
X195630953Y-32928571D02*
X195297619Y-32928571D01*
X195297619Y-33452381D02*
X195297619Y-32452381D01*
X195773810Y-32452381D01*
X196154762Y-33452381D02*
X196154762Y-32785714D01*
X196154762Y-32976190D02*
X196202381Y-32880952D01*
X196250000Y-32833333D01*
X196345238Y-32785714D01*
X196440477Y-32785714D01*
X197154763Y-33404762D02*
X197059525Y-33452381D01*
X196869048Y-33452381D01*
X196773810Y-33404762D01*
X196726191Y-33309524D01*
X196726191Y-32928571D01*
X196773810Y-32833333D01*
X196869048Y-32785714D01*
X197059525Y-32785714D01*
X197154763Y-32833333D01*
X197202382Y-32928571D01*
X197202382Y-33023810D01*
X196726191Y-33119048D01*
X197630953Y-33452381D02*
X197630953Y-32785714D01*
X197630953Y-32452381D02*
X197583334Y-32500000D01*
X197630953Y-32547619D01*
X197678572Y-32500000D01*
X197630953Y-32452381D01*
X197630953Y-32547619D01*
X198535715Y-32785714D02*
X198535715Y-33595238D01*
X198488096Y-33690476D01*
X198440477Y-33738095D01*
X198345238Y-33785714D01*
X198202381Y-33785714D01*
X198107143Y-33738095D01*
X198535715Y-33404762D02*
X198440477Y-33452381D01*
X198250000Y-33452381D01*
X198154762Y-33404762D01*
X198107143Y-33357143D01*
X198059524Y-33261905D01*
X198059524Y-32976190D01*
X198107143Y-32880952D01*
X198154762Y-32833333D01*
X198250000Y-32785714D01*
X198440477Y-32785714D01*
X198535715Y-32833333D01*
X199440477Y-33452381D02*
X199440477Y-32928571D01*
X199392858Y-32833333D01*
X199297620Y-32785714D01*
X199107143Y-32785714D01*
X199011905Y-32833333D01*
X199440477Y-33404762D02*
X199345239Y-33452381D01*
X199107143Y-33452381D01*
X199011905Y-33404762D01*
X198964286Y-33309524D01*
X198964286Y-33214286D01*
X199011905Y-33119048D01*
X199107143Y-33071429D01*
X199345239Y-33071429D01*
X199440477Y-33023810D01*
X199916667Y-33452381D02*
X199916667Y-32452381D01*
X199916667Y-32833333D02*
X200011905Y-32785714D01*
X200202382Y-32785714D01*
X200297620Y-32833333D01*
X200345239Y-32880952D01*
X200392858Y-32976190D01*
X200392858Y-33261905D01*
X200345239Y-33357143D01*
X200297620Y-33404762D01*
X200202382Y-33452381D01*
X200011905Y-33452381D01*
X199916667Y-33404762D01*
X201202382Y-33404762D02*
X201107144Y-33452381D01*
X200916667Y-33452381D01*
X200821429Y-33404762D01*
X200773810Y-33309524D01*
X200773810Y-32928571D01*
X200821429Y-32833333D01*
X200916667Y-32785714D01*
X201107144Y-32785714D01*
X201202382Y-32833333D01*
X201250001Y-32928571D01*
X201250001Y-33023810D01*
X200773810Y-33119048D01*
X216273809Y-34904762D02*
X216416666Y-34952381D01*
X216654762Y-34952381D01*
X216750000Y-34904762D01*
X216797619Y-34857143D01*
X216845238Y-34761905D01*
X216845238Y-34666667D01*
X216797619Y-34571429D01*
X216750000Y-34523810D01*
X216654762Y-34476190D01*
X216464285Y-34428571D01*
X216369047Y-34380952D01*
X216321428Y-34333333D01*
X216273809Y-34238095D01*
X216273809Y-34142857D01*
X216321428Y-34047619D01*
X216369047Y-34000000D01*
X216464285Y-33952381D01*
X216702381Y-33952381D01*
X216845238Y-34000000D01*
X217130952Y-34285714D02*
X217511904Y-34285714D01*
X217273809Y-33952381D02*
X217273809Y-34809524D01*
X217321428Y-34904762D01*
X217416666Y-34952381D01*
X217511904Y-34952381D01*
X217988095Y-34952381D02*
X217892857Y-34904762D01*
X217845238Y-34857143D01*
X217797619Y-34761905D01*
X217797619Y-34476190D01*
X217845238Y-34380952D01*
X217892857Y-34333333D01*
X217988095Y-34285714D01*
X218130953Y-34285714D01*
X218226191Y-34333333D01*
X218273810Y-34380952D01*
X218321429Y-34476190D01*
X218321429Y-34761905D01*
X218273810Y-34857143D01*
X218226191Y-34904762D01*
X218130953Y-34952381D01*
X217988095Y-34952381D01*
X218750000Y-34285714D02*
X218750000Y-35285714D01*
X218750000Y-34333333D02*
X218845238Y-34285714D01*
X219035715Y-34285714D01*
X219130953Y-34333333D01*
X219178572Y-34380952D01*
X219226191Y-34476190D01*
X219226191Y-34761905D01*
X219178572Y-34857143D01*
X219130953Y-34904762D01*
X219035715Y-34952381D01*
X218845238Y-34952381D01*
X218750000Y-34904762D01*
X218880953Y-27928571D02*
X218547619Y-27928571D01*
X218547619Y-28452381D02*
X218547619Y-27452381D01*
X219023810Y-27452381D01*
X219404762Y-28452381D02*
X219404762Y-27785714D01*
X219404762Y-27976190D02*
X219452381Y-27880952D01*
X219500000Y-27833333D01*
X219595238Y-27785714D01*
X219690477Y-27785714D01*
X220404763Y-28404762D02*
X220309525Y-28452381D01*
X220119048Y-28452381D01*
X220023810Y-28404762D01*
X219976191Y-28309524D01*
X219976191Y-27928571D01*
X220023810Y-27833333D01*
X220119048Y-27785714D01*
X220309525Y-27785714D01*
X220404763Y-27833333D01*
X220452382Y-27928571D01*
X220452382Y-28023810D01*
X219976191Y-28119048D01*
X220880953Y-28452381D02*
X220880953Y-27785714D01*
X220880953Y-27452381D02*
X220833334Y-27500000D01*
X220880953Y-27547619D01*
X220928572Y-27500000D01*
X220880953Y-27452381D01*
X220880953Y-27547619D01*
X221785715Y-27785714D02*
X221785715Y-28595238D01*
X221738096Y-28690476D01*
X221690477Y-28738095D01*
X221595238Y-28785714D01*
X221452381Y-28785714D01*
X221357143Y-28738095D01*
X221785715Y-28404762D02*
X221690477Y-28452381D01*
X221500000Y-28452381D01*
X221404762Y-28404762D01*
X221357143Y-28357143D01*
X221309524Y-28261905D01*
X221309524Y-27976190D01*
X221357143Y-27880952D01*
X221404762Y-27833333D01*
X221500000Y-27785714D01*
X221690477Y-27785714D01*
X221785715Y-27833333D01*
X222690477Y-28452381D02*
X222690477Y-27928571D01*
X222642858Y-27833333D01*
X222547620Y-27785714D01*
X222357143Y-27785714D01*
X222261905Y-27833333D01*
X222690477Y-28404762D02*
X222595239Y-28452381D01*
X222357143Y-28452381D01*
X222261905Y-28404762D01*
X222214286Y-28309524D01*
X222214286Y-28214286D01*
X222261905Y-28119048D01*
X222357143Y-28071429D01*
X222595239Y-28071429D01*
X222690477Y-28023810D01*
X223166667Y-28452381D02*
X223166667Y-27452381D01*
X223166667Y-27833333D02*
X223261905Y-27785714D01*
X223452382Y-27785714D01*
X223547620Y-27833333D01*
X223595239Y-27880952D01*
X223642858Y-27976190D01*
X223642858Y-28261905D01*
X223595239Y-28357143D01*
X223547620Y-28404762D01*
X223452382Y-28452381D01*
X223261905Y-28452381D01*
X223166667Y-28404762D01*
X224452382Y-28404762D02*
X224357144Y-28452381D01*
X224166667Y-28452381D01*
X224071429Y-28404762D01*
X224023810Y-28309524D01*
X224023810Y-27928571D01*
X224071429Y-27833333D01*
X224166667Y-27785714D01*
X224357144Y-27785714D01*
X224452382Y-27833333D01*
X224500001Y-27928571D01*
X224500001Y-28023810D01*
X224023810Y-28119048D01*
X246190475Y-64904762D02*
X246333332Y-64952381D01*
X246571428Y-64952381D01*
X246666666Y-64904762D01*
X246714285Y-64857143D01*
X246761904Y-64761905D01*
X246761904Y-64666667D01*
X246714285Y-64571429D01*
X246666666Y-64523810D01*
X246571428Y-64476190D01*
X246380951Y-64428571D01*
X246285713Y-64380952D01*
X246238094Y-64333333D01*
X246190475Y-64238095D01*
X246190475Y-64142857D01*
X246238094Y-64047619D01*
X246285713Y-64000000D01*
X246380951Y-63952381D01*
X246619047Y-63952381D01*
X246761904Y-64000000D01*
X247047618Y-64285714D02*
X247428570Y-64285714D01*
X247190475Y-63952381D02*
X247190475Y-64809524D01*
X247238094Y-64904762D01*
X247333332Y-64952381D01*
X247428570Y-64952381D01*
X248142857Y-64904762D02*
X248047619Y-64952381D01*
X247857142Y-64952381D01*
X247761904Y-64904762D01*
X247714285Y-64809524D01*
X247714285Y-64428571D01*
X247761904Y-64333333D01*
X247857142Y-64285714D01*
X248047619Y-64285714D01*
X248142857Y-64333333D01*
X248190476Y-64428571D01*
X248190476Y-64523810D01*
X247714285Y-64619048D01*
X248619047Y-64952381D02*
X248619047Y-64285714D01*
X248619047Y-64476190D02*
X248666666Y-64380952D01*
X248714285Y-64333333D01*
X248809523Y-64285714D01*
X248904762Y-64285714D01*
X249238095Y-64285714D02*
X249238095Y-64952381D01*
X249238095Y-64380952D02*
X249285714Y-64333333D01*
X249380952Y-64285714D01*
X249523810Y-64285714D01*
X249619048Y-64333333D01*
X249666667Y-64428571D01*
X249666667Y-64952381D01*
X250142857Y-64285714D02*
X250142857Y-65285714D01*
X250142857Y-64333333D02*
X250238095Y-64285714D01*
X250428572Y-64285714D01*
X250523810Y-64333333D01*
X250571429Y-64380952D01*
X250619048Y-64476190D01*
X250619048Y-64761905D01*
X250571429Y-64857143D01*
X250523810Y-64904762D01*
X250428572Y-64952381D01*
X250238095Y-64952381D01*
X250142857Y-64904762D01*
X251476191Y-64285714D02*
X251476191Y-64952381D01*
X251047619Y-64285714D02*
X251047619Y-64809524D01*
X251095238Y-64904762D01*
X251190476Y-64952381D01*
X251333334Y-64952381D01*
X251428572Y-64904762D01*
X251476191Y-64857143D01*
X251952381Y-64285714D02*
X251952381Y-64952381D01*
X251952381Y-64380952D02*
X252000000Y-64333333D01*
X252095238Y-64285714D01*
X252238096Y-64285714D01*
X252333334Y-64333333D01*
X252380953Y-64428571D01*
X252380953Y-64952381D01*
X252857143Y-64952381D02*
X252857143Y-63952381D01*
X252952381Y-64571429D02*
X253238096Y-64952381D01*
X253238096Y-64285714D02*
X252857143Y-64666667D01*
X253523810Y-64285714D02*
X253904762Y-64285714D01*
X253666667Y-63952381D02*
X253666667Y-64809524D01*
X253714286Y-64904762D01*
X253809524Y-64952381D01*
X253904762Y-64952381D01*
X261238096Y-26000000D02*
X261142858Y-25952381D01*
X261000001Y-25952381D01*
X260857143Y-26000000D01*
X260761905Y-26095238D01*
X260714286Y-26190476D01*
X260666667Y-26380952D01*
X260666667Y-26523810D01*
X260714286Y-26714286D01*
X260761905Y-26809524D01*
X260857143Y-26904762D01*
X261000001Y-26952381D01*
X261095239Y-26952381D01*
X261238096Y-26904762D01*
X261285715Y-26857143D01*
X261285715Y-26523810D01*
X261095239Y-26523810D01*
X261714286Y-26952381D02*
X261714286Y-25952381D01*
X262285715Y-26952381D01*
X262285715Y-25952381D01*
X262761905Y-26952381D02*
X262761905Y-25952381D01*
X263000000Y-25952381D01*
X263142858Y-26000000D01*
X263238096Y-26095238D01*
X263285715Y-26190476D01*
X263333334Y-26380952D01*
X263333334Y-26523810D01*
X263285715Y-26714286D01*
X263238096Y-26809524D01*
X263142858Y-26904762D01*
X263000000Y-26952381D01*
X262761905Y-26952381D01*
X221361096Y-36330000D02*
X221265858Y-36282381D01*
X221123001Y-36282381D01*
X220980143Y-36330000D01*
X220884905Y-36425238D01*
X220837286Y-36520476D01*
X220789667Y-36710952D01*
X220789667Y-36853810D01*
X220837286Y-37044286D01*
X220884905Y-37139524D01*
X220980143Y-37234762D01*
X221123001Y-37282381D01*
X221218239Y-37282381D01*
X221361096Y-37234762D01*
X221408715Y-37187143D01*
X221408715Y-36853810D01*
X221218239Y-36853810D01*
X221837286Y-37282381D02*
X221837286Y-36282381D01*
X222408715Y-37282381D01*
X222408715Y-36282381D01*
X222884905Y-37282381D02*
X222884905Y-36282381D01*
X223123000Y-36282381D01*
X223265858Y-36330000D01*
X223361096Y-36425238D01*
X223408715Y-36520476D01*
X223456334Y-36710952D01*
X223456334Y-36853810D01*
X223408715Y-37044286D01*
X223361096Y-37139524D01*
X223265858Y-37234762D01*
X223123000Y-37282381D01*
X222884905Y-37282381D01*
X205549667Y-55713381D02*
X205883000Y-56713381D01*
X206216334Y-55713381D01*
X207121096Y-56618143D02*
X207073477Y-56665762D01*
X206930620Y-56713381D01*
X206835382Y-56713381D01*
X206692524Y-56665762D01*
X206597286Y-56570524D01*
X206549667Y-56475286D01*
X206502048Y-56284810D01*
X206502048Y-56141952D01*
X206549667Y-55951476D01*
X206597286Y-55856238D01*
X206692524Y-55761000D01*
X206835382Y-55713381D01*
X206930620Y-55713381D01*
X207073477Y-55761000D01*
X207121096Y-55808619D01*
X208121096Y-56618143D02*
X208073477Y-56665762D01*
X207930620Y-56713381D01*
X207835382Y-56713381D01*
X207692524Y-56665762D01*
X207597286Y-56570524D01*
X207549667Y-56475286D01*
X207502048Y-56284810D01*
X207502048Y-56141952D01*
X207549667Y-55951476D01*
X207597286Y-55856238D01*
X207692524Y-55761000D01*
X207835382Y-55713381D01*
X207930620Y-55713381D01*
X208073477Y-55761000D01*
X208121096Y-55808619D01*
X206188096Y-71425000D02*
X206092858Y-71377381D01*
X205950001Y-71377381D01*
X205807143Y-71425000D01*
X205711905Y-71520238D01*
X205664286Y-71615476D01*
X205616667Y-71805952D01*
X205616667Y-71948810D01*
X205664286Y-72139286D01*
X205711905Y-72234524D01*
X205807143Y-72329762D01*
X205950001Y-72377381D01*
X206045239Y-72377381D01*
X206188096Y-72329762D01*
X206235715Y-72282143D01*
X206235715Y-71948810D01*
X206045239Y-71948810D01*
X206664286Y-72377381D02*
X206664286Y-71377381D01*
X207235715Y-72377381D01*
X207235715Y-71377381D01*
X207711905Y-72377381D02*
X207711905Y-71377381D01*
X207950000Y-71377381D01*
X208092858Y-71425000D01*
X208188096Y-71520238D01*
X208235715Y-71615476D01*
X208283334Y-71805952D01*
X208283334Y-71948810D01*
X208235715Y-72139286D01*
X208188096Y-72234524D01*
X208092858Y-72329762D01*
X207950000Y-72377381D01*
X207711905Y-72377381D01*
X252142810Y-28154381D02*
X252761858Y-28154381D01*
X252428524Y-28535333D01*
X252571382Y-28535333D01*
X252666620Y-28582952D01*
X252714239Y-28630571D01*
X252761858Y-28725810D01*
X252761858Y-28963905D01*
X252714239Y-29059143D01*
X252666620Y-29106762D01*
X252571382Y-29154381D01*
X252285667Y-29154381D01*
X252190429Y-29106762D01*
X252142810Y-29059143D01*
X253238048Y-29106762D02*
X253238048Y-29154381D01*
X253190429Y-29249619D01*
X253142810Y-29297238D01*
X253571381Y-28154381D02*
X254190429Y-28154381D01*
X253857095Y-28535333D01*
X253999953Y-28535333D01*
X254095191Y-28582952D01*
X254142810Y-28630571D01*
X254190429Y-28725810D01*
X254190429Y-28963905D01*
X254142810Y-29059143D01*
X254095191Y-29106762D01*
X253999953Y-29154381D01*
X253714238Y-29154381D01*
X253619000Y-29106762D01*
X253571381Y-29059143D01*
X254476143Y-28154381D02*
X254809476Y-29154381D01*
X255142810Y-28154381D01*
X235156477Y-42616381D02*
X234680286Y-42616381D01*
X234680286Y-41616381D01*
X235489810Y-42616381D02*
X235489810Y-41616381D01*
X235727905Y-42711619D02*
X236489810Y-42711619D01*
X237061239Y-42092571D02*
X237204096Y-42140190D01*
X237251715Y-42187810D01*
X237299334Y-42283048D01*
X237299334Y-42425905D01*
X237251715Y-42521143D01*
X237204096Y-42568762D01*
X237108858Y-42616381D01*
X236727905Y-42616381D01*
X236727905Y-41616381D01*
X237061239Y-41616381D01*
X237156477Y-41664000D01*
X237204096Y-41711619D01*
X237251715Y-41806857D01*
X237251715Y-41902095D01*
X237204096Y-41997333D01*
X237156477Y-42044952D01*
X237061239Y-42092571D01*
X236727905Y-42092571D01*
X232179905Y-42616381D02*
X231703714Y-42616381D01*
X231703714Y-41616381D01*
X232513238Y-42616381D02*
X232513238Y-41616381D01*
X232751333Y-42711619D02*
X233513238Y-42711619D01*
X233703714Y-42330667D02*
X234179905Y-42330667D01*
X233608476Y-42616381D02*
X233941809Y-41616381D01*
X234275143Y-42616381D01*
X206883475Y-65809762D02*
X207026332Y-65857381D01*
X207264428Y-65857381D01*
X207359666Y-65809762D01*
X207407285Y-65762143D01*
X207454904Y-65666905D01*
X207454904Y-65571667D01*
X207407285Y-65476429D01*
X207359666Y-65428810D01*
X207264428Y-65381190D01*
X207073951Y-65333571D01*
X206978713Y-65285952D01*
X206931094Y-65238333D01*
X206883475Y-65143095D01*
X206883475Y-65047857D01*
X206931094Y-64952619D01*
X206978713Y-64905000D01*
X207073951Y-64857381D01*
X207312047Y-64857381D01*
X207454904Y-64905000D01*
X207740618Y-65190714D02*
X208121570Y-65190714D01*
X207883475Y-64857381D02*
X207883475Y-65714524D01*
X207931094Y-65809762D01*
X208026332Y-65857381D01*
X208121570Y-65857381D01*
X208835857Y-65809762D02*
X208740619Y-65857381D01*
X208550142Y-65857381D01*
X208454904Y-65809762D01*
X208407285Y-65714524D01*
X208407285Y-65333571D01*
X208454904Y-65238333D01*
X208550142Y-65190714D01*
X208740619Y-65190714D01*
X208835857Y-65238333D01*
X208883476Y-65333571D01*
X208883476Y-65428810D01*
X208407285Y-65524048D01*
X209312047Y-65857381D02*
X209312047Y-65190714D01*
X209312047Y-65381190D02*
X209359666Y-65285952D01*
X209407285Y-65238333D01*
X209502523Y-65190714D01*
X209597762Y-65190714D01*
X209931095Y-65190714D02*
X209931095Y-65857381D01*
X209931095Y-65285952D02*
X209978714Y-65238333D01*
X210073952Y-65190714D01*
X210216810Y-65190714D01*
X210312048Y-65238333D01*
X210359667Y-65333571D01*
X210359667Y-65857381D01*
X210835857Y-65190714D02*
X210835857Y-66190714D01*
X210835857Y-65238333D02*
X210931095Y-65190714D01*
X211121572Y-65190714D01*
X211216810Y-65238333D01*
X211264429Y-65285952D01*
X211312048Y-65381190D01*
X211312048Y-65666905D01*
X211264429Y-65762143D01*
X211216810Y-65809762D01*
X211121572Y-65857381D01*
X210931095Y-65857381D01*
X210835857Y-65809762D01*
X212169191Y-65190714D02*
X212169191Y-65857381D01*
X211740619Y-65190714D02*
X211740619Y-65714524D01*
X211788238Y-65809762D01*
X211883476Y-65857381D01*
X212026334Y-65857381D01*
X212121572Y-65809762D01*
X212169191Y-65762143D01*
X212645381Y-65190714D02*
X212645381Y-65857381D01*
X212645381Y-65285952D02*
X212693000Y-65238333D01*
X212788238Y-65190714D01*
X212931096Y-65190714D01*
X213026334Y-65238333D01*
X213073953Y-65333571D01*
X213073953Y-65857381D01*
X213550143Y-65857381D02*
X213550143Y-64857381D01*
X213645381Y-65476429D02*
X213931096Y-65857381D01*
X213931096Y-65190714D02*
X213550143Y-65571667D01*
X214216810Y-65190714D02*
X214597762Y-65190714D01*
X214359667Y-64857381D02*
X214359667Y-65714524D01*
X214407286Y-65809762D01*
X214502524Y-65857381D01*
X214597762Y-65857381D01*
X262350477Y-46029571D02*
X262493334Y-46077190D01*
X262540953Y-46124810D01*
X262588572Y-46220048D01*
X262588572Y-46362905D01*
X262540953Y-46458143D01*
X262493334Y-46505762D01*
X262398096Y-46553381D01*
X262017143Y-46553381D01*
X262017143Y-45553381D01*
X262350477Y-45553381D01*
X262445715Y-45601000D01*
X262493334Y-45648619D01*
X262540953Y-45743857D01*
X262540953Y-45839095D01*
X262493334Y-45934333D01*
X262445715Y-45981952D01*
X262350477Y-46029571D01*
X262017143Y-46029571D01*
X263398096Y-46505762D02*
X263302858Y-46553381D01*
X263112381Y-46553381D01*
X263017143Y-46505762D01*
X262969524Y-46410524D01*
X262969524Y-46029571D01*
X263017143Y-45934333D01*
X263112381Y-45886714D01*
X263302858Y-45886714D01*
X263398096Y-45934333D01*
X263445715Y-46029571D01*
X263445715Y-46124810D01*
X262969524Y-46220048D01*
X263874286Y-46553381D02*
X263874286Y-45886714D01*
X263874286Y-45981952D02*
X263921905Y-45934333D01*
X264017143Y-45886714D01*
X264160001Y-45886714D01*
X264255239Y-45934333D01*
X264302858Y-46029571D01*
X264302858Y-46553381D01*
X264302858Y-46029571D02*
X264350477Y-45934333D01*
X264445715Y-45886714D01*
X264588572Y-45886714D01*
X264683810Y-45934333D01*
X264731429Y-46029571D01*
X264731429Y-46553381D01*
X265064762Y-45886714D02*
X265445714Y-45886714D01*
X265207619Y-46553381D02*
X265207619Y-45696238D01*
X265255238Y-45601000D01*
X265350476Y-45553381D01*
X265445714Y-45553381D01*
X266350477Y-46458143D02*
X266302858Y-46505762D01*
X266160001Y-46553381D01*
X266064763Y-46553381D01*
X265921905Y-46505762D01*
X265826667Y-46410524D01*
X265779048Y-46315286D01*
X265731429Y-46124810D01*
X265731429Y-45981952D01*
X265779048Y-45791476D01*
X265826667Y-45696238D01*
X265921905Y-45601000D01*
X266064763Y-45553381D01*
X266160001Y-45553381D01*
X266302858Y-45601000D01*
X266350477Y-45648619D01*
X262350477Y-42600571D02*
X262493334Y-42648190D01*
X262540953Y-42695810D01*
X262588572Y-42791048D01*
X262588572Y-42933905D01*
X262540953Y-43029143D01*
X262493334Y-43076762D01*
X262398096Y-43124381D01*
X262017143Y-43124381D01*
X262017143Y-42124381D01*
X262350477Y-42124381D01*
X262445715Y-42172000D01*
X262493334Y-42219619D01*
X262540953Y-42314857D01*
X262540953Y-42410095D01*
X262493334Y-42505333D01*
X262445715Y-42552952D01*
X262350477Y-42600571D01*
X262017143Y-42600571D01*
X263398096Y-43076762D02*
X263302858Y-43124381D01*
X263112381Y-43124381D01*
X263017143Y-43076762D01*
X262969524Y-42981524D01*
X262969524Y-42600571D01*
X263017143Y-42505333D01*
X263112381Y-42457714D01*
X263302858Y-42457714D01*
X263398096Y-42505333D01*
X263445715Y-42600571D01*
X263445715Y-42695810D01*
X262969524Y-42791048D01*
X263874286Y-43124381D02*
X263874286Y-42457714D01*
X263874286Y-42552952D02*
X263921905Y-42505333D01*
X264017143Y-42457714D01*
X264160001Y-42457714D01*
X264255239Y-42505333D01*
X264302858Y-42600571D01*
X264302858Y-43124381D01*
X264302858Y-42600571D02*
X264350477Y-42505333D01*
X264445715Y-42457714D01*
X264588572Y-42457714D01*
X264683810Y-42505333D01*
X264731429Y-42600571D01*
X264731429Y-43124381D01*
X265064762Y-42457714D02*
X265445714Y-42457714D01*
X265207619Y-43124381D02*
X265207619Y-42267238D01*
X265255238Y-42172000D01*
X265350476Y-42124381D01*
X265445714Y-42124381D01*
X266112382Y-42600571D02*
X266255239Y-42648190D01*
X266302858Y-42695810D01*
X266350477Y-42791048D01*
X266350477Y-42933905D01*
X266302858Y-43029143D01*
X266255239Y-43076762D01*
X266160001Y-43124381D01*
X265779048Y-43124381D01*
X265779048Y-42124381D01*
X266112382Y-42124381D01*
X266207620Y-42172000D01*
X266255239Y-42219619D01*
X266302858Y-42314857D01*
X266302858Y-42410095D01*
X266255239Y-42505333D01*
X266207620Y-42552952D01*
X266112382Y-42600571D01*
X265779048Y-42600571D01*
X262421905Y-38028571D02*
X262564762Y-38076190D01*
X262612381Y-38123810D01*
X262660000Y-38219048D01*
X262660000Y-38361905D01*
X262612381Y-38457143D01*
X262564762Y-38504762D01*
X262469524Y-38552381D01*
X262088571Y-38552381D01*
X262088571Y-37552381D01*
X262421905Y-37552381D01*
X262517143Y-37600000D01*
X262564762Y-37647619D01*
X262612381Y-37742857D01*
X262612381Y-37838095D01*
X262564762Y-37933333D01*
X262517143Y-37980952D01*
X262421905Y-38028571D01*
X262088571Y-38028571D01*
X263469524Y-38504762D02*
X263374286Y-38552381D01*
X263183809Y-38552381D01*
X263088571Y-38504762D01*
X263040952Y-38409524D01*
X263040952Y-38028571D01*
X263088571Y-37933333D01*
X263183809Y-37885714D01*
X263374286Y-37885714D01*
X263469524Y-37933333D01*
X263517143Y-38028571D01*
X263517143Y-38123810D01*
X263040952Y-38219048D01*
X263945714Y-38552381D02*
X263945714Y-37885714D01*
X263945714Y-37980952D02*
X263993333Y-37933333D01*
X264088571Y-37885714D01*
X264231429Y-37885714D01*
X264326667Y-37933333D01*
X264374286Y-38028571D01*
X264374286Y-38552381D01*
X264374286Y-38028571D02*
X264421905Y-37933333D01*
X264517143Y-37885714D01*
X264660000Y-37885714D01*
X264755238Y-37933333D01*
X264802857Y-38028571D01*
X264802857Y-38552381D01*
X265136190Y-37885714D02*
X265517142Y-37885714D01*
X265279047Y-38552381D02*
X265279047Y-37695238D01*
X265326666Y-37600000D01*
X265421904Y-37552381D01*
X265517142Y-37552381D01*
X265802857Y-38266667D02*
X266279048Y-38266667D01*
X265707619Y-38552381D02*
X266040952Y-37552381D01*
X266374286Y-38552381D01*
X226880952Y-51452381D02*
X226880952Y-50452381D01*
X226880952Y-50928571D02*
X227452381Y-50928571D01*
X227452381Y-51452381D02*
X227452381Y-50452381D01*
X228119047Y-50452381D02*
X228309524Y-50452381D01*
X228404762Y-50500000D01*
X228500000Y-50595238D01*
X228547619Y-50785714D01*
X228547619Y-51119048D01*
X228500000Y-51309524D01*
X228404762Y-51404762D01*
X228309524Y-51452381D01*
X228119047Y-51452381D01*
X228023809Y-51404762D01*
X227928571Y-51309524D01*
X227880952Y-51119048D01*
X227880952Y-50785714D01*
X227928571Y-50595238D01*
X228023809Y-50500000D01*
X228119047Y-50452381D01*
X228738095Y-51547619D02*
X229500000Y-51547619D01*
X229690476Y-51166667D02*
X230166667Y-51166667D01*
X229595238Y-51452381D02*
X229928571Y-50452381D01*
X230261905Y-51452381D01*
X245309524Y-51452381D02*
X245309524Y-50452381D01*
X245309524Y-50928571D02*
X245880953Y-50928571D01*
X245880953Y-51452381D02*
X245880953Y-50452381D01*
X246547619Y-50452381D02*
X246738096Y-50452381D01*
X246833334Y-50500000D01*
X246928572Y-50595238D01*
X246976191Y-50785714D01*
X246976191Y-51119048D01*
X246928572Y-51309524D01*
X246833334Y-51404762D01*
X246738096Y-51452381D01*
X246547619Y-51452381D01*
X246452381Y-51404762D01*
X246357143Y-51309524D01*
X246309524Y-51119048D01*
X246309524Y-50785714D01*
X246357143Y-50595238D01*
X246452381Y-50500000D01*
X246547619Y-50452381D01*
X247166667Y-51547619D02*
X247928572Y-51547619D01*
X248500001Y-50928571D02*
X248642858Y-50976190D01*
X248690477Y-51023810D01*
X248738096Y-51119048D01*
X248738096Y-51261905D01*
X248690477Y-51357143D01*
X248642858Y-51404762D01*
X248547620Y-51452381D01*
X248166667Y-51452381D01*
X248166667Y-50452381D01*
X248500001Y-50452381D01*
X248595239Y-50500000D01*
X248642858Y-50547619D01*
X248690477Y-50642857D01*
X248690477Y-50738095D01*
X248642858Y-50833333D01*
X248595239Y-50880952D01*
X248500001Y-50928571D01*
X248166667Y-50928571D01*
X263309524Y-51452381D02*
X263309524Y-50452381D01*
X263309524Y-50928571D02*
X263880953Y-50928571D01*
X263880953Y-51452381D02*
X263880953Y-50452381D01*
X264547619Y-50452381D02*
X264738096Y-50452381D01*
X264833334Y-50500000D01*
X264928572Y-50595238D01*
X264976191Y-50785714D01*
X264976191Y-51119048D01*
X264928572Y-51309524D01*
X264833334Y-51404762D01*
X264738096Y-51452381D01*
X264547619Y-51452381D01*
X264452381Y-51404762D01*
X264357143Y-51309524D01*
X264309524Y-51119048D01*
X264309524Y-50785714D01*
X264357143Y-50595238D01*
X264452381Y-50500000D01*
X264547619Y-50452381D01*
X265166667Y-51547619D02*
X265928572Y-51547619D01*
X266738096Y-51357143D02*
X266690477Y-51404762D01*
X266547620Y-51452381D01*
X266452382Y-51452381D01*
X266309524Y-51404762D01*
X266214286Y-51309524D01*
X266166667Y-51214286D01*
X266119048Y-51023810D01*
X266119048Y-50880952D01*
X266166667Y-50690476D01*
X266214286Y-50595238D01*
X266309524Y-50500000D01*
X266452382Y-50452381D01*
X266547620Y-50452381D01*
X266690477Y-50500000D01*
X266738096Y-50547619D01*
X218476191Y-67452381D02*
X218000000Y-67452381D01*
X218000000Y-66452381D01*
X219000000Y-66452381D02*
X219190477Y-66452381D01*
X219285715Y-66500000D01*
X219380953Y-66595238D01*
X219428572Y-66785714D01*
X219428572Y-67119048D01*
X219380953Y-67309524D01*
X219285715Y-67404762D01*
X219190477Y-67452381D01*
X219000000Y-67452381D01*
X218904762Y-67404762D01*
X218809524Y-67309524D01*
X218761905Y-67119048D01*
X218761905Y-66785714D01*
X218809524Y-66595238D01*
X218904762Y-66500000D01*
X219000000Y-66452381D01*
X219619048Y-67547619D02*
X220380953Y-67547619D01*
X220571429Y-67166667D02*
X221047620Y-67166667D01*
X220476191Y-67452381D02*
X220809524Y-66452381D01*
X221142858Y-67452381D01*
X236904762Y-67452381D02*
X236428571Y-67452381D01*
X236428571Y-66452381D01*
X237428571Y-66452381D02*
X237619048Y-66452381D01*
X237714286Y-66500000D01*
X237809524Y-66595238D01*
X237857143Y-66785714D01*
X237857143Y-67119048D01*
X237809524Y-67309524D01*
X237714286Y-67404762D01*
X237619048Y-67452381D01*
X237428571Y-67452381D01*
X237333333Y-67404762D01*
X237238095Y-67309524D01*
X237190476Y-67119048D01*
X237190476Y-66785714D01*
X237238095Y-66595238D01*
X237333333Y-66500000D01*
X237428571Y-66452381D01*
X238047619Y-67547619D02*
X238809524Y-67547619D01*
X239380953Y-66928571D02*
X239523810Y-66976190D01*
X239571429Y-67023810D01*
X239619048Y-67119048D01*
X239619048Y-67261905D01*
X239571429Y-67357143D01*
X239523810Y-67404762D01*
X239428572Y-67452381D01*
X239047619Y-67452381D01*
X239047619Y-66452381D01*
X239380953Y-66452381D01*
X239476191Y-66500000D01*
X239523810Y-66547619D01*
X239571429Y-66642857D01*
X239571429Y-66738095D01*
X239523810Y-66833333D01*
X239476191Y-66880952D01*
X239380953Y-66928571D01*
X239047619Y-66928571D01*
X256404762Y-67452381D02*
X255928571Y-67452381D01*
X255928571Y-66452381D01*
X256928571Y-66452381D02*
X257119048Y-66452381D01*
X257214286Y-66500000D01*
X257309524Y-66595238D01*
X257357143Y-66785714D01*
X257357143Y-67119048D01*
X257309524Y-67309524D01*
X257214286Y-67404762D01*
X257119048Y-67452381D01*
X256928571Y-67452381D01*
X256833333Y-67404762D01*
X256738095Y-67309524D01*
X256690476Y-67119048D01*
X256690476Y-66785714D01*
X256738095Y-66595238D01*
X256833333Y-66500000D01*
X256928571Y-66452381D01*
X257547619Y-67547619D02*
X258309524Y-67547619D01*
X259119048Y-67357143D02*
X259071429Y-67404762D01*
X258928572Y-67452381D01*
X258833334Y-67452381D01*
X258690476Y-67404762D01*
X258595238Y-67309524D01*
X258547619Y-67214286D01*
X258500000Y-67023810D01*
X258500000Y-66880952D01*
X258547619Y-66690476D01*
X258595238Y-66595238D01*
X258690476Y-66500000D01*
X258833334Y-66452381D01*
X258928572Y-66452381D01*
X259071429Y-66500000D01*
X259119048Y-66547619D01*
X253571477Y-43505381D02*
X253095286Y-43505381D01*
X253095286Y-42505381D01*
X253904810Y-43505381D02*
X253904810Y-42505381D01*
X254142905Y-43600619D02*
X254904810Y-43600619D01*
X255714334Y-43410143D02*
X255666715Y-43457762D01*
X255523858Y-43505381D01*
X255428620Y-43505381D01*
X255285762Y-43457762D01*
X255190524Y-43362524D01*
X255142905Y-43267286D01*
X255095286Y-43076810D01*
X255095286Y-42933952D01*
X255142905Y-42743476D01*
X255190524Y-42648238D01*
X255285762Y-42553000D01*
X255428620Y-42505381D01*
X255523858Y-42505381D01*
X255666715Y-42553000D01*
X255714334Y-42600619D01*
X252968333Y-40838381D02*
X252968333Y-39838381D01*
X253206428Y-39838381D01*
X253349286Y-39886000D01*
X253444524Y-39981238D01*
X253492143Y-40076476D01*
X253539762Y-40266952D01*
X253539762Y-40409810D01*
X253492143Y-40600286D01*
X253444524Y-40695524D01*
X253349286Y-40790762D01*
X253206428Y-40838381D01*
X252968333Y-40838381D01*
X253920714Y-40552667D02*
X254396905Y-40552667D01*
X253825476Y-40838381D02*
X254158809Y-39838381D01*
X254492143Y-40838381D01*
X255396905Y-40743143D02*
X255349286Y-40790762D01*
X255206429Y-40838381D01*
X255111191Y-40838381D01*
X254968333Y-40790762D01*
X254873095Y-40695524D01*
X254825476Y-40600286D01*
X254777857Y-40409810D01*
X254777857Y-40266952D01*
X254825476Y-40076476D01*
X254873095Y-39981238D01*
X254968333Y-39886000D01*
X255111191Y-39838381D01*
X255206429Y-39838381D01*
X255349286Y-39886000D01*
X255396905Y-39933619D01*
X255777857Y-39933619D02*
X255825476Y-39886000D01*
X255920714Y-39838381D01*
X256158810Y-39838381D01*
X256254048Y-39886000D01*
X256301667Y-39933619D01*
X256349286Y-40028857D01*
X256349286Y-40124095D01*
X256301667Y-40266952D01*
X255730238Y-40838381D01*
X256349286Y-40838381D01*
X253095333Y-39060381D02*
X253095333Y-38060381D01*
X253333428Y-38060381D01*
X253476286Y-38108000D01*
X253571524Y-38203238D01*
X253619143Y-38298476D01*
X253666762Y-38488952D01*
X253666762Y-38631810D01*
X253619143Y-38822286D01*
X253571524Y-38917524D01*
X253476286Y-39012762D01*
X253333428Y-39060381D01*
X253095333Y-39060381D01*
X254047714Y-38774667D02*
X254523905Y-38774667D01*
X253952476Y-39060381D02*
X254285809Y-38060381D01*
X254619143Y-39060381D01*
X255523905Y-38965143D02*
X255476286Y-39012762D01*
X255333429Y-39060381D01*
X255238191Y-39060381D01*
X255095333Y-39012762D01*
X255000095Y-38917524D01*
X254952476Y-38822286D01*
X254904857Y-38631810D01*
X254904857Y-38488952D01*
X254952476Y-38298476D01*
X255000095Y-38203238D01*
X255095333Y-38108000D01*
X255238191Y-38060381D01*
X255333429Y-38060381D01*
X255476286Y-38108000D01*
X255523905Y-38155619D01*
X256476286Y-39060381D02*
X255904857Y-39060381D01*
X256190571Y-39060381D02*
X256190571Y-38060381D01*
X256095333Y-38203238D01*
X256000095Y-38298476D01*
X255904857Y-38346095D01*
X253785762Y-37275143D02*
X253738143Y-37322762D01*
X253595286Y-37370381D01*
X253500048Y-37370381D01*
X253357190Y-37322762D01*
X253261952Y-37227524D01*
X253214333Y-37132286D01*
X253166714Y-36941810D01*
X253166714Y-36798952D01*
X253214333Y-36608476D01*
X253261952Y-36513238D01*
X253357190Y-36418000D01*
X253500048Y-36370381D01*
X253595286Y-36370381D01*
X253738143Y-36418000D01*
X253785762Y-36465619D01*
X254690524Y-37370381D02*
X254214333Y-37370381D01*
X254214333Y-36370381D01*
X255023857Y-37370381D02*
X255023857Y-36370381D01*
X255595286Y-37370381D02*
X255166714Y-36798952D01*
X255595286Y-36370381D02*
X255023857Y-36941810D01*
X197469618Y-51633381D02*
X197469618Y-50633381D01*
X197802952Y-51347667D01*
X198136285Y-50633381D01*
X198136285Y-51633381D01*
X198755332Y-51633381D02*
X198660094Y-51585762D01*
X198612475Y-51538143D01*
X198564856Y-51442905D01*
X198564856Y-51157190D01*
X198612475Y-51061952D01*
X198660094Y-51014333D01*
X198755332Y-50966714D01*
X198898190Y-50966714D01*
X198993428Y-51014333D01*
X199041047Y-51061952D01*
X199088666Y-51157190D01*
X199088666Y-51442905D01*
X199041047Y-51538143D01*
X198993428Y-51585762D01*
X198898190Y-51633381D01*
X198755332Y-51633381D01*
X199374380Y-50966714D02*
X199755332Y-50966714D01*
X199517237Y-50633381D02*
X199517237Y-51490524D01*
X199564856Y-51585762D01*
X199660094Y-51633381D01*
X199755332Y-51633381D01*
X200231523Y-51633381D02*
X200136285Y-51585762D01*
X200088666Y-51538143D01*
X200041047Y-51442905D01*
X200041047Y-51157190D01*
X200088666Y-51061952D01*
X200136285Y-51014333D01*
X200231523Y-50966714D01*
X200374381Y-50966714D01*
X200469619Y-51014333D01*
X200517238Y-51061952D01*
X200564857Y-51157190D01*
X200564857Y-51442905D01*
X200517238Y-51538143D01*
X200469619Y-51585762D01*
X200374381Y-51633381D01*
X200231523Y-51633381D01*
X200993428Y-51633381D02*
X200993428Y-50966714D01*
X200993428Y-51157190D02*
X201041047Y-51061952D01*
X201088666Y-51014333D01*
X201183904Y-50966714D01*
X201279143Y-50966714D01*
X201564857Y-51585762D02*
X201660095Y-51633381D01*
X201850571Y-51633381D01*
X201945810Y-51585762D01*
X201993429Y-51490524D01*
X201993429Y-51442905D01*
X201945810Y-51347667D01*
X201850571Y-51300048D01*
X201707714Y-51300048D01*
X201612476Y-51252429D01*
X201564857Y-51157190D01*
X201564857Y-51109571D01*
X201612476Y-51014333D01*
X201707714Y-50966714D01*
X201850571Y-50966714D01*
X201945810Y-51014333D01*
X202279143Y-50966714D02*
X202660095Y-50966714D01*
X202422000Y-50633381D02*
X202422000Y-51490524D01*
X202469619Y-51585762D01*
X202564857Y-51633381D01*
X202660095Y-51633381D01*
X202993429Y-51633381D02*
X202993429Y-50966714D01*
X202993429Y-51157190D02*
X203041048Y-51061952D01*
X203088667Y-51014333D01*
X203183905Y-50966714D01*
X203279144Y-50966714D01*
X203755334Y-51633381D02*
X203660096Y-51585762D01*
X203612477Y-51538143D01*
X203564858Y-51442905D01*
X203564858Y-51157190D01*
X203612477Y-51061952D01*
X203660096Y-51014333D01*
X203755334Y-50966714D01*
X203898192Y-50966714D01*
X203993430Y-51014333D01*
X204041049Y-51061952D01*
X204088668Y-51157190D01*
X204088668Y-51442905D01*
X204041049Y-51538143D01*
X203993430Y-51585762D01*
X203898192Y-51633381D01*
X203755334Y-51633381D01*
X204517239Y-51633381D02*
X204517239Y-50966714D01*
X204517239Y-51061952D02*
X204564858Y-51014333D01*
X204660096Y-50966714D01*
X204802954Y-50966714D01*
X204898192Y-51014333D01*
X204945811Y-51109571D01*
X204945811Y-51633381D01*
X204945811Y-51109571D02*
X204993430Y-51014333D01*
X205088668Y-50966714D01*
X205231525Y-50966714D01*
X205326763Y-51014333D01*
X205374382Y-51109571D01*
X205374382Y-51633381D01*
D13*
X196200000Y-23400000D02*
X203000000Y-23400000D01*
X203000000Y-23400000D02*
X203000000Y-29400000D01*
X203000000Y-29400000D02*
X196200000Y-29400000D01*
X196200000Y-29400000D02*
X196200000Y-23400000D01*
D14*
X200133264Y-69898437D02*
G75*
G03X200130000Y-60100643I-1383264J4898437D01*
G01*
X197366736Y-69898437D02*
G75*
G02X197370000Y-60100643I1383264J4898437D01*
G01*
X197366736Y-69898437D02*
G75*
G03X200130000Y-69899357I1383264J4898437D01*
G01*
X203800000Y-65000000D02*
X193700000Y-65000000D01*
X203800000Y-65040000D02*
X193700000Y-65040000D01*
X203800000Y-65080000D02*
X193700000Y-65080000D01*
X203799000Y-65120000D02*
X193701000Y-65120000D01*
X203798000Y-65160000D02*
X193702000Y-65160000D01*
X203797000Y-65200000D02*
X193703000Y-65200000D01*
X203795000Y-65240000D02*
X193705000Y-65240000D01*
X203793000Y-65280000D02*
X193707000Y-65280000D01*
X203790000Y-65320000D02*
X193710000Y-65320000D01*
X203788000Y-65360000D02*
X193712000Y-65360000D01*
X203785000Y-65400000D02*
X193715000Y-65400000D01*
X203781000Y-65440000D02*
X193719000Y-65440000D01*
X203778000Y-65480000D02*
X193722000Y-65480000D01*
X203774000Y-65520000D02*
X193726000Y-65520000D01*
X203770000Y-65560000D02*
X193730000Y-65560000D01*
X203765000Y-65600000D02*
X193735000Y-65600000D01*
X203760000Y-65640000D02*
X193740000Y-65640000D01*
X203755000Y-65680000D02*
X193745000Y-65680000D01*
X203749000Y-65721000D02*
X193751000Y-65721000D01*
X203743000Y-65761000D02*
X193757000Y-65761000D01*
X203737000Y-65801000D02*
X193763000Y-65801000D01*
X203731000Y-65841000D02*
X193769000Y-65841000D01*
X203724000Y-65881000D02*
X193776000Y-65881000D01*
X203717000Y-65921000D02*
X193783000Y-65921000D01*
X203709000Y-65961000D02*
X193791000Y-65961000D01*
X203701000Y-66001000D02*
X193799000Y-66001000D01*
X203693000Y-66041000D02*
X193807000Y-66041000D01*
X203685000Y-66081000D02*
X193815000Y-66081000D01*
X203676000Y-66121000D02*
X193824000Y-66121000D01*
X203667000Y-66161000D02*
X193833000Y-66161000D01*
X203657000Y-66201000D02*
X193843000Y-66201000D01*
X203647000Y-66241000D02*
X193853000Y-66241000D01*
X203637000Y-66281000D02*
X193863000Y-66281000D01*
X203626000Y-66321000D02*
X199931000Y-66321000D01*
X197569000Y-66321000D02*
X193874000Y-66321000D01*
X203615000Y-66361000D02*
X199931000Y-66361000D01*
X197569000Y-66361000D02*
X193885000Y-66361000D01*
X203604000Y-66401000D02*
X199931000Y-66401000D01*
X197569000Y-66401000D02*
X193896000Y-66401000D01*
X203593000Y-66441000D02*
X199931000Y-66441000D01*
X197569000Y-66441000D02*
X193907000Y-66441000D01*
X203581000Y-66481000D02*
X199931000Y-66481000D01*
X197569000Y-66481000D02*
X193919000Y-66481000D01*
X203568000Y-66521000D02*
X199931000Y-66521000D01*
X197569000Y-66521000D02*
X193932000Y-66521000D01*
X203556000Y-66561000D02*
X199931000Y-66561000D01*
X197569000Y-66561000D02*
X193944000Y-66561000D01*
X203542000Y-66601000D02*
X199931000Y-66601000D01*
X197569000Y-66601000D02*
X193958000Y-66601000D01*
X203529000Y-66641000D02*
X199931000Y-66641000D01*
X197569000Y-66641000D02*
X193971000Y-66641000D01*
X203515000Y-66681000D02*
X199931000Y-66681000D01*
X197569000Y-66681000D02*
X193985000Y-66681000D01*
X203501000Y-66721000D02*
X199931000Y-66721000D01*
X197569000Y-66721000D02*
X193999000Y-66721000D01*
X203487000Y-66761000D02*
X199931000Y-66761000D01*
X197569000Y-66761000D02*
X194013000Y-66761000D01*
X203472000Y-66801000D02*
X199931000Y-66801000D01*
X197569000Y-66801000D02*
X194028000Y-66801000D01*
X203456000Y-66841000D02*
X199931000Y-66841000D01*
X197569000Y-66841000D02*
X194044000Y-66841000D01*
X203441000Y-66881000D02*
X199931000Y-66881000D01*
X197569000Y-66881000D02*
X194059000Y-66881000D01*
X203424000Y-66921000D02*
X199931000Y-66921000D01*
X197569000Y-66921000D02*
X194076000Y-66921000D01*
X203408000Y-66961000D02*
X199931000Y-66961000D01*
X197569000Y-66961000D02*
X194092000Y-66961000D01*
X203391000Y-67001000D02*
X199931000Y-67001000D01*
X197569000Y-67001000D02*
X194109000Y-67001000D01*
X203374000Y-67041000D02*
X199931000Y-67041000D01*
X197569000Y-67041000D02*
X194126000Y-67041000D01*
X203356000Y-67081000D02*
X199931000Y-67081000D01*
X197569000Y-67081000D02*
X194144000Y-67081000D01*
X203338000Y-67121000D02*
X199931000Y-67121000D01*
X197569000Y-67121000D02*
X194162000Y-67121000D01*
X203319000Y-67161000D02*
X199931000Y-67161000D01*
X197569000Y-67161000D02*
X194181000Y-67161000D01*
X203300000Y-67201000D02*
X199931000Y-67201000D01*
X197569000Y-67201000D02*
X194200000Y-67201000D01*
X203281000Y-67241000D02*
X199931000Y-67241000D01*
X197569000Y-67241000D02*
X194219000Y-67241000D01*
X203261000Y-67281000D02*
X199931000Y-67281000D01*
X197569000Y-67281000D02*
X194239000Y-67281000D01*
X203241000Y-67321000D02*
X199931000Y-67321000D01*
X197569000Y-67321000D02*
X194259000Y-67321000D01*
X203220000Y-67361000D02*
X199931000Y-67361000D01*
X197569000Y-67361000D02*
X194280000Y-67361000D01*
X203199000Y-67401000D02*
X199931000Y-67401000D01*
X197569000Y-67401000D02*
X194301000Y-67401000D01*
X203178000Y-67441000D02*
X199931000Y-67441000D01*
X197569000Y-67441000D02*
X194322000Y-67441000D01*
X203155000Y-67481000D02*
X199931000Y-67481000D01*
X197569000Y-67481000D02*
X194345000Y-67481000D01*
X203133000Y-67521000D02*
X199931000Y-67521000D01*
X197569000Y-67521000D02*
X194367000Y-67521000D01*
X203110000Y-67561000D02*
X199931000Y-67561000D01*
X197569000Y-67561000D02*
X194390000Y-67561000D01*
X203086000Y-67601000D02*
X199931000Y-67601000D01*
X197569000Y-67601000D02*
X194414000Y-67601000D01*
X203062000Y-67641000D02*
X199931000Y-67641000D01*
X197569000Y-67641000D02*
X194438000Y-67641000D01*
X203038000Y-67681000D02*
X199931000Y-67681000D01*
X197569000Y-67681000D02*
X194462000Y-67681000D01*
X203013000Y-67721000D02*
X199931000Y-67721000D01*
X197569000Y-67721000D02*
X194487000Y-67721000D01*
X202987000Y-67761000D02*
X199931000Y-67761000D01*
X197569000Y-67761000D02*
X194513000Y-67761000D01*
X202961000Y-67801000D02*
X199931000Y-67801000D01*
X197569000Y-67801000D02*
X194539000Y-67801000D01*
X202935000Y-67841000D02*
X199931000Y-67841000D01*
X197569000Y-67841000D02*
X194565000Y-67841000D01*
X202907000Y-67881000D02*
X199931000Y-67881000D01*
X197569000Y-67881000D02*
X194593000Y-67881000D01*
X202880000Y-67921000D02*
X199931000Y-67921000D01*
X197569000Y-67921000D02*
X194620000Y-67921000D01*
X202851000Y-67961000D02*
X199931000Y-67961000D01*
X197569000Y-67961000D02*
X194649000Y-67961000D01*
X202822000Y-68001000D02*
X199931000Y-68001000D01*
X197569000Y-68001000D02*
X194678000Y-68001000D01*
X202793000Y-68041000D02*
X199931000Y-68041000D01*
X197569000Y-68041000D02*
X194707000Y-68041000D01*
X202763000Y-68081000D02*
X199931000Y-68081000D01*
X197569000Y-68081000D02*
X194737000Y-68081000D01*
X202732000Y-68121000D02*
X199931000Y-68121000D01*
X197569000Y-68121000D02*
X194768000Y-68121000D01*
X202701000Y-68161000D02*
X199931000Y-68161000D01*
X197569000Y-68161000D02*
X194799000Y-68161000D01*
X202669000Y-68201000D02*
X199931000Y-68201000D01*
X197569000Y-68201000D02*
X194831000Y-68201000D01*
X202636000Y-68241000D02*
X199931000Y-68241000D01*
X197569000Y-68241000D02*
X194864000Y-68241000D01*
X202603000Y-68281000D02*
X199931000Y-68281000D01*
X197569000Y-68281000D02*
X194897000Y-68281000D01*
X202569000Y-68321000D02*
X199931000Y-68321000D01*
X197569000Y-68321000D02*
X194931000Y-68321000D01*
X202534000Y-68361000D02*
X199931000Y-68361000D01*
X197569000Y-68361000D02*
X194966000Y-68361000D01*
X202498000Y-68401000D02*
X199931000Y-68401000D01*
X197569000Y-68401000D02*
X195002000Y-68401000D01*
X202462000Y-68441000D02*
X199931000Y-68441000D01*
X197569000Y-68441000D02*
X195038000Y-68441000D01*
X202425000Y-68481000D02*
X199931000Y-68481000D01*
X197569000Y-68481000D02*
X195075000Y-68481000D01*
X202387000Y-68521000D02*
X199931000Y-68521000D01*
X197569000Y-68521000D02*
X195113000Y-68521000D01*
X202348000Y-68561000D02*
X199931000Y-68561000D01*
X197569000Y-68561000D02*
X195152000Y-68561000D01*
X202309000Y-68601000D02*
X199931000Y-68601000D01*
X197569000Y-68601000D02*
X195191000Y-68601000D01*
X202268000Y-68641000D02*
X199931000Y-68641000D01*
X197569000Y-68641000D02*
X195232000Y-68641000D01*
X202227000Y-68681000D02*
X195273000Y-68681000D01*
X202185000Y-68721000D02*
X195315000Y-68721000D01*
X202141000Y-68761000D02*
X195359000Y-68761000D01*
X202097000Y-68801000D02*
X195403000Y-68801000D01*
X202052000Y-68841000D02*
X195448000Y-68841000D01*
X202005000Y-68881000D02*
X195495000Y-68881000D01*
X201957000Y-68921000D02*
X195543000Y-68921000D01*
X201908000Y-68961000D02*
X195592000Y-68961000D01*
X201858000Y-69001000D02*
X195642000Y-69001000D01*
X201807000Y-69041000D02*
X195693000Y-69041000D01*
X201754000Y-69081000D02*
X195746000Y-69081000D01*
X201699000Y-69121000D02*
X195801000Y-69121000D01*
X201644000Y-69161000D02*
X195856000Y-69161000D01*
X201586000Y-69201000D02*
X195914000Y-69201000D01*
X201527000Y-69241000D02*
X195973000Y-69241000D01*
X201465000Y-69281000D02*
X196035000Y-69281000D01*
X201402000Y-69321000D02*
X196098000Y-69321000D01*
X201337000Y-69361000D02*
X196163000Y-69361000D01*
X201269000Y-69401000D02*
X196231000Y-69401000D01*
X201199000Y-69441000D02*
X196301000Y-69441000D01*
X201127000Y-69481000D02*
X196373000Y-69481000D01*
X201051000Y-69521000D02*
X196449000Y-69521000D01*
X200972000Y-69561000D02*
X196528000Y-69561000D01*
X200890000Y-69601000D02*
X196610000Y-69601000D01*
X200803000Y-69641000D02*
X196697000Y-69641000D01*
X200712000Y-69681000D02*
X196788000Y-69681000D01*
X200616000Y-69721000D02*
X196884000Y-69721000D01*
X200513000Y-69761000D02*
X196987000Y-69761000D01*
X200404000Y-69801000D02*
X197096000Y-69801000D01*
X200286000Y-69841000D02*
X197214000Y-69841000D01*
X200157000Y-69881000D02*
X197343000Y-69881000D01*
X200015000Y-69921000D02*
X197485000Y-69921000D01*
X199854000Y-69961000D02*
X197646000Y-69961000D01*
X199663000Y-70001000D02*
X197837000Y-70001000D01*
X199422000Y-70041000D02*
X198078000Y-70041000D01*
X199029000Y-70081000D02*
X198471000Y-70081000D01*
X198750000Y-59800000D02*
X198750000Y-61300000D01*
X199500000Y-60550000D02*
X198000000Y-60550000D01*
X210500000Y-46900000D02*
X209800000Y-46900000D01*
X209800000Y-45700000D02*
X210500000Y-45700000D01*
X206300000Y-26550000D02*
X206300000Y-27250000D01*
X205100000Y-27250000D02*
X205100000Y-26550000D01*
X215300000Y-38000000D02*
X215300000Y-38700000D01*
X214100000Y-38700000D02*
X214100000Y-38000000D01*
X203108000Y-43276000D02*
X203108000Y-42576000D01*
X204308000Y-42576000D02*
X204308000Y-43276000D01*
X249840000Y-29943500D02*
X250540000Y-29943500D01*
X250540000Y-31143500D02*
X249840000Y-31143500D01*
X210623040Y-26142960D02*
X210623040Y-25442960D01*
X211823040Y-25442960D02*
X211823040Y-26142960D01*
X246827600Y-42779200D02*
X246827600Y-43479200D01*
X245627600Y-43479200D02*
X245627600Y-42779200D01*
X227151680Y-31339080D02*
X226451680Y-31339080D01*
X226451680Y-30139080D02*
X227151680Y-30139080D01*
X239156800Y-42220400D02*
X239156800Y-42920400D01*
X237956800Y-42920400D02*
X237956800Y-42220400D01*
X227182160Y-34935720D02*
X226482160Y-34935720D01*
X226482160Y-33735720D02*
X227182160Y-33735720D01*
X233394960Y-36618660D02*
X233394960Y-35918660D01*
X234594960Y-35918660D02*
X234594960Y-36618660D01*
X245405200Y-42779200D02*
X245405200Y-43479200D01*
X244205200Y-43479200D02*
X244205200Y-42779200D01*
X237080500Y-26512000D02*
X237080500Y-25812000D01*
X238280500Y-25812000D02*
X238280500Y-26512000D01*
X258100500Y-33910000D02*
X259900500Y-33910000D01*
X259900500Y-30690000D02*
X257450500Y-30690000D01*
X222805500Y-27102500D02*
X219605500Y-27102500D01*
X219605500Y-25602500D02*
X222805500Y-25602500D01*
X219605500Y-25602500D02*
X219605500Y-27102500D01*
X219236800Y-33543200D02*
X216036800Y-33543200D01*
X216036800Y-32043200D02*
X219236800Y-32043200D01*
X216036800Y-32043200D02*
X216036800Y-33543200D01*
X230800000Y-23075000D02*
X230800000Y-21675000D01*
X230800000Y-21675000D02*
X228000000Y-21675000D01*
X230800000Y-23075000D02*
X228000000Y-23075000D01*
X230800000Y-27125000D02*
X230800000Y-25725000D01*
X230800000Y-25725000D02*
X228000000Y-25725000D01*
X230800000Y-27125000D02*
X228000000Y-27125000D01*
X257324000Y-27243000D02*
X257324000Y-25843000D01*
X257324000Y-25843000D02*
X254524000Y-25843000D01*
X257324000Y-27243000D02*
X254524000Y-27243000D01*
X252713000Y-24102000D02*
X252713000Y-20002000D01*
X252713000Y-20002000D02*
X239913000Y-20002000D01*
X239913000Y-20002000D02*
X239913000Y-24102000D01*
X239913000Y-24102000D02*
X252713000Y-24102000D01*
X252713000Y-22352000D02*
X252213000Y-22352000D01*
X252213000Y-22352000D02*
X252213000Y-23602000D01*
X252213000Y-23602000D02*
X240413000Y-23602000D01*
X240413000Y-23602000D02*
X240413000Y-22352000D01*
X240413000Y-22352000D02*
X239913000Y-22352000D01*
X252713000Y-21502000D02*
X251713000Y-21502000D01*
X251713000Y-21502000D02*
X251713000Y-20002000D01*
X239913000Y-21502000D02*
X240913000Y-21502000D01*
X240913000Y-21502000D02*
X240913000Y-20002000D01*
X253013000Y-22202000D02*
X253013000Y-19702000D01*
X253013000Y-19702000D02*
X250513000Y-19702000D01*
X263783300Y-35949200D02*
X263783300Y-35499200D01*
X265633300Y-35949200D02*
X263783300Y-35949200D01*
X268183300Y-28149200D02*
X267933300Y-28149200D01*
X268183300Y-35949200D02*
X267933300Y-35949200D01*
X265633300Y-28149200D02*
X263783300Y-28149200D01*
X263783300Y-28149200D02*
X263783300Y-28599200D01*
X263233300Y-33749200D02*
X263233300Y-33299200D01*
X263233300Y-33749200D02*
X263683300Y-33749200D01*
X209031500Y-26034000D02*
X206631500Y-26034000D01*
X206631500Y-26034000D02*
X206631500Y-24984000D01*
X208431500Y-22734000D02*
X206631500Y-22734000D01*
X206631500Y-22734000D02*
X206631500Y-23784000D01*
X216418500Y-22924500D02*
X218818500Y-22924500D01*
X218818500Y-22924500D02*
X218818500Y-23974500D01*
X217018500Y-26224500D02*
X218818500Y-26224500D01*
X218818500Y-26224500D02*
X218818500Y-25174500D01*
X214300000Y-30150000D02*
X214300000Y-32550000D01*
X214300000Y-32550000D02*
X213250000Y-32550000D01*
X211000000Y-30750000D02*
X211000000Y-32550000D01*
X211000000Y-32550000D02*
X212050000Y-32550000D01*
X231916780Y-26917220D02*
X231916780Y-24517220D01*
X231916780Y-24517220D02*
X232966780Y-24517220D01*
X235216780Y-26317220D02*
X235216780Y-24517220D01*
X235216780Y-24517220D02*
X234166780Y-24517220D01*
X231805020Y-22649500D02*
X231805020Y-20249500D01*
X231805020Y-20249500D02*
X232855020Y-20249500D01*
X235105020Y-22049500D02*
X235105020Y-20249500D01*
X235105020Y-20249500D02*
X234055020Y-20249500D01*
X266526900Y-26887200D02*
X265526900Y-26887200D01*
X265526900Y-25527200D02*
X266526900Y-25527200D01*
X205351000Y-46400000D02*
X204351000Y-46400000D01*
X204351000Y-45040000D02*
X205351000Y-45040000D01*
X207399000Y-37293000D02*
X208399000Y-37293000D01*
X208399000Y-38653000D02*
X207399000Y-38653000D01*
X213255000Y-38700000D02*
X213255000Y-39700000D01*
X211895000Y-39700000D02*
X211895000Y-38700000D01*
X208399000Y-40304000D02*
X207399000Y-40304000D01*
X207399000Y-38944000D02*
X208399000Y-38944000D01*
X210220000Y-39700000D02*
X210220000Y-38700000D01*
X211580000Y-38700000D02*
X211580000Y-39700000D01*
X208997000Y-28376500D02*
X208997000Y-27376500D01*
X210357000Y-27376500D02*
X210357000Y-28376500D01*
X240705000Y-43475000D02*
X240705000Y-44475000D01*
X239345000Y-44475000D02*
X239345000Y-43475000D01*
X242230000Y-43475000D02*
X242230000Y-44475000D01*
X240870000Y-44475000D02*
X240870000Y-43475000D01*
X243755000Y-43475000D02*
X243755000Y-44475000D01*
X242395000Y-44475000D02*
X242395000Y-43475000D01*
X223067500Y-25191000D02*
X222067500Y-25191000D01*
X222067500Y-23831000D02*
X223067500Y-23831000D01*
X218636800Y-31773200D02*
X217636800Y-31773200D01*
X217636800Y-30413200D02*
X218636800Y-30413200D01*
X228460680Y-23889420D02*
X229460680Y-23889420D01*
X229460680Y-25249420D02*
X228460680Y-25249420D01*
X228389560Y-19662860D02*
X229389560Y-19662860D01*
X229389560Y-21022860D02*
X228389560Y-21022860D01*
X252468000Y-27223000D02*
X251468000Y-27223000D01*
X251468000Y-25863000D02*
X252468000Y-25863000D01*
X232164000Y-37928000D02*
X233164000Y-37928000D01*
X233164000Y-39288000D02*
X232164000Y-39288000D01*
X204680000Y-26400000D02*
X204680000Y-27400000D01*
X203320000Y-27400000D02*
X203320000Y-26400000D01*
D13*
X229658120Y-45580560D02*
X222858120Y-45580560D01*
X222858120Y-45580560D02*
X222858120Y-39580560D01*
X222858120Y-39580560D02*
X229658120Y-39580560D01*
X229658120Y-39580560D02*
X229658120Y-45580560D01*
D14*
X263465000Y-40182000D02*
X264855000Y-40182000D01*
X263465000Y-40182000D02*
X263465000Y-40057000D01*
X264855000Y-40182000D02*
X264855000Y-40057000D01*
X263465000Y-40182000D02*
X263551724Y-40182000D01*
X264768276Y-40182000D02*
X264855000Y-40182000D01*
X263465000Y-39497000D02*
X263465000Y-38812000D01*
X263465000Y-38812000D02*
X264160000Y-38812000D01*
X263465000Y-45008000D02*
X264855000Y-45008000D01*
X263465000Y-45008000D02*
X263465000Y-44883000D01*
X264855000Y-45008000D02*
X264855000Y-44883000D01*
X263465000Y-45008000D02*
X263551724Y-45008000D01*
X264768276Y-45008000D02*
X264855000Y-45008000D01*
X263465000Y-44323000D02*
X263465000Y-43638000D01*
X263465000Y-43638000D02*
X264160000Y-43638000D01*
X232223000Y-44373000D02*
X233613000Y-44373000D01*
X232223000Y-44373000D02*
X232223000Y-44248000D01*
X233613000Y-44373000D02*
X233613000Y-44248000D01*
X232223000Y-44373000D02*
X232309724Y-44373000D01*
X233526276Y-44373000D02*
X233613000Y-44373000D01*
X232223000Y-43688000D02*
X232223000Y-43003000D01*
X232223000Y-43003000D02*
X232918000Y-43003000D01*
X263744400Y-48437000D02*
X265134400Y-48437000D01*
X263744400Y-48437000D02*
X263744400Y-48312000D01*
X265134400Y-48437000D02*
X265134400Y-48312000D01*
X263744400Y-48437000D02*
X263831124Y-48437000D01*
X265047676Y-48437000D02*
X265134400Y-48437000D01*
X263744400Y-47752000D02*
X263744400Y-47067000D01*
X263744400Y-47067000D02*
X264439400Y-47067000D01*
X226254000Y-53263000D02*
X227644000Y-53263000D01*
X226254000Y-53263000D02*
X226254000Y-53138000D01*
X227644000Y-53263000D02*
X227644000Y-53138000D01*
X226254000Y-53263000D02*
X226340724Y-53263000D01*
X227557276Y-53263000D02*
X227644000Y-53263000D01*
X226254000Y-52578000D02*
X226254000Y-51893000D01*
X226254000Y-51893000D02*
X226949000Y-51893000D01*
X218305000Y-65685000D02*
X219695000Y-65685000D01*
X218305000Y-65685000D02*
X218305000Y-65560000D01*
X219695000Y-65685000D02*
X219695000Y-65560000D01*
X218305000Y-65685000D02*
X218391724Y-65685000D01*
X219608276Y-65685000D02*
X219695000Y-65685000D01*
X218305000Y-65000000D02*
X218305000Y-64315000D01*
X218305000Y-64315000D02*
X219000000Y-64315000D01*
X246828000Y-53263000D02*
X248218000Y-53263000D01*
X246828000Y-53263000D02*
X246828000Y-53138000D01*
X248218000Y-53263000D02*
X248218000Y-53138000D01*
X246828000Y-53263000D02*
X246914724Y-53263000D01*
X248131276Y-53263000D02*
X248218000Y-53263000D01*
X246828000Y-52578000D02*
X246828000Y-51893000D01*
X246828000Y-51893000D02*
X247523000Y-51893000D01*
X236805000Y-65685000D02*
X238195000Y-65685000D01*
X236805000Y-65685000D02*
X236805000Y-65560000D01*
X238195000Y-65685000D02*
X238195000Y-65560000D01*
X236805000Y-65685000D02*
X236891724Y-65685000D01*
X238108276Y-65685000D02*
X238195000Y-65685000D01*
X236805000Y-65000000D02*
X236805000Y-64315000D01*
X236805000Y-64315000D02*
X237500000Y-64315000D01*
X263719000Y-53263000D02*
X265109000Y-53263000D01*
X263719000Y-53263000D02*
X263719000Y-53138000D01*
X265109000Y-53263000D02*
X265109000Y-53138000D01*
X263719000Y-53263000D02*
X263805724Y-53263000D01*
X265022276Y-53263000D02*
X265109000Y-53263000D01*
X263719000Y-52578000D02*
X263719000Y-51893000D01*
X263719000Y-51893000D02*
X264414000Y-51893000D01*
X256305000Y-65685000D02*
X257695000Y-65685000D01*
X256305000Y-65685000D02*
X256305000Y-65560000D01*
X257695000Y-65685000D02*
X257695000Y-65560000D01*
X256305000Y-65685000D02*
X256391724Y-65685000D01*
X257608276Y-65685000D02*
X257695000Y-65685000D01*
X256305000Y-65000000D02*
X256305000Y-64315000D01*
X256305000Y-64315000D02*
X257000000Y-64315000D01*
X235144000Y-44373000D02*
X236534000Y-44373000D01*
X235144000Y-44373000D02*
X235144000Y-44248000D01*
X236534000Y-44373000D02*
X236534000Y-44248000D01*
X235144000Y-44373000D02*
X235230724Y-44373000D01*
X236447276Y-44373000D02*
X236534000Y-44373000D01*
X235144000Y-43688000D02*
X235144000Y-43003000D01*
X235144000Y-43003000D02*
X235839000Y-43003000D01*
X250511000Y-29387000D02*
X251901000Y-29387000D01*
X250511000Y-29387000D02*
X250511000Y-29262000D01*
X251901000Y-29387000D02*
X251901000Y-29262000D01*
X250511000Y-29387000D02*
X250597724Y-29387000D01*
X251814276Y-29387000D02*
X251901000Y-29387000D01*
X250511000Y-28702000D02*
X250511000Y-28017000D01*
X250511000Y-28017000D02*
X251206000Y-28017000D01*
X251230000Y-39235000D02*
X252620000Y-39235000D01*
X251230000Y-39235000D02*
X251230000Y-39110000D01*
X252620000Y-39235000D02*
X252620000Y-39110000D01*
X251230000Y-39235000D02*
X251316724Y-39235000D01*
X252533276Y-39235000D02*
X252620000Y-39235000D01*
X251230000Y-38550000D02*
X251230000Y-37865000D01*
X251230000Y-37865000D02*
X251925000Y-37865000D01*
X251205000Y-41035000D02*
X252595000Y-41035000D01*
X251205000Y-41035000D02*
X251205000Y-40910000D01*
X252595000Y-41035000D02*
X252595000Y-40910000D01*
X251205000Y-41035000D02*
X251291724Y-41035000D01*
X252508276Y-41035000D02*
X252595000Y-41035000D01*
X251205000Y-40350000D02*
X251205000Y-39665000D01*
X251205000Y-39665000D02*
X251900000Y-39665000D01*
X208728000Y-56946000D02*
X210118000Y-56946000D01*
X208728000Y-56946000D02*
X208728000Y-56821000D01*
X210118000Y-56946000D02*
X210118000Y-56821000D01*
X208728000Y-56946000D02*
X208814724Y-56946000D01*
X210031276Y-56946000D02*
X210118000Y-56946000D01*
X208728000Y-56261000D02*
X208728000Y-55576000D01*
X208728000Y-55576000D02*
X209423000Y-55576000D01*
X203505000Y-72610000D02*
X204895000Y-72610000D01*
X203505000Y-72610000D02*
X203505000Y-72485000D01*
X204895000Y-72610000D02*
X204895000Y-72485000D01*
X203505000Y-72610000D02*
X203591724Y-72610000D01*
X204808276Y-72610000D02*
X204895000Y-72610000D01*
X203505000Y-71925000D02*
X203505000Y-71240000D01*
X203505000Y-71240000D02*
X204200000Y-71240000D01*
X251205000Y-37560000D02*
X252595000Y-37560000D01*
X251205000Y-37560000D02*
X251205000Y-37435000D01*
X252595000Y-37560000D02*
X252595000Y-37435000D01*
X251205000Y-37560000D02*
X251291724Y-37560000D01*
X252508276Y-37560000D02*
X252595000Y-37560000D01*
X251205000Y-36875000D02*
X251205000Y-36190000D01*
X251205000Y-36190000D02*
X251900000Y-36190000D01*
X221047000Y-35991000D02*
X222437000Y-35991000D01*
X221047000Y-35991000D02*
X221047000Y-35866000D01*
X222437000Y-35991000D02*
X222437000Y-35866000D01*
X221047000Y-35991000D02*
X221133724Y-35991000D01*
X222350276Y-35991000D02*
X222437000Y-35991000D01*
X221047000Y-35306000D02*
X221047000Y-34621000D01*
X221047000Y-34621000D02*
X221742000Y-34621000D01*
X259020000Y-27228000D02*
X260410000Y-27228000D01*
X259020000Y-27228000D02*
X259020000Y-27103000D01*
X260410000Y-27228000D02*
X260410000Y-27103000D01*
X259020000Y-27228000D02*
X259106724Y-27228000D01*
X260323276Y-27228000D02*
X260410000Y-27228000D01*
X259020000Y-26543000D02*
X259020000Y-25858000D01*
X259020000Y-25858000D02*
X259715000Y-25858000D01*
X249805000Y-63435000D02*
X251195000Y-63435000D01*
X249805000Y-63435000D02*
X249805000Y-63310000D01*
X251195000Y-63435000D02*
X251195000Y-63310000D01*
X249805000Y-63435000D02*
X249891724Y-63435000D01*
X251108276Y-63435000D02*
X251195000Y-63435000D01*
X249805000Y-62750000D02*
X249805000Y-62065000D01*
X249805000Y-62065000D02*
X250500000Y-62065000D01*
D13*
X207425000Y-53175000D02*
X207475000Y-53175000D01*
X207425000Y-49025000D02*
X207570000Y-49025000D01*
X212575000Y-49025000D02*
X212430000Y-49025000D01*
X212575000Y-53175000D02*
X212430000Y-53175000D01*
X207425000Y-53175000D02*
X207425000Y-49025000D01*
X212575000Y-53175000D02*
X212575000Y-49025000D01*
X207475000Y-53175000D02*
X207475000Y-54575000D01*
X212305680Y-27316360D02*
X212430680Y-27316360D01*
X212305680Y-24066360D02*
X212530680Y-24066360D01*
X215555680Y-24066360D02*
X215330680Y-24066360D01*
X215555680Y-27316360D02*
X215330680Y-27316360D01*
X212305680Y-27316360D02*
X212305680Y-24066360D01*
X215555680Y-27316360D02*
X215555680Y-24066360D01*
X212430680Y-27316360D02*
X212430680Y-28391360D01*
D14*
X219085000Y-39375000D02*
X219085000Y-37575000D01*
X215865000Y-37575000D02*
X215865000Y-40025000D01*
D13*
X236125000Y-29115000D02*
X236125000Y-30115000D01*
X246475000Y-29115000D02*
X246475000Y-30190000D01*
X246475000Y-39465000D02*
X246475000Y-38390000D01*
X236125000Y-39465000D02*
X236125000Y-38390000D01*
X236125000Y-29115000D02*
X237200000Y-29115000D01*
X236125000Y-39465000D02*
X237200000Y-39465000D01*
X246475000Y-39465000D02*
X245400000Y-39465000D01*
X246475000Y-29115000D02*
X245400000Y-29115000D01*
X236125000Y-30115000D02*
X235100000Y-30115000D01*
X231964080Y-29537400D02*
X231964080Y-35737400D01*
X231964080Y-35537400D02*
X229564080Y-35537400D01*
X229564080Y-35737400D02*
X229564080Y-29537400D01*
X229564080Y-29537400D02*
X231964080Y-29537400D01*
D14*
X205300000Y-49500000D02*
X205300000Y-48800000D01*
X206500000Y-48800000D02*
X206500000Y-49500000D01*
X251400000Y-43738000D02*
X252790000Y-43738000D01*
X251400000Y-43738000D02*
X251400000Y-43613000D01*
X252790000Y-43738000D02*
X252790000Y-43613000D01*
X251400000Y-43738000D02*
X251486724Y-43738000D01*
X252703276Y-43738000D02*
X252790000Y-43738000D01*
X251400000Y-43053000D02*
X251400000Y-42368000D01*
X251400000Y-42368000D02*
X252095000Y-42368000D01*
X239355000Y-42435000D02*
X240745000Y-42435000D01*
X239355000Y-42435000D02*
X239355000Y-42310000D01*
X240745000Y-42435000D02*
X240745000Y-42310000D01*
X239355000Y-42435000D02*
X239441724Y-42435000D01*
X240658276Y-42435000D02*
X240745000Y-42435000D01*
X239355000Y-41750000D02*
X239355000Y-41065000D01*
X239355000Y-41065000D02*
X240050000Y-41065000D01*
X240905000Y-42460000D02*
X242295000Y-42460000D01*
X240905000Y-42460000D02*
X240905000Y-42335000D01*
X242295000Y-42460000D02*
X242295000Y-42335000D01*
X240905000Y-42460000D02*
X240991724Y-42460000D01*
X242208276Y-42460000D02*
X242295000Y-42460000D01*
X240905000Y-41775000D02*
X240905000Y-41090000D01*
X240905000Y-41090000D02*
X241600000Y-41090000D01*
X242430000Y-42460000D02*
X243820000Y-42460000D01*
X242430000Y-42460000D02*
X242430000Y-42335000D01*
X243820000Y-42460000D02*
X243820000Y-42335000D01*
X242430000Y-42460000D02*
X242516724Y-42460000D01*
X243733276Y-42460000D02*
X243820000Y-42460000D01*
X242430000Y-41775000D02*
X242430000Y-41090000D01*
X242430000Y-41090000D02*
X243125000Y-41090000D01*
X221325000Y-41245000D02*
X219325000Y-41245000D01*
X219325000Y-44205000D02*
X221325000Y-44205000D01*
X203305000Y-50185000D02*
X204695000Y-50185000D01*
X203305000Y-50185000D02*
X203305000Y-50060000D01*
X204695000Y-50185000D02*
X204695000Y-50060000D01*
X203305000Y-50185000D02*
X203391724Y-50185000D01*
X204608276Y-50185000D02*
X204695000Y-50185000D01*
X203305000Y-49500000D02*
X203305000Y-48815000D01*
X203305000Y-48815000D02*
X204000000Y-48815000D01*
X208112000Y-43699000D02*
X208112000Y-41899000D01*
X204892000Y-41899000D02*
X204892000Y-44349000D01*
D13*
X216353000Y-43949000D02*
X216353000Y-40901000D01*
X216353000Y-40901000D02*
X212797000Y-40901000D01*
X212797000Y-40901000D02*
X212797000Y-43949000D01*
X212797000Y-43949000D02*
X216353000Y-43949000D01*
X187000000Y-58358000D02*
X173538000Y-58358000D01*
X173538000Y-58358000D02*
X173538000Y-45150000D01*
X173538000Y-45150000D02*
X192080000Y-45150000D01*
X192080000Y-45150000D02*
X192080000Y-58358000D01*
X192080000Y-58358000D02*
X186746000Y-58358000D01*
X187000000Y-72858000D02*
X173538000Y-72858000D01*
X173538000Y-72858000D02*
X173538000Y-59650000D01*
X173538000Y-59650000D02*
X192080000Y-59650000D01*
X192080000Y-59650000D02*
X192080000Y-72858000D01*
X192080000Y-72858000D02*
X186746000Y-72858000D01*
D14*
X210095000Y-36000000D02*
X210095000Y-35000000D01*
X211455000Y-35000000D02*
X211455000Y-36000000D01*
D13*
X203775000Y-35025000D02*
X203900000Y-35025000D01*
X203775000Y-30375000D02*
X204000000Y-30375000D01*
X209025000Y-30375000D02*
X208800000Y-30375000D01*
X209025000Y-35025000D02*
X208800000Y-35025000D01*
X203775000Y-35025000D02*
X203775000Y-30375000D01*
X209025000Y-35025000D02*
X209025000Y-30375000D01*
X203900000Y-35025000D02*
X203900000Y-36375000D01*
D14*
X217230000Y-59800000D02*
X217230000Y-56200000D01*
X213770000Y-56200000D02*
X213770000Y-59800000D01*
X235730000Y-59800000D02*
X235730000Y-56200000D01*
X232270000Y-56200000D02*
X232270000Y-59800000D01*
X254230000Y-59800000D02*
X254230000Y-56200000D01*
X250770000Y-56200000D02*
X250770000Y-59800000D01*
X210883264Y-69898437D02*
G75*
G03X210880000Y-60100643I-1383264J4898437D01*
G01*
X208116736Y-69898437D02*
G75*
G02X208120000Y-60100643I1383264J4898437D01*
G01*
X208116736Y-69898437D02*
G75*
G03X210880000Y-69899357I1383264J4898437D01*
G01*
X214550000Y-65000000D02*
X204450000Y-65000000D01*
X214550000Y-65040000D02*
X204450000Y-65040000D01*
X214550000Y-65080000D02*
X204450000Y-65080000D01*
X214549000Y-65120000D02*
X204451000Y-65120000D01*
X214548000Y-65160000D02*
X204452000Y-65160000D01*
X214547000Y-65200000D02*
X204453000Y-65200000D01*
X214545000Y-65240000D02*
X204455000Y-65240000D01*
X214543000Y-65280000D02*
X204457000Y-65280000D01*
X214540000Y-65320000D02*
X204460000Y-65320000D01*
X214538000Y-65360000D02*
X204462000Y-65360000D01*
X214535000Y-65400000D02*
X204465000Y-65400000D01*
X214531000Y-65440000D02*
X204469000Y-65440000D01*
X214528000Y-65480000D02*
X204472000Y-65480000D01*
X214524000Y-65520000D02*
X204476000Y-65520000D01*
X214520000Y-65560000D02*
X204480000Y-65560000D01*
X214515000Y-65600000D02*
X204485000Y-65600000D01*
X214510000Y-65640000D02*
X204490000Y-65640000D01*
X214505000Y-65680000D02*
X204495000Y-65680000D01*
X214499000Y-65721000D02*
X204501000Y-65721000D01*
X214493000Y-65761000D02*
X204507000Y-65761000D01*
X214487000Y-65801000D02*
X204513000Y-65801000D01*
X214481000Y-65841000D02*
X204519000Y-65841000D01*
X214474000Y-65881000D02*
X204526000Y-65881000D01*
X214467000Y-65921000D02*
X204533000Y-65921000D01*
X214459000Y-65961000D02*
X204541000Y-65961000D01*
X214451000Y-66001000D02*
X204549000Y-66001000D01*
X214443000Y-66041000D02*
X204557000Y-66041000D01*
X214435000Y-66081000D02*
X204565000Y-66081000D01*
X214426000Y-66121000D02*
X204574000Y-66121000D01*
X214417000Y-66161000D02*
X204583000Y-66161000D01*
X214407000Y-66201000D02*
X204593000Y-66201000D01*
X214397000Y-66241000D02*
X204603000Y-66241000D01*
X214387000Y-66281000D02*
X204613000Y-66281000D01*
X214376000Y-66321000D02*
X210681000Y-66321000D01*
X208319000Y-66321000D02*
X204624000Y-66321000D01*
X214365000Y-66361000D02*
X210681000Y-66361000D01*
X208319000Y-66361000D02*
X204635000Y-66361000D01*
X214354000Y-66401000D02*
X210681000Y-66401000D01*
X208319000Y-66401000D02*
X204646000Y-66401000D01*
X214343000Y-66441000D02*
X210681000Y-66441000D01*
X208319000Y-66441000D02*
X204657000Y-66441000D01*
X214331000Y-66481000D02*
X210681000Y-66481000D01*
X208319000Y-66481000D02*
X204669000Y-66481000D01*
X214318000Y-66521000D02*
X210681000Y-66521000D01*
X208319000Y-66521000D02*
X204682000Y-66521000D01*
X214306000Y-66561000D02*
X210681000Y-66561000D01*
X208319000Y-66561000D02*
X204694000Y-66561000D01*
X214292000Y-66601000D02*
X210681000Y-66601000D01*
X208319000Y-66601000D02*
X204708000Y-66601000D01*
X214279000Y-66641000D02*
X210681000Y-66641000D01*
X208319000Y-66641000D02*
X204721000Y-66641000D01*
X214265000Y-66681000D02*
X210681000Y-66681000D01*
X208319000Y-66681000D02*
X204735000Y-66681000D01*
X214251000Y-66721000D02*
X210681000Y-66721000D01*
X208319000Y-66721000D02*
X204749000Y-66721000D01*
X214237000Y-66761000D02*
X210681000Y-66761000D01*
X208319000Y-66761000D02*
X204763000Y-66761000D01*
X214222000Y-66801000D02*
X210681000Y-66801000D01*
X208319000Y-66801000D02*
X204778000Y-66801000D01*
X214206000Y-66841000D02*
X210681000Y-66841000D01*
X208319000Y-66841000D02*
X204794000Y-66841000D01*
X214191000Y-66881000D02*
X210681000Y-66881000D01*
X208319000Y-66881000D02*
X204809000Y-66881000D01*
X214174000Y-66921000D02*
X210681000Y-66921000D01*
X208319000Y-66921000D02*
X204826000Y-66921000D01*
X214158000Y-66961000D02*
X210681000Y-66961000D01*
X208319000Y-66961000D02*
X204842000Y-66961000D01*
X214141000Y-67001000D02*
X210681000Y-67001000D01*
X208319000Y-67001000D02*
X204859000Y-67001000D01*
X214124000Y-67041000D02*
X210681000Y-67041000D01*
X208319000Y-67041000D02*
X204876000Y-67041000D01*
X214106000Y-67081000D02*
X210681000Y-67081000D01*
X208319000Y-67081000D02*
X204894000Y-67081000D01*
X214088000Y-67121000D02*
X210681000Y-67121000D01*
X208319000Y-67121000D02*
X204912000Y-67121000D01*
X214069000Y-67161000D02*
X210681000Y-67161000D01*
X208319000Y-67161000D02*
X204931000Y-67161000D01*
X214050000Y-67201000D02*
X210681000Y-67201000D01*
X208319000Y-67201000D02*
X204950000Y-67201000D01*
X214031000Y-67241000D02*
X210681000Y-67241000D01*
X208319000Y-67241000D02*
X204969000Y-67241000D01*
X214011000Y-67281000D02*
X210681000Y-67281000D01*
X208319000Y-67281000D02*
X204989000Y-67281000D01*
X213991000Y-67321000D02*
X210681000Y-67321000D01*
X208319000Y-67321000D02*
X205009000Y-67321000D01*
X213970000Y-67361000D02*
X210681000Y-67361000D01*
X208319000Y-67361000D02*
X205030000Y-67361000D01*
X213949000Y-67401000D02*
X210681000Y-67401000D01*
X208319000Y-67401000D02*
X205051000Y-67401000D01*
X213928000Y-67441000D02*
X210681000Y-67441000D01*
X208319000Y-67441000D02*
X205072000Y-67441000D01*
X213905000Y-67481000D02*
X210681000Y-67481000D01*
X208319000Y-67481000D02*
X205095000Y-67481000D01*
X213883000Y-67521000D02*
X210681000Y-67521000D01*
X208319000Y-67521000D02*
X205117000Y-67521000D01*
X213860000Y-67561000D02*
X210681000Y-67561000D01*
X208319000Y-67561000D02*
X205140000Y-67561000D01*
X213836000Y-67601000D02*
X210681000Y-67601000D01*
X208319000Y-67601000D02*
X205164000Y-67601000D01*
X213812000Y-67641000D02*
X210681000Y-67641000D01*
X208319000Y-67641000D02*
X205188000Y-67641000D01*
X213788000Y-67681000D02*
X210681000Y-67681000D01*
X208319000Y-67681000D02*
X205212000Y-67681000D01*
X213763000Y-67721000D02*
X210681000Y-67721000D01*
X208319000Y-67721000D02*
X205237000Y-67721000D01*
X213737000Y-67761000D02*
X210681000Y-67761000D01*
X208319000Y-67761000D02*
X205263000Y-67761000D01*
X213711000Y-67801000D02*
X210681000Y-67801000D01*
X208319000Y-67801000D02*
X205289000Y-67801000D01*
X213685000Y-67841000D02*
X210681000Y-67841000D01*
X208319000Y-67841000D02*
X205315000Y-67841000D01*
X213657000Y-67881000D02*
X210681000Y-67881000D01*
X208319000Y-67881000D02*
X205343000Y-67881000D01*
X213630000Y-67921000D02*
X210681000Y-67921000D01*
X208319000Y-67921000D02*
X205370000Y-67921000D01*
X213601000Y-67961000D02*
X210681000Y-67961000D01*
X208319000Y-67961000D02*
X205399000Y-67961000D01*
X213572000Y-68001000D02*
X210681000Y-68001000D01*
X208319000Y-68001000D02*
X205428000Y-68001000D01*
X213543000Y-68041000D02*
X210681000Y-68041000D01*
X208319000Y-68041000D02*
X205457000Y-68041000D01*
X213513000Y-68081000D02*
X210681000Y-68081000D01*
X208319000Y-68081000D02*
X205487000Y-68081000D01*
X213482000Y-68121000D02*
X210681000Y-68121000D01*
X208319000Y-68121000D02*
X205518000Y-68121000D01*
X213451000Y-68161000D02*
X210681000Y-68161000D01*
X208319000Y-68161000D02*
X205549000Y-68161000D01*
X213419000Y-68201000D02*
X210681000Y-68201000D01*
X208319000Y-68201000D02*
X205581000Y-68201000D01*
X213386000Y-68241000D02*
X210681000Y-68241000D01*
X208319000Y-68241000D02*
X205614000Y-68241000D01*
X213353000Y-68281000D02*
X210681000Y-68281000D01*
X208319000Y-68281000D02*
X205647000Y-68281000D01*
X213319000Y-68321000D02*
X210681000Y-68321000D01*
X208319000Y-68321000D02*
X205681000Y-68321000D01*
X213284000Y-68361000D02*
X210681000Y-68361000D01*
X208319000Y-68361000D02*
X205716000Y-68361000D01*
X213248000Y-68401000D02*
X210681000Y-68401000D01*
X208319000Y-68401000D02*
X205752000Y-68401000D01*
X213212000Y-68441000D02*
X210681000Y-68441000D01*
X208319000Y-68441000D02*
X205788000Y-68441000D01*
X213175000Y-68481000D02*
X210681000Y-68481000D01*
X208319000Y-68481000D02*
X205825000Y-68481000D01*
X213137000Y-68521000D02*
X210681000Y-68521000D01*
X208319000Y-68521000D02*
X205863000Y-68521000D01*
X213098000Y-68561000D02*
X210681000Y-68561000D01*
X208319000Y-68561000D02*
X205902000Y-68561000D01*
X213059000Y-68601000D02*
X210681000Y-68601000D01*
X208319000Y-68601000D02*
X205941000Y-68601000D01*
X213018000Y-68641000D02*
X210681000Y-68641000D01*
X208319000Y-68641000D02*
X205982000Y-68641000D01*
X212977000Y-68681000D02*
X206023000Y-68681000D01*
X212935000Y-68721000D02*
X206065000Y-68721000D01*
X212891000Y-68761000D02*
X206109000Y-68761000D01*
X212847000Y-68801000D02*
X206153000Y-68801000D01*
X212802000Y-68841000D02*
X206198000Y-68841000D01*
X212755000Y-68881000D02*
X206245000Y-68881000D01*
X212707000Y-68921000D02*
X206293000Y-68921000D01*
X212658000Y-68961000D02*
X206342000Y-68961000D01*
X212608000Y-69001000D02*
X206392000Y-69001000D01*
X212557000Y-69041000D02*
X206443000Y-69041000D01*
X212504000Y-69081000D02*
X206496000Y-69081000D01*
X212449000Y-69121000D02*
X206551000Y-69121000D01*
X212394000Y-69161000D02*
X206606000Y-69161000D01*
X212336000Y-69201000D02*
X206664000Y-69201000D01*
X212277000Y-69241000D02*
X206723000Y-69241000D01*
X212215000Y-69281000D02*
X206785000Y-69281000D01*
X212152000Y-69321000D02*
X206848000Y-69321000D01*
X212087000Y-69361000D02*
X206913000Y-69361000D01*
X212019000Y-69401000D02*
X206981000Y-69401000D01*
X211949000Y-69441000D02*
X207051000Y-69441000D01*
X211877000Y-69481000D02*
X207123000Y-69481000D01*
X211801000Y-69521000D02*
X207199000Y-69521000D01*
X211722000Y-69561000D02*
X207278000Y-69561000D01*
X211640000Y-69601000D02*
X207360000Y-69601000D01*
X211553000Y-69641000D02*
X207447000Y-69641000D01*
X211462000Y-69681000D02*
X207538000Y-69681000D01*
X211366000Y-69721000D02*
X207634000Y-69721000D01*
X211263000Y-69761000D02*
X207737000Y-69761000D01*
X211154000Y-69801000D02*
X207846000Y-69801000D01*
X211036000Y-69841000D02*
X207964000Y-69841000D01*
X210907000Y-69881000D02*
X208093000Y-69881000D01*
X210765000Y-69921000D02*
X208235000Y-69921000D01*
X210604000Y-69961000D02*
X208396000Y-69961000D01*
X210413000Y-70001000D02*
X208587000Y-70001000D01*
X210172000Y-70041000D02*
X208828000Y-70041000D01*
X209779000Y-70081000D02*
X209221000Y-70081000D01*
X209500000Y-59800000D02*
X209500000Y-61300000D01*
X210250000Y-60550000D02*
X208750000Y-60550000D01*
D13*
X218550000Y-57300000D02*
X222500000Y-57300000D01*
X218550000Y-51700000D02*
X222500000Y-51700000D01*
D15*
X222950000Y-51200000D02*
X222950000Y-52000000D01*
X222900000Y-56950000D02*
X222900000Y-57750000D01*
D13*
X226760555Y-57400000D02*
G75*
G03X226760555Y-57400000I-360555J0D01*
G01*
X237050000Y-57300000D02*
X241000000Y-57300000D01*
X237050000Y-51700000D02*
X241000000Y-51700000D01*
D15*
X241450000Y-51200000D02*
X241450000Y-52000000D01*
X241400000Y-56950000D02*
X241400000Y-57750000D01*
D13*
X245260555Y-57400000D02*
G75*
G03X245260555Y-57400000I-360555J0D01*
G01*
X255550000Y-57300000D02*
X259500000Y-57300000D01*
X255550000Y-51700000D02*
X259500000Y-51700000D01*
D15*
X259950000Y-51200000D02*
X259950000Y-52000000D01*
X259900000Y-56950000D02*
X259900000Y-57750000D01*
D13*
X263760555Y-57400000D02*
G75*
G03X263760555Y-57400000I-360555J0D01*
G01*
X225450000Y-58700000D02*
X221500000Y-58700000D01*
X225450000Y-64300000D02*
X221500000Y-64300000D01*
D15*
X221050000Y-64800000D02*
X221050000Y-64000000D01*
X221100000Y-59050000D02*
X221100000Y-58250000D01*
D13*
X217960555Y-58600000D02*
G75*
G03X217960555Y-58600000I-360555J0D01*
G01*
X243950000Y-58700000D02*
X240000000Y-58700000D01*
X243950000Y-64300000D02*
X240000000Y-64300000D01*
D15*
X239550000Y-64800000D02*
X239550000Y-64000000D01*
X239600000Y-59050000D02*
X239600000Y-58250000D01*
D13*
X236460555Y-58600000D02*
G75*
G03X236460555Y-58600000I-360555J0D01*
G01*
X262450000Y-58700000D02*
X258500000Y-58700000D01*
X262450000Y-64300000D02*
X258500000Y-64300000D01*
D15*
X258050000Y-64800000D02*
X258050000Y-64000000D01*
X258100000Y-59050000D02*
X258100000Y-58250000D01*
D13*
X254960555Y-58600000D02*
G75*
G03X254960555Y-58600000I-360555J0D01*
G01*
D14*
X214625000Y-44250000D02*
X213625000Y-44250000D01*
X213625000Y-45950000D02*
X214625000Y-45950000D01*
X223904500Y-50723000D02*
X225294500Y-50723000D01*
X223904500Y-50723000D02*
X223904500Y-50598000D01*
X225294500Y-50723000D02*
X225294500Y-50598000D01*
X223904500Y-50723000D02*
X223991224Y-50723000D01*
X225207776Y-50723000D02*
X225294500Y-50723000D01*
X223904500Y-50038000D02*
X223904500Y-49353000D01*
X223904500Y-49353000D02*
X224599500Y-49353000D01*
X201366500Y-36785000D02*
X202366500Y-36785000D01*
X202366500Y-38145000D02*
X201366500Y-38145000D01*
D13*
X201393000Y-46688000D02*
X194593000Y-46688000D01*
X194593000Y-46688000D02*
X194593000Y-40688000D01*
X194593000Y-40688000D02*
X201393000Y-40688000D01*
X201393000Y-40688000D02*
X201393000Y-46688000D01*
X198633334Y-72157143D02*
X198585715Y-72204762D01*
X198442858Y-72252381D01*
X198347620Y-72252381D01*
X198204762Y-72204762D01*
X198109524Y-72109524D01*
X198061905Y-72014286D01*
X198014286Y-71823810D01*
X198014286Y-71680952D01*
X198061905Y-71490476D01*
X198109524Y-71395238D01*
X198204762Y-71300000D01*
X198347620Y-71252381D01*
X198442858Y-71252381D01*
X198585715Y-71300000D01*
X198633334Y-71347619D01*
X199490477Y-71252381D02*
X199300000Y-71252381D01*
X199204762Y-71300000D01*
X199157143Y-71347619D01*
X199061905Y-71490476D01*
X199014286Y-71680952D01*
X199014286Y-72061905D01*
X199061905Y-72157143D01*
X199109524Y-72204762D01*
X199204762Y-72252381D01*
X199395239Y-72252381D01*
X199490477Y-72204762D01*
X199538096Y-72157143D01*
X199585715Y-72061905D01*
X199585715Y-71823810D01*
X199538096Y-71728571D01*
X199490477Y-71680952D01*
X199395239Y-71633333D01*
X199204762Y-71633333D01*
X199109524Y-71680952D01*
X199061905Y-71728571D01*
X199014286Y-71823810D01*
X207494134Y-46657143D02*
X207446515Y-46704762D01*
X207303658Y-46752381D01*
X207208420Y-46752381D01*
X207065562Y-46704762D01*
X206970324Y-46609524D01*
X206922705Y-46514286D01*
X206875086Y-46323810D01*
X206875086Y-46180952D01*
X206922705Y-45990476D01*
X206970324Y-45895238D01*
X207065562Y-45800000D01*
X207208420Y-45752381D01*
X207303658Y-45752381D01*
X207446515Y-45800000D01*
X207494134Y-45847619D01*
X208351277Y-46085714D02*
X208351277Y-46752381D01*
X208113181Y-45704762D02*
X207875086Y-46419048D01*
X208494134Y-46419048D01*
X215032143Y-36017857D02*
X215079762Y-36065476D01*
X215127381Y-36208333D01*
X215127381Y-36303571D01*
X215079762Y-36446429D01*
X214984524Y-36541667D01*
X214889286Y-36589286D01*
X214698810Y-36636905D01*
X214555952Y-36636905D01*
X214365476Y-36589286D01*
X214270238Y-36541667D01*
X214175000Y-36446429D01*
X214127381Y-36303571D01*
X214127381Y-36208333D01*
X214175000Y-36065476D01*
X214222619Y-36017857D01*
X215127381Y-35065476D02*
X215127381Y-35636905D01*
X215127381Y-35351191D02*
X214127381Y-35351191D01*
X214270238Y-35446429D01*
X214365476Y-35541667D01*
X214413095Y-35636905D01*
X214222619Y-34684524D02*
X214175000Y-34636905D01*
X214127381Y-34541667D01*
X214127381Y-34303571D01*
X214175000Y-34208333D01*
X214222619Y-34160714D01*
X214317857Y-34113095D01*
X214413095Y-34113095D01*
X214555952Y-34160714D01*
X215127381Y-34732143D01*
X215127381Y-34113095D01*
X202668143Y-43568857D02*
X202715762Y-43616476D01*
X202763381Y-43759333D01*
X202763381Y-43854571D01*
X202715762Y-43997429D01*
X202620524Y-44092667D01*
X202525286Y-44140286D01*
X202334810Y-44187905D01*
X202191952Y-44187905D01*
X202001476Y-44140286D01*
X201906238Y-44092667D01*
X201811000Y-43997429D01*
X201763381Y-43854571D01*
X201763381Y-43759333D01*
X201811000Y-43616476D01*
X201858619Y-43568857D01*
X202763381Y-42616476D02*
X202763381Y-43187905D01*
X202763381Y-42902191D02*
X201763381Y-42902191D01*
X201906238Y-42997429D01*
X202001476Y-43092667D01*
X202049095Y-43187905D01*
X201763381Y-42283143D02*
X201763381Y-41616476D01*
X202763381Y-42045048D01*
X249547143Y-32400643D02*
X249499524Y-32448262D01*
X249356667Y-32495881D01*
X249261429Y-32495881D01*
X249118571Y-32448262D01*
X249023333Y-32353024D01*
X248975714Y-32257786D01*
X248928095Y-32067310D01*
X248928095Y-31924452D01*
X248975714Y-31733976D01*
X249023333Y-31638738D01*
X249118571Y-31543500D01*
X249261429Y-31495881D01*
X249356667Y-31495881D01*
X249499524Y-31543500D01*
X249547143Y-31591119D01*
X250499524Y-32495881D02*
X249928095Y-32495881D01*
X250213809Y-32495881D02*
X250213809Y-31495881D01*
X250118571Y-31638738D01*
X250023333Y-31733976D01*
X249928095Y-31781595D01*
X251070952Y-31924452D02*
X250975714Y-31876833D01*
X250928095Y-31829214D01*
X250880476Y-31733976D01*
X250880476Y-31686357D01*
X250928095Y-31591119D01*
X250975714Y-31543500D01*
X251070952Y-31495881D01*
X251261429Y-31495881D01*
X251356667Y-31543500D01*
X251404286Y-31591119D01*
X251451905Y-31686357D01*
X251451905Y-31733976D01*
X251404286Y-31829214D01*
X251356667Y-31876833D01*
X251261429Y-31924452D01*
X251070952Y-31924452D01*
X250975714Y-31972071D01*
X250928095Y-32019690D01*
X250880476Y-32114929D01*
X250880476Y-32305405D01*
X250928095Y-32400643D01*
X250975714Y-32448262D01*
X251070952Y-32495881D01*
X251261429Y-32495881D01*
X251356667Y-32448262D01*
X251404286Y-32400643D01*
X251451905Y-32305405D01*
X251451905Y-32114929D01*
X251404286Y-32019690D01*
X251356667Y-31972071D01*
X251261429Y-31924452D01*
X211621643Y-24010857D02*
X211669262Y-24058476D01*
X211716881Y-24201333D01*
X211716881Y-24296571D01*
X211669262Y-24439429D01*
X211574024Y-24534667D01*
X211478786Y-24582286D01*
X211288310Y-24629905D01*
X211145452Y-24629905D01*
X210954976Y-24582286D01*
X210859738Y-24534667D01*
X210764500Y-24439429D01*
X210716881Y-24296571D01*
X210716881Y-24201333D01*
X210764500Y-24058476D01*
X210812119Y-24010857D01*
X211716881Y-23058476D02*
X211716881Y-23629905D01*
X211716881Y-23344191D02*
X210716881Y-23344191D01*
X210859738Y-23439429D01*
X210954976Y-23534667D01*
X211002595Y-23629905D01*
X211716881Y-22582286D02*
X211716881Y-22391810D01*
X211669262Y-22296571D01*
X211621643Y-22248952D01*
X211478786Y-22153714D01*
X211288310Y-22106095D01*
X210907357Y-22106095D01*
X210812119Y-22153714D01*
X210764500Y-22201333D01*
X210716881Y-22296571D01*
X210716881Y-22487048D01*
X210764500Y-22582286D01*
X210812119Y-22629905D01*
X210907357Y-22677524D01*
X211145452Y-22677524D01*
X211240690Y-22629905D01*
X211288310Y-22582286D01*
X211335929Y-22487048D01*
X211335929Y-22296571D01*
X211288310Y-22201333D01*
X211240690Y-22153714D01*
X211145452Y-22106095D01*
X246711743Y-46820057D02*
X246759362Y-46867676D01*
X246806981Y-47010533D01*
X246806981Y-47105771D01*
X246759362Y-47248629D01*
X246664124Y-47343867D01*
X246568886Y-47391486D01*
X246378410Y-47439105D01*
X246235552Y-47439105D01*
X246045076Y-47391486D01*
X245949838Y-47343867D01*
X245854600Y-47248629D01*
X245806981Y-47105771D01*
X245806981Y-47010533D01*
X245854600Y-46867676D01*
X245902219Y-46820057D01*
X245902219Y-46439105D02*
X245854600Y-46391486D01*
X245806981Y-46296248D01*
X245806981Y-46058152D01*
X245854600Y-45962914D01*
X245902219Y-45915295D01*
X245997457Y-45867676D01*
X246092695Y-45867676D01*
X246235552Y-45915295D01*
X246806981Y-46486724D01*
X246806981Y-45867676D01*
X245806981Y-45248629D02*
X245806981Y-45153390D01*
X245854600Y-45058152D01*
X245902219Y-45010533D01*
X245997457Y-44962914D01*
X246187933Y-44915295D01*
X246426029Y-44915295D01*
X246616505Y-44962914D01*
X246711743Y-45010533D01*
X246759362Y-45058152D01*
X246806981Y-45153390D01*
X246806981Y-45248629D01*
X246759362Y-45343867D01*
X246711743Y-45391486D01*
X246616505Y-45439105D01*
X246426029Y-45486724D01*
X246187933Y-45486724D01*
X245997457Y-45439105D01*
X245902219Y-45391486D01*
X245854600Y-45343867D01*
X245806981Y-45248629D01*
X223107143Y-31107143D02*
X223059524Y-31154762D01*
X222916667Y-31202381D01*
X222821429Y-31202381D01*
X222678571Y-31154762D01*
X222583333Y-31059524D01*
X222535714Y-30964286D01*
X222488095Y-30773810D01*
X222488095Y-30630952D01*
X222535714Y-30440476D01*
X222583333Y-30345238D01*
X222678571Y-30250000D01*
X222821429Y-30202381D01*
X222916667Y-30202381D01*
X223059524Y-30250000D01*
X223107143Y-30297619D01*
X223488095Y-30297619D02*
X223535714Y-30250000D01*
X223630952Y-30202381D01*
X223869048Y-30202381D01*
X223964286Y-30250000D01*
X224011905Y-30297619D01*
X224059524Y-30392857D01*
X224059524Y-30488095D01*
X224011905Y-30630952D01*
X223440476Y-31202381D01*
X224059524Y-31202381D01*
X225011905Y-31202381D02*
X224440476Y-31202381D01*
X224726190Y-31202381D02*
X224726190Y-30202381D01*
X224630952Y-30345238D01*
X224535714Y-30440476D01*
X224440476Y-30488095D01*
X238863143Y-46261257D02*
X238910762Y-46308876D01*
X238958381Y-46451733D01*
X238958381Y-46546971D01*
X238910762Y-46689829D01*
X238815524Y-46785067D01*
X238720286Y-46832686D01*
X238529810Y-46880305D01*
X238386952Y-46880305D01*
X238196476Y-46832686D01*
X238101238Y-46785067D01*
X238006000Y-46689829D01*
X237958381Y-46546971D01*
X237958381Y-46451733D01*
X238006000Y-46308876D01*
X238053619Y-46261257D01*
X238053619Y-45880305D02*
X238006000Y-45832686D01*
X237958381Y-45737448D01*
X237958381Y-45499352D01*
X238006000Y-45404114D01*
X238053619Y-45356495D01*
X238148857Y-45308876D01*
X238244095Y-45308876D01*
X238386952Y-45356495D01*
X238958381Y-45927924D01*
X238958381Y-45308876D01*
X238053619Y-44927924D02*
X238006000Y-44880305D01*
X237958381Y-44785067D01*
X237958381Y-44546971D01*
X238006000Y-44451733D01*
X238053619Y-44404114D01*
X238148857Y-44356495D01*
X238244095Y-44356495D01*
X238386952Y-44404114D01*
X238958381Y-44975543D01*
X238958381Y-44356495D01*
X223107143Y-34607143D02*
X223059524Y-34654762D01*
X222916667Y-34702381D01*
X222821429Y-34702381D01*
X222678571Y-34654762D01*
X222583333Y-34559524D01*
X222535714Y-34464286D01*
X222488095Y-34273810D01*
X222488095Y-34130952D01*
X222535714Y-33940476D01*
X222583333Y-33845238D01*
X222678571Y-33750000D01*
X222821429Y-33702381D01*
X222916667Y-33702381D01*
X223059524Y-33750000D01*
X223107143Y-33797619D01*
X223488095Y-33797619D02*
X223535714Y-33750000D01*
X223630952Y-33702381D01*
X223869048Y-33702381D01*
X223964286Y-33750000D01*
X224011905Y-33797619D01*
X224059524Y-33892857D01*
X224059524Y-33988095D01*
X224011905Y-34130952D01*
X223440476Y-34702381D01*
X224059524Y-34702381D01*
X224392857Y-33702381D02*
X225011905Y-33702381D01*
X224678571Y-34083333D01*
X224821429Y-34083333D01*
X224916667Y-34130952D01*
X224964286Y-34178571D01*
X225011905Y-34273810D01*
X225011905Y-34511905D01*
X224964286Y-34607143D01*
X224916667Y-34654762D01*
X224821429Y-34702381D01*
X224535714Y-34702381D01*
X224440476Y-34654762D01*
X224392857Y-34607143D01*
X234479103Y-33800017D02*
X234526722Y-33847636D01*
X234574341Y-33990493D01*
X234574341Y-34085731D01*
X234526722Y-34228589D01*
X234431484Y-34323827D01*
X234336246Y-34371446D01*
X234145770Y-34419065D01*
X234002912Y-34419065D01*
X233812436Y-34371446D01*
X233717198Y-34323827D01*
X233621960Y-34228589D01*
X233574341Y-34085731D01*
X233574341Y-33990493D01*
X233621960Y-33847636D01*
X233669579Y-33800017D01*
X233669579Y-33419065D02*
X233621960Y-33371446D01*
X233574341Y-33276208D01*
X233574341Y-33038112D01*
X233621960Y-32942874D01*
X233669579Y-32895255D01*
X233764817Y-32847636D01*
X233860055Y-32847636D01*
X234002912Y-32895255D01*
X234574341Y-33466684D01*
X234574341Y-32847636D01*
X233907674Y-31990493D02*
X234574341Y-31990493D01*
X233526722Y-32228589D02*
X234241008Y-32466684D01*
X234241008Y-31847636D01*
X245225843Y-46820057D02*
X245273462Y-46867676D01*
X245321081Y-47010533D01*
X245321081Y-47105771D01*
X245273462Y-47248629D01*
X245178224Y-47343867D01*
X245082986Y-47391486D01*
X244892510Y-47439105D01*
X244749652Y-47439105D01*
X244559176Y-47391486D01*
X244463938Y-47343867D01*
X244368700Y-47248629D01*
X244321081Y-47105771D01*
X244321081Y-47010533D01*
X244368700Y-46867676D01*
X244416319Y-46820057D01*
X244416319Y-46439105D02*
X244368700Y-46391486D01*
X244321081Y-46296248D01*
X244321081Y-46058152D01*
X244368700Y-45962914D01*
X244416319Y-45915295D01*
X244511557Y-45867676D01*
X244606795Y-45867676D01*
X244749652Y-45915295D01*
X245321081Y-46486724D01*
X245321081Y-45867676D01*
X244321081Y-44962914D02*
X244321081Y-45439105D01*
X244797271Y-45486724D01*
X244749652Y-45439105D01*
X244702033Y-45343867D01*
X244702033Y-45105771D01*
X244749652Y-45010533D01*
X244797271Y-44962914D01*
X244892510Y-44915295D01*
X245130605Y-44915295D01*
X245225843Y-44962914D01*
X245273462Y-45010533D01*
X245321081Y-45105771D01*
X245321081Y-45343867D01*
X245273462Y-45439105D01*
X245225843Y-45486724D01*
X236640643Y-26868357D02*
X236688262Y-26915976D01*
X236735881Y-27058833D01*
X236735881Y-27154071D01*
X236688262Y-27296929D01*
X236593024Y-27392167D01*
X236497786Y-27439786D01*
X236307310Y-27487405D01*
X236164452Y-27487405D01*
X235973976Y-27439786D01*
X235878738Y-27392167D01*
X235783500Y-27296929D01*
X235735881Y-27154071D01*
X235735881Y-27058833D01*
X235783500Y-26915976D01*
X235831119Y-26868357D01*
X235831119Y-26487405D02*
X235783500Y-26439786D01*
X235735881Y-26344548D01*
X235735881Y-26106452D01*
X235783500Y-26011214D01*
X235831119Y-25963595D01*
X235926357Y-25915976D01*
X236021595Y-25915976D01*
X236164452Y-25963595D01*
X236735881Y-26535024D01*
X236735881Y-25915976D01*
X235735881Y-25058833D02*
X235735881Y-25249310D01*
X235783500Y-25344548D01*
X235831119Y-25392167D01*
X235973976Y-25487405D01*
X236164452Y-25535024D01*
X236545405Y-25535024D01*
X236640643Y-25487405D01*
X236688262Y-25439786D01*
X236735881Y-25344548D01*
X236735881Y-25154071D01*
X236688262Y-25058833D01*
X236640643Y-25011214D01*
X236545405Y-24963595D01*
X236307310Y-24963595D01*
X236212071Y-25011214D01*
X236164452Y-25058833D01*
X236116833Y-25154071D01*
X236116833Y-25344548D01*
X236164452Y-25439786D01*
X236212071Y-25487405D01*
X236307310Y-25535024D01*
X258262405Y-29852381D02*
X258262405Y-28852381D01*
X258500500Y-28852381D01*
X258643358Y-28900000D01*
X258738596Y-28995238D01*
X258786215Y-29090476D01*
X258833834Y-29280952D01*
X258833834Y-29423810D01*
X258786215Y-29614286D01*
X258738596Y-29709524D01*
X258643358Y-29804762D01*
X258500500Y-29852381D01*
X258262405Y-29852381D01*
X259690977Y-29185714D02*
X259690977Y-29852381D01*
X259452881Y-28804762D02*
X259214786Y-29519048D01*
X259833834Y-29519048D01*
X261885681Y-32382533D02*
X262599967Y-32382533D01*
X262742824Y-32430153D01*
X262838062Y-32525391D01*
X262885681Y-32668248D01*
X262885681Y-32763486D01*
X261885681Y-31430152D02*
X261885681Y-31906343D01*
X262361871Y-31953962D01*
X262314252Y-31906343D01*
X262266633Y-31811105D01*
X262266633Y-31573009D01*
X262314252Y-31477771D01*
X262361871Y-31430152D01*
X262457110Y-31382533D01*
X262695205Y-31382533D01*
X262790443Y-31430152D01*
X262838062Y-31477771D01*
X262885681Y-31573009D01*
X262885681Y-31811105D01*
X262838062Y-31906343D01*
X262790443Y-31953962D01*
X207486262Y-27431619D02*
X207391024Y-27384000D01*
X207295786Y-27288762D01*
X207152929Y-27145905D01*
X207057690Y-27098286D01*
X206962452Y-27098286D01*
X207010071Y-27336381D02*
X206914833Y-27288762D01*
X206819595Y-27193524D01*
X206771976Y-27003048D01*
X206771976Y-26669714D01*
X206819595Y-26479238D01*
X206914833Y-26384000D01*
X207010071Y-26336381D01*
X207200548Y-26336381D01*
X207295786Y-26384000D01*
X207391024Y-26479238D01*
X207438643Y-26669714D01*
X207438643Y-27003048D01*
X207391024Y-27193524D01*
X207295786Y-27288762D01*
X207200548Y-27336381D01*
X207010071Y-27336381D01*
X207771976Y-26336381D02*
X208438643Y-26336381D01*
X208010071Y-27336381D01*
X216090572Y-22391619D02*
X215995334Y-22344000D01*
X215900096Y-22248762D01*
X215757239Y-22105905D01*
X215662000Y-22058286D01*
X215566762Y-22058286D01*
X215614381Y-22296381D02*
X215519143Y-22248762D01*
X215423905Y-22153524D01*
X215376286Y-21963048D01*
X215376286Y-21629714D01*
X215423905Y-21439238D01*
X215519143Y-21344000D01*
X215614381Y-21296381D01*
X215804858Y-21296381D01*
X215900096Y-21344000D01*
X215995334Y-21439238D01*
X216042953Y-21629714D01*
X216042953Y-21963048D01*
X215995334Y-22153524D01*
X215900096Y-22248762D01*
X215804858Y-22296381D01*
X215614381Y-22296381D01*
X216995334Y-22296381D02*
X216423905Y-22296381D01*
X216709619Y-22296381D02*
X216709619Y-21296381D01*
X216614381Y-21439238D01*
X216519143Y-21534476D01*
X216423905Y-21582095D01*
X217947715Y-22296381D02*
X217376286Y-22296381D01*
X217662000Y-22296381D02*
X217662000Y-21296381D01*
X217566762Y-21439238D01*
X217471524Y-21534476D01*
X217376286Y-21582095D01*
X215697619Y-32171428D02*
X215650000Y-32266666D01*
X215554762Y-32361904D01*
X215411905Y-32504761D01*
X215364286Y-32600000D01*
X215364286Y-32695238D01*
X215602381Y-32647619D02*
X215554762Y-32742857D01*
X215459524Y-32838095D01*
X215269048Y-32885714D01*
X214935714Y-32885714D01*
X214745238Y-32838095D01*
X214650000Y-32742857D01*
X214602381Y-32647619D01*
X214602381Y-32457142D01*
X214650000Y-32361904D01*
X214745238Y-32266666D01*
X214935714Y-32219047D01*
X215269048Y-32219047D01*
X215459524Y-32266666D01*
X215554762Y-32361904D01*
X215602381Y-32457142D01*
X215602381Y-32647619D01*
X215602381Y-31266666D02*
X215602381Y-31838095D01*
X215602381Y-31552381D02*
X214602381Y-31552381D01*
X214745238Y-31647619D01*
X214840476Y-31742857D01*
X214888095Y-31838095D01*
X214697619Y-30885714D02*
X214650000Y-30838095D01*
X214602381Y-30742857D01*
X214602381Y-30504761D01*
X214650000Y-30409523D01*
X214697619Y-30361904D01*
X214792857Y-30314285D01*
X214888095Y-30314285D01*
X215030952Y-30361904D01*
X215602381Y-30933333D01*
X215602381Y-30314285D01*
X233928572Y-28797619D02*
X233833334Y-28750000D01*
X233738096Y-28654762D01*
X233595239Y-28511905D01*
X233500000Y-28464286D01*
X233404762Y-28464286D01*
X233452381Y-28702381D02*
X233357143Y-28654762D01*
X233261905Y-28559524D01*
X233214286Y-28369048D01*
X233214286Y-28035714D01*
X233261905Y-27845238D01*
X233357143Y-27750000D01*
X233452381Y-27702381D01*
X233642858Y-27702381D01*
X233738096Y-27750000D01*
X233833334Y-27845238D01*
X233880953Y-28035714D01*
X233880953Y-28369048D01*
X233833334Y-28559524D01*
X233738096Y-28654762D01*
X233642858Y-28702381D01*
X233452381Y-28702381D01*
X234833334Y-28702381D02*
X234261905Y-28702381D01*
X234547619Y-28702381D02*
X234547619Y-27702381D01*
X234452381Y-27845238D01*
X234357143Y-27940476D01*
X234261905Y-27988095D01*
X235166667Y-27702381D02*
X235785715Y-27702381D01*
X235452381Y-28083333D01*
X235595239Y-28083333D01*
X235690477Y-28130952D01*
X235738096Y-28178571D01*
X235785715Y-28273810D01*
X235785715Y-28511905D01*
X235738096Y-28607143D01*
X235690477Y-28654762D01*
X235595239Y-28702381D01*
X235309524Y-28702381D01*
X235214286Y-28654762D01*
X235166667Y-28607143D01*
X236547619Y-21071428D02*
X236500000Y-21166666D01*
X236404762Y-21261904D01*
X236261905Y-21404761D01*
X236214286Y-21500000D01*
X236214286Y-21595238D01*
X236452381Y-21547619D02*
X236404762Y-21642857D01*
X236309524Y-21738095D01*
X236119048Y-21785714D01*
X235785714Y-21785714D01*
X235595238Y-21738095D01*
X235500000Y-21642857D01*
X235452381Y-21547619D01*
X235452381Y-21357142D01*
X235500000Y-21261904D01*
X235595238Y-21166666D01*
X235785714Y-21119047D01*
X236119048Y-21119047D01*
X236309524Y-21166666D01*
X236404762Y-21261904D01*
X236452381Y-21357142D01*
X236452381Y-21547619D01*
X236452381Y-20166666D02*
X236452381Y-20738095D01*
X236452381Y-20452381D02*
X235452381Y-20452381D01*
X235595238Y-20547619D01*
X235690476Y-20642857D01*
X235738095Y-20738095D01*
X235785714Y-19309523D02*
X236452381Y-19309523D01*
X235404762Y-19547619D02*
X236119048Y-19785714D01*
X236119048Y-19166666D01*
X265384043Y-25209581D02*
X265050709Y-24733390D01*
X264812614Y-25209581D02*
X264812614Y-24209581D01*
X265193567Y-24209581D01*
X265288805Y-24257200D01*
X265336424Y-24304819D01*
X265384043Y-24400057D01*
X265384043Y-24542914D01*
X265336424Y-24638152D01*
X265288805Y-24685771D01*
X265193567Y-24733390D01*
X264812614Y-24733390D01*
X266336424Y-25209581D02*
X265764995Y-25209581D01*
X266050709Y-25209581D02*
X266050709Y-24209581D01*
X265955471Y-24352438D01*
X265860233Y-24447676D01*
X265764995Y-24495295D01*
X266669757Y-24209581D02*
X267336424Y-24209581D01*
X266907852Y-25209581D01*
X202890381Y-46426357D02*
X202414190Y-46759691D01*
X202890381Y-46997786D02*
X201890381Y-46997786D01*
X201890381Y-46616833D01*
X201938000Y-46521595D01*
X201985619Y-46473976D01*
X202080857Y-46426357D01*
X202223714Y-46426357D01*
X202318952Y-46473976D01*
X202366571Y-46521595D01*
X202414190Y-46616833D01*
X202414190Y-46997786D01*
X201985619Y-46045405D02*
X201938000Y-45997786D01*
X201890381Y-45902548D01*
X201890381Y-45664452D01*
X201938000Y-45569214D01*
X201985619Y-45521595D01*
X202080857Y-45473976D01*
X202176095Y-45473976D01*
X202318952Y-45521595D01*
X202890381Y-46093024D01*
X202890381Y-45473976D01*
X201985619Y-45093024D02*
X201938000Y-45045405D01*
X201890381Y-44950167D01*
X201890381Y-44712071D01*
X201938000Y-44616833D01*
X201985619Y-44569214D01*
X202080857Y-44521595D01*
X202176095Y-44521595D01*
X202318952Y-44569214D01*
X202890381Y-45140643D01*
X202890381Y-44521595D01*
X204462143Y-38425381D02*
X204128809Y-37949190D01*
X203890714Y-38425381D02*
X203890714Y-37425381D01*
X204271667Y-37425381D01*
X204366905Y-37473000D01*
X204414524Y-37520619D01*
X204462143Y-37615857D01*
X204462143Y-37758714D01*
X204414524Y-37853952D01*
X204366905Y-37901571D01*
X204271667Y-37949190D01*
X203890714Y-37949190D01*
X204843095Y-37520619D02*
X204890714Y-37473000D01*
X204985952Y-37425381D01*
X205224048Y-37425381D01*
X205319286Y-37473000D01*
X205366905Y-37520619D01*
X205414524Y-37615857D01*
X205414524Y-37711095D01*
X205366905Y-37853952D01*
X204795476Y-38425381D01*
X205414524Y-38425381D01*
X205747857Y-37425381D02*
X206366905Y-37425381D01*
X206033571Y-37806333D01*
X206176429Y-37806333D01*
X206271667Y-37853952D01*
X206319286Y-37901571D01*
X206366905Y-37996810D01*
X206366905Y-38234905D01*
X206319286Y-38330143D01*
X206271667Y-38377762D01*
X206176429Y-38425381D01*
X205890714Y-38425381D01*
X205795476Y-38377762D01*
X205747857Y-38330143D01*
X213685381Y-37091857D02*
X213209190Y-37425191D01*
X213685381Y-37663286D02*
X212685381Y-37663286D01*
X212685381Y-37282333D01*
X212733000Y-37187095D01*
X212780619Y-37139476D01*
X212875857Y-37091857D01*
X213018714Y-37091857D01*
X213113952Y-37139476D01*
X213161571Y-37187095D01*
X213209190Y-37282333D01*
X213209190Y-37663286D01*
X212780619Y-36710905D02*
X212733000Y-36663286D01*
X212685381Y-36568048D01*
X212685381Y-36329952D01*
X212733000Y-36234714D01*
X212780619Y-36187095D01*
X212875857Y-36139476D01*
X212971095Y-36139476D01*
X213113952Y-36187095D01*
X213685381Y-36758524D01*
X213685381Y-36139476D01*
X213018714Y-35282333D02*
X213685381Y-35282333D01*
X212637762Y-35520429D02*
X213352048Y-35758524D01*
X213352048Y-35139476D01*
X204462143Y-40076381D02*
X204128809Y-39600190D01*
X203890714Y-40076381D02*
X203890714Y-39076381D01*
X204271667Y-39076381D01*
X204366905Y-39124000D01*
X204414524Y-39171619D01*
X204462143Y-39266857D01*
X204462143Y-39409714D01*
X204414524Y-39504952D01*
X204366905Y-39552571D01*
X204271667Y-39600190D01*
X203890714Y-39600190D01*
X204843095Y-39171619D02*
X204890714Y-39124000D01*
X204985952Y-39076381D01*
X205224048Y-39076381D01*
X205319286Y-39124000D01*
X205366905Y-39171619D01*
X205414524Y-39266857D01*
X205414524Y-39362095D01*
X205366905Y-39504952D01*
X204795476Y-40076381D01*
X205414524Y-40076381D01*
X206319286Y-39076381D02*
X205843095Y-39076381D01*
X205795476Y-39552571D01*
X205843095Y-39504952D01*
X205938333Y-39457333D01*
X206176429Y-39457333D01*
X206271667Y-39504952D01*
X206319286Y-39552571D01*
X206366905Y-39647810D01*
X206366905Y-39885905D01*
X206319286Y-39981143D01*
X206271667Y-40028762D01*
X206176429Y-40076381D01*
X205938333Y-40076381D01*
X205843095Y-40028762D01*
X205795476Y-39981143D01*
X211399381Y-42552857D02*
X210923190Y-42886191D01*
X211399381Y-43124286D02*
X210399381Y-43124286D01*
X210399381Y-42743333D01*
X210447000Y-42648095D01*
X210494619Y-42600476D01*
X210589857Y-42552857D01*
X210732714Y-42552857D01*
X210827952Y-42600476D01*
X210875571Y-42648095D01*
X210923190Y-42743333D01*
X210923190Y-43124286D01*
X210494619Y-42171905D02*
X210447000Y-42124286D01*
X210399381Y-42029048D01*
X210399381Y-41790952D01*
X210447000Y-41695714D01*
X210494619Y-41648095D01*
X210589857Y-41600476D01*
X210685095Y-41600476D01*
X210827952Y-41648095D01*
X211399381Y-42219524D01*
X211399381Y-41600476D01*
X210399381Y-40743333D02*
X210399381Y-40933810D01*
X210447000Y-41029048D01*
X210494619Y-41076667D01*
X210637476Y-41171905D01*
X210827952Y-41219524D01*
X211208905Y-41219524D01*
X211304143Y-41171905D01*
X211351762Y-41124286D01*
X211399381Y-41029048D01*
X211399381Y-40838571D01*
X211351762Y-40743333D01*
X211304143Y-40695714D01*
X211208905Y-40648095D01*
X210970810Y-40648095D01*
X210875571Y-40695714D01*
X210827952Y-40743333D01*
X210780333Y-40838571D01*
X210780333Y-41029048D01*
X210827952Y-41124286D01*
X210875571Y-41171905D01*
X210970810Y-41219524D01*
X210129381Y-31249857D02*
X209653190Y-31583191D01*
X210129381Y-31821286D02*
X209129381Y-31821286D01*
X209129381Y-31440333D01*
X209177000Y-31345095D01*
X209224619Y-31297476D01*
X209319857Y-31249857D01*
X209462714Y-31249857D01*
X209557952Y-31297476D01*
X209605571Y-31345095D01*
X209653190Y-31440333D01*
X209653190Y-31821286D01*
X209224619Y-30868905D02*
X209177000Y-30821286D01*
X209129381Y-30726048D01*
X209129381Y-30487952D01*
X209177000Y-30392714D01*
X209224619Y-30345095D01*
X209319857Y-30297476D01*
X209415095Y-30297476D01*
X209557952Y-30345095D01*
X210129381Y-30916524D01*
X210129381Y-30297476D01*
X209129381Y-29964143D02*
X209129381Y-29297476D01*
X210129381Y-29726048D01*
X240528181Y-47259457D02*
X240051990Y-47592791D01*
X240528181Y-47830886D02*
X239528181Y-47830886D01*
X239528181Y-47449933D01*
X239575800Y-47354695D01*
X239623419Y-47307076D01*
X239718657Y-47259457D01*
X239861514Y-47259457D01*
X239956752Y-47307076D01*
X240004371Y-47354695D01*
X240051990Y-47449933D01*
X240051990Y-47830886D01*
X239623419Y-46878505D02*
X239575800Y-46830886D01*
X239528181Y-46735648D01*
X239528181Y-46497552D01*
X239575800Y-46402314D01*
X239623419Y-46354695D01*
X239718657Y-46307076D01*
X239813895Y-46307076D01*
X239956752Y-46354695D01*
X240528181Y-46926124D01*
X240528181Y-46307076D01*
X240528181Y-45830886D02*
X240528181Y-45640410D01*
X240480562Y-45545171D01*
X240432943Y-45497552D01*
X240290086Y-45402314D01*
X240099610Y-45354695D01*
X239718657Y-45354695D01*
X239623419Y-45402314D01*
X239575800Y-45449933D01*
X239528181Y-45545171D01*
X239528181Y-45735648D01*
X239575800Y-45830886D01*
X239623419Y-45878505D01*
X239718657Y-45926124D01*
X239956752Y-45926124D01*
X240051990Y-45878505D01*
X240099610Y-45830886D01*
X240147229Y-45735648D01*
X240147229Y-45545171D01*
X240099610Y-45449933D01*
X240051990Y-45402314D01*
X239956752Y-45354695D01*
X241951581Y-47259457D02*
X241475390Y-47592791D01*
X241951581Y-47830886D02*
X240951581Y-47830886D01*
X240951581Y-47449933D01*
X240999200Y-47354695D01*
X241046819Y-47307076D01*
X241142057Y-47259457D01*
X241284914Y-47259457D01*
X241380152Y-47307076D01*
X241427771Y-47354695D01*
X241475390Y-47449933D01*
X241475390Y-47830886D01*
X240951581Y-46926124D02*
X240951581Y-46307076D01*
X241332533Y-46640410D01*
X241332533Y-46497552D01*
X241380152Y-46402314D01*
X241427771Y-46354695D01*
X241523010Y-46307076D01*
X241761105Y-46307076D01*
X241856343Y-46354695D01*
X241903962Y-46402314D01*
X241951581Y-46497552D01*
X241951581Y-46783267D01*
X241903962Y-46878505D01*
X241856343Y-46926124D01*
X240951581Y-45688029D02*
X240951581Y-45592790D01*
X240999200Y-45497552D01*
X241046819Y-45449933D01*
X241142057Y-45402314D01*
X241332533Y-45354695D01*
X241570629Y-45354695D01*
X241761105Y-45402314D01*
X241856343Y-45449933D01*
X241903962Y-45497552D01*
X241951581Y-45592790D01*
X241951581Y-45688029D01*
X241903962Y-45783267D01*
X241856343Y-45830886D01*
X241761105Y-45878505D01*
X241570629Y-45926124D01*
X241332533Y-45926124D01*
X241142057Y-45878505D01*
X241046819Y-45830886D01*
X240999200Y-45783267D01*
X240951581Y-45688029D01*
X243476581Y-47259457D02*
X243000390Y-47592791D01*
X243476581Y-47830886D02*
X242476581Y-47830886D01*
X242476581Y-47449933D01*
X242524200Y-47354695D01*
X242571819Y-47307076D01*
X242667057Y-47259457D01*
X242809914Y-47259457D01*
X242905152Y-47307076D01*
X242952771Y-47354695D01*
X243000390Y-47449933D01*
X243000390Y-47830886D01*
X242476581Y-46926124D02*
X242476581Y-46307076D01*
X242857533Y-46640410D01*
X242857533Y-46497552D01*
X242905152Y-46402314D01*
X242952771Y-46354695D01*
X243048010Y-46307076D01*
X243286105Y-46307076D01*
X243381343Y-46354695D01*
X243428962Y-46402314D01*
X243476581Y-46497552D01*
X243476581Y-46783267D01*
X243428962Y-46878505D01*
X243381343Y-46926124D01*
X243476581Y-45354695D02*
X243476581Y-45926124D01*
X243476581Y-45640410D02*
X242476581Y-45640410D01*
X242619438Y-45735648D01*
X242714676Y-45830886D01*
X242762295Y-45926124D01*
X217493943Y-30095581D02*
X217160609Y-29619390D01*
X216922514Y-30095581D02*
X216922514Y-29095581D01*
X217303467Y-29095581D01*
X217398705Y-29143200D01*
X217446324Y-29190819D01*
X217493943Y-29286057D01*
X217493943Y-29428914D01*
X217446324Y-29524152D01*
X217398705Y-29571771D01*
X217303467Y-29619390D01*
X216922514Y-29619390D01*
X217827276Y-29095581D02*
X218446324Y-29095581D01*
X218112990Y-29476533D01*
X218255848Y-29476533D01*
X218351086Y-29524152D01*
X218398705Y-29571771D01*
X218446324Y-29667010D01*
X218446324Y-29905105D01*
X218398705Y-30000343D01*
X218351086Y-30047962D01*
X218255848Y-30095581D01*
X217970133Y-30095581D01*
X217874895Y-30047962D01*
X217827276Y-30000343D01*
X219303467Y-29095581D02*
X219112990Y-29095581D01*
X219017752Y-29143200D01*
X218970133Y-29190819D01*
X218874895Y-29333676D01*
X218827276Y-29524152D01*
X218827276Y-29905105D01*
X218874895Y-30000343D01*
X218922514Y-30047962D01*
X219017752Y-30095581D01*
X219208229Y-30095581D01*
X219303467Y-30047962D01*
X219351086Y-30000343D01*
X219398705Y-29905105D01*
X219398705Y-29667010D01*
X219351086Y-29571771D01*
X219303467Y-29524152D01*
X219208229Y-29476533D01*
X219017752Y-29476533D01*
X218922514Y-29524152D01*
X218874895Y-29571771D01*
X218827276Y-29667010D01*
X251261643Y-25280881D02*
X250928309Y-24804690D01*
X250690214Y-25280881D02*
X250690214Y-24280881D01*
X251071167Y-24280881D01*
X251166405Y-24328500D01*
X251214024Y-24376119D01*
X251261643Y-24471357D01*
X251261643Y-24614214D01*
X251214024Y-24709452D01*
X251166405Y-24757071D01*
X251071167Y-24804690D01*
X250690214Y-24804690D01*
X251594976Y-24280881D02*
X252214024Y-24280881D01*
X251880690Y-24661833D01*
X252023548Y-24661833D01*
X252118786Y-24709452D01*
X252166405Y-24757071D01*
X252214024Y-24852310D01*
X252214024Y-25090405D01*
X252166405Y-25185643D01*
X252118786Y-25233262D01*
X252023548Y-25280881D01*
X251737833Y-25280881D01*
X251642595Y-25233262D01*
X251594976Y-25185643D01*
X252690214Y-25280881D02*
X252880690Y-25280881D01*
X252975929Y-25233262D01*
X253023548Y-25185643D01*
X253118786Y-25042786D01*
X253166405Y-24852310D01*
X253166405Y-24471357D01*
X253118786Y-24376119D01*
X253071167Y-24328500D01*
X252975929Y-24280881D01*
X252785452Y-24280881D01*
X252690214Y-24328500D01*
X252642595Y-24376119D01*
X252594976Y-24471357D01*
X252594976Y-24709452D01*
X252642595Y-24804690D01*
X252690214Y-24852310D01*
X252785452Y-24899929D01*
X252975929Y-24899929D01*
X253071167Y-24852310D01*
X253118786Y-24804690D01*
X253166405Y-24709452D01*
X232021143Y-40510381D02*
X231687809Y-40034190D01*
X231449714Y-40510381D02*
X231449714Y-39510381D01*
X231830667Y-39510381D01*
X231925905Y-39558000D01*
X231973524Y-39605619D01*
X232021143Y-39700857D01*
X232021143Y-39843714D01*
X231973524Y-39938952D01*
X231925905Y-39986571D01*
X231830667Y-40034190D01*
X231449714Y-40034190D01*
X232878286Y-39843714D02*
X232878286Y-40510381D01*
X232640190Y-39462762D02*
X232402095Y-40177048D01*
X233021143Y-40177048D01*
X233925905Y-40510381D02*
X233354476Y-40510381D01*
X233640190Y-40510381D02*
X233640190Y-39510381D01*
X233544952Y-39653238D01*
X233449714Y-39748476D01*
X233354476Y-39796095D01*
X204414381Y-24010857D02*
X203938190Y-24344191D01*
X204414381Y-24582286D02*
X203414381Y-24582286D01*
X203414381Y-24201333D01*
X203462000Y-24106095D01*
X203509619Y-24058476D01*
X203604857Y-24010857D01*
X203747714Y-24010857D01*
X203842952Y-24058476D01*
X203890571Y-24106095D01*
X203938190Y-24201333D01*
X203938190Y-24582286D01*
X203747714Y-23153714D02*
X204414381Y-23153714D01*
X203366762Y-23391810D02*
X204081048Y-23629905D01*
X204081048Y-23010857D01*
X203509619Y-22677524D02*
X203462000Y-22629905D01*
X203414381Y-22534667D01*
X203414381Y-22296571D01*
X203462000Y-22201333D01*
X203509619Y-22153714D01*
X203604857Y-22106095D01*
X203700095Y-22106095D01*
X203842952Y-22153714D01*
X204414381Y-22725143D01*
X204414381Y-22106095D01*
X205756681Y-52674705D02*
X206566205Y-52674705D01*
X206661443Y-52627086D01*
X206709062Y-52579467D01*
X206756681Y-52484229D01*
X206756681Y-52293752D01*
X206709062Y-52198514D01*
X206661443Y-52150895D01*
X206566205Y-52103276D01*
X205756681Y-52103276D01*
X205756681Y-51722324D02*
X205756681Y-51103276D01*
X206137633Y-51436610D01*
X206137633Y-51293752D01*
X206185252Y-51198514D01*
X206232871Y-51150895D01*
X206328110Y-51103276D01*
X206566205Y-51103276D01*
X206661443Y-51150895D01*
X206709062Y-51198514D01*
X206756681Y-51293752D01*
X206756681Y-51579467D01*
X206709062Y-51674705D01*
X206661443Y-51722324D01*
X215900095Y-26757381D02*
X215900095Y-27566905D01*
X215947714Y-27662143D01*
X215995333Y-27709762D01*
X216090571Y-27757381D01*
X216281048Y-27757381D01*
X216376286Y-27709762D01*
X216423905Y-27662143D01*
X216471524Y-27566905D01*
X216471524Y-26757381D01*
X217090571Y-27185952D02*
X216995333Y-27138333D01*
X216947714Y-27090714D01*
X216900095Y-26995476D01*
X216900095Y-26947857D01*
X216947714Y-26852619D01*
X216995333Y-26805000D01*
X217090571Y-26757381D01*
X217281048Y-26757381D01*
X217376286Y-26805000D01*
X217423905Y-26852619D01*
X217471524Y-26947857D01*
X217471524Y-26995476D01*
X217423905Y-27090714D01*
X217376286Y-27138333D01*
X217281048Y-27185952D01*
X217090571Y-27185952D01*
X216995333Y-27233571D01*
X216947714Y-27281190D01*
X216900095Y-27376429D01*
X216900095Y-27566905D01*
X216947714Y-27662143D01*
X216995333Y-27709762D01*
X217090571Y-27757381D01*
X217281048Y-27757381D01*
X217376286Y-27709762D01*
X217423905Y-27662143D01*
X217471524Y-27566905D01*
X217471524Y-27376429D01*
X217423905Y-27281190D01*
X217376286Y-27233571D01*
X217281048Y-27185952D01*
X219452381Y-39763095D02*
X220261905Y-39763095D01*
X220357143Y-39715476D01*
X220404762Y-39667857D01*
X220452381Y-39572619D01*
X220452381Y-39382142D01*
X220404762Y-39286904D01*
X220357143Y-39239285D01*
X220261905Y-39191666D01*
X219452381Y-39191666D01*
X220452381Y-38191666D02*
X220452381Y-38763095D01*
X220452381Y-38477381D02*
X219452381Y-38477381D01*
X219595238Y-38572619D01*
X219690476Y-38667857D01*
X219738095Y-38763095D01*
X219452381Y-37572619D02*
X219452381Y-37477380D01*
X219500000Y-37382142D01*
X219547619Y-37334523D01*
X219642857Y-37286904D01*
X219833333Y-37239285D01*
X220071429Y-37239285D01*
X220261905Y-37286904D01*
X220357143Y-37334523D01*
X220404762Y-37382142D01*
X220452381Y-37477380D01*
X220452381Y-37572619D01*
X220404762Y-37667857D01*
X220357143Y-37715476D01*
X220261905Y-37763095D01*
X220071429Y-37810714D01*
X219833333Y-37810714D01*
X219642857Y-37763095D01*
X219547619Y-37715476D01*
X219500000Y-37667857D01*
X219452381Y-37572619D01*
X240061905Y-26542381D02*
X240061905Y-27351905D01*
X240109524Y-27447143D01*
X240157143Y-27494762D01*
X240252381Y-27542381D01*
X240442858Y-27542381D01*
X240538096Y-27494762D01*
X240585715Y-27447143D01*
X240633334Y-27351905D01*
X240633334Y-26542381D01*
X241633334Y-27542381D02*
X241061905Y-27542381D01*
X241347619Y-27542381D02*
X241347619Y-26542381D01*
X241252381Y-26685238D01*
X241157143Y-26780476D01*
X241061905Y-26828095D01*
X242014286Y-26637619D02*
X242061905Y-26590000D01*
X242157143Y-26542381D01*
X242395239Y-26542381D01*
X242490477Y-26590000D01*
X242538096Y-26637619D01*
X242585715Y-26732857D01*
X242585715Y-26828095D01*
X242538096Y-26970952D01*
X241966667Y-27542381D01*
X242585715Y-27542381D01*
X203157143Y-48357143D02*
X203109524Y-48404762D01*
X202966667Y-48452381D01*
X202871429Y-48452381D01*
X202728571Y-48404762D01*
X202633333Y-48309524D01*
X202585714Y-48214286D01*
X202538095Y-48023810D01*
X202538095Y-47880952D01*
X202585714Y-47690476D01*
X202633333Y-47595238D01*
X202728571Y-47500000D01*
X202871429Y-47452381D01*
X202966667Y-47452381D01*
X203109524Y-47500000D01*
X203157143Y-47547619D01*
X204061905Y-47452381D02*
X203585714Y-47452381D01*
X203538095Y-47928571D01*
X203585714Y-47880952D01*
X203680952Y-47833333D01*
X203919048Y-47833333D01*
X204014286Y-47880952D01*
X204061905Y-47928571D01*
X204109524Y-48023810D01*
X204109524Y-48261905D01*
X204061905Y-48357143D01*
X204014286Y-48404762D01*
X203919048Y-48452381D01*
X203680952Y-48452381D01*
X203585714Y-48404762D01*
X203538095Y-48357143D01*
X204728571Y-47452381D02*
X204823810Y-47452381D01*
X204919048Y-47500000D01*
X204966667Y-47547619D01*
X205014286Y-47642857D01*
X205061905Y-47833333D01*
X205061905Y-48071429D01*
X205014286Y-48261905D01*
X204966667Y-48357143D01*
X204919048Y-48404762D01*
X204823810Y-48452381D01*
X204728571Y-48452381D01*
X204633333Y-48404762D01*
X204585714Y-48357143D01*
X204538095Y-48261905D01*
X204490476Y-48071429D01*
X204490476Y-47833333D01*
X204538095Y-47642857D01*
X204585714Y-47547619D01*
X204633333Y-47500000D01*
X204728571Y-47452381D01*
X219657143Y-45507143D02*
X219609524Y-45554762D01*
X219466667Y-45602381D01*
X219371429Y-45602381D01*
X219228571Y-45554762D01*
X219133333Y-45459524D01*
X219085714Y-45364286D01*
X219038095Y-45173810D01*
X219038095Y-45030952D01*
X219085714Y-44840476D01*
X219133333Y-44745238D01*
X219228571Y-44650000D01*
X219371429Y-44602381D01*
X219466667Y-44602381D01*
X219609524Y-44650000D01*
X219657143Y-44697619D01*
X220609524Y-45602381D02*
X220038095Y-45602381D01*
X220323809Y-45602381D02*
X220323809Y-44602381D01*
X220228571Y-44745238D01*
X220133333Y-44840476D01*
X220038095Y-44888095D01*
X221466667Y-44602381D02*
X221276190Y-44602381D01*
X221180952Y-44650000D01*
X221133333Y-44697619D01*
X221038095Y-44840476D01*
X220990476Y-45030952D01*
X220990476Y-45411905D01*
X221038095Y-45507143D01*
X221085714Y-45554762D01*
X221180952Y-45602381D01*
X221371429Y-45602381D01*
X221466667Y-45554762D01*
X221514286Y-45507143D01*
X221561905Y-45411905D01*
X221561905Y-45173810D01*
X221514286Y-45078571D01*
X221466667Y-45030952D01*
X221371429Y-44983333D01*
X221180952Y-44983333D01*
X221085714Y-45030952D01*
X221038095Y-45078571D01*
X220990476Y-45173810D01*
X208280095Y-42251381D02*
X208280095Y-43060905D01*
X208327714Y-43156143D01*
X208375333Y-43203762D01*
X208470571Y-43251381D01*
X208661048Y-43251381D01*
X208756286Y-43203762D01*
X208803905Y-43156143D01*
X208851524Y-43060905D01*
X208851524Y-42251381D01*
X209803905Y-42251381D02*
X209327714Y-42251381D01*
X209280095Y-42727571D01*
X209327714Y-42679952D01*
X209422952Y-42632333D01*
X209661048Y-42632333D01*
X209756286Y-42679952D01*
X209803905Y-42727571D01*
X209851524Y-42822810D01*
X209851524Y-43060905D01*
X209803905Y-43156143D01*
X209756286Y-43203762D01*
X209661048Y-43251381D01*
X209422952Y-43251381D01*
X209327714Y-43203762D01*
X209280095Y-43156143D01*
X217257334Y-42870381D02*
X216781143Y-42870381D01*
X216781143Y-41870381D01*
X218114477Y-42870381D02*
X217543048Y-42870381D01*
X217828762Y-42870381D02*
X217828762Y-41870381D01*
X217733524Y-42013238D01*
X217638286Y-42108476D01*
X217543048Y-42156095D01*
X186666667Y-54762381D02*
X186666667Y-55476667D01*
X186619047Y-55619524D01*
X186523809Y-55714762D01*
X186380952Y-55762381D01*
X186285714Y-55762381D01*
X187571429Y-54762381D02*
X187380952Y-54762381D01*
X187285714Y-54810000D01*
X187238095Y-54857619D01*
X187142857Y-55000476D01*
X187095238Y-55190952D01*
X187095238Y-55571905D01*
X187142857Y-55667143D01*
X187190476Y-55714762D01*
X187285714Y-55762381D01*
X187476191Y-55762381D01*
X187571429Y-55714762D01*
X187619048Y-55667143D01*
X187666667Y-55571905D01*
X187666667Y-55333810D01*
X187619048Y-55238571D01*
X187571429Y-55190952D01*
X187476191Y-55143333D01*
X187285714Y-55143333D01*
X187190476Y-55190952D01*
X187142857Y-55238571D01*
X187095238Y-55333810D01*
X186666667Y-69262381D02*
X186666667Y-69976667D01*
X186619047Y-70119524D01*
X186523809Y-70214762D01*
X186380952Y-70262381D01*
X186285714Y-70262381D01*
X187047619Y-69262381D02*
X187714286Y-69262381D01*
X187285714Y-70262381D01*
X210653334Y-33980381D02*
X210320000Y-33504190D01*
X210081905Y-33980381D02*
X210081905Y-32980381D01*
X210462858Y-32980381D01*
X210558096Y-33028000D01*
X210605715Y-33075619D01*
X210653334Y-33170857D01*
X210653334Y-33313714D01*
X210605715Y-33408952D01*
X210558096Y-33456571D01*
X210462858Y-33504190D01*
X210081905Y-33504190D01*
X211224762Y-33408952D02*
X211129524Y-33361333D01*
X211081905Y-33313714D01*
X211034286Y-33218476D01*
X211034286Y-33170857D01*
X211081905Y-33075619D01*
X211129524Y-33028000D01*
X211224762Y-32980381D01*
X211415239Y-32980381D01*
X211510477Y-33028000D01*
X211558096Y-33075619D01*
X211605715Y-33170857D01*
X211605715Y-33218476D01*
X211558096Y-33313714D01*
X211510477Y-33361333D01*
X211415239Y-33408952D01*
X211224762Y-33408952D01*
X211129524Y-33456571D01*
X211081905Y-33504190D01*
X211034286Y-33599429D01*
X211034286Y-33789905D01*
X211081905Y-33885143D01*
X211129524Y-33932762D01*
X211224762Y-33980381D01*
X211415239Y-33980381D01*
X211510477Y-33932762D01*
X211558096Y-33885143D01*
X211605715Y-33789905D01*
X211605715Y-33599429D01*
X211558096Y-33504190D01*
X211510477Y-33456571D01*
X211415239Y-33408952D01*
X202302381Y-33461905D02*
X203111905Y-33461905D01*
X203207143Y-33414286D01*
X203254762Y-33366667D01*
X203302381Y-33271429D01*
X203302381Y-33080952D01*
X203254762Y-32985714D01*
X203207143Y-32938095D01*
X203111905Y-32890476D01*
X202302381Y-32890476D01*
X202302381Y-32509524D02*
X202302381Y-31842857D01*
X203302381Y-32271429D01*
X215887143Y-54036666D02*
X215934762Y-54084285D01*
X215982381Y-54227142D01*
X215982381Y-54322380D01*
X215934762Y-54465238D01*
X215839524Y-54560476D01*
X215744286Y-54608095D01*
X215553810Y-54655714D01*
X215410952Y-54655714D01*
X215220476Y-54608095D01*
X215125238Y-54560476D01*
X215030000Y-54465238D01*
X214982381Y-54322380D01*
X214982381Y-54227142D01*
X215030000Y-54084285D01*
X215077619Y-54036666D01*
X215982381Y-53560476D02*
X215982381Y-53370000D01*
X215934762Y-53274761D01*
X215887143Y-53227142D01*
X215744286Y-53131904D01*
X215553810Y-53084285D01*
X215172857Y-53084285D01*
X215077619Y-53131904D01*
X215030000Y-53179523D01*
X214982381Y-53274761D01*
X214982381Y-53465238D01*
X215030000Y-53560476D01*
X215077619Y-53608095D01*
X215172857Y-53655714D01*
X215410952Y-53655714D01*
X215506190Y-53608095D01*
X215553810Y-53560476D01*
X215601429Y-53465238D01*
X215601429Y-53274761D01*
X215553810Y-53179523D01*
X215506190Y-53131904D01*
X215410952Y-53084285D01*
X234437143Y-54122857D02*
X234484762Y-54170476D01*
X234532381Y-54313333D01*
X234532381Y-54408571D01*
X234484762Y-54551429D01*
X234389524Y-54646667D01*
X234294286Y-54694286D01*
X234103810Y-54741905D01*
X233960952Y-54741905D01*
X233770476Y-54694286D01*
X233675238Y-54646667D01*
X233580000Y-54551429D01*
X233532381Y-54408571D01*
X233532381Y-54313333D01*
X233580000Y-54170476D01*
X233627619Y-54122857D01*
X234532381Y-53170476D02*
X234532381Y-53741905D01*
X234532381Y-53456191D02*
X233532381Y-53456191D01*
X233675238Y-53551429D01*
X233770476Y-53646667D01*
X233818095Y-53741905D01*
X233865714Y-52313333D02*
X234532381Y-52313333D01*
X233484762Y-52551429D02*
X234199048Y-52789524D01*
X234199048Y-52170476D01*
X252937143Y-54122857D02*
X252984762Y-54170476D01*
X253032381Y-54313333D01*
X253032381Y-54408571D01*
X252984762Y-54551429D01*
X252889524Y-54646667D01*
X252794286Y-54694286D01*
X252603810Y-54741905D01*
X252460952Y-54741905D01*
X252270476Y-54694286D01*
X252175238Y-54646667D01*
X252080000Y-54551429D01*
X252032381Y-54408571D01*
X252032381Y-54313333D01*
X252080000Y-54170476D01*
X252127619Y-54122857D01*
X253032381Y-53170476D02*
X253032381Y-53741905D01*
X253032381Y-53456191D02*
X252032381Y-53456191D01*
X252175238Y-53551429D01*
X252270476Y-53646667D01*
X252318095Y-53741905D01*
X252032381Y-52265714D02*
X252032381Y-52741905D01*
X252508571Y-52789524D01*
X252460952Y-52741905D01*
X252413333Y-52646667D01*
X252413333Y-52408571D01*
X252460952Y-52313333D01*
X252508571Y-52265714D01*
X252603810Y-52218095D01*
X252841905Y-52218095D01*
X252937143Y-52265714D01*
X252984762Y-52313333D01*
X253032381Y-52408571D01*
X253032381Y-52646667D01*
X252984762Y-52741905D01*
X252937143Y-52789524D01*
X216167143Y-65642857D02*
X216214762Y-65690476D01*
X216262381Y-65833333D01*
X216262381Y-65928571D01*
X216214762Y-66071429D01*
X216119524Y-66166667D01*
X216024286Y-66214286D01*
X215833810Y-66261905D01*
X215690952Y-66261905D01*
X215500476Y-66214286D01*
X215405238Y-66166667D01*
X215310000Y-66071429D01*
X215262381Y-65928571D01*
X215262381Y-65833333D01*
X215310000Y-65690476D01*
X215357619Y-65642857D01*
X215357619Y-65261905D02*
X215310000Y-65214286D01*
X215262381Y-65119048D01*
X215262381Y-64880952D01*
X215310000Y-64785714D01*
X215357619Y-64738095D01*
X215452857Y-64690476D01*
X215548095Y-64690476D01*
X215690952Y-64738095D01*
X216262381Y-65309524D01*
X216262381Y-64690476D01*
X215262381Y-64357143D02*
X215262381Y-63690476D01*
X216262381Y-64119048D01*
X228166667Y-57952381D02*
X228166667Y-58666667D01*
X228119047Y-58809524D01*
X228023809Y-58904762D01*
X227880952Y-58952381D01*
X227785714Y-58952381D01*
X229166667Y-58952381D02*
X228595238Y-58952381D01*
X228880952Y-58952381D02*
X228880952Y-57952381D01*
X228785714Y-58095238D01*
X228690476Y-58190476D01*
X228595238Y-58238095D01*
X246666667Y-57952381D02*
X246666667Y-58666667D01*
X246619047Y-58809524D01*
X246523809Y-58904762D01*
X246380952Y-58952381D01*
X246285714Y-58952381D01*
X247095238Y-58047619D02*
X247142857Y-58000000D01*
X247238095Y-57952381D01*
X247476191Y-57952381D01*
X247571429Y-58000000D01*
X247619048Y-58047619D01*
X247666667Y-58142857D01*
X247666667Y-58238095D01*
X247619048Y-58380952D01*
X247047619Y-58952381D01*
X247666667Y-58952381D01*
X265166667Y-57952381D02*
X265166667Y-58666667D01*
X265119047Y-58809524D01*
X265023809Y-58904762D01*
X264880952Y-58952381D01*
X264785714Y-58952381D01*
X265547619Y-57952381D02*
X266166667Y-57952381D01*
X265833333Y-58333333D01*
X265976191Y-58333333D01*
X266071429Y-58380952D01*
X266119048Y-58428571D01*
X266166667Y-58523810D01*
X266166667Y-58761905D01*
X266119048Y-58857143D01*
X266071429Y-58904762D01*
X265976191Y-58952381D01*
X265690476Y-58952381D01*
X265595238Y-58904762D01*
X265547619Y-58857143D01*
X221265762Y-51220619D02*
X221170524Y-51173000D01*
X221075286Y-51077762D01*
X220932429Y-50934905D01*
X220837190Y-50887286D01*
X220741952Y-50887286D01*
X220789571Y-51125381D02*
X220694333Y-51077762D01*
X220599095Y-50982524D01*
X220551476Y-50792048D01*
X220551476Y-50458714D01*
X220599095Y-50268238D01*
X220694333Y-50173000D01*
X220789571Y-50125381D01*
X220980048Y-50125381D01*
X221075286Y-50173000D01*
X221170524Y-50268238D01*
X221218143Y-50458714D01*
X221218143Y-50792048D01*
X221170524Y-50982524D01*
X221075286Y-51077762D01*
X220980048Y-51125381D01*
X220789571Y-51125381D01*
X222170524Y-51125381D02*
X221599095Y-51125381D01*
X221884809Y-51125381D02*
X221884809Y-50125381D01*
X221789571Y-50268238D01*
X221694333Y-50363476D01*
X221599095Y-50411095D01*
X239299762Y-51093619D02*
X239204524Y-51046000D01*
X239109286Y-50950762D01*
X238966429Y-50807905D01*
X238871190Y-50760286D01*
X238775952Y-50760286D01*
X238823571Y-50998381D02*
X238728333Y-50950762D01*
X238633095Y-50855524D01*
X238585476Y-50665048D01*
X238585476Y-50331714D01*
X238633095Y-50141238D01*
X238728333Y-50046000D01*
X238823571Y-49998381D01*
X239014048Y-49998381D01*
X239109286Y-50046000D01*
X239204524Y-50141238D01*
X239252143Y-50331714D01*
X239252143Y-50665048D01*
X239204524Y-50855524D01*
X239109286Y-50950762D01*
X239014048Y-50998381D01*
X238823571Y-50998381D01*
X239633095Y-50093619D02*
X239680714Y-50046000D01*
X239775952Y-49998381D01*
X240014048Y-49998381D01*
X240109286Y-50046000D01*
X240156905Y-50093619D01*
X240204524Y-50188857D01*
X240204524Y-50284095D01*
X240156905Y-50426952D01*
X239585476Y-50998381D01*
X240204524Y-50998381D01*
X258095762Y-51093619D02*
X258000524Y-51046000D01*
X257905286Y-50950762D01*
X257762429Y-50807905D01*
X257667190Y-50760286D01*
X257571952Y-50760286D01*
X257619571Y-50998381D02*
X257524333Y-50950762D01*
X257429095Y-50855524D01*
X257381476Y-50665048D01*
X257381476Y-50331714D01*
X257429095Y-50141238D01*
X257524333Y-50046000D01*
X257619571Y-49998381D01*
X257810048Y-49998381D01*
X257905286Y-50046000D01*
X258000524Y-50141238D01*
X258048143Y-50331714D01*
X258048143Y-50665048D01*
X258000524Y-50855524D01*
X257905286Y-50950762D01*
X257810048Y-50998381D01*
X257619571Y-50998381D01*
X258381476Y-49998381D02*
X259000524Y-49998381D01*
X258667190Y-50379333D01*
X258810048Y-50379333D01*
X258905286Y-50426952D01*
X258952905Y-50474571D01*
X259000524Y-50569810D01*
X259000524Y-50807905D01*
X258952905Y-50903143D01*
X258905286Y-50950762D01*
X258810048Y-50998381D01*
X258524333Y-50998381D01*
X258429095Y-50950762D01*
X258381476Y-50903143D01*
X222916762Y-65825619D02*
X222821524Y-65778000D01*
X222726286Y-65682762D01*
X222583429Y-65539905D01*
X222488190Y-65492286D01*
X222392952Y-65492286D01*
X222440571Y-65730381D02*
X222345333Y-65682762D01*
X222250095Y-65587524D01*
X222202476Y-65397048D01*
X222202476Y-65063714D01*
X222250095Y-64873238D01*
X222345333Y-64778000D01*
X222440571Y-64730381D01*
X222631048Y-64730381D01*
X222726286Y-64778000D01*
X222821524Y-64873238D01*
X222869143Y-65063714D01*
X222869143Y-65397048D01*
X222821524Y-65587524D01*
X222726286Y-65682762D01*
X222631048Y-65730381D01*
X222440571Y-65730381D01*
X223726286Y-65063714D02*
X223726286Y-65730381D01*
X223488190Y-64682762D02*
X223250095Y-65397048D01*
X223869143Y-65397048D01*
X241712762Y-65825619D02*
X241617524Y-65778000D01*
X241522286Y-65682762D01*
X241379429Y-65539905D01*
X241284190Y-65492286D01*
X241188952Y-65492286D01*
X241236571Y-65730381D02*
X241141333Y-65682762D01*
X241046095Y-65587524D01*
X240998476Y-65397048D01*
X240998476Y-65063714D01*
X241046095Y-64873238D01*
X241141333Y-64778000D01*
X241236571Y-64730381D01*
X241427048Y-64730381D01*
X241522286Y-64778000D01*
X241617524Y-64873238D01*
X241665143Y-65063714D01*
X241665143Y-65397048D01*
X241617524Y-65587524D01*
X241522286Y-65682762D01*
X241427048Y-65730381D01*
X241236571Y-65730381D01*
X242569905Y-64730381D02*
X242093714Y-64730381D01*
X242046095Y-65206571D01*
X242093714Y-65158952D01*
X242188952Y-65111333D01*
X242427048Y-65111333D01*
X242522286Y-65158952D01*
X242569905Y-65206571D01*
X242617524Y-65301810D01*
X242617524Y-65539905D01*
X242569905Y-65635143D01*
X242522286Y-65682762D01*
X242427048Y-65730381D01*
X242188952Y-65730381D01*
X242093714Y-65682762D01*
X242046095Y-65635143D01*
X260000762Y-65825619D02*
X259905524Y-65778000D01*
X259810286Y-65682762D01*
X259667429Y-65539905D01*
X259572190Y-65492286D01*
X259476952Y-65492286D01*
X259524571Y-65730381D02*
X259429333Y-65682762D01*
X259334095Y-65587524D01*
X259286476Y-65397048D01*
X259286476Y-65063714D01*
X259334095Y-64873238D01*
X259429333Y-64778000D01*
X259524571Y-64730381D01*
X259715048Y-64730381D01*
X259810286Y-64778000D01*
X259905524Y-64873238D01*
X259953143Y-65063714D01*
X259953143Y-65397048D01*
X259905524Y-65587524D01*
X259810286Y-65682762D01*
X259715048Y-65730381D01*
X259524571Y-65730381D01*
X260810286Y-64730381D02*
X260619809Y-64730381D01*
X260524571Y-64778000D01*
X260476952Y-64825619D01*
X260381714Y-64968476D01*
X260334095Y-65158952D01*
X260334095Y-65539905D01*
X260381714Y-65635143D01*
X260429333Y-65682762D01*
X260524571Y-65730381D01*
X260715048Y-65730381D01*
X260810286Y-65682762D01*
X260857905Y-65635143D01*
X260905524Y-65539905D01*
X260905524Y-65301810D01*
X260857905Y-65206571D01*
X260810286Y-65158952D01*
X260715048Y-65111333D01*
X260524571Y-65111333D01*
X260429333Y-65158952D01*
X260381714Y-65206571D01*
X260334095Y-65301810D01*
X213491843Y-47321743D02*
X213444224Y-47369362D01*
X213301367Y-47416981D01*
X213206129Y-47416981D01*
X213063271Y-47369362D01*
X212968033Y-47274124D01*
X212920414Y-47178886D01*
X212872795Y-46988410D01*
X212872795Y-46845552D01*
X212920414Y-46655076D01*
X212968033Y-46559838D01*
X213063271Y-46464600D01*
X213206129Y-46416981D01*
X213301367Y-46416981D01*
X213444224Y-46464600D01*
X213491843Y-46512219D01*
X214444224Y-47416981D02*
X213872795Y-47416981D01*
X214158509Y-47416981D02*
X214158509Y-46416981D01*
X214063271Y-46559838D01*
X213968033Y-46655076D01*
X213872795Y-46702695D01*
X214777557Y-46416981D02*
X215396605Y-46416981D01*
X215063271Y-46797933D01*
X215206129Y-46797933D01*
X215301367Y-46845552D01*
X215348986Y-46893171D01*
X215396605Y-46988410D01*
X215396605Y-47226505D01*
X215348986Y-47321743D01*
X215301367Y-47369362D01*
X215206129Y-47416981D01*
X214920414Y-47416981D01*
X214825176Y-47369362D01*
X214777557Y-47321743D01*
X201223643Y-36329881D02*
X200890309Y-35853690D01*
X200652214Y-36329881D02*
X200652214Y-35329881D01*
X201033167Y-35329881D01*
X201128405Y-35377500D01*
X201176024Y-35425119D01*
X201223643Y-35520357D01*
X201223643Y-35663214D01*
X201176024Y-35758452D01*
X201128405Y-35806071D01*
X201033167Y-35853690D01*
X200652214Y-35853690D01*
X202176024Y-36329881D02*
X201604595Y-36329881D01*
X201890309Y-36329881D02*
X201890309Y-35329881D01*
X201795071Y-35472738D01*
X201699833Y-35567976D01*
X201604595Y-35615595D01*
X203033167Y-35663214D02*
X203033167Y-36329881D01*
X202795071Y-35282262D02*
X202556976Y-35996548D01*
X203176024Y-35996548D01*
M02*
