M48
;DRILL file {KiCad 4.0.7} date Tue Jul  3 11:33:28 2018
;FORMAT={-:-/ absolute / metric / decimal}
FMAT,2
METRIC,TZ
T1C0.400
%
G90
G05
M71
T1
X202.75Y-61.
X206.921Y-47.117
X215.011Y-48.26
X215.011Y-58.674
X217.504Y-50.523
X220.472Y-57.15
X227.127Y-50.927
X229.895Y-41.453
X229.895Y-43.358
X229.895Y-45.314
X229.946Y-49.606
X230.048Y-37.77
X230.353Y-53.543
X231.076Y-41.465
X231.076Y-43.497
X231.521Y-66.23
X231.584Y-45.402
X231.724Y-37.313
X232.093Y-50.038
X234.569Y-62.738
X236.029Y-51.384
X239.25Y-71.75
X239.649Y-51.435
X245.046Y-35.56
X246.507Y-49.022
X247.142Y-37.719
X247.142Y-41.212
X247.75Y-70.25
X248.475Y-43.624
X249.047Y-47.625
X249.237Y-61.341
X251.75Y-64.25
X251.75Y-67.25
X252.793Y-61.658
X253.492Y-44.196
X255.88Y-46.761
X260.883Y-47.384
X262.572Y-52.705
X262.636Y-56.578
X266.446Y-50.609
T0
M30
