G04 #@! TF.FileFunction,Copper,L4,Bot,Signal*
%FSLAX46Y46*%
G04 Gerber Fmt 4.6, Leading zero omitted, Abs format (unit mm)*
G04 Created by KiCad (PCBNEW 4.0.7) date Mon Jul  2 20:53:10 2018*
%MOMM*%
%LPD*%
G01*
G04 APERTURE LIST*
%ADD10C,0.100000*%
%ADD11R,2.500000X0.900000*%
%ADD12R,2.000000X2.000000*%
%ADD13C,2.000000*%
%ADD14R,0.600000X1.550000*%
%ADD15R,0.800000X0.750000*%
%ADD16R,0.900000X0.500000*%
%ADD17R,0.500000X0.900000*%
%ADD18R,1.850000X1.850000*%
%ADD19C,1.850000*%
%ADD20C,1.450000*%
%ADD21O,1.900000X1.200000*%
%ADD22R,0.900000X0.800000*%
%ADD23R,0.850000X0.850000*%
%ADD24R,1.500000X0.600000*%
%ADD25R,1.100000X1.100000*%
%ADD26C,2.400000*%
%ADD27C,1.200000*%
%ADD28C,3.200000*%
%ADD29C,3.100000*%
%ADD30C,0.320000*%
%ADD31R,0.600000X0.450000*%
%ADD32R,1.000000X1.250000*%
%ADD33R,1.250000X1.000000*%
%ADD34C,0.600000*%
%ADD35C,0.250000*%
%ADD36C,0.500000*%
%ADD37C,0.254000*%
G04 APERTURE END LIST*
D10*
D11*
X205740000Y-51636000D03*
X205740000Y-54536000D03*
D12*
X198750000Y-62500000D03*
D13*
X198750000Y-67500000D03*
D14*
X212690300Y-50523300D03*
X213960300Y-50523300D03*
X215230300Y-50523300D03*
X216500300Y-50523300D03*
X216500300Y-55923300D03*
X215230300Y-55923300D03*
X213960300Y-55923300D03*
X212690300Y-55923300D03*
D15*
X240100000Y-70275000D03*
X241600000Y-70275000D03*
D16*
X211242500Y-55243300D03*
X211242500Y-53743300D03*
D17*
X242582000Y-56896000D03*
X244082000Y-56896000D03*
D16*
X255397000Y-56019000D03*
X255397000Y-57519000D03*
D18*
X250063000Y-22352000D03*
D19*
X247563000Y-22352000D03*
X245063000Y-22352000D03*
X242563000Y-22352000D03*
D20*
X264083300Y-34549200D03*
X264083300Y-29549200D03*
D21*
X266783300Y-35549200D03*
X266783300Y-28549200D03*
D22*
X216361000Y-46190000D03*
X216361000Y-48090000D03*
X213961000Y-47140000D03*
X244786000Y-45024000D03*
X244786000Y-46924000D03*
X242386000Y-45974000D03*
X254819000Y-45151000D03*
X254819000Y-47051000D03*
X252419000Y-46101000D03*
D16*
X228500000Y-62450000D03*
X228500000Y-60950000D03*
X262250000Y-38325000D03*
X262250000Y-36825000D03*
X247000000Y-62450000D03*
X247000000Y-60950000D03*
X265500000Y-62450000D03*
X265500000Y-60950000D03*
D17*
X209562000Y-49149000D03*
X211062000Y-49149000D03*
X262375000Y-44050000D03*
X260875000Y-44050000D03*
X259300000Y-42675000D03*
X257800000Y-42675000D03*
D16*
X238506000Y-50153000D03*
X238506000Y-48653000D03*
X204100000Y-59850000D03*
X204100000Y-61350000D03*
D17*
X265418000Y-50038000D03*
X263918000Y-50038000D03*
D23*
X264160000Y-39497000D03*
X264160000Y-44323000D03*
X232918000Y-43688000D03*
X264439400Y-47752000D03*
X226949000Y-52578000D03*
X219000000Y-65000000D03*
X247523000Y-52578000D03*
X237500000Y-65000000D03*
X264414000Y-52578000D03*
X257000000Y-65000000D03*
X235839000Y-43688000D03*
X251206000Y-28702000D03*
X251925000Y-38550000D03*
X251900000Y-40350000D03*
X209423000Y-56261000D03*
X204200000Y-71925000D03*
X251900000Y-36875000D03*
X221742000Y-35306000D03*
X259715000Y-26543000D03*
X250500000Y-62750000D03*
D24*
X244000000Y-72810000D03*
X244000000Y-71540000D03*
X244000000Y-70270000D03*
X244000000Y-69000000D03*
X244000000Y-67730000D03*
X244000000Y-66460000D03*
X244000000Y-65190000D03*
X249400000Y-65190000D03*
X249400000Y-66460000D03*
X249400000Y-67730000D03*
X249400000Y-69000000D03*
X249400000Y-70270000D03*
X249400000Y-71540000D03*
X249400000Y-72810000D03*
D14*
X241681000Y-48989000D03*
X242951000Y-48989000D03*
X244221000Y-48989000D03*
X245491000Y-48989000D03*
X245491000Y-54389000D03*
X244221000Y-54389000D03*
X242951000Y-54389000D03*
X241681000Y-54389000D03*
X257048000Y-45814000D03*
X258318000Y-45814000D03*
X259588000Y-45814000D03*
X260858000Y-45814000D03*
X260858000Y-51214000D03*
X259588000Y-51214000D03*
X258318000Y-51214000D03*
X257048000Y-51214000D03*
D23*
X252095000Y-43053000D03*
X240050000Y-41750000D03*
X241600000Y-41775000D03*
X243125000Y-41775000D03*
D25*
X208788000Y-54486000D03*
X208788000Y-51686000D03*
X240795000Y-58166000D03*
X237995000Y-58166000D03*
X253400000Y-55325000D03*
X250600000Y-55325000D03*
D23*
X204000000Y-49500000D03*
D11*
X235375000Y-56073000D03*
X235375000Y-53173000D03*
X251950000Y-53025000D03*
X251950000Y-50125000D03*
D26*
X187000000Y-51500000D03*
D27*
X190800000Y-46420000D03*
X190800000Y-56580000D03*
X180640000Y-56580000D03*
X180640000Y-46420000D03*
D26*
X187000000Y-66000000D03*
D27*
X190800000Y-60920000D03*
X190800000Y-71080000D03*
X180640000Y-71080000D03*
X180640000Y-60920000D03*
D16*
X261650000Y-67675000D03*
X261650000Y-69175000D03*
X253025000Y-67675000D03*
X253025000Y-69175000D03*
X253025000Y-70375000D03*
X253025000Y-71875000D03*
D12*
X209500000Y-62500000D03*
D13*
X209500000Y-67500000D03*
D28*
X260000000Y-77000000D03*
X250000000Y-77000000D03*
X255000000Y-77000000D03*
D29*
X228500000Y-58000000D03*
X247000000Y-58000000D03*
X265500000Y-58000000D03*
D30*
X219968000Y-52976000D03*
X220984000Y-52976000D03*
X222000000Y-52976000D03*
X219968000Y-54500000D03*
X220984000Y-54500000D03*
X222000000Y-54500000D03*
X222000000Y-56024000D03*
X220984000Y-56024000D03*
X219968000Y-56024000D03*
X220476000Y-55516000D03*
X221492000Y-55516000D03*
X221492000Y-53484000D03*
X220476000Y-53484000D03*
X238468000Y-52976000D03*
X239484000Y-52976000D03*
X240500000Y-52976000D03*
X238468000Y-54500000D03*
X239484000Y-54500000D03*
X240500000Y-54500000D03*
X240500000Y-56024000D03*
X239484000Y-56024000D03*
X238468000Y-56024000D03*
X238976000Y-55516000D03*
X239992000Y-55516000D03*
X239992000Y-53484000D03*
X238976000Y-53484000D03*
X256968000Y-52976000D03*
X257984000Y-52976000D03*
X259000000Y-52976000D03*
X256968000Y-54500000D03*
X257984000Y-54500000D03*
X259000000Y-54500000D03*
X259000000Y-56024000D03*
X257984000Y-56024000D03*
X256968000Y-56024000D03*
X257476000Y-55516000D03*
X258492000Y-55516000D03*
X258492000Y-53484000D03*
X257476000Y-53484000D03*
X224032000Y-63024000D03*
X223016000Y-63024000D03*
X222000000Y-63024000D03*
X224032000Y-61500000D03*
X223016000Y-61500000D03*
X222000000Y-61500000D03*
X222000000Y-59976000D03*
X223016000Y-59976000D03*
X224032000Y-59976000D03*
X223524000Y-60484000D03*
X222508000Y-60484000D03*
X222508000Y-62516000D03*
X223524000Y-62516000D03*
X242532000Y-63024000D03*
X241516000Y-63024000D03*
X240500000Y-63024000D03*
X242532000Y-61500000D03*
X241516000Y-61500000D03*
X240500000Y-61500000D03*
X240500000Y-59976000D03*
X241516000Y-59976000D03*
X242532000Y-59976000D03*
X242024000Y-60484000D03*
X241008000Y-60484000D03*
X241008000Y-62516000D03*
X242024000Y-62516000D03*
X261032000Y-63024000D03*
X260016000Y-63024000D03*
X259000000Y-63024000D03*
X261032000Y-61500000D03*
X260016000Y-61500000D03*
X259000000Y-61500000D03*
X259000000Y-59976000D03*
X260016000Y-59976000D03*
X261032000Y-59976000D03*
X260524000Y-60484000D03*
X259508000Y-60484000D03*
X259508000Y-62516000D03*
X260524000Y-62516000D03*
D31*
X261654000Y-71856600D03*
X259554000Y-71856600D03*
D32*
X210562700Y-47129700D03*
X208562700Y-47129700D03*
D33*
X236321600Y-48403000D03*
X236321600Y-50403000D03*
X262597900Y-48955200D03*
X262597900Y-46955200D03*
D23*
X224599500Y-50038000D03*
D34*
X239649000Y-51435000D03*
X236029500Y-51384200D03*
X206921100Y-47117000D03*
X260883400Y-47383700D03*
X254825500Y-48260000D03*
X246507000Y-49022000D03*
X217504300Y-50523300D03*
X215011000Y-48260000D03*
X239250000Y-71750000D03*
X202750000Y-61000000D03*
X247750000Y-70250000D03*
X209425000Y-44975000D03*
X241050000Y-38425000D03*
X256750000Y-42750000D03*
X260750000Y-36750000D03*
X220472000Y-57150000D03*
X215011000Y-58674000D03*
X245491000Y-55880000D03*
X239268000Y-60579000D03*
X261937500Y-51562000D03*
X240575000Y-30450000D03*
X230800000Y-47100000D03*
X241427000Y-45847000D03*
X247650000Y-46101000D03*
X219500000Y-22650000D03*
X242250000Y-26550000D03*
X255675000Y-34350000D03*
X254600000Y-34925000D03*
X254600000Y-36200000D03*
X234050000Y-48125000D03*
X243459000Y-47371000D03*
X259588000Y-47498000D03*
X241363500Y-29845000D03*
X207400000Y-27400000D03*
X251750000Y-67250000D03*
X251750000Y-64250000D03*
X252750000Y-57500000D03*
X240550000Y-27150000D03*
X225400000Y-27550000D03*
X214500000Y-29200000D03*
X205100000Y-33800000D03*
X261350500Y-32350000D03*
X262700500Y-33850000D03*
X235394500Y-52362100D03*
X264731500Y-50038000D03*
X238506000Y-50927000D03*
X236220000Y-52324000D03*
X234315000Y-52324000D03*
X208153000Y-50038000D03*
X203835000Y-55880000D03*
X206248000Y-55880000D03*
X205105000Y-55880000D03*
X251210000Y-48550000D03*
X251990000Y-48540000D03*
X252820000Y-48530000D03*
X240750000Y-71750000D03*
X263750000Y-67500000D03*
X245999000Y-75692000D03*
X210750000Y-37500000D03*
X247750000Y-71500000D03*
X203100000Y-34500000D03*
X207700000Y-34000000D03*
D35*
X240157000Y-50280000D02*
X240157000Y-50927000D01*
X240157000Y-50927000D02*
X239649000Y-51435000D01*
X262597900Y-46955200D02*
X262597900Y-46215300D01*
X262196600Y-45814000D02*
X260858000Y-45814000D01*
X262597900Y-46215300D02*
X262196600Y-45814000D01*
X236321600Y-50403000D02*
X236321600Y-51092100D01*
X236321600Y-51092100D02*
X236029500Y-51384200D01*
X208062700Y-47129700D02*
X206933800Y-47129700D01*
X206933800Y-47129700D02*
X206921100Y-47117000D01*
X260858000Y-45814000D02*
X260858000Y-47358300D01*
X260858000Y-47358300D02*
X260883400Y-47383700D01*
X259554000Y-71856600D02*
X253043400Y-71856600D01*
X253043400Y-71856600D02*
X253025000Y-71875000D01*
X254819000Y-47051000D02*
X254819000Y-48253500D01*
X254819000Y-48253500D02*
X254825500Y-48260000D01*
X245491000Y-48989000D02*
X246474000Y-48989000D01*
X246474000Y-48989000D02*
X246507000Y-49022000D01*
X244786000Y-46924000D02*
X244790000Y-46924000D01*
X244790000Y-46924000D02*
X245491000Y-47625000D01*
X245491000Y-47625000D02*
X245491000Y-48989000D01*
X216500300Y-50523300D02*
X217504300Y-50523300D01*
X215171000Y-48090000D02*
X215171000Y-48100000D01*
X216361000Y-48090000D02*
X215171000Y-48090000D01*
X215171000Y-48100000D02*
X215011000Y-48260000D01*
X240100000Y-70275000D02*
X240100000Y-70900000D01*
X240100000Y-70900000D02*
X239250000Y-71750000D01*
X204100000Y-61350000D02*
X203100000Y-61350000D01*
X203100000Y-61350000D02*
X202750000Y-61000000D01*
X249400000Y-70270000D02*
X247770000Y-70270000D01*
X247770000Y-70270000D02*
X247750000Y-70250000D01*
X249400000Y-70270000D02*
X250270000Y-70270000D01*
X251875000Y-71875000D02*
X253025000Y-71875000D01*
X250270000Y-70270000D02*
X251875000Y-71875000D01*
X212690300Y-55923300D02*
X211922500Y-55923300D01*
X211922500Y-55923300D02*
X211242500Y-55243300D01*
X211062000Y-49149000D02*
X211062000Y-48413100D01*
X210562700Y-47913800D02*
X210562700Y-47129700D01*
X211062000Y-48413100D02*
X210562700Y-47913800D01*
X211062700Y-49148300D02*
X211062000Y-49149000D01*
X212690300Y-50523300D02*
X212690300Y-49622300D01*
X212217000Y-49149000D02*
X211062000Y-49149000D01*
X212690300Y-49622300D02*
X212217000Y-49149000D01*
X236200000Y-42300000D02*
X237175000Y-42300000D01*
X237175000Y-42300000D02*
X241050000Y-38425000D01*
X236100000Y-42300000D02*
X236200000Y-42300000D01*
X224975000Y-42300000D02*
X236100000Y-42300000D01*
X222200000Y-45075000D02*
X224975000Y-42300000D01*
X209525000Y-45075000D02*
X222200000Y-45075000D01*
X209425000Y-44975000D02*
X209525000Y-45075000D01*
X236536800Y-48653000D02*
X238506000Y-48653000D01*
X236321600Y-48437800D02*
X236536800Y-48653000D01*
X241681000Y-48989000D02*
X240251000Y-48989000D01*
X239915000Y-48653000D02*
X238506000Y-48653000D01*
X240251000Y-48989000D02*
X239915000Y-48653000D01*
X238633000Y-48780000D02*
X238506000Y-48653000D01*
X255397000Y-56019000D02*
X255397000Y-52832000D01*
X255872000Y-51214000D02*
X257048000Y-51214000D01*
X255397000Y-51689000D02*
X255872000Y-51214000D01*
X255397000Y-52832000D02*
X255397000Y-51689000D01*
X253400000Y-55325000D02*
X253400000Y-55900000D01*
X253555300Y-56055300D02*
X255383100Y-56055300D01*
X253400000Y-55900000D02*
X253555300Y-56055300D01*
D36*
X255397000Y-57519000D02*
X259195000Y-57519000D01*
X259676000Y-58000000D02*
X261962000Y-58000000D01*
X259195000Y-57519000D02*
X259676000Y-58000000D01*
X265500000Y-58000000D02*
X261962000Y-58000000D01*
X259588000Y-52324000D02*
X259588000Y-51214000D01*
X260223000Y-52959000D02*
X259588000Y-52324000D01*
X260223000Y-56261000D02*
X260223000Y-52959000D01*
X261962000Y-58000000D02*
X260223000Y-56261000D01*
X259700000Y-65875000D02*
X259250000Y-66325000D01*
X255725000Y-66325000D02*
X255284998Y-65884998D01*
X259250000Y-66325000D02*
X255725000Y-66325000D01*
X249400000Y-65190000D02*
X254590000Y-65190000D01*
X263075000Y-60425000D02*
X265500000Y-58000000D01*
X263075000Y-62500000D02*
X263075000Y-60425000D01*
X259700000Y-65875000D02*
X263075000Y-62500000D01*
X254590000Y-65190000D02*
X255284998Y-65884998D01*
X265500000Y-58000000D02*
X265500000Y-60950000D01*
D35*
X263918000Y-50038000D02*
X263180700Y-50038000D01*
X263180700Y-50038000D02*
X262496300Y-49353600D01*
X262496300Y-49353600D02*
X262496300Y-48717200D01*
X262496300Y-48717200D02*
X262039100Y-48260000D01*
X262039100Y-48260000D02*
X260921500Y-48260000D01*
X260921500Y-48260000D02*
X260731000Y-48260000D01*
X260731000Y-48260000D02*
X258191000Y-48260000D01*
X257048000Y-47117000D02*
X257048000Y-45814000D01*
X258191000Y-48260000D02*
X257048000Y-47117000D01*
X258445000Y-44050000D02*
X258426000Y-44050000D01*
X257800000Y-43424000D02*
X257800000Y-42675000D01*
X258426000Y-44050000D02*
X257800000Y-43424000D01*
X257800000Y-42675000D02*
X256825000Y-42675000D01*
X256825000Y-42675000D02*
X256750000Y-42750000D01*
X260875000Y-44050000D02*
X258445000Y-44050000D01*
X262250000Y-36825000D02*
X260825000Y-36825000D01*
X260825000Y-36825000D02*
X260750000Y-36750000D01*
X250600000Y-55325000D02*
X251375000Y-55325000D01*
X251950000Y-54750000D02*
X251950000Y-53025000D01*
X251375000Y-55325000D02*
X251950000Y-54750000D01*
X213960300Y-57470700D02*
X213960300Y-57623300D01*
X213960300Y-55923300D02*
X213960300Y-57470700D01*
X226949000Y-53594000D02*
X226949000Y-52578000D01*
X223393000Y-57150000D02*
X226949000Y-53594000D01*
X220472000Y-57150000D02*
X223393000Y-57150000D01*
X213960300Y-57623300D02*
X215011000Y-58674000D01*
D36*
X220027500Y-58737500D02*
X219583000Y-58737500D01*
X218567000Y-57721500D02*
X218567000Y-57736000D01*
X219583000Y-58737500D02*
X218567000Y-57721500D01*
X224790000Y-58737500D02*
X225527500Y-58000000D01*
X220027500Y-58737500D02*
X224790000Y-58737500D01*
X218567000Y-57736000D02*
X217531000Y-56700000D01*
X217531000Y-56700000D02*
X217531000Y-55000000D01*
X217531000Y-55000000D02*
X216274300Y-53743300D01*
X214424300Y-53743300D02*
X216274300Y-53743300D01*
X225527500Y-58000000D02*
X228500000Y-58000000D01*
X244000000Y-69000000D02*
X228300000Y-69000000D01*
X228300000Y-69000000D02*
X226125000Y-66825000D01*
X226125000Y-66825000D02*
X226125000Y-60375000D01*
X226125000Y-60375000D02*
X228500000Y-58000000D01*
X228500000Y-58000000D02*
X228500000Y-60950000D01*
X215244500Y-55937500D02*
X215230300Y-55923300D01*
X211242500Y-53743300D02*
X214424300Y-53743300D01*
X215230300Y-54549300D02*
X215230300Y-55923300D01*
X214424300Y-53743300D02*
X215230300Y-54549300D01*
D35*
X247523000Y-52578000D02*
X247523000Y-52832000D01*
X247523000Y-52832000D02*
X247142000Y-53213000D01*
X247142000Y-53213000D02*
X242951000Y-53213000D01*
X242951000Y-54389000D02*
X242951000Y-53213000D01*
D36*
X244082000Y-56896000D02*
X244082000Y-56146000D01*
X244221000Y-56007000D02*
X244221000Y-54389000D01*
X244082000Y-56146000D02*
X244221000Y-56007000D01*
X247000000Y-58000000D02*
X246087000Y-58000000D01*
X246087000Y-58000000D02*
X244983000Y-56896000D01*
X244983000Y-56896000D02*
X244082000Y-56896000D01*
X241850000Y-65278000D02*
X241850000Y-65236000D01*
X245550000Y-61536000D02*
X245550000Y-60700000D01*
X241850000Y-65236000D02*
X245550000Y-61536000D01*
X244000000Y-66460000D02*
X242260000Y-66460000D01*
X245550000Y-59450000D02*
X247000000Y-58000000D01*
X245550000Y-60700000D02*
X245550000Y-59450000D01*
X241850000Y-66050000D02*
X241850000Y-65278000D01*
X242260000Y-66460000D02*
X241850000Y-66050000D01*
X247000000Y-60950000D02*
X247000000Y-58000000D01*
X247000000Y-58000000D02*
X247000000Y-57100000D01*
D35*
X258318000Y-51214000D02*
X258318000Y-49784000D01*
X264414000Y-51689000D02*
X264414000Y-52578000D01*
X264160000Y-51435000D02*
X264414000Y-51689000D01*
X263779000Y-51435000D02*
X264160000Y-51435000D01*
X263017000Y-51435000D02*
X263779000Y-51435000D01*
X262382000Y-50800000D02*
X263017000Y-51435000D01*
X260985000Y-49403000D02*
X262382000Y-50800000D01*
X258699000Y-49403000D02*
X260985000Y-49403000D01*
X258318000Y-49784000D02*
X258699000Y-49403000D01*
X216500300Y-63119000D02*
X216500300Y-63719300D01*
X217781000Y-65000000D02*
X219000000Y-65000000D01*
X216500300Y-63719300D02*
X217781000Y-65000000D01*
X216500300Y-55923300D02*
X216500300Y-63119000D01*
X216500300Y-63119000D02*
X216500300Y-63130700D01*
X237500000Y-65000000D02*
X238530000Y-65000000D01*
X245491000Y-55880000D02*
X245491000Y-54389000D01*
X239268000Y-64262000D02*
X239268000Y-60579000D01*
X238530000Y-65000000D02*
X239268000Y-64262000D01*
X260858000Y-51214000D02*
X261589500Y-51214000D01*
X261589500Y-51214000D02*
X261937500Y-51562000D01*
X244786000Y-45024000D02*
X245425000Y-45024000D01*
X252669000Y-45151000D02*
X254819000Y-45151000D01*
X251968000Y-44450000D02*
X252669000Y-45151000D01*
X245999000Y-44450000D02*
X251968000Y-44450000D01*
X245425000Y-45024000D02*
X245999000Y-44450000D01*
X244786000Y-45024000D02*
X244786000Y-44411000D01*
X244786000Y-44411000D02*
X244140000Y-43765000D01*
X237835000Y-46190000D02*
X231866000Y-46190000D01*
X244140000Y-43765000D02*
X244030000Y-43875000D01*
X240150000Y-43875000D02*
X244030000Y-43875000D01*
X237835000Y-46190000D02*
X240150000Y-43875000D01*
X231866000Y-46190000D02*
X216361000Y-46190000D01*
X244140000Y-36540000D02*
X244140000Y-43765000D01*
X240575000Y-32975000D02*
X244140000Y-36540000D01*
X240575000Y-30450000D02*
X240575000Y-32975000D01*
X224790000Y-47140000D02*
X230760000Y-47140000D01*
X230760000Y-47140000D02*
X230800000Y-47100000D01*
X224791000Y-47140000D02*
X224790000Y-47140000D01*
X224790000Y-47140000D02*
X213961000Y-47140000D01*
X230800000Y-47100000D02*
X230760000Y-47140000D01*
X213961000Y-47140000D02*
X213961000Y-50522600D01*
X213961000Y-50522600D02*
X213960300Y-50523300D01*
X242951000Y-48989000D02*
X242951000Y-47752000D01*
X242386000Y-47187000D02*
X242386000Y-45974000D01*
X242951000Y-47752000D02*
X242386000Y-47187000D01*
X242386000Y-45974000D02*
X241554000Y-45974000D01*
X241554000Y-45974000D02*
X241427000Y-45847000D01*
X241427000Y-45847000D02*
X241452000Y-45872000D01*
X247650000Y-46101000D02*
X252419000Y-46101000D01*
X256032000Y-45085000D02*
X256032000Y-44577000D01*
X258318000Y-44958000D02*
X258318000Y-45814000D01*
X257556000Y-44196000D02*
X258318000Y-44958000D01*
X256413000Y-44196000D02*
X257556000Y-44196000D01*
X256032000Y-44577000D02*
X256413000Y-44196000D01*
X252419000Y-46101000D02*
X255397000Y-46101000D01*
X256032000Y-45466000D02*
X256032000Y-45085000D01*
X255397000Y-46101000D02*
X256032000Y-45466000D01*
X258318000Y-45212000D02*
X258318000Y-45814000D01*
X239250000Y-22650000D02*
X219500000Y-22650000D01*
X241450000Y-24850000D02*
X239250000Y-22650000D01*
X242250000Y-25650000D02*
X241450000Y-24850000D01*
X242250000Y-26550000D02*
X242250000Y-25650000D01*
X244665500Y-64198500D02*
X244284500Y-64198500D01*
X244000000Y-64483000D02*
X244000000Y-65190000D01*
X244284500Y-64198500D02*
X244000000Y-64483000D01*
X246477500Y-62450000D02*
X247000000Y-62450000D01*
X246126000Y-62801500D02*
X246477500Y-62450000D01*
X246126000Y-63309500D02*
X246126000Y-62801500D01*
X245237000Y-64198500D02*
X246126000Y-63309500D01*
X244665500Y-64198500D02*
X245237000Y-64198500D01*
X246565000Y-66435000D02*
X246565000Y-65185000D01*
X249000000Y-62750000D02*
X250500000Y-62750000D01*
X246565000Y-65185000D02*
X249000000Y-62750000D01*
X244000000Y-65190000D02*
X245320000Y-65190000D01*
X245320000Y-65190000D02*
X246565000Y-66435000D01*
X246565000Y-66435000D02*
X246590000Y-66460000D01*
X244000000Y-67730000D02*
X245320000Y-67730000D01*
X245320000Y-67730000D02*
X246590000Y-66460000D01*
X246590000Y-66460000D02*
X249400000Y-66460000D01*
X260950000Y-66460000D02*
X260950000Y-66475000D01*
X263315000Y-66460000D02*
X265500000Y-64275000D01*
X265500000Y-64275000D02*
X265500000Y-62450000D01*
X260950000Y-66460000D02*
X263315000Y-66460000D01*
X259075000Y-67450000D02*
X254875000Y-67450000D01*
X249400000Y-66460000D02*
X253885000Y-66460000D01*
X254875000Y-67450000D02*
X253885000Y-66460000D01*
X260950000Y-66475000D02*
X259975000Y-67450000D01*
X259975000Y-67450000D02*
X259075000Y-67450000D01*
X244000000Y-67730000D02*
X229805000Y-67730000D01*
X228500000Y-66425000D02*
X228500000Y-62450000D01*
X229805000Y-67730000D02*
X228500000Y-66425000D01*
X269150000Y-61250000D02*
X269150000Y-73475000D01*
X266887500Y-46912500D02*
X269150000Y-49175000D01*
X266887500Y-45562500D02*
X266887500Y-46912500D01*
X269150000Y-49175000D02*
X269150000Y-61250000D01*
X242335000Y-71540000D02*
X244000000Y-71540000D01*
X241675000Y-72200000D02*
X242335000Y-71540000D01*
X241675000Y-73650000D02*
X241675000Y-72200000D01*
X242750000Y-74725000D02*
X241675000Y-73650000D01*
X267900000Y-74725000D02*
X242750000Y-74725000D01*
X269150000Y-73475000D02*
X267900000Y-74725000D01*
X262250000Y-38325000D02*
X262250000Y-39300000D01*
X262250000Y-39300000D02*
X262447000Y-39497000D01*
X265412000Y-44087000D02*
X265412000Y-43071000D01*
X264124000Y-41783000D02*
X263108000Y-41783000D01*
X265412000Y-43071000D02*
X264124000Y-41783000D01*
X264160000Y-39497000D02*
X262447000Y-39497000D01*
X262447000Y-39497000D02*
X260822000Y-39497000D01*
X260985000Y-39497000D02*
X260985000Y-39660000D01*
X260822000Y-39497000D02*
X260985000Y-39497000D01*
X266936000Y-45611000D02*
X266887500Y-45562500D01*
X266887500Y-45562500D02*
X265412000Y-44087000D01*
X263108000Y-41783000D02*
X260985000Y-39660000D01*
X260985000Y-39660000D02*
X255675000Y-34350000D01*
X268487500Y-60987500D02*
X268487500Y-72562500D01*
X264033000Y-44333000D02*
X266128500Y-46428500D01*
X266128500Y-47603500D02*
X268487500Y-49962500D01*
X266128500Y-46428500D02*
X266128500Y-47603500D01*
X268487500Y-49962500D02*
X268487500Y-60987500D01*
X245860000Y-72810000D02*
X244000000Y-72810000D01*
X246900000Y-73850000D02*
X245860000Y-72810000D01*
X267200000Y-73850000D02*
X246900000Y-73850000D01*
X268487500Y-72562500D02*
X267200000Y-73850000D01*
X262375000Y-44050000D02*
X262850000Y-44050000D01*
X262975000Y-43925000D02*
X263368500Y-43531500D01*
X262850000Y-44050000D02*
X262975000Y-43925000D01*
X264033000Y-44196000D02*
X264033000Y-44333000D01*
X254600000Y-34925000D02*
X254762000Y-34925000D01*
X254762000Y-34925000D02*
X263368500Y-43531500D01*
X263368500Y-43531500D02*
X264033000Y-44196000D01*
X254625000Y-34925000D02*
X254600000Y-34925000D01*
X262420100Y-45250100D02*
X261912100Y-45250100D01*
X261620000Y-44958000D02*
X261620000Y-44450000D01*
X261912100Y-45250100D02*
X261620000Y-44958000D01*
X264439400Y-47752000D02*
X265400000Y-47752000D01*
X262420100Y-45250100D02*
X263650100Y-45250100D01*
X263650100Y-45250100D02*
X264013000Y-45613000D01*
X267950000Y-60575000D02*
X267950000Y-71350000D01*
X266490000Y-72810000D02*
X249400000Y-72810000D01*
X267950000Y-71350000D02*
X266490000Y-72810000D01*
X265400000Y-47752000D02*
X265400000Y-48350000D01*
X267950000Y-50900000D02*
X267950000Y-60575000D01*
X267950000Y-60575000D02*
X267950000Y-60625000D01*
X265400000Y-48350000D02*
X267950000Y-50900000D01*
X259300000Y-42675000D02*
X260700000Y-42675000D01*
X260700000Y-42675000D02*
X260887500Y-42487500D01*
X265400000Y-47752000D02*
X265303000Y-47752000D01*
X265303000Y-47752000D02*
X265400000Y-47752000D01*
X264013000Y-45613000D02*
X265400000Y-47000000D01*
X265400000Y-47752000D02*
X265400000Y-47000000D01*
X261620000Y-44450000D02*
X261620000Y-43220000D01*
X254600000Y-36200000D02*
X260887500Y-42487500D01*
X260887500Y-42487500D02*
X261620000Y-43220000D01*
X234050000Y-48125000D02*
X228081000Y-48125000D01*
X217081000Y-49175000D02*
X215581000Y-49175000D01*
X217406000Y-48850000D02*
X217081000Y-49175000D01*
X215230300Y-50523300D02*
X215230300Y-49525700D01*
X215581000Y-49175000D02*
X215230300Y-49525700D01*
X218131000Y-48125000D02*
X217406000Y-48850000D01*
X228081000Y-48125000D02*
X218131000Y-48125000D01*
X244221000Y-48133000D02*
X244221000Y-48989000D01*
X243459000Y-47371000D02*
X244221000Y-48133000D01*
X259588000Y-47498000D02*
X259588000Y-45814000D01*
X241363500Y-29845000D02*
X241427000Y-29781500D01*
X241427000Y-29781500D02*
X241427000Y-26543000D01*
X241427000Y-26543000D02*
X240792000Y-25908000D01*
X240792000Y-25908000D02*
X208851500Y-25908000D01*
X208851500Y-25908000D02*
X207391000Y-27368500D01*
X207391000Y-27391000D02*
X207391000Y-27368500D01*
X207400000Y-27400000D02*
X207391000Y-27391000D01*
X251750000Y-58000000D02*
X252250000Y-58000000D01*
X252175000Y-67675000D02*
X251750000Y-67250000D01*
X251750000Y-64250000D02*
X251750000Y-58000000D01*
X253025000Y-67675000D02*
X252175000Y-67675000D01*
X252250000Y-58000000D02*
X252750000Y-57500000D01*
X214500000Y-29200000D02*
X211200000Y-32500000D01*
X240050000Y-26650000D02*
X240550000Y-27150000D01*
X236600000Y-26650000D02*
X240050000Y-26650000D01*
X235700000Y-27550000D02*
X236600000Y-26650000D01*
X225400000Y-27550000D02*
X235700000Y-27550000D01*
X206400000Y-32500000D02*
X205100000Y-33800000D01*
X211200000Y-32500000D02*
X206400000Y-32500000D01*
X261350500Y-32500000D02*
X261350500Y-32350000D01*
X262700500Y-33850000D02*
X261350500Y-32500000D01*
X235375000Y-53173000D02*
X235375000Y-52381600D01*
X235375000Y-52381600D02*
X235394500Y-52362100D01*
X265418000Y-50038000D02*
X264731500Y-50038000D01*
X238506000Y-50153000D02*
X238506000Y-50927000D01*
X235375000Y-53173000D02*
X235375000Y-53169000D01*
X235375000Y-53169000D02*
X236220000Y-52324000D01*
X235375000Y-53173000D02*
X235164000Y-53173000D01*
X235164000Y-53173000D02*
X234315000Y-52324000D01*
X209562000Y-49149000D02*
X209042000Y-49149000D01*
X209042000Y-49149000D02*
X208153000Y-50038000D01*
X205740000Y-54536000D02*
X205179000Y-54536000D01*
X205179000Y-54536000D02*
X203835000Y-55880000D01*
X205740000Y-54536000D02*
X205740000Y-55372000D01*
X205740000Y-55372000D02*
X206248000Y-55880000D01*
X205740000Y-54536000D02*
X205740000Y-55245000D01*
X205740000Y-55245000D02*
X205105000Y-55880000D01*
X235375000Y-53173000D02*
X235545000Y-53173000D01*
X251950000Y-50125000D02*
X251815000Y-50125000D01*
X251815000Y-50125000D02*
X251210000Y-49520000D01*
X251210000Y-49520000D02*
X251210000Y-48550000D01*
X251950000Y-50125000D02*
X251950000Y-48580000D01*
X251950000Y-48580000D02*
X251990000Y-48540000D01*
X251950000Y-50125000D02*
X252495000Y-50125000D01*
X252495000Y-50125000D02*
X252820000Y-49800000D01*
X252820000Y-49800000D02*
X252820000Y-48530000D01*
X204100000Y-59850000D02*
X199900000Y-59850000D01*
X198750000Y-61000000D02*
X198750000Y-62500000D01*
X199900000Y-59850000D02*
X198750000Y-61000000D01*
X209500000Y-62500000D02*
X209500000Y-61000000D01*
X208350000Y-59850000D02*
X204100000Y-59850000D01*
X209500000Y-61000000D02*
X208350000Y-59850000D01*
X241600000Y-70275000D02*
X241600000Y-70900000D01*
X241600000Y-70900000D02*
X240750000Y-71750000D01*
X261650000Y-67675000D02*
X263575000Y-67675000D01*
X263575000Y-67675000D02*
X263750000Y-67500000D01*
X244000000Y-70270000D02*
X241605000Y-70270000D01*
X241605000Y-70270000D02*
X241600000Y-70275000D01*
X245999000Y-75692000D02*
X245999000Y-75750000D01*
X235500000Y-75750000D02*
X214750000Y-75750000D01*
X214750000Y-75750000D02*
X209000000Y-70000000D01*
X247790000Y-71540000D02*
X247750000Y-71500000D01*
X245999000Y-75750000D02*
X242500000Y-75750000D01*
X242500000Y-75750000D02*
X235500000Y-75750000D01*
X209000000Y-70000000D02*
X197750000Y-70000000D01*
X197750000Y-70000000D02*
X197000000Y-69250000D01*
X197000000Y-69250000D02*
X195750000Y-69250000D01*
X195750000Y-69250000D02*
X195250000Y-68750000D01*
X195250000Y-68750000D02*
X195250000Y-60750000D01*
X195250000Y-60750000D02*
X198250000Y-57750000D01*
X198250000Y-57750000D02*
X199000000Y-57750000D01*
X199000000Y-57750000D02*
X201500000Y-55250000D01*
X201500000Y-55250000D02*
X201500000Y-41500000D01*
X201500000Y-41500000D02*
X203000000Y-40000000D01*
X203000000Y-40000000D02*
X209750000Y-40000000D01*
X209750000Y-40000000D02*
X210750000Y-39000000D01*
X210750000Y-39000000D02*
X210750000Y-37500000D01*
X249400000Y-71540000D02*
X247790000Y-71540000D01*
X249400000Y-69000000D02*
X251200000Y-69000000D01*
X251375000Y-69175000D02*
X253025000Y-69175000D01*
X251200000Y-69000000D02*
X251375000Y-69175000D01*
X253025000Y-70375000D02*
X253025000Y-69175000D01*
X207200000Y-34500000D02*
X203100000Y-34500000D01*
X207700000Y-34000000D02*
X207200000Y-34500000D01*
X261654000Y-71856600D02*
X261654000Y-69179000D01*
X261654000Y-69179000D02*
X261650000Y-69175000D01*
X261650000Y-69175000D02*
X255725000Y-69175000D01*
X251080000Y-67730000D02*
X249400000Y-67730000D01*
X251775000Y-68425000D02*
X251080000Y-67730000D01*
X254975000Y-68425000D02*
X251775000Y-68425000D01*
X255725000Y-69175000D02*
X254975000Y-68425000D01*
D37*
G36*
X235499173Y-52176392D02*
X235842701Y-52319038D01*
X236214667Y-52319362D01*
X236558443Y-52177317D01*
X236560764Y-52175000D01*
X236873000Y-52175000D01*
X236873000Y-53671000D01*
X234127000Y-53671000D01*
X234127000Y-52175000D01*
X235497783Y-52175000D01*
X235499173Y-52176392D01*
X235499173Y-52176392D01*
G37*
X235499173Y-52176392D02*
X235842701Y-52319038D01*
X236214667Y-52319362D01*
X236558443Y-52177317D01*
X236560764Y-52175000D01*
X236873000Y-52175000D01*
X236873000Y-53671000D01*
X234127000Y-53671000D01*
X234127000Y-52175000D01*
X235497783Y-52175000D01*
X235499173Y-52176392D01*
G36*
X253123000Y-50373000D02*
X250877000Y-50373000D01*
X250877000Y-48127000D01*
X253123000Y-48127000D01*
X253123000Y-50373000D01*
X253123000Y-50373000D01*
G37*
X253123000Y-50373000D02*
X250877000Y-50373000D01*
X250877000Y-48127000D01*
X253123000Y-48127000D01*
X253123000Y-50373000D01*
G36*
X207622673Y-50830192D02*
X207966201Y-50972838D01*
X208338167Y-50973162D01*
X208681943Y-50831117D01*
X208713114Y-50800000D01*
X209550000Y-50800000D01*
X209550000Y-52578000D01*
X204470000Y-52578000D01*
X204470000Y-50800000D01*
X207592534Y-50800000D01*
X207622673Y-50830192D01*
X207622673Y-50830192D01*
G37*
X207622673Y-50830192D02*
X207966201Y-50972838D01*
X208338167Y-50973162D01*
X208681943Y-50831117D01*
X208713114Y-50800000D01*
X209550000Y-50800000D01*
X209550000Y-52578000D01*
X204470000Y-52578000D01*
X204470000Y-50800000D01*
X207592534Y-50800000D01*
X207622673Y-50830192D01*
G36*
X210210400Y-54686200D02*
X210248051Y-54719725D01*
X210312000Y-54737000D01*
X211582000Y-54737000D01*
X211582000Y-55372000D01*
X210364606Y-55372000D01*
X210020803Y-55028197D01*
X209978789Y-55000334D01*
X209931000Y-54991000D01*
X208153000Y-54991000D01*
X208153000Y-53721000D01*
X209486500Y-53721000D01*
X210210400Y-54686200D01*
X210210400Y-54686200D01*
G37*
X210210400Y-54686200D02*
X210248051Y-54719725D01*
X210312000Y-54737000D01*
X211582000Y-54737000D01*
X211582000Y-55372000D01*
X210364606Y-55372000D01*
X210020803Y-55028197D01*
X209978789Y-55000334D01*
X209931000Y-54991000D01*
X208153000Y-54991000D01*
X208153000Y-53721000D01*
X209486500Y-53721000D01*
X210210400Y-54686200D01*
G36*
X207264000Y-56261000D02*
X203581000Y-56261000D01*
X203581000Y-53975000D01*
X207264000Y-53975000D01*
X207264000Y-56261000D01*
X207264000Y-56261000D01*
G37*
X207264000Y-56261000D02*
X203581000Y-56261000D01*
X203581000Y-53975000D01*
X207264000Y-53975000D01*
X207264000Y-56261000D01*
G36*
X236728000Y-57404000D02*
X236738006Y-57453410D01*
X236765197Y-57493803D01*
X236892197Y-57620803D01*
X236934211Y-57648666D01*
X236982000Y-57658000D01*
X238633000Y-57658000D01*
X238633000Y-58674000D01*
X234240606Y-58674000D01*
X234061000Y-58494394D01*
X234061000Y-55626000D01*
X236728000Y-55626000D01*
X236728000Y-57404000D01*
X236728000Y-57404000D01*
G37*
X236728000Y-57404000D02*
X236738006Y-57453410D01*
X236765197Y-57493803D01*
X236892197Y-57620803D01*
X236934211Y-57648666D01*
X236982000Y-57658000D01*
X238633000Y-57658000D01*
X238633000Y-58674000D01*
X234240606Y-58674000D01*
X234061000Y-58494394D01*
X234061000Y-55626000D01*
X236728000Y-55626000D01*
X236728000Y-57404000D01*
G36*
X241935000Y-56261000D02*
X241945006Y-56310410D01*
X241973447Y-56352035D01*
X242015841Y-56379315D01*
X242062000Y-56388000D01*
X243078000Y-56388000D01*
X243078000Y-58928000D01*
X240284000Y-58928000D01*
X240284000Y-57658000D01*
X241173000Y-57658000D01*
X241222410Y-57647994D01*
X241264035Y-57619553D01*
X241291315Y-57577159D01*
X241300000Y-57531000D01*
X241300000Y-53594000D01*
X241935000Y-53594000D01*
X241935000Y-56261000D01*
X241935000Y-56261000D01*
G37*
X241935000Y-56261000D02*
X241945006Y-56310410D01*
X241973447Y-56352035D01*
X242015841Y-56379315D01*
X242062000Y-56388000D01*
X243078000Y-56388000D01*
X243078000Y-58928000D01*
X240284000Y-58928000D01*
X240284000Y-57658000D01*
X241173000Y-57658000D01*
X241222410Y-57647994D01*
X241264035Y-57619553D01*
X241291315Y-57577159D01*
X241300000Y-57531000D01*
X241300000Y-53594000D01*
X241935000Y-53594000D01*
X241935000Y-56261000D01*
G36*
X260732069Y-53139675D02*
X260794526Y-56200091D01*
X260805538Y-56249287D01*
X260834639Y-56290151D01*
X261596639Y-57004526D01*
X261639529Y-57031020D01*
X261689348Y-57038740D01*
X261738245Y-57026470D01*
X261742853Y-57023000D01*
X265366500Y-57023000D01*
X265366500Y-58039000D01*
X261788917Y-58039000D01*
X261772053Y-58014319D01*
X261729659Y-57987039D01*
X261674958Y-57978642D01*
X259837730Y-58102500D01*
X259334000Y-58102500D01*
X259284590Y-58112506D01*
X259242965Y-58140947D01*
X259226844Y-58166000D01*
X254889000Y-58166000D01*
X254889000Y-57277000D01*
X259226633Y-57277000D01*
X259245447Y-57304535D01*
X259287841Y-57331815D01*
X259337509Y-57340452D01*
X259386623Y-57329084D01*
X259431564Y-57294803D01*
X260066564Y-56532803D01*
X260090509Y-56488440D01*
X260095983Y-56449418D01*
X260034599Y-52705000D01*
X260297394Y-52705000D01*
X260732069Y-53139675D01*
X260732069Y-53139675D01*
G37*
X260732069Y-53139675D02*
X260794526Y-56200091D01*
X260805538Y-56249287D01*
X260834639Y-56290151D01*
X261596639Y-57004526D01*
X261639529Y-57031020D01*
X261689348Y-57038740D01*
X261738245Y-57026470D01*
X261742853Y-57023000D01*
X265366500Y-57023000D01*
X265366500Y-58039000D01*
X261788917Y-58039000D01*
X261772053Y-58014319D01*
X261729659Y-57987039D01*
X261674958Y-57978642D01*
X259837730Y-58102500D01*
X259334000Y-58102500D01*
X259284590Y-58112506D01*
X259242965Y-58140947D01*
X259226844Y-58166000D01*
X254889000Y-58166000D01*
X254889000Y-57277000D01*
X259226633Y-57277000D01*
X259245447Y-57304535D01*
X259287841Y-57331815D01*
X259337509Y-57340452D01*
X259386623Y-57329084D01*
X259431564Y-57294803D01*
X260066564Y-56532803D01*
X260090509Y-56488440D01*
X260095983Y-56449418D01*
X260034599Y-52705000D01*
X260297394Y-52705000D01*
X260732069Y-53139675D01*
G36*
X251968000Y-56134000D02*
X249936000Y-56134000D01*
X249936000Y-54414413D01*
X250780651Y-53690426D01*
X250811654Y-53650673D01*
X250825000Y-53594000D01*
X250825000Y-52705000D01*
X251968000Y-52705000D01*
X251968000Y-56134000D01*
X251968000Y-56134000D01*
G37*
X251968000Y-56134000D02*
X249936000Y-56134000D01*
X249936000Y-54414413D01*
X250780651Y-53690426D01*
X250811654Y-53650673D01*
X250825000Y-53594000D01*
X250825000Y-52705000D01*
X251968000Y-52705000D01*
X251968000Y-56134000D01*
G36*
X257302000Y-51943000D02*
X255778000Y-51943000D01*
X255728590Y-51953006D01*
X255686965Y-51981447D01*
X255659685Y-52023841D01*
X255651000Y-52070000D01*
X255651000Y-56134000D01*
X252984000Y-56134000D01*
X252984000Y-54864000D01*
X253873000Y-54864000D01*
X253922410Y-54853994D01*
X253964035Y-54825553D01*
X253991315Y-54783159D01*
X254000000Y-54737000D01*
X254000000Y-51181000D01*
X257302000Y-51181000D01*
X257302000Y-51943000D01*
X257302000Y-51943000D01*
G37*
X257302000Y-51943000D02*
X255778000Y-51943000D01*
X255728590Y-51953006D01*
X255686965Y-51981447D01*
X255659685Y-52023841D01*
X255651000Y-52070000D01*
X255651000Y-56134000D01*
X252984000Y-56134000D01*
X252984000Y-54864000D01*
X253873000Y-54864000D01*
X253922410Y-54853994D01*
X253964035Y-54825553D01*
X253991315Y-54783159D01*
X254000000Y-54737000D01*
X254000000Y-51181000D01*
X257302000Y-51181000D01*
X257302000Y-51943000D01*
M02*
